<?xml version="1.0" encoding="UTF-8"?>
<svg xmlns="http://www.w3.org/2000/svg" onmouseup="{ if(window.parent.document.onmouseup) window.parent.document.onmouseup(arguments[0]);}" xml:space="preserve" style="enable-background:new 0 0 1667.6 788;" viewBox="0 0 1667.6 788" y="0px" x="0px" id="Layer_1" version="1.1" xmlns:xlink="http://www.w3.org/1999/xlink"><style type="text/css">
	.st0{fill:#D36060;}
	.st1{opacity:0.7;fill:#FFFFFF;enable-background:new    ;}
	.st2{fill:#263238;}
	.st3{fill:none;stroke:#263238;stroke-linecap:round;stroke-linejoin:round;}
	.st4{fill:none;stroke:#263238;stroke-width:0.5;stroke-linecap:round;stroke-linejoin:round;}
	.st5{fill:#FFFFFF;}
	.st6{fill:none;stroke:#263238;stroke-width:2;stroke-miterlimit:10;}
	.st7{fill:#FFFFFF;stroke:#263238;stroke-linecap:round;stroke-linejoin:round;}
	.st8{fill:#263238;stroke:#263238;stroke-linecap:round;stroke-linejoin:round;}
	.st9{fill:#D36060;stroke:#263238;stroke-linecap:round;stroke-linejoin:round;}
	.st10{fill:#263238;stroke:#263238;stroke-miterlimit:10;}
	.st11{clip-path:url(#SVGID_2_);}
	.st12{opacity:0.3;enable-background:new    ;}
	.st13{fill:none;stroke:#263238;stroke-width:0.94;stroke-linecap:round;stroke-linejoin:round;}
	.st14{fill:none;stroke:#FFFFFF;stroke-width:0.47;stroke-linecap:round;stroke-linejoin:round;}
	.st15{fill:#FFFFFF;stroke:#070707;stroke-miterlimit:10;}
</style><g id="Layer_2_1_"><g id="Layer_1-2"><g id="freepik--background-simple--inject-1--inject-425"><path data-cppathid="10000" d="M962.3,124.2c-84.4-39-186.1-40.9-273.8-11.5c-88.5,29.7-180,104.6-188.3,204c-6.2,73,51.2,118.5,61.2,186.6     c6.1,41.3-13.1,77-16.1,116.9c-2.5,34,9.7,66.4,32.2,91.6c69.8,78.3,206,108.6,288,31.5c32.2-30.3,60.8-72.1,104.6-87     c87.9-30,222.1-37.6,235.4-154.8c8.1-71.4-35.9-137.6-72.9-194.8C1086.3,235.4,1042.5,161.2,962.3,124.2z" class="st0"/><path data-cppathid="10001" d="M962.3,124.2c-84.4-39-186.1-40.9-273.8-11.5c-88.5,29.7-180,104.6-188.3,204c-6.2,73,51.2,118.5,61.2,186.6     c6.1,41.3-13.1,77-16.1,116.9c-2.5,34,9.7,66.4,32.2,91.6c69.8,78.3,206,108.6,288,31.5c32.2-30.3,60.8-72.1,104.6-87     c87.9-30,222.1-37.6,235.4-154.8c8.1-71.4-35.9-137.6-72.9-194.8C1086.3,235.4,1042.5,161.2,962.3,124.2z" class="st1"/><path data-cppathid="10002" d="M962.3,124.2c-84.4-39-186.1-40.9-273.8-11.5c-88.5,29.7-180,104.6-188.3,204c-6.2,73,51.2,118.5,61.2,186.6     c6.1,41.3-13.1,77-16.1,116.9c-2.5,34,9.7,66.4,32.2,91.6c69.8,78.3,206,108.6,288,31.5c32.2-30.3,60.8-72.1,104.6-87     c87.9-30,222.1-37.6,235.4-154.8c8.1-71.4-35.9-137.6-72.9-194.8C1086.3,235.4,1042.5,161.2,962.3,124.2z" class="st0"/><path data-cppathid="10003" d="M962.3,124.2c-84.4-39-186.1-40.9-273.8-11.5c-88.5,29.7-180,104.6-188.3,204c-6.2,73,51.2,118.5,61.2,186.6     c6.1,41.3-13.1,77-16.1,116.9c-2.5,34,9.7,66.4,32.2,91.6c69.8,78.3,206,108.6,288,31.5c32.2-30.3,60.8-72.1,104.6-87     c87.9-30,222.1-37.6,235.4-154.8c8.1-71.4-35.9-137.6-72.9-194.8C1086.3,235.4,1042.5,161.2,962.3,124.2z" class="st1"/></g><g id="freepik--Window--inject-1--inject-425"><rect data-cppathid="10004" height="6.9" width="753.9" class="st2" y="493.4" x="451.7"/><path data-cppathid="10005" d="M981.7,409.5c1.5,0.4,3,0.5,4.5,0.5c0,0-0.7-2-0.8-2.2c-0.7-1.5-2.9-3.9-4.7-3.6c-1.2,0.2-2,1.2-1.8,2.4l0,0     c0,0.1,0,0.2,0,0.3C979.4,408.1,980.4,409.1,981.7,409.5z" class="st2"/><path data-cppathid="10006" d="M1023.7,398.5c-1.8-0.2-4,2.3-4.6,3.8c0,0.1-0.7,2.3-0.7,2.3l0,0l-1.1,1.3c-0.7,0.9-1.5,1.9-2.3,3     c-0.9,1.2-1.7,2.5-2.4,3.8c-0.8,1.5-1.5,3-2,4.6l0,0v-2.1c-0.2-1.6-1.6-4.6-3.4-5c-1.2-0.2-2.3,0.6-2.5,1.8l0,0     c0,0.1,0,0.1,0,0.2c0.1,1.3,0.7,2.6,1.7,3.4c1.3,0.8,2.6,1.5,4.1,1.9c-0.5,1.6-0.9,3.3-1.2,5c-0.2,1-0.3,2-0.4,3v-0.9     c-0.2-1.6-1.6-4.6-3.4-4.9c-1.2-0.2-2.3,0.6-2.5,1.8c0,0.1,0,0.2,0,0.2c0.1,1.3,0.7,2.6,1.7,3.4c1.2,0.8,2.6,1.4,4,1.8     c0,0.4-0.1,0.8-0.1,1.1c-0.2,1.8-0.4,3.7-0.7,5.5c-0.1,0.6-0.2,1.3-0.3,1.9c0-0.3,0-0.5,0-0.8c-0.2-1.6-1.6-4.6-3.4-5     c-1.2-0.2-2.3,0.6-2.5,1.8c0,0.1,0,0.1,0,0.2c0.1,1.3,0.7,2.6,1.8,3.4c1.2,0.8,2.5,1.4,3.8,1.8c-0.1,0.6-0.3,1.3-0.4,1.9     s-0.2,0.8-0.3,1.2s-0.3,0.8-0.4,1.2c-0.3,0.8-0.5,1.5-0.8,2.3l-0.6,1.5c0.1-0.6,0.3-1.9,0.3-2c0-1.4-0.4-2.8-1.1-4     c0-0.2,0-0.3,0-0.5c-0.2-1.2-1.2-2-2.4-1.9h-0.2c-1.8,0.5-2.9,3.6-3,5.2c0,0.6,0,1.2,0.1,1.8c0-0.4-0.1-0.8-0.3-1.1     c-0.2-0.8-0.4-1.6-0.6-2.4l-0.4-1.2c-0.1-0.4-0.3-0.8-0.4-1.2c-0.3-1-0.8-1.9-1.2-2.9c1.4-0.3,2.8-0.8,4-1.5     c1.1-0.7,1.8-1.9,2-3.2c0-1.2-0.9-2.2-2.1-2.2l0,0h-0.2c-1.8,0.2-3.4,3.1-3.7,4.7c0,0.1-0.1,1.3-0.2,1.9     c-0.3-0.6-0.5-1.1-0.8-1.7c-0.8-1.6-1.7-3.3-2.5-4.9l-0.8-1.5c1.5-0.3,2.9-0.8,4.2-1.6c1.1-0.7,1.8-1.9,2-3.3     c0-1.2-0.9-2.2-2.1-2.2h-0.2c-1.8,0.2-3.4,3.1-3.7,4.7c0,0.1-0.2,1.8-0.2,2.2c-0.6-1.1-1.1-2.2-1.7-3.3c-0.7-1.5-1.3-3-1.8-4.6     c1.5-0.3,2.9-0.8,4.3-1.6c1.1-0.8,1.8-1.9,2-3.3c0-1.2-0.9-2.2-2.1-2.2h-0.2c-1.8,0.2-3.4,3.1-3.7,4.7c0,0.1-0.2,2-0.2,2.3     l-0.1-0.3c-0.5-1.6-0.8-3.2-0.9-4.9c-0.1-0.9-0.2-1.8-0.2-2.6c1.5-0.1,3-0.4,4.4-1c1.2-0.6,2-1.7,2.3-3c0.2-1.2-0.7-2.3-1.9-2.5     h-0.1c-1.8,0-3.7,2.7-4.2,4.3l-0.3,1.6v-1.1c0-1.3,0-2.5,0.2-3.8c0-0.6,0.1-1.2,0.2-1.8c1.2-0.8,2.4-1.8,3.3-2.9     c0.8-1.1,1-2.5,0.7-3.8c-0.4-1.1-1.6-1.7-2.7-1.3l0,0l-0.2,0.1c-1.6,0.8-2,4-1.8,5.7c0,0.1,0.7,2.3,0.7,2.3l0,0     c0,0.6-0.1,1.1-0.2,1.7c0,1.1-0.2,2.4-0.3,3.8c-0.1,1.5,0,3,0.1,4.5c0.1,1.7,0.4,3.3,0.8,5l0,0c-0.3-0.5-1.1-1.7-1.2-1.8     c-1.1-1.2-3.8-3-5.5-2.3c-1.1,0.5-1.6,1.8-1.1,2.8l0,0c0,0.1,0.1,0.1,0.1,0.2c0.8,1.1,2,1.8,3.3,1.9c1.5,0,3-0.2,4.5-0.7     c0.5,1.6,1,3.2,1.7,4.8c0.4,0.9,0.8,1.8,1.3,2.7c-0.3-0.4-0.5-0.7-0.5-0.8c-1.1-1.2-3.8-3-5.5-2.3c-1.1,0.5-1.6,1.8-1.1,2.9l0,0     l0.1,0.2c0.8,1.1,2,1.8,3.3,1.9c1.5,0,2.9-0.2,4.3-0.7c0.2,0.4,0.3,0.7,0.5,1c0.8,1.7,1.7,3.3,2.4,4.9c0.3,0.6,0.5,1.2,0.8,1.7     l-0.5-0.7c-1.1-1.2-3.9-3-5.6-2.3c-1.1,0.5-1.6,1.8-1.1,2.9c0,0.1,0.1,0.1,0.1,0.2c0.8,1.1,2,1.8,3.3,1.9c1.4,0,2.8-0.2,4.2-0.6     c0.2,0.6,0.5,1.2,0.7,1.8s0.3,0.8,0.4,1.2s0.2,0.8,0.3,1.2c0.2,0.8,0.4,1.6,0.5,2.4s0.2,1,0.3,1.5l-0.8-1.8     c-0.9-1.4-3.4-3.5-5.2-3.1c-1.1,0.3-1.8,1.5-1.5,2.6l0,0l0.1,0.3c0.6,1.2,1.7,2.1,3,2.4c1.5,0.2,3,0.2,4.5,0     c0.2,0.9,0.3,1.7,0.5,2.5c0.5,2.7,0.8,5,1,6.6v0.8h-5.5l2,39.2h9.3l2-39.2h-5.1l0.1-0.2c0.7-1.5,1.7-3.6,2.7-6.1l1-2.6     c1.5,0.3,3,0.4,4.5,0.4c1.3-0.2,2.4-0.9,3.2-2c0.5-1.1,0.1-2.4-1-2.9l0,0l-0.2-0.1c-1.7-0.6-4.4,1.4-5.3,2.7c0,0-0.6,1-0.9,1.6     l0.4-1.1c0.3-0.8,0.5-1.5,0.8-2.3l0.4-1.2c0.1-0.4,0.2-0.8,0.3-1.3c0.3-1,0.4-2,0.6-3c1.4,0.6,2.8,0.9,4.2,1     c1.3,0,2.6-0.6,3.4-1.6c0.7-1,0.4-2.3-0.5-3l-0.2-0.1c-1.6-0.8-4.5,0.7-5.7,1.9c0,0-0.8,1-1.2,1.5c0-0.6,0.1-1.3,0.3-1.9     c0.2-1.8,0.4-3.6,0.6-5.5c0-0.6,0.1-1.1,0.2-1.7c1.4,0.6,2.9,0.9,4.4,1c1.3,0,2.6-0.6,3.5-1.6c0.7-1,0.4-2.3-0.5-3l-0.2-0.1     c-1.6-0.9-4.5,0.7-5.7,1.8c0,0-1.2,1.4-1.4,1.8c0.1-1.2,0.3-2.5,0.5-3.7c0.2-1.6,0.6-3.2,1-4.8c1.4,0.6,2.9,0.9,4.4,1     c1.3,0,2.6-0.6,3.5-1.6c0.7-1,0.4-2.3-0.5-3c-0.1,0-0.1-0.1-0.2-0.1c-1.6-0.9-4.5,0.7-5.7,1.8c0,0.1-1.2,1.5-1.4,1.8     c0-0.1,0-0.2,0-0.3c0.5-1.6,1.1-3.1,1.9-4.6c0.4-0.8,0.9-1.6,1.3-2.3c1.3,0.7,2.7,1.2,4.2,1.5c1.3,0.1,2.7-0.3,3.6-1.2     c0.8-0.9,0.7-2.3-0.2-3.1l0,0l-0.2-0.1c-1.5-1-4.6,0.2-5.8,1.2c0,0-0.7,0.7-1.2,1.1l0.6-1c0.8-1.1,1.5-2.2,2.2-3.1l1.1-1.4     c1.5,0,2.9-0.2,4.4-0.6c1.2-0.5,2.2-1.5,2.6-2.8c0.3-1.2-0.4-2.4-1.6-2.7C1023.9,398.5,1023.8,398.5,1023.7,398.5L1023.7,398.5z      M1003.6,447.4c-1.1,2.5-2,4.6-2.8,6.1c-0.2,0.3-0.3,0.5-0.4,0.8h-0.1c0-0.3,0-0.6-0.1-0.9c-0.2-1.6-0.6-3.9-1.1-6.6     c-0.2-0.9-0.4-1.8-0.6-2.7c0.9-0.3,1.7-0.7,2.5-1.2c1.1,0.9,2.3,1.7,3.6,2.4L1003.6,447.4z" class="st2"/><path data-cppathid="10007" d="M1014.2,410.2c0,0,0.6-2.1,0.6-2.3c0.2-1.6-0.3-4.9-2-5.7c-1.1-0.5-2.4,0-2.8,1.1l0,0c0,0.1-0.1,0.2-0.1,0.2     c-0.3,1.3,0,2.7,0.8,3.7C1011.6,408.4,1012.8,409.4,1014.2,410.2z" class="st2"/><path data-cppathid="10008" d="M546.7,413.6c1.4,0.4,2.9,0.5,4.3,0.5c0,0-0.7-2-0.7-2.1c-0.7-1.4-2.8-3.7-4.5-3.5c-1.1,0.1-1.9,1.1-1.7,2.2     c0,0,0,0,0,0.1s0,0.2,0.1,0.3C544.6,412.2,545.5,413.1,546.7,413.6z" class="st2"/><path data-cppathid="10009" d="M586.7,403.2c-1.7-0.2-3.8,2.2-4.4,3.6c0,0.1-0.7,2.1-0.7,2.1l0,0c-0.3,0.4-0.7,0.8-1.1,1.2     c-0.7,0.8-1.4,1.8-2.2,2.9c-0.8,1.2-1.6,2.4-2.3,3.6c-0.8,1.4-1.5,2.9-2,4.4l0,0v-2c-0.2-1.5-1.5-4.4-3.2-4.7     c-1.1-0.2-2.1,0.5-2.3,1.6c0,0,0,0,0,0.1s0,0.3,0,0.4c0,1.3,0.6,2.4,1.6,3.2c1.2,0.8,2.5,1.4,3.9,1.8c-0.5,1.5-0.9,3.1-1.1,4.7     c-0.2,0.9-0.3,1.9-0.4,2.8V428c-0.2-1.5-1.5-4.4-3.2-4.7c-1.1-0.2-2.1,0.5-2.3,1.6c0,0,0,0,0,0.1v0.3c0,1.3,0.7,2.4,1.7,3.2     c1.2,0.8,2.4,1.4,3.8,1.8c0,0.4,0,0.7-0.2,1.1c-0.2,1.7-0.4,3.5-0.7,5.2l-0.3,1.8v-0.8c-0.2-1.5-1.5-4.4-3.2-4.7     c-1.1-0.2-2.1,0.5-2.3,1.6l0,0c0,0.1,0,0.3,0,0.4c0,1.3,0.6,2.4,1.6,3.2c1.1,0.8,2.4,1.3,3.7,1.7c-0.1,0.6-0.3,1.2-0.4,1.8     c-0.1,0.4-0.2,0.8-0.3,1.2l-0.4,1.1c-0.3,0.7-0.5,1.5-0.8,2.1s-0.4,1-0.6,1.4c0.1-0.6,0.3-1.8,0.3-1.9c0-1.4-0.4-2.7-1.1-3.9     c0-0.2,0-0.3,0-0.5c-0.1-1.1-1.1-1.9-2.2-1.8c0,0,0,0-0.1,0l-0.3,0.1c-1.7,0.4-2.7,3.4-2.8,4.9v1.7l-0.2-1.1     c-0.2-0.8-0.4-1.5-0.6-2.3c-0.1-0.4-0.2-0.8-0.3-1.1s-0.3-0.8-0.4-1.2c-0.3-0.9-0.7-1.8-1.1-2.7c1.4-0.3,2.7-0.8,3.9-1.5     c1-0.7,1.7-1.8,1.9-3.1c0-1.1-0.9-2-2-2h-0.2c-1.7,0.2-3.2,2.9-3.5,4.5c0,0.1-0.1,1.2-0.2,1.8c-0.3-0.5-0.5-1.1-0.8-1.6     c-0.8-1.6-1.6-3.1-2.4-4.7l-0.8-1.4c1.4-0.3,2.7-0.8,4-1.5c1.1-0.7,1.7-1.8,1.9-3.1c0-1.1-0.9-2-2-2h-0.2c-1.7,0.2-3.2,3-3.5,4.5     c0,0.1-0.2,1.7-0.2,2.1c-0.5-1-1.1-2-1.6-3.2c-0.7-1.4-1.2-2.9-1.7-4.4c1.4-0.3,2.8-0.8,4.1-1.5c1.1-0.7,1.7-1.8,1.9-3.1     c0-1.1-0.9-2-2-2H556c-1.7,0.2-3.2,2.9-3.5,4.5c0,0.1-0.2,1.9-0.2,2.2v-0.3c-0.4-1.5-0.7-3.1-0.9-4.6c0-0.9-0.1-1.7-0.2-2.5     c1.4-0.1,2.7-0.5,4-1c1.1-0.6,1.9-1.6,2.2-2.9c0.2-1.1-0.6-2.1-1.7-2.3l0,0c-0.1,0-0.2,0-0.3,0c-1.7,0-3.5,2.6-4,4.1     c0,0-0.2,0.9-0.3,1.5V413c0-1.2,0-2.4,0.2-3.6c0-0.6,0.1-1.1,0.2-1.7c1.2-0.8,2.2-1.7,3.1-2.8c0.7-1,1-2.3,0.7-3.6     c-0.3-1-1.5-1.6-2.5-1.3c0,0,0,0-0.1,0l-0.2,0.1c-1.6,0.8-2,3.9-1.7,5.4c0,0.1,0.6,2.2,0.6,2.1l0,0c0,0.5-0.1,1-0.2,1.6     c0,1-0.2,2.3-0.3,3.6c-0.1,1.4-0.1,2.8,0,4.3c0.1,1.6,0.4,3.2,0.8,4.7l0,0l-1.2-1.7c-1-1.2-3.7-2.9-5.3-2.2c-1,0.4-1.5,1.6-1,2.6     l0,0c0,0.1,0.1,0.2,0.1,0.3c0.7,1,1.9,1.7,3.1,1.8c1.4,0,2.9-0.2,4.2-0.6c0.5,1.6,1,3.1,1.7,4.6c0.4,0.9,0.8,1.7,1.2,2.6     l-0.5-0.7c-1-1.2-3.7-2.8-5.3-2.2c-1,0.4-1.5,1.6-1,2.6l0,0l0.1,0.3c0.7,1,1.9,1.7,3.2,1.8c1.4,0,2.7-0.2,4-0.6l0.5,1     c0.8,1.6,1.6,3.1,2.3,4.7l0.7,1.6l-0.5-0.6c-1-1.2-3.7-2.9-5.3-2.2c-1,0.4-1.5,1.6-1,2.6l0,0c0,0.1,0.1,0.2,0.1,0.3     c0.7,1,1.9,1.7,3.1,1.8c1.4,0,2.7-0.2,4-0.6c0.2,0.6,0.5,1.1,0.7,1.7s0.3,0.8,0.4,1.1s0.2,0.8,0.3,1.2c0.2,0.7,0.4,1.5,0.5,2.2     l0.3,1.5l-0.8-1.7c-0.8-1.3-3.2-3.4-4.9-2.9c-1.1,0.3-1.7,1.3-1.5,2.4c0,0,0,0,0,0.1s0.1,0.2,0.1,0.3c0.6,1.1,1.6,1.9,2.9,2.2     c1.4,0.2,2.8,0.2,4.3,0c0.2,0.8,0.3,1.6,0.5,2.3c0.4,2.6,0.7,4.7,0.9,6.3v0.8h-5.2l1.9,37.3h8.9l1.9-37.3h-4.9v-0.2     c0.7-1.4,1.6-3.4,2.6-5.9c0.3-0.8,0.7-1.6,1-2.5c1.4,0.3,2.8,0.5,4.3,0.3c1.2-0.2,2.3-0.9,3-2c0.5-1,0.1-2.2-0.8-2.7     c0,0,0,0-0.1,0l-0.3-0.1c-1.6-0.5-4,1.3-5.1,2.6l-0.8,1.5c0.1-0.3,0.3-0.7,0.4-1c0.3-0.7,0.5-1.4,0.8-2.2     c0.1-0.4,0.2-0.8,0.3-1.1s0.2-0.8,0.3-1.2c0.2-1,0.4-1.9,0.6-2.9c1.3,0.5,2.7,0.8,4.1,0.9c1.3,0,2.5-0.6,3.3-1.5     c0.7-0.9,0.5-2.1-0.4-2.8l0,0c-0.1-0.1-0.2-0.1-0.3-0.2c-1.5-0.8-4.3,0.7-5.4,1.8c0,0-0.8,0.9-1.2,1.4c0-0.6,0.1-1.2,0.3-1.8     c0.2-1.7,0.4-3.5,0.5-5.2c0-0.5,0-1.1,0.2-1.6c1.3,0.5,2.7,0.9,4.2,1c1.3,0,2.5-0.6,3.3-1.5c0.7-0.9,0.5-2.1-0.4-2.8l0,0     l-0.2-0.1c-1.5-0.8-4.3,0.7-5.4,1.8c0,0-1.1,1.3-1.3,1.7c0.1-1.2,0.2-2.3,0.4-3.5c0.2-1.5,0.6-3.1,1-4.6c1.3,0.5,2.8,0.9,4.2,1     c1.3,0,2.4-0.6,3.3-1.5c0.7-0.9,0.5-2.1-0.4-2.8l0,0l-0.3-0.2c-1.5-0.8-4.3,0.7-5.4,1.8c0,0-1.2,1.4-1.3,1.7c0-0.1,0-0.2,0-0.3     c0.5-1.5,1.1-2.9,1.8-4.3c0.4-0.8,0.8-1.5,1.2-2.2c1.2,0.7,2.6,1.2,4,1.4c1.3,0.1,2.5-0.3,3.4-1.2c0.8-0.8,0.7-2.1-0.1-2.8l0,0     l-0.2-0.2c-1.4-1-4.4,0.2-5.6,1.2l-1.1,1.1c0.2-0.3,0.4-0.6,0.6-0.9c0.7-1.1,1.5-2,2-2.9c0.4-0.5,0.7-0.9,1.1-1.3     c1.4,0,2.7-0.2,4-0.6c1.2-0.5,2.1-1.4,2.5-2.6c0.6-1,0.2-2.2-0.7-2.7l0,0L586.7,403.2z M567.6,449.6c-1,2.4-2,4.4-2.7,5.7     c-0.1,0.3-0.3,0.5-0.4,0.8h-0.1c0-0.3,0-0.6-0.1-0.9c-0.2-1.5-0.5-3.7-1-6.3c-0.2-0.8-0.3-1.7-0.5-2.6c0.8-0.3,1.6-0.7,2.4-1.1     c1,0.9,2.2,1.6,3.5,2.2C568.2,448.2,567.9,448.9,567.6,449.6L567.6,449.6z" class="st2"/><path data-cppathid="10010" d="M577.6,414.2c0,0,0.6-2,0.6-2.1c0.2-1.5-0.3-4.6-1.8-5.4c-1-0.5-2.2-0.1-2.7,0.9c0,0,0,0,0,0.1     s-0.1,0.2-0.1,0.3c-0.3,1.2,0,2.5,0.7,3.5C575.2,412.6,576.4,413.5,577.6,414.2z" class="st2"/><line data-cppathid="10011" y2="116.8" x2="1029.9" y1="497.4" x1="1029.9" class="st3"/><line data-cppathid="10012" y2="119.1" x2="689.5" y1="497.4" x1="689.5" class="st3"/><line data-cppathid="10013" y2="310.5" x2="1178.3" y1="310.5" x1="472.1" class="st3"/><line data-cppathid="10014" y2="246.1" x2="780" y1="240.6" x1="788.8" class="st4"/><line data-cppathid="10015" y2="233.3" x2="800.7" y1="149.1" x1="937.3" class="st4"/><line data-cppathid="10016" y2="222.3" x2="845.8" y1="154.8" x1="955.3" class="st4"/><line data-cppathid="10017" y2="145.7" x2="970.1" y1="125.4" x1="1003.1" class="st4"/><circle data-cppathid="10018" r="54.7" cy="202.8" cx="687.4" class="st2"/><circle data-cppathid="10019" r="47.5" cy="202.8" cx="687.4" class="st5"/><polyline data-cppathid="10020" points="656.6,211.6 687.4,202.8 687.4,159.8    " class="st6"/></g><g id="freepik--Desk--inject-1--inject-425"><line data-cppathid="10021" y2="648.2" x2="1194.1" y1="648.2" x1="1180.6" class="st3"/><line data-cppathid="10022" y2="648.2" x2="1162.3" y1="648.2" x1="444.2" class="st3"/></g><g id="freepik--Plant--inject-1--inject-425"><path data-cppathid="10023" d="M599.8,629.3H533c0,0,0,18,9.4,41.4c0,4.5,10.8,8.1,24.1,8.1s24.1-3.6,24.1-8.1c0-0.2,0-0.4,0-0.7     C599.7,646.9,599.8,629.3,599.8,629.3z" class="st7"/><ellipse data-cppathid="10024" ry="9.8" rx="33.6" cy="629.3" cx="566.6" class="st7"/><ellipse data-cppathid="10025" ry="8.2" rx="30.1" cy="629.3" cx="566.6" class="st7"/><path data-cppathid="10026" d="M539.3,632.7c4.8,2.8,15.2,4.7,27.3,4.7s22.5-1.9,27.3-4.7c-4.8-2.7-15.2-4.7-27.3-4.7     S544.2,630,539.3,632.7z" class="st8"/><path data-cppathid="10027" d="M552.6,633.5c0,0-8.7-21.8-6.2-27.6s10.9-5.1,13.8,0.7s4.3,27.6,4.3,27.6S555.8,637.1,552.6,633.5z" class="st9"/><path data-cppathid="10028" d="M560.2,635.7c0,0-6.9-38.5-5.1-45.8s10.9-9.9,17.5-4.4s4,33.1,4,37.1s-0.4,12.4-0.4,12.4     C571.1,636.6,565.5,636.9,560.2,635.7z" class="st9"/><path data-cppathid="10029" d="M574.4,634.9c0,0-5.4-14.9-2.2-20.7s9.8-3.6,9.8,1.1s0.4,16-0.4,18.5S576.9,637.1,574.4,634.9z" class="st9"/><path data-cppathid="10030" d="M566.4,634.6c-9.1-34.5-1.5-51.6-1.5-51.6s10.9,18.9,5.1,51.6" class="st3"/><path data-cppathid="10031" d="M551.5,605.1c0,0-8.4,0.4,5.5,29.1" class="st3"/></g><g id="freepik--Character--inject-1--inject-425"><path data-cppathid="10032" d="M839.3,504.2c0,0-130.6-4.4-143.9,25.2c-13.3,29.7,0,118.7,0,118.7h203.3c0,0,29.1-110.3,12.8-125.2     S839.3,504.2,839.3,504.2z" class="st10"/><path data-cppathid="10033" d="M829.3,450.6c0,0-36.5,5.1-63.8,9.1s-46.6,8.6-47.1,17.7s-40,105.4-44.6,108.4c-6,4-10,10.5-10.6,17.7     c-0.9,6.3-2.6,12.4-5.1,18.2c0,0,17.7-2,25.3,4.1s12.2,9.6,12.2,9.6s21.3-13.7,24.3-20.8s-6.6-22.3-3.5-27.4s15.2-21.8,15.2-21.8     s16.2,50.7,18.2,61.3c1.1,7.1,0.6,14.4-1.5,21.3h142.4v-42c0-7.6,5.6-31.4,5.6-31.4s13.7,39.5,17.2,50.2     c2.4,7.7,4.5,15.4,6.1,23.3h48.6c0,0-16.7-50.2-22.8-65.9s-13.2-78.5-16.2-86.1s-46.1-31.5-67.4-36.5     C850.7,457.2,839.9,454.2,829.3,450.6z" class="st0"/><g><g><defs><path data-cppathid="10034" d="M829.3,450.6c0,0-36.5,5.1-63.8,9.1s-46.6,8.6-47.1,17.7s-40,105.4-44.6,108.4c-6,4-10,10.5-10.6,17.7        c-0.9,6.3-2.6,12.4-5.1,18.2c0,0,17.7-2,25.3,4.1s12.2,9.6,12.2,9.6s21.3-13.7,24.3-20.8s-6.6-22.3-3.5-27.4        s15.2-21.8,15.2-21.8s16.2,50.7,18.2,61.3c1.1,7.1,0.6,14.4-1.5,21.3h142.4v-42c0-7.6,5.6-31.4,5.6-31.4s13.7,39.5,17.2,50.2        c2.4,7.7,4.5,15.4,6.1,23.3h48.6c0,0-16.7-50.2-22.8-65.9s-13.2-78.5-16.2-86.1s-46.1-31.5-67.4-36.5        C850.7,457.2,839.9,454.2,829.3,450.6z" id="SVGID_1_"/></defs><clipPath id="SVGID_2_"><use style="overflow:visible;" xlink:href="#SVGID_1_"/></clipPath><g class="st11"><path data-cppathid="10035" d="M683.4,625.9c7.6,6.1,12.2,9.6,12.2,9.6s21.3-13.7,24.3-20.8s-6.6-22.3-3.5-27.4s15.2-21.8,15.2-21.8        l0.3,1.1l10.3-12.2c0,0,4,1,10.1,22.3s32.4,34.5,26.3,45.6c-3.9,7.2-7.4,18.7-9.4,25.8h121.4V606c0-7.6,5.6-31.4,5.6-31.4        s13.7,39.5,17.2,50.2c2.4,7.7,4.5,15.4,6.1,23.3h48.6c0,0-16.7-50.2-22.8-65.9c-5.2-13.3-11.1-60.7-14.6-79.3        c-1.8-2.3-3.9-4.4-6.2-6.3c-14.2-11.1-48.6-23.3-56.7-24.3s-28.4-14.2-50.7-5.1c0,0-15.2,13.2-26.3,16.2s-33.4-19.3-35.5-8.1        c-1.2,7.4-1.2,14.9,0,22.3c0,0-12.2-28.4-11.2-17.2s1,21.3,1,21.3S734,477.4,734,487.5s5.1,23.3,4,31.4s-29.4,58.8-32.4,63.8        s-2,14.4-5.6,21.4c-2.3,4.2-6.1,7.5-10.6,9c0,0,3-13.2-8.1-12.2S658,621.8,658,621.8S675.8,619.8,683.4,625.9z" class="st12"/></g></g></g><path data-cppathid="10036" d="M829.3,450.6c0,0-36.5,5.1-63.8,9.1s-46.6,8.6-47.1,17.7s-40,105.4-44.6,108.4c-6,4-10,10.5-10.6,17.7     c-0.9,6.3-2.6,12.4-5.1,18.2c0,0,17.7-2,25.3,4.1s12.2,9.6,12.2,9.6s21.3-13.7,24.3-20.8s-6.6-22.3-3.5-27.4s15.2-21.8,15.2-21.8     s16.2,50.7,18.2,61.3c1.1,7.1,0.6,14.4-1.5,21.3h142.4v-42c0-7.6,5.6-31.4,5.6-31.4s13.7,39.5,17.2,50.2     c2.4,7.7,4.5,15.4,6.1,23.3h48.6c0,0-16.7-50.2-22.8-65.9s-13.2-78.5-16.2-86.1s-46.1-31.5-67.4-36.5     C850.7,457.2,839.9,454.2,829.3,450.6z" class="st3"/><path data-cppathid="10037" d="M839.4,536.7c0,0,4.5,45.3,2.6,64s-8.5,32.9-5.6,46" class="st3"/><line data-cppathid="10038" y2="526" x2="908.3" y1="543.3" x1="900.2" class="st3"/><path data-cppathid="10039" d="M731.5,565.6c0,0,17.2-27.9,26.3-47.1" class="st7"/><path data-cppathid="10040" d="M744.7,545.3c7.8-5.1,14.4-11.8,19.3-19.8" class="st3"/><polygon data-cppathid="10041" points="636.8,664.9 741.5,664.9 798.5,703.7 678.3,703.7    " class="st7"/><line data-cppathid="10042" y2="695.3" x2="687.4" y1="695.3" x1="771.5" class="st3"/><line data-cppathid="10043" y2="687.2" x2="679.3" y1="687.2" x1="763.4" class="st3"/><line data-cppathid="10044" y2="679" x2="671.2" y1="679" x1="755.3" class="st3"/><polygon data-cppathid="10045" points="563.8,689.2 668.5,689.2 725.6,728 605.3,728    " class="st7"/><line data-cppathid="10046" y2="719.6" x2="614.5" y1="719.6" x1="698.6" class="st3"/><line data-cppathid="10047" y2="711.5" x2="606.4" y1="711.5" x1="690.5" class="st3"/><line data-cppathid="10048" y2="703.4" x2="598.3" y1="703.4" x1="682.3" class="st3"/><path data-cppathid="10049" d="M711.1,645.3c0,0-9.5-14.2-15.2-23s-18.2-14.8-29.4-12.2s-16.6,12.9-16.6,23.7s1,19.6,12.8,26     s38.2,9.8,38.2,9.8S720.9,677,711.1,645.3z" class="st7"/><path data-cppathid="10050" d="M701.2,642.1c0,0-13,4-13.8,8.9s-2.2,15.6-1.3,20.5s12.5,4.4,20.6,4.4s12.1-8.1,10.3-10.7s-8.9-4-11.6-10.3     C703.5,650.8,702.2,646.5,701.2,642.1z" class="st7"/><path data-cppathid="10051" d="M712,646.3c-1.9-4.3-4.3-8.3-5.4-10.6c-2.9-6.3-9.2-6.5-9.6,1.4c-0.2,4.5,8.1,30.7,15.3,24.6     C716.3,658.5,714.6,652.1,712,646.3z" class="st7"/><path data-cppathid="10052" d="M687.8,652.8c0,0,0.4,5.3,11.2,11.6s13.8,4.1,17.4,4.1" class="st7"/><path data-cppathid="10053" d="M686,663.5c0,0,1.3,8.8,25.9,10.6" class="st7"/><path data-cppathid="10054" d="M719.4,668.9l-21.2-60.8c-0.6-1.6,0.2-3.3,1.8-3.8h0.1l0,0c1.6-0.6,3.3,0.3,3.8,1.8c0,0,0,0,0,0.1l0,0     L725,667L719.4,668.9z" class="st2"/><polygon data-cppathid="10055" points="719.4,669 725.1,676.3 725.1,667    " class="st5"/><path data-cppathid="10056" d="M723,673.6l2,2.7V673C724.3,673.1,723.6,673.4,723,673.6z" class="st2"/><path data-cppathid="10057" d="M704,606.1c-0.5-1.6-2.2-2.5-3.8-2s-2.5,2.2-2,3.8c0,0.1,0,0.1,0.1,0.2l2,6.1l5.7-2.2L704,606.1z" class="st5"/><path data-cppathid="10058" d="M711.7,630.1c0,0,6.1-2.3,9.1,0s4.7,8.5,4.7,15.5s3.4,16.2-2.7,15.9S711.7,630.1,711.7,630.1z" class="st7"/><polygon data-cppathid="10059" points="845.7,684.5 799.5,655.4 975.8,655.4 1041.6,684.5    " class="st7"/><polygon data-cppathid="10060" points="1041.6,684.5 845.7,684.5 868.3,544.6 1064.2,544.6    " class="st7"/><path data-cppathid="10061" d="M1052.6,616c-33.2,7.5-61.8,0-118.6,9.2c-55.6,9-78.1,34.3-87.1,51.5l-1.2,7.7h195.9L1052.6,616z" class="st10"/><path data-cppathid="10062" d="M1052.8,633.2c0,0-11.1,1.4-15.1,6s-0.8,6.3,2.6,6.3s14.8,0,19.9-6.1     C1064.4,634.6,1061.7,632.6,1052.8,633.2z" class="st7"/><path data-cppathid="10063" d="M1049.1,665.7c0,0-11.1,1.4-15.1,6s-0.8,6.3,2.6,6.3s14.8,0,19.9-6C1060.7,667.1,1058,665.1,1049.1,665.7z" class="st7"/><path data-cppathid="10064" d="M1050.3,657.1c0,0-11.1,1.4-15.1,6s-0.8,6.3,2.6,6.3s14.8,0,19.9-6.1     C1061.9,658.5,1059.1,656.5,1050.3,657.1z" class="st7"/><path data-cppathid="10065" d="M1050.6,647.4c0,0-11.1,1.4-15.1,6s-0.9,6.3,2.6,6.3s14.8,0,19.9-6.1     C1062.1,648.8,1059.4,646.8,1050.6,647.4z" class="st7"/><path data-cppathid="10066" d="M860.7,462.3c3.3-1.8,7.1-46.7,2.1-47.7c35.3-27.4,26.8-98.5,26.8-98.5L861,290.5c0,0-21.3,26.3-42,37.7     s-30.4,9.1-42.6,9.7s-4.9,24.3,1.8,38.9s14.6,0.6,14.6,0.6l18.2,32.9c-1.8,46.8-19.5,49.8-19.5,49.8l17.9,57.6     c38.6,8.2,57.9,0,57.9,0l9.2-46.2C876.7,471.4,855.4,465,860.7,462.3z" class="st5"/><path data-cppathid="10067" d="M794.8,373.1c7.6,31.7,26.9,47,36.6,51c13.8,5.7,39.6-10.9,47.9-40.1s7.2-73.2,7.2-73.2" class="st13"/><path data-cppathid="10068" d="M849.2,337.5c-1.3-0.1-2.6,2.3-2.8,5.4s0.7,5.7,2,5.8s2.6-2.2,2.8-5.4S850.5,337.6,849.2,337.5z" class="st2"/><path data-cppathid="10069" d="M875.3,337.5c-1.3-0.1-2.6,2.3-2.8,5.4s0.7,5.7,2.1,5.8s2.6-2.2,2.8-5.4S876.7,337.6,875.3,337.5z" class="st2"/><path data-cppathid="10070" d="M868.1,374.1c1.7-1.5,3.3-3,4.8-4.7c1.5-1.8,1.7-4.3,0.5-6.3c-0.9-0.8-1.8-1.6-2.9-2.1     c-2.3-1.8-3.8-4.5-4-7.5c-0.2-2.9,0-5.8,0.5-8.6" class="st13"/><path data-cppathid="10071" d="M863.3,389.5c0-1.3-2-6.5-6-8.4c-4.3-1.1-9.7,2.5-11.8,5.2" class="st13"/><path data-cppathid="10072" d="M869.7,328c2.1,6.2,11.5,6.2,11.5,6.2" class="st13"/><path data-cppathid="10073" d="M831,333.4c4.6,4,8.8,4.9,12.8,3.3c4.2-1.4,6.3-6.1,7.1-8.1" class="st13"/><path data-cppathid="10074" d="M796.6,364.8c0.2,5.1-3,9.7-7.8,11.3c-8.7,3.5-13.9-9.9-15.7-20s0-16.5,8.4-18s12.2,11,12.2,11" class="st13"/><path data-cppathid="10075" d="M863.7,296.2c10,19.2,22.5,20.8,22.5,20.8s-1.3,43.7-5.2,62.1S862.7,412,862.7,412     c-2.6,17.8-3.1,35.7-1.5,53.6L875,474l5.9-1.9c0,0,19.3,3.9,32.8,6.1s10.2,9.1,10.2,9.1l15.5,3.2c14-20.1,24.6-57.6-5.6-92.9     s-24.8-57.7-43.8-98s-49.7-28.5-49.7-28.5C843.3,285.5,853,287.6,863.7,296.2z" class="st2"/><path data-cppathid="10076" d="M773.6,362.3c5.4,24.8,20.9,10.7,20.9,10.7c2.5,13.9,8.9,26.9,18.5,37.3c-2.2,9.2-3.7,18.5-4.8,27.9     c-1.1,9.7-7.4,18.1-16.5,21.6l-4.9-2.2l-25.4,4.6c0,0-13.3-102.9,7.1-159.7s71.8-31.4,71.8-31.4l24.6,18.4     c-12.1,25.6-43.3,43.9-76,51.7C776.1,332.3,770.2,345.9,773.6,362.3z" class="st2"/><path data-cppathid="10077" d="M806.8,258c21-3.5,32.8,15.3,32.8,15.3" class="st13"/><path data-cppathid="10078" d="M920.8,476.7c7.2-21.7,5.1-45.3-5.6-65.5c-4.9-9-11.3-16.9-15.8-26c-1.4-2.8-2.5-5.7-3.5-8.6" class="st14"/><path data-cppathid="10079" d="M888.4,469.9c5.4-26.5,3.5-54-5.5-79.5" class="st14"/><path data-cppathid="10080" d="M786.4,334c31.5-12.8,53.7-49.2,53.7-49.2" class="st14"/><path data-cppathid="10081" d="M779.1,333.2c13.9-55.9,54.7-53.7,54.7-53.7" class="st14"/></g><path data-cppathid="10082" d="M1368,0.5c-133.1,0-241,55.3-241,123.5c0,22.3,11.5,43.2,31.6,61.2c-9.8,15.4-23.9,32.4-42.1,41.8    c0,0,60.4,9.8,106-4.6c40.4,15.7,90.8,25.1,145.5,25.1c133.1,0,241-55.3,241-123.5S1501.1,0.5,1368,0.5z" class="st15"/><path data-cppathid="10083" d="M230.5,253.5c133.1,0,241,26.5,241,123.5c0,22.3-11.5,43.2-31.6,61.2c9.8,15.5,23.9,32.5,42.1,41.8    c0,0-60.4,9.8-106-4.5c-40.4,15.7-90.8,25-145.5,25C97.4,500.5,0.5,473,0.5,374C0.5,285,110.5,253.5,230.5,253.5z" class="st15"/><path data-cppathid="10084" d="M1457.3,671.5c-115.9,0-209.8-48.1-209.8-107.5c0-19.4,10-37.6,27.5-53.3c-8.6-13.5-20.8-28.3-36.7-36.4    c0,0,52.6-8.5,92.3,4c35.2-13.7,79.1-21.8,126.7-21.8c115.9,0,209.8,48.1,209.8,107.5S1573.2,671.5,1457.3,671.5z" class="st15"/></g></g></svg>