<?xml version="1.0" encoding="UTF-8"?>
<svg xmlns="http://www.w3.org/2000/svg" onmouseup="{ if(window.parent.document.onmouseup) window.parent.document.onmouseup(arguments[0]);}" viewBox="0 0 700.23 723.03" xmlns:xlink="http://www.w3.org/1999/xlink"><defs><style>.cls-1{fill:none;}.cls-2{fill:#ebebeb;}.cls-3{fill:#e0e0e0;}.cls-4{fill:#f5f5f5;}.cls-5{fill:#fafafa;}.cls-6{fill:#263238;}.cls-7{fill:#455a64;}.cls-8{fill:#ff725e;}.cls-9{opacity:0.3;}.cls-10{fill:#616161;}.cls-11{fill:#ba4949;}.cls-12{clip-path:url(#clip-path);}.cls-13,.cls-17{opacity:0.2;}.cls-14{fill:#fff;}.cls-15{fill:#ffbe9d;}.cls-16{clip-path:url(#clip-path-2);}.cls-17{isolation:isolate;}.cls-18{fill:#c88484;}.cls-19{clip-path:url(#clip-path-3);}.cls-20{clip-path:url(#clip-path-4);}.cls-21{clip-path:url(#clip-path-5);}</style><clipPath id="clip-path"><path data-cppathid="10000" d="M510.6,722.53s2.89-39.61-14.52-79.24-21.33-42.49-21.33-54.09S486.4,564.06,488.34,538s1-38.73,1-38.73,41.55,65.71,70.55,69.58,46.39-23.19,35.76-59.91-57-66.68-75.37-90.85-59.93-24.2-81.18-24.2-31.89-7.73-35.76-22.22-3.86-43.57-3.86-43.57-25.14,15.46-67.65-1.93c0,0,3.87,53.15-1,60.88s-11.56,15.6-40.55,15.6S237.12,408.43,223.6,422,154,489.62,139.53,510.89s-6.78,44.46,10.61,53.15,34.79,1,47.36-10.63,52.19-48.33,52.19-48.33,0,22.24,10.63,54.12,19.36,28,11.59,51.22-23.19,30-28,59.91A285,285,0,0,0,240,722.51" class="cls-1"/></clipPath><clipPath id="clip-path-2"><path data-cppathid="10001" d="M357.91,467.42c48.21,9.3,66.82-36.92,73.29-73.85-16.06-1.78-24.51-9.25-27.87-21.82-3.85-14.52-3.85-43.56-3.85-43.56s-25.14,15.45-67.66-1.94c0,0,3.87,53.15-1,60.88-3.36,5.39-7.68,10.78-19.78,13.54C310.63,417.26,314,458.93,357.91,467.42Z" class="cls-1"/></clipPath><clipPath id="clip-path-3"><path data-cppathid="10002" d="M306,275.57s1.62,43.22,33.44,64.43,55.45,9,68.51-9,21.22-35.89,21.22-62,3.22-37.53-5.72-53.85-40-24.46-40-24.46a489,489,0,0,1-41.6,45.68C317.36,260.06,306,275.57,306,275.57Z" class="cls-1"/></clipPath><clipPath id="clip-path-4"><path data-cppathid="10003" d="M139.53,510.91s-17.4,19.36-17.4,39.61,11.59,38.73,43.57,67.64,61.83,50.25,74.4,57,25.13-1.94,25.13-1.94S286,694,288.41,689.19s-7.24-12.08-9.18-15a39.63,39.63,0,0,0-5.79-6.28s10.15,1.44,14,4.84,10.13,9.18,13,8.7,2.9-2.91-1.45-8.7a51.92,51.92,0,0,0-12.56-11.6c-2.9-1.92-12.57-7.24-12.57-7.24s14-1,18.85,1.93,17.88,11.6,18.85,7.73,1-6.28-3.88-10.63-14.52-9.68-20.28-10.64a60,60,0,0,1-11.6-3.37s11.12-3.87,15-3.87,19.37,7.73,23.67,6.78,1.94-4.85-1.43-7.27-18.36-8.21-24.66-8.69-41.55,11.6-45.89,11.6-15.46-15.46-27.06-36.24S199.52,548.12,174.88,537" class="cls-1"/></clipPath><clipPath id="clip-path-5"><path data-cppathid="10004" d="M522.77,529c-4-9.21-.58-29.38,3.45-58.18s8.07-58.19,8.07-73.74,2.57-37.11-2.5-44.07-23.51-25.82-24.88-34.56S518,296.37,518,296.37s3.7-6.93,6.92-3.23,1.84,8.29,0,14.75-3.69,11.52-3.69,11.52,16.13,5.06,20.28,2.31,3.78-18.54,3.49-26.27c-.6-15.07-6.64-8.64-10.82-1.5-2,3.42-13.82,1.38-6.92-7.38S540.55,270.08,547,277s11.06,20.29,11.06,20.29,4.61-22,8.81-34.87,11.71-18,14.42-17.12,2.41,5.4-.3,11.71-8.72,23.72-10.22,29.43S569,298.75,572,298.16s13.51-18.93,16.53-26.74,7.5-15,12.6-18.31,9.31.9,7.21,6.3a274.28,274.28,0,0,1-14.17,28.53,123.51,123.51,0,0,0-8.4,18.62,211,211,0,0,1,15.62-15c7.21-6,15-7.2,17.41-5.1s.3,2.41-5.7,7.21-15,10.54-22.15,22.22A110.35,110.35,0,0,0,578,343.5a93.6,93.6,0,0,1-8.72,18.33s5.64,45.73,15.4,70.88,27,62,21.77,88.23-15.4,39.79-29.66,43.93a27.61,27.61,0,0,1-24.4-4.51" class="cls-1"/></clipPath></defs><g data-name="Layer 2" id="Layer_2"><g data-name="Layer 1" id="Layer_1-2"><g id="freepik--background-complete--inject-33"><path data-cppathid="10005" d="M644.83,522.55c10.55-5.45,23-6.16,34.73-4.22,6.31,1,12.85,2.92,17.12,7.64s5.1,13,.18,17.11c-2.92,2.42-7,2.78-10.8,2.74-9.17-.12-19.34-1.73-26.66,3.8-4.18,3.16-7,8.37-11.95,9.91s-10.4-1.36-13-5.77A20.21,20.21,0,0,1,633,538.85,22.72,22.72,0,0,1,644.83,522.55Z" class="cls-2"/><path data-cppathid="10006" d="M620.66,475.91c6.46,9.2,19,6.15,24.8.53s8.27-13.78,10.51-21.54c5.1-17.76,10.26-36.39,6.46-54.46a30.17,30.17,0,0,0-7-14.81c-3.79-4-9.63-6.39-15-5-6.31,1.67-10.24,7.89-13.09,13.74a130,130,0,0,0-12.81,55.71c0,9,1,18.39,6.07,25.81" class="cls-2"/><path data-cppathid="10007" d="M603,489.13c7-8.32,8.34-20.44,5.23-30.84S598,439,589.9,431.79a98.32,98.32,0,0,0-32.7-19.31A35,35,0,0,0,542.48,410c-5,.47-10,3-12.34,7.47-3.44,6.56-.14,14.53,3.43,21a250.2,250.2,0,0,0,21.48,32.72c6.44,8.3,13.83,16.5,23.68,20.25s20,3.3,25.25-3.5" class="cls-2"/><path data-cppathid="10008" d="M620.24,614.84a21,21,0,0,0,.58-4.18c.29-3,.67-6.87,1.11-11.43a166.43,166.43,0,0,1,2.57-16.75,127.6,127.6,0,0,1,6.09-19.77,72.71,72.71,0,0,1,10.09-17.89,37.88,37.88,0,0,1,12.77-10.62,36.24,36.24,0,0,1,10.75-3.35,18.41,18.41,0,0,0,4.17-.6,18.7,18.7,0,0,0-4.23,0,32.44,32.44,0,0,0-11.23,2.92,37.73,37.73,0,0,0-13.46,10.7A72,72,0,0,0,629,562.12a121.81,121.81,0,0,0-6,20.11,142.16,142.16,0,0,0-2.23,16.95c-.36,4.86-.5,8.78-.57,11.51A18.58,18.58,0,0,0,620.24,614.84Z" class="cls-3"/><path data-cppathid="10009" d="M621,606.05a9.68,9.68,0,0,0,.11-1.94v-5.54c0-4.83,0-11.81.24-20.41.42-17.24,1.91-35.77,4.73-61.91,2.72-24.58,6.31-53.18,10.2-71.77.82-4.23,1.65-8,2.43-11.37s1.39-6.22,2-8.55,1-4,1.3-5.4a8.78,8.78,0,0,0,.33-1.91,8.43,8.43,0,0,0-.66,1.82l-1.58,5.31c-.71,2.33-1.44,5.18-2.28,8.51s-1.8,7.11-2.69,11.34a624.51,624.51,0,0,0-10.72,66.59c-2.88,26.19-4.17,50-4.28,67.31-.09,8.63.08,15.62.3,20.52.14,2.24.25,4.08.35,5.54A7.34,7.34,0,0,0,621,606.05Z" class="cls-3"/><path data-cppathid="10010" d="M621.14,560.05a37.31,37.31,0,0,0,0-5.79c-.21-3.72-.73-9.12-1.77-15.78a208.18,208.18,0,0,0-5.11-22.91,188.09,188.09,0,0,0-9.58-27.08c-7.9-18.85-18.74-34.26-28.12-43.81a71.41,71.41,0,0,0-6.63-6.14c-1-.86-1.91-1.72-2.82-2.4l-2.56-1.76a37.08,37.08,0,0,0-4.89-3.16c-.27.38,6.93,4.61,16,14.28a152.29,152.29,0,0,1,27.42,43.63A218.27,218.27,0,0,1,612.73,516c2.5,8.41,4.18,16.14,5.44,22.66s1.88,11.87,2.31,15.57A36,36,0,0,0,621.14,560.05Z" class="cls-3"/><polygon data-cppathid="10011" points="576.67 641.2 581.28 704.34 662.4 704.34 667.01 641.2 576.67 641.2" class="cls-3"/><rect data-cppathid="10012" height="24.89" width="107.86" y="616.31" x="568.84" class="cls-3"/><polygon data-cppathid="10013" points="568.84 701.92 568.84 708.82 573.91 708.82 674.92 708.82 674.92 701.92 568.84 701.92" class="cls-2"/><polygon data-cppathid="10014" points="578.88 720.96 573.91 708.82 671.05 708.82 665.26 720.96 578.88 720.96" class="cls-3"/><path data-cppathid="10015" d="M665.51,661.83a2.83,2.83,0,0,1-.38.59L663.91,664l-4.73,6-.21.27-.2-.29c-3-4.1-6.95-9.59-11.62-16h.66c-3.44,4.89-7.29,10.34-11.42,16.18l-.35.51-.41-.48-13.56-16.13h.79l-.74.93L610,670.18l-.41.51-.36-.54L597.84,654h.66l-14.08,16.06-.25.28L584,670l-4.4-7.41-1.14-2a3.44,3.44,0,0,1-.35-.69,4.79,4.79,0,0,1,.48.61l1.24,1.91,4.65,7.26H584l13.83-16.24.35-.41.31.44L610,669.63h-.77l12.09-15.22.74-.93.38-.49.41.48,13.51,16.16h-.76l11.54-16.1.35-.47.33.47,11.35,16.23h-.41l4.93-5.89,1.31-1.58A2.57,2.57,0,0,1,665.51,661.83Z" class="cls-4"/><path data-cppathid="10016" d="M668.14,640.78c0,.28-20.33.5-45.39.5s-45.4-.22-45.4-.5,20.33-.51,45.4-.51S668.14,640.51,668.14,640.78Z" class="cls-4"/><path data-cppathid="10017" d="M672.25,709.5c0,.29-22.1.51-49.34.51s-49.33-.22-49.33-.51,22.1-.5,49.33-.5S672.25,709.22,672.25,709.5Z" class="cls-4"/><rect data-cppathid="10018" height="205.04" width="196.71" y="60.79" x="498.74" class="cls-3"/><rect data-cppathid="10019" height="205.04" width="196.71" y="60.79" x="485.42" class="cls-5"/><path data-cppathid="10020" d="M682.19,265.89H485.38V60.69H682.19Zm-196.7-.12H682.07V60.85H485.49Z" class="cls-3"/><rect data-cppathid="10021" height="149.92" width="143.81" y="88.35" x="511.88" class="cls-5"/><path data-cppathid="10022" d="M511.88,239.26a23.69,23.69,0,0,1-3.55,4.12c-2.31,2.43-5.53,5.72-9.14,9.28s-6.95,6.74-9.47,9a23.09,23.09,0,0,1-4.16,3.47A22.81,22.81,0,0,1,489.1,261c2.29-2.42,5.53-5.7,9.16-9.28s7-6.76,9.47-9A22.46,22.46,0,0,1,511.88,239.26Z" class="cls-3"/><path data-cppathid="10023" d="M655.69,238.9a23.27,23.27,0,0,1,4.12,3.55c2.43,2.29,5.71,5.53,9.28,9.14s6.74,7,9,9.47a23,23,0,0,1,3.48,4.15,22,22,0,0,1-4.12-3.52c-2.42-2.3-5.7-5.54-9.29-9.17s-6.75-7-9-9.47A22.46,22.46,0,0,1,655.69,238.9Z" class="cls-3"/><path data-cppathid="10024" d="M655.3,88.74a24,24,0,0,1,3.55-4.12c2.29-2.43,5.52-5.7,9.14-9.26s6.94-6.74,9.39-9A22.44,22.44,0,0,1,681.5,63a22.35,22.35,0,0,1-3.54,4.1c-2.29,2.43-5.52,5.72-9.15,9.29s-7,6.75-9.47,9A21.83,21.83,0,0,1,655.3,88.74Z" class="cls-3"/><path data-cppathid="10025" d="M511.48,89.12a23.69,23.69,0,0,1-4.13-3.55c-2.42-2.31-5.7-5.53-9.27-9.14s-6.74-7-9-9.47a23.13,23.13,0,0,1-3.45-4,22.29,22.29,0,0,1,4.1,3.54c2.43,2.28,5.72,5.52,9.3,9.15s6.75,7,9,9.47A23.13,23.13,0,0,1,511.48,89.12Z" class="cls-3"/><path data-cppathid="10026" d="M655.3,238.27a4.45,4.45,0,0,1,0-.73V227.35c0-7.09-.08-17.37-.15-30.55,0-26.26-.17-63.66-.28-108.45l.55.55H512l.63-.63c0,55,0,106.5-.09,150l-.54-.55,103.85.28,29.17.15h10.4q-.32,0-.63,0h-9.55l-29,.14L512,238.52h-.56V238c0-43.42,0-94.9-.09-149.95v-.64H656v.56c-.11,44.94-.21,82.46-.29,108.8,0,13.07-.11,23.36-.14,30.43v10A5.12,5.12,0,0,1,655.3,238.27Z" class="cls-3"/><rect data-cppathid="10027" height="47.99" width="47.99" y="139.32" x="559.78" class="cls-2"/><rect data-cppathid="10028" height="11.74" width="370.7" y="242.17" class="cls-3"/><rect data-cppathid="10029" height="37.17" width="18.77" y="248.04" x="62.6" class="cls-3"/><rect data-cppathid="10030" height="43.04" width="18.77" y="242.17" x="285.16" class="cls-3"/><polygon data-cppathid="10031" points="54.09 163.31 66.23 243.07 136.74 243.07 153.11 164.46 54.09 163.31" class="cls-2"/><path data-cppathid="10032" d="M143.24,214.48c0,.24-18.07.41-40.34.41s-40.36-.17-40.36-.41,18.07-.41,40.36-.41S143.24,214.2,143.24,214.48Z" class="cls-5"/><path data-cppathid="10033" d="M143.51,210.5c0,.22-18.18.41-40.61.41s-40.63-.19-40.63-.41,18.18-.41,40.63-.41S143.51,210.27,143.51,210.5Z" class="cls-5"/><path data-cppathid="10034" d="M143.39,206.07c0,.24-18.2.41-40.63.41s-40.63-.17-40.63-.41,18.18-.41,40.63-.41S143.39,205.85,143.39,206.07Z" class="cls-5"/><path data-cppathid="10035" d="M74.33,238.51a66.39,66.39,0,0,1-2.12-10,66,66,0,0,1-1.34-10.18,66.15,66.15,0,0,1,2.17,10A65.88,65.88,0,0,1,74.33,238.51Z" class="cls-5"/><path data-cppathid="10036" d="M79.13,237.67a76.72,76.72,0,0,1-.87-9.8,82.91,82.91,0,0,1-.47-9.84,46,46,0,0,1,1.29,9.77A47.19,47.19,0,0,1,79.13,237.67Z" class="cls-5"/><path data-cppathid="10037" d="M87.87,237.65a48.77,48.77,0,0,1-1.83-10,49.64,49.64,0,0,1-.54-10.19,92.79,92.79,0,0,1,1.36,10.1A90.72,90.72,0,0,1,87.87,237.65Z" class="cls-5"/><path data-cppathid="10038" d="M94,238.16A50,50,0,0,1,93,228a48.8,48.8,0,0,1,.32-10.25,97.06,97.06,0,0,1,.51,10.23A94.34,94.34,0,0,1,94,238.16Z" class="cls-5"/><path data-cppathid="10039" d="M104.87,237.67a55.2,55.2,0,0,1-.74-9.69,58.54,58.54,0,0,1,0-9.73,55.32,55.32,0,0,1,.74,9.7A56.34,56.34,0,0,1,104.87,237.67Z" class="cls-5"/><path data-cppathid="10040" d="M112.81,238.16a59.93,59.93,0,0,1-.34-10,58.72,58.72,0,0,1,.5-10,62.1,62.1,0,0,1,.33,10A62.06,62.06,0,0,1,112.81,238.16Z" class="cls-5"/><path data-cppathid="10041" d="M120.25,237a65.6,65.6,0,0,1,.6-10.48,66.22,66.22,0,0,1,1.42-10.39,65.48,65.48,0,0,1-.6,10.47A67.38,67.38,0,0,1,120.25,237Z" class="cls-5"/><path data-cppathid="10042" d="M129.84,236a34.91,34.91,0,0,1,1.19-8.92,34.76,34.76,0,0,1,2.62-8.58,82.21,82.21,0,0,1-1.82,8.77A84.15,84.15,0,0,1,129.84,236Z" class="cls-5"/><path data-cppathid="10043" d="M123,5.94a1.28,1.28,0,0,1,0,.39c-.09.3-.19.66-.33,1.12l-1.34,4.31c-.6,1.86-1.33,4.15-2.07,6.82s-1.7,5.7-2.54,9.09-1.86,7.09-2.75,11-1.88,8.45-2.79,12.91c-1.69,9.09-3.24,19.21-4.28,29.76s-1.58,20.78-1.58,30c0,4.62,0,9,.13,13.13s.28,7.89.49,11.43.49,6.64.69,9.47.46,5.16.68,7.1.36,3.4.47,4.48a4,4,0,0,0,.1,1.17c.09.32,0,.41,0,.41a1.72,1.72,0,0,1-.1-.39,7.79,7.79,0,0,0-.19-1.15c-.14-1.09-.34-2.59-.61-4.49s-.57-4.31-.82-7.08-.63-5.92-.82-9.47-.49-7.33-.6-11.45-.18-8.52-.21-13.15c.1-9.28.56-19.46,1.58-30.11s2.65-20.73,4.39-29.82c.95-4.55,1.8-8.87,2.81-12.87s1.91-7.71,2.84-11,1.86-6.41,2.67-9.08,1.58-4.94,2.21-6.79l1.48-4.26c.18-.44.3-.81.41-1.11S123,5.94,123,5.94Z" class="cls-2"/><path data-cppathid="10044" d="M110.32,55.33a26.28,26.28,0,0,1,11.05-13.86c1.73-1.08,3.94-2,5.79-1.06,2.46,1.18,2.65,4.73,1.93,7.28a19.21,19.21,0,0,1-8,10.87,16.25,16.25,0,0,1-12,3" class="cls-2"/><path data-cppathid="10045" d="M106,88.66c1.82-6.88,7.31-16.67,13-20.93a9,9,0,0,1,3-1.58,3.42,3.42,0,0,1,3.16.7,4.74,4.74,0,0,1,.71,4.56,27.74,27.74,0,0,1-20.52,20.71" class="cls-2"/><path data-cppathid="10046" d="M104.86,118A40.24,40.24,0,0,1,118,101.51a6.25,6.25,0,0,1,4.58-1.58c2.49.46,3.63,3.51,3.41,6-.46,5.19-4.42,9.36-8.53,12.62a52.31,52.31,0,0,1-12.14,6.32" class="cls-2"/><path data-cppathid="10047" d="M105.52,139.13A38.82,38.82,0,0,1,116.7,126.4a7.86,7.86,0,0,1,3.34-1.57,3.41,3.41,0,0,1,3.3,1.24c1.11,1.58,0,3.87-1.15,5.46a31.82,31.82,0,0,1-15.94,11.68" class="cls-2"/><path data-cppathid="10048" d="M105,130.56a122.92,122.92,0,0,0-16-16.28,3.58,3.58,0,0,0-3.15-1.21,2.38,2.38,0,0,0-1.47,2.14,6.44,6.44,0,0,0,.61,2.67,31,31,0,0,0,20.52,17.36" class="cls-2"/><path data-cppathid="10049" d="M105.47,103.09,92.92,87.79a14.82,14.82,0,0,0-4.07-3.86,4.55,4.55,0,0,0-7.07,5,13.47,13.47,0,0,0,2.45,5,37.33,37.33,0,0,0,9.15,9.73c3.68,2.52,7,4.18,11.46,3.53" class="cls-2"/><path data-cppathid="10050" d="M107.22,72.17A43.83,43.83,0,0,0,94.6,53.23a7.3,7.3,0,0,0-3.3-1.91c-2.51-.49-4.94,1.58-5.75,4a10.35,10.35,0,0,0,1.14,8.3A22.05,22.05,0,0,0,92.59,70a50.62,50.62,0,0,0,14,7.55" class="cls-2"/><path data-cppathid="10051" d="M112.24,44.61c-1.21-8.87-5.84-16.24-11.19-23.43-1.12-1.57-2.7-3.15-4.56-2.84a3.67,3.67,0,0,0-2.62,2.26,8.35,8.35,0,0,0-.5,3.54,27.43,27.43,0,0,0,17.78,24.48" class="cls-2"/><path data-cppathid="10052" d="M115.75,30.53a72.11,72.11,0,0,1-.46-13.7A24.57,24.57,0,0,1,119.84,4,10.61,10.61,0,0,1,124.4.41a5.79,5.79,0,0,1,5.59.74,6.1,6.1,0,0,1,1.92,5,16,16,0,0,1-1.42,5.25c-3.35,8-8.92,16.95-14.74,19.2" class="cls-2"/><path data-cppathid="10053" d="M61.07,41.1a5.24,5.24,0,0,1,0,1.12v8.26c0,1.94,0,4.23.24,6.72.22,5,.71,10.93,1.47,17.48s1.92,13.73,3.47,21.18,3.44,14.48,5.33,20.8,3.89,11.94,5.69,16.59c.85,2.34,1.73,4.42,2.47,6.32s1.41,3.41,2,4.73l1.26,3a6.74,6.74,0,0,1,.39,1.06,6.06,6.06,0,0,1-.55-1c-.35-.74-.82-1.7-1.39-2.9s-1.34-2.81-2.11-4.64-1.71-3.9-2.61-6.31c-1.88-4.65-3.88-10.26-5.87-16.58s-3.63-13.32-5.21-20.8S63,81.42,62.21,74.84,61.07,62.3,60.91,57.3c-.12-2.51-.09-4.74-.11-6.76s0-3.69,0-5.1a24.49,24.49,0,0,1,.11-3.15A9.71,9.71,0,0,1,61.07,41.1Z" class="cls-3"/><path data-cppathid="10054" d="M63,77.47a18.7,18.7,0,0,1,4.44-11.79,4.51,4.51,0,0,1,3.72-2c1.93.28,2.81,2.59,2.88,4.54a13.79,13.79,0,0,1-3.16,9.13A11.66,11.66,0,0,1,63.42,82" class="cls-3"/><path data-cppathid="10055" d="M67.31,101.09c-.24-5.07,1.38-12.92,4.35-17a6,6,0,0,1,1.68-1.71,2.47,2.47,0,0,1,2.3-.22,3.51,3.51,0,0,1,1.47,2.94,19.8,19.8,0,0,1-9.47,18.51" class="cls-3"/><path data-cppathid="10056" d="M72.81,121.35a29,29,0,0,1,5.39-14.08,4.58,4.58,0,0,1,2.77-2.1c1.79-.22,3.16,1.58,3.62,3.37.8,3.64-1,7.32-3.16,10.4a37.51,37.51,0,0,1-6.93,6.86" class="cls-3"/><path data-cppathid="10057" d="M77.82,135.56a27.46,27.46,0,0,1,4.86-11,5.88,5.88,0,0,1,2-1.75,2.46,2.46,0,0,1,2.51.14c1.12.88.86,2.62.39,4a22.78,22.78,0,0,1-8.33,11.4" class="cls-3"/><path data-cppathid="10058" d="M75.59,129.83a89.17,89.17,0,0,0-14.42-7.64,2.63,2.63,0,0,0-2.44-.13,1.69,1.69,0,0,0-.53,1.77,4.2,4.2,0,0,0,1,1.69A22.14,22.14,0,0,0,77,132.88" class="cls-3"/><path data-cppathid="10059" d="M70,111l-11.84-7.72a10.76,10.76,0,0,0-3.6-1.75,3.72,3.72,0,0,0-3.66,1.1,3.65,3.65,0,0,0,0,3.82,9.48,9.48,0,0,0,2.75,2.89A26.66,26.66,0,0,0,62,114.11c3.06.93,5.69,1.32,8.57,0" class="cls-3"/><path data-cppathid="10060" d="M64.56,89.61a31.27,31.27,0,0,0-12.63-10.2,5.54,5.54,0,0,0-2.65-.6,4,4,0,0,0-3.05,4,7.38,7.38,0,0,0,2.51,5.4,16,16,0,0,0,5.37,3,36,36,0,0,0,11,2.11" class="cls-3"/><path data-cppathid="10061" d="M62,69.75C59.3,64,54.57,60,49.41,56.21a3.93,3.93,0,0,0-3.73-1,2.59,2.59,0,0,0-1.29,2.1,6.08,6.08,0,0,0,.42,2.53A19.58,19.58,0,0,0,62.18,72.72" class="cls-3"/><path data-cppathid="10062" d="M61.4,59.41a51.93,51.93,0,0,1-3.27-9.23,17.61,17.61,0,0,1,.35-9.68,7.7,7.7,0,0,1,2.32-3.45,4.15,4.15,0,0,1,4-.7,4.33,4.33,0,0,1,2.35,2.92,11.06,11.06,0,0,1,.18,3.89c-.54,6.2-2.44,13.46-5.91,16.24" class="cls-3"/><path data-cppathid="10063" d="M150.22,40.33a5.3,5.3,0,0,1,.1,1.12c0,.82,0,1.9.12,3.16a37.36,37.36,0,0,1,0,5.1c-.09,1.94,0,4.24-.12,6.75-.15,5-.57,11-1.3,17.54s-1.86,13.78-3.41,21.26-3.49,14.52-5.41,20.85-4,11.94-5.87,16.58c-.89,2.33-1.83,4.4-2.61,6.31s-1.5,3.38-2.1,4.64-1.05,2.16-1.4,2.9a8.72,8.72,0,0,1-.54,1,5.57,5.57,0,0,1,.38-1.06c.33-.76.74-1.75,1.26-3s1.25-2.84,2-4.73,1.57-3.93,2.47-6.31c1.82-4.74,3.76-10.3,5.7-16.59s3.77-13.28,5.35-20.73S147.49,80.52,148.3,74s1.24-12.49,1.46-17.48c.16-2.49.18-4.73.24-6.72s0-3.69,0-5.1V41.51A6,6,0,0,1,150.22,40.33Z" class="cls-2"/><path data-cppathid="10064" d="M148.25,76.7a18.64,18.64,0,0,0-4.48-11.79,4.49,4.49,0,0,0-3.68-2c-1.94.28-2.81,2.59-2.89,4.55a13.78,13.78,0,0,0,3.16,9.12,11.58,11.58,0,0,0,7.51,4.62" class="cls-2"/><path data-cppathid="10065" d="M144,100.31c.25-5.06-1.39-12.91-4.36-17a5.76,5.76,0,0,0-1.67-1.7,2.44,2.44,0,0,0-2.31-.22,3.47,3.47,0,0,0-1.45,3,19.8,19.8,0,0,0,9.47,18.51" class="cls-2"/><path data-cppathid="10066" d="M138.51,120.56a28.86,28.86,0,0,0-5.38-14.08,4.57,4.57,0,0,0-2.78-2.1c-1.78-.22-3.16,1.58-3.6,3.37-.8,3.64,1,7.32,3.16,10.4a37.51,37.51,0,0,0,6.93,6.86" class="cls-2"/><path data-cppathid="10067" d="M133.49,134.79a27.57,27.57,0,0,0-4.88-11,5.68,5.68,0,0,0-2-1.76,2.46,2.46,0,0,0-2.51.15c-1.11.88-.87,2.62-.4,4a22.72,22.72,0,0,0,8.34,11.39" class="cls-2"/><path data-cppathid="10068" d="M135.7,129.06a89.93,89.93,0,0,1,14.38-7.71,2.61,2.61,0,0,1,2.43-.12,1.66,1.66,0,0,1,.54,1.76,4.27,4.27,0,0,1-1,1.69A22.09,22.09,0,0,1,134.33,132" class="cls-2"/><path data-cppathid="10069" d="M141.27,110.3l11.84-7.72a11,11,0,0,1,3.6-1.75,3.7,3.7,0,0,1,3.66,1.11,3.63,3.63,0,0,1,.08,3.82,9.6,9.6,0,0,1-2.75,2.89,26.69,26.69,0,0,1-8.31,4.73c-3,.93-5.69,1.33-8.56,0" class="cls-2"/><path data-cppathid="10070" d="M146.73,88.84a31.34,31.34,0,0,1,12.63-10.2A5.5,5.5,0,0,1,162,78a4,4,0,0,1,3,4,7.39,7.39,0,0,1-2.57,5.42,15.92,15.92,0,0,1-5.35,3,36.26,36.26,0,0,1-11.05,2.12" class="cls-2"/><path data-cppathid="10071" d="M149.26,69c2.73-5.78,7.46-9.8,12.63-13.54a3.87,3.87,0,0,1,3.71-.95,2.66,2.66,0,0,1,1.32,2.15,6.37,6.37,0,0,1-.42,2.52A19.59,19.59,0,0,1,149.13,72" class="cls-2"/><path data-cppathid="10072" d="M149.89,58.64a52.21,52.21,0,0,0,3.27-9.23,17.61,17.61,0,0,0-.35-9.68,7.7,7.7,0,0,0-2.32-3.46,4.13,4.13,0,0,0-4-.69,4.34,4.34,0,0,0-2.37,2.94A10.77,10.77,0,0,0,144,42.4c.55,6.2,2.43,13.46,5.9,16.24" class="cls-2"/><path data-cppathid="10073" d="M46,147.52v14.87a5.87,5.87,0,0,0,5.87,5.87H154a5.87,5.87,0,0,0,5.87-5.87h0V147.48Z" class="cls-2"/><polygon data-cppathid="10074" points="54.85 168.31 55.7 173.06 149.92 179.77 152.31 168.31 54.85 168.31" class="cls-3"/><path data-cppathid="10075" d="M205.89,136.88s-16.93,12.88-.71,30a1.45,1.45,0,0,0,1.08.44l147.87-.85s12.62-14.21,2.14-30.48Z" class="cls-2"/><path data-cppathid="10076" d="M321.44,150.33c0,.18-18.41.3-41,.3s-41.12-.12-41.12-.3,18.4-.3,41.12-.3S321.44,150.18,321.44,150.33Z" class="cls-3"/><path data-cppathid="10077" d="M298.44,155.68c0,.18-8.65.3-19.34.3s-19.33-.12-19.33-.3,8.66-.3,19.33-.3S298.44,155.53,298.44,155.68Z" class="cls-3"/><path data-cppathid="10078" d="M336.56,165.93c-.1,0,.33-1.71.79-4.44a61.48,61.48,0,0,0-.21-21.56c-.52-2.73-1-4.4-.87-4.42a5.05,5.05,0,0,1,.43,1.14c.25.74.54,1.83.85,3.15a52.06,52.06,0,0,1,.21,21.74,31,31,0,0,1-.79,3.16A4.15,4.15,0,0,1,336.56,165.93Z" class="cls-3"/><path data-cppathid="10079" d="M347.59,135.73a4.6,4.6,0,0,1,.66,1.08,12.57,12.57,0,0,1,.67,1.32c.22.52.52,1.12.74,1.8a31.28,31.28,0,0,1,1.42,4.91,37.18,37.18,0,0,1,.63,6.31,34.08,34.08,0,0,1-.54,6.22,31.3,31.3,0,0,1-1.32,4.94c-.22.7-.51,1.28-.73,1.82a14.68,14.68,0,0,1-.63,1.34,5.1,5.1,0,0,1-.65,1.07c-.11,0,.73-1.57,1.58-4.37a34.21,34.21,0,0,0,1.2-4.89,39.37,39.37,0,0,0,.48-6.13,37,37,0,0,0-.59-6.12,33.93,33.93,0,0,0-1.26-4.88C348.35,137.36,347.5,135.78,347.59,135.73Z" class="cls-3"/><path data-cppathid="10080" d="M229.22,166.12a4.45,4.45,0,0,1-.69-1c-.25-.4-.49-.81-.7-1.23s-.53-1.06-.78-1.71a26.08,26.08,0,0,1-1.44-4.73,29.77,29.77,0,0,1-.57-5.95,28.31,28.31,0,0,1,.73-5.94,25.19,25.19,0,0,1,1.58-4.62c.26-.65.58-1.2.83-1.69a11.57,11.57,0,0,1,.73-1.22,4.42,4.42,0,0,1,.71-1c.11,0-.84,1.48-1.88,4a30.23,30.23,0,0,0-1.42,4.57,29.65,29.65,0,0,0-.16,11.67,29.62,29.62,0,0,0,1.3,4.62C228.48,164.6,229.32,166.07,229.22,166.12Z" class="cls-3"/><path data-cppathid="10081" d="M213.25,169.73a6.68,6.68,0,0,1-.76-1.12,14.45,14.45,0,0,1-.77-1.39c-.33-.62-.62-1.26-.89-1.91a32.81,32.81,0,0,1-1.7-5.22,35.57,35.57,0,0,1-.82-6.66,34.27,34.27,0,0,1,.54-6.71,29.16,29.16,0,0,1,1.45-5.29c.25-.74.57-1.37.8-1.94a14.46,14.46,0,0,1,.71-1.42,7.29,7.29,0,0,1,.71-1.17c.11,0-.83,1.75-1.83,4.74a34.62,34.62,0,0,0-1.31,5.24,39.36,39.36,0,0,0-.49,6.59,40.22,40.22,0,0,0,.78,6.57,36.34,36.34,0,0,0,1.57,5.18C212.33,168,213.36,169.67,213.25,169.73Z" class="cls-3"/><path data-cppathid="10082" d="M348.7,211.44v28.3H293.94v-28.3Z" class="cls-2"/><path data-cppathid="10083" d="M171.86,225.85v.74a16.21,16.21,0,0,0,16.29,15.18h163.1v-2H312.53a14.21,14.21,0,0,1-14.2-14.21h0a14.21,14.21,0,0,1,14.2-14.21h38.72v-3l-163.11.55a16.31,16.31,0,0,0-16.29,16.33C171.85,225.41,171.85,225.63,171.86,225.85Z" class="cls-3"/><path data-cppathid="10084" d="M348.7,226c0,.17-11.26.3-25.15.3s-25.14-.13-25.14-.3,11.25-.3,25.14-.3S348.7,225.8,348.7,226Z" class="cls-3"/><path data-cppathid="10085" d="M347.91,232.33c0,.18-10.66.3-23.79.3s-23.8-.12-23.8-.3,10.65-.3,23.8-.3S347.91,232.18,347.91,232.33Z" class="cls-3"/><path data-cppathid="10086" d="M348.7,238.16c0,.17-9.58.3-21.39.3s-21.39-.13-21.39-.3,9.57-.29,21.39-.29S348.7,238,348.7,238.16Z" class="cls-3"/><path data-cppathid="10087" d="M348.7,220.23c0,.17-11.05.3-24.63.3s-24.64-.13-24.64-.3,11.05-.3,24.64-.3S348.7,220.07,348.7,220.23Z" class="cls-3"/><path data-cppathid="10088" d="M347.91,214.48c0,.18-9.82.3-21.93.3s-21.92-.12-21.92-.3,9.82-.3,21.92-.3S347.91,214.34,347.91,214.48Z" class="cls-3"/><path data-cppathid="10089" d="M191.61,209.45a38.89,38.89,0,0,0-3.46,4.12,21,21,0,0,0,.29,24.26,34.81,34.81,0,0,0,3.56,4,5,5,0,0,1-1.18-.87,17.54,17.54,0,0,1-2.72-2.92,20.54,20.54,0,0,1-.3-24.73,18.4,18.4,0,0,1,2.66-3A5.85,5.85,0,0,1,191.61,209.45Z" class="cls-4"/><path data-cppathid="10090" d="M186.1,208.85a36.36,36.36,0,0,0-3.39,4.05,20.93,20.93,0,0,0,.28,24.25,36.78,36.78,0,0,0,3.55,4,5.24,5.24,0,0,1-1.17-.87,18.42,18.42,0,0,1-2.73-2.92,20.63,20.63,0,0,1-.28-24.73,18.36,18.36,0,0,1,2.65-3A5.51,5.51,0,0,1,186.1,208.85Z" class="cls-4"/><path data-cppathid="10091" d="M296.91,209.45a35.85,35.85,0,0,0-3.47,4.12,21,21,0,0,0,.28,24.26,36.76,36.76,0,0,0,3.57,4,5.05,5.05,0,0,1-1.19-.87,17.85,17.85,0,0,1-2.71-2.92,20.66,20.66,0,0,1-.3-24.73,18,18,0,0,1,2.67-3A5,5,0,0,1,296.91,209.45Z" class="cls-4"/><path data-cppathid="10092" d="M291.38,208.85a38.8,38.8,0,0,0-3.45,4.12,20.91,20.91,0,0,0,.28,24.24,34.82,34.82,0,0,0,3.57,4.11,5.13,5.13,0,0,1-1.19-.87,17.85,17.85,0,0,1-2.71-2.92,20.52,20.52,0,0,1-.3-24.74,17.89,17.89,0,0,1,2.65-3A5.87,5.87,0,0,1,291.38,208.85Z" class="cls-4"/><path data-cppathid="10093" d="M210.17,229.82q0-5.76-.16-11.5a8.08,8.08,0,0,0-.39-3,2.82,2.82,0,0,0-2.2-1.85c-1.43-.63-3.67.57-4.73,2.23a10.88,10.88,0,0,0-1.14,5.63,81.31,81.31,0,0,0,.45,9.1,10.59,10.59,0,0,0,1.07,4.16,3.47,3.47,0,0,0,6.58-.57A11.43,11.43,0,0,0,210.17,229.82Z" class="cls-4"/><path data-cppathid="10094" d="M273.5,226.51c0,.17-11.78.3-26.31.3s-26.35-.13-26.35-.3,11.79-.3,26.35-.3S273.5,226.35,273.5,226.51Z" class="cls-4"/><polygon data-cppathid="10095" points="199.25 208.33 198.95 181.49 213.55 181.49 214.05 208.33 199.25 208.33" class="cls-4"/><path data-cppathid="10096" d="M212.7,186.27a38.34,38.34,0,0,1-6.77.3,38.52,38.52,0,0,1-6.79-.3,38.52,38.52,0,0,1,6.79-.3A38.34,38.34,0,0,1,212.7,186.27Z" class="cls-3"/><path data-cppathid="10097" d="M212.7,190.41a40.35,40.35,0,0,1-6.77.3,38.52,38.52,0,0,1-6.79-.3,39.5,39.5,0,0,1,6.79-.3A40.35,40.35,0,0,1,212.7,190.41Z" class="cls-3"/><path data-cppathid="10098" d="M212.7,194.55a38.34,38.34,0,0,1-6.77.3,38.52,38.52,0,0,1-6.79-.3,38.52,38.52,0,0,1,6.79-.3A38.34,38.34,0,0,1,212.7,194.55Z" class="cls-3"/><path data-cppathid="10099" d="M212.7,198.7a40.33,40.33,0,0,1-6.77.28,40.53,40.53,0,0,1-6.79-.28,36.7,36.7,0,0,1,6.79-.3A36.52,36.52,0,0,1,212.7,198.7Z" class="cls-3"/><path data-cppathid="10100" d="M212.7,202.83a38.34,38.34,0,0,1-6.77.3,38.52,38.52,0,0,1-6.79-.3,38.52,38.52,0,0,1,6.79-.3A38.34,38.34,0,0,1,212.7,202.83Z" class="cls-3"/><path data-cppathid="10101" d="M198.18,180.78H360c2,8.89,1.7,18.66,0,29H198.87v-2h9.83a4.73,4.73,0,0,0,4.66-4.64v-16a4.64,4.64,0,0,0-4.64-4.64H198.18Z" class="cls-2"/><path data-cppathid="10102" d="M236.37,195.3h2.7a.71.71,0,0,1,.29,0,.58.58,0,0,1,.28.52.54.54,0,0,1,0,.18,5.76,5.76,0,0,1-.19.68,7.39,7.39,0,0,1-1.69,3.06,3.15,3.15,0,0,1-2.29,1.18h-.33a2.55,2.55,0,0,1-1.83-1.32,6,6,0,0,1-.82-3.25,8.74,8.74,0,0,1,.33-2.33,7.51,7.51,0,0,1,1.58-3.15,3.26,3.26,0,0,1,2.43-1.3,2.29,2.29,0,0,1,1,.24,3.34,3.34,0,0,1,1.58,2,.62.62,0,0,1,0,.27.6.6,0,0,1-.08.29.56.56,0,0,1-.51.28h-.17a.57.57,0,0,1-.38-.36h0a3.43,3.43,0,0,0-.33-.63,1.58,1.58,0,0,0-1.3-.78,1.49,1.49,0,0,0-.88.33,4.58,4.58,0,0,0-1.48,2.12,8,8,0,0,0-.64,3,5.74,5.74,0,0,0,.46,2.38,1.6,1.6,0,0,0,1.41,1.06,1.94,1.94,0,0,0,1.31-.78,7,7,0,0,0,1.39-2.51h-2a.66.66,0,0,1-.64-.64.6.6,0,0,1,0-.19A.63.63,0,0,1,236.37,195.3Z" class="cls-5"/><path data-cppathid="10103" d="M245.62,190a.61.61,0,0,1,0,.19c.11.4.76,3.74,1.91,10a.33.33,0,0,1,0,.14.76.76,0,0,1,0,.3.57.57,0,0,1-.49.29H247a.52.52,0,0,1-.44-.4l-.65-3.33h-3.33L241,200.59v.11a.64.64,0,0,1-.5.29.58.58,0,0,1-.32-.1.71.71,0,0,1-.27-.65c.1-.23.25-.6.49-1.1q3.5-7.62,4.17-9a.62.62,0,0,1,.57-.39A.6.6,0,0,1,245.62,190Zm-.72,2.24-1.8,3.79h2.54Z" class="cls-5"/><path data-cppathid="10104" d="M254.64,201h-4.88a.54.54,0,0,1-.3-.1.81.81,0,0,1-.28-.6h0c0-.19.45-3.52,1.34-10v-.23a.53.53,0,0,1,.52-.34.42.42,0,0,1,.27,0,.54.54,0,0,1,.31.5,22.65,22.65,0,0,1-.33,2.75c-.55,4.26-.85,6.52-.88,6.74h4.15a.81.81,0,0,1,.31,0,.56.56,0,0,1,.37.55v.19A.71.71,0,0,1,254.64,201Z" class="cls-5"/><path data-cppathid="10105" d="M261.31,190a.61.61,0,0,1,0,.19q.19.6,1.91,10a.33.33,0,0,1,0,.14.76.76,0,0,1,0,.3.57.57,0,0,1-.49.29h-.09a.55.55,0,0,1-.44-.4l-.65-3.33h-3.31l-1.58,3.33a.2.2,0,0,1,0,.11.66.66,0,0,1-.51.29.67.67,0,0,1-.31-.1.54.54,0,0,1-.26-.47.54.54,0,0,1,0-.18l.49-1.1q3.51-7.62,4.19-9a.58.58,0,0,1,1.05-.11Zm-.72,2.24-1.8,3.79h2.54Z" class="cls-5"/><path data-cppathid="10106" d="M269.08,195.79l.88,2.43c.51,1.39.76,2.13.76,2.21a.48.48,0,0,1-.09.29.58.58,0,0,1-.49.27.53.53,0,0,1-.49-.38l-.08-.26c-.27-.61-.71-1.75-1.31-3.44l-2.76,3.78a.66.66,0,0,1-.52.3.76.76,0,0,1-.3,0,.53.53,0,0,1-.27-.49v-.22a1.22,1.22,0,0,1,.3-.48c.91-1.2,1.94-2.62,3.06-4.28-.13-.31-.24-.63-.33-.91-1.05-2.78-1.58-4.22-1.58-4.31a.61.61,0,0,1,.08-.3.47.47,0,0,1,.47-.28.55.55,0,0,1,.54.31l1.58,4.39,3.25-4.42a.6.6,0,0,1,.52-.28.42.42,0,0,1,.27,0,.53.53,0,0,1,.28.52.57.57,0,0,1,0,.26Z" class="cls-5"/><path data-cppathid="10107" d="M281.15,189.78a.62.62,0,0,1,.27,0,.6.6,0,0,1,.32.5c-.81,6.32-1.25,9.72-1.33,10.22a6.26,6.26,0,0,1-1,2.66,3.77,3.77,0,0,1-4.73,1.19,3.48,3.48,0,0,1-1.72-1.58.45.45,0,0,1,0-.28.47.47,0,0,1,.07-.29.55.55,0,0,1,.74-.2.64.64,0,0,1,.2.2,3.14,3.14,0,0,0,2.51,1.42,2.43,2.43,0,0,0,1.92-1,5.21,5.21,0,0,0,1.07-3.06,3,3,0,0,1-.71.76,3,3,0,0,1-1.75.57h-.33a2.66,2.66,0,0,1-1.85-1.33,6.15,6.15,0,0,1-.8-3.25,16,16,0,0,1,.08-1.83c.09-1,.3-2.39.64-4.2v-.17a.53.53,0,0,1,.53-.4.74.74,0,0,1,.28.08.52.52,0,0,1,.28.46c0,.3-.09,1-.26,2.22a30.14,30.14,0,0,0-.38,3.41,7,7,0,0,0,.42,2.64c.35.8.82,1.2,1.45,1.2h.19a2.67,2.67,0,0,0,1.47-1.17,7.21,7.21,0,0,0,1.2-2.68l.74-5.56a.73.73,0,0,1,.08-.25A.52.52,0,0,1,281.15,189.78Z" class="cls-5"/><path data-cppathid="10108" d="M353.92,210.16c-.17,0-.3-6.66-.3-14.87s.13-14.87.3-14.87.3,6.64.3,14.87S354.08,210.16,353.92,210.16Z" class="cls-4"/><path data-cppathid="10109" d="M221.5,210.16c-.17,0-.3-6.66-.3-14.87s.13-14.87.3-14.87.29,6.64.29,14.87S221.66,210.16,221.5,210.16Z" class="cls-3"/><path data-cppathid="10110" d="M356.75,210.16c-.16,0-.29-6.66-.29-14.87s.13-14.87.29-14.87.3,6.64.3,14.87S356.92,210.16,356.75,210.16Z" class="cls-4"/><path data-cppathid="10111" d="M218.84,210.16c-.16,0-.29-6.66-.29-14.87s.13-14.87.29-14.87.3,6.64.3,14.87S219,210.16,218.84,210.16Z" class="cls-3"/><path data-cppathid="10112" d="M314.68,185.31h0l17.11,13.8.14.12h-.19l-2.27.6L315,203.62h0l-13.09-5.54-3.71-1.58-1-.42L297,196h0l.25.11,1,.39,3.72,1.58,13.12,5.48h0l14.43-3.81,2.27-.6v.18l-17.06-13.85h0" class="cls-3"/><polygon data-cppathid="10113" points="330.21 196.91 331.14 197.78 332.39 197.51 331.86 198.68 332.49 199.79 331.22 199.61 330.37 200.57 330.13 199.31 328.95 198.79 330.09 198.19 330.21 196.91" class="cls-3"/><polygon data-cppathid="10114" points="313.8 202.34 314.44 202.88 315.23 202.66 314.93 203.42 315.39 204.11 314.56 204.06 314.05 204.71 313.84 203.91 313.07 203.62 313.77 203.18 313.8 202.34" class="cls-3"/><polygon data-cppathid="10115" points="295.68 194.91 296.7 194.97 297.33 194.18 297.59 195.16 298.53 195.51 297.68 196.06 297.63 197.07 296.86 196.42 295.88 196.71 296.25 195.76 295.68 194.91" class="cls-3"/><polygon data-cppathid="10116" points="337.88 185.53 338.89 185.6 339.53 184.79 339.78 185.77 340.73 186.13 339.87 186.67 339.83 187.69 339.05 187.05 338.07 187.32 338.44 186.37 337.88 185.53" class="cls-3"/><polygon data-cppathid="10117" points="313.84 184.87 314.49 184.9 314.9 184.4 315.06 185.03 315.68 185.25 315.12 185.6 315.09 186.24 314.6 185.83 313.97 186.01 314.21 185.41 313.84 184.87" class="cls-3"/><path data-cppathid="10118" d="M339.3,186.24s-5.54-.12-12.35-.41-12.35-.58-12.35-.64,5.53.11,12.36.41S339.3,186.18,339.3,186.24Z" class="cls-3"/><path data-cppathid="10119" d="M345.52,180.53H181.36c-2.14-4.88-2.66-9.47,0-13.65H345.52A15.85,15.85,0,0,1,345.52,180.53Z" class="cls-3"/><rect data-cppathid="10120" height="4.97" width="88.91" y="170.77" x="215.38" class="cls-2"/><path data-cppathid="10121" d="M187.69,180.61A4.8,4.8,0,0,1,186.4,179a12,12,0,0,1-.87-9.88,4.77,4.77,0,0,1,1-1.85,18.64,18.64,0,0,1-.59,2,13.81,13.81,0,0,0,.84,9.57A14.78,14.78,0,0,1,187.69,180.61Z" class="cls-3"/><path data-cppathid="10122" d="M191.25,180.61A4.71,4.71,0,0,1,190,179a12,12,0,0,1-.87-9.88,4.77,4.77,0,0,1,1-1.85,16.55,16.55,0,0,1-.59,2,13.81,13.81,0,0,0,.84,9.57A16.48,16.48,0,0,1,191.25,180.61Z" class="cls-3"/><path data-cppathid="10123" d="M338.88,180.29a29,29,0,0,0,1.15-6.67,28.65,28.65,0,0,0-1.07-6.7A13.9,13.9,0,0,1,338.88,180.29Z" class="cls-4"/><path data-cppathid="10124" d="M335.82,180.26c-.18,0,.52-2.92.5-6.55s-.69-6.49-.52-6.53a20.08,20.08,0,0,1,0,13.08Z" class="cls-4"/></g><g id="freepik--Plant--inject-33"><path data-cppathid="10125" d="M168.67,538.7c.15.22-2.73,2.17-7.18,5.57a167.67,167.67,0,0,0-31.05,30.51c-3.45,4.39-5.47,7.23-5.68,7.09s1.5-3.16,4.74-7.8a126.21,126.21,0,0,1,14.31-16.75,123.9,123.9,0,0,1,17-14C165.47,540.15,168.5,538.52,168.67,538.7Z" class="cls-6"/><path data-cppathid="10126" d="M162.79,514.59c.45.11-1.08,7.9-3.41,17.37s-4.6,17.15-5.09,17,1.09-7.89,3.41-17.36S162.34,514.48,162.79,514.59Z" class="cls-6"/><path data-cppathid="10127" d="M160.23,513.28c-1.15.51-1.48,3.35-.54,4.74a3.55,3.55,0,0,0,4.52.79,3.81,3.81,0,0,0,1.5-5.08,3.73,3.73,0,0,0-5.25-.66,2.67,2.67,0,0,0-.36.31" class="cls-7"/><path data-cppathid="10128" d="M172.48,524.24c.19.41-2.61,2.1-6.32,3.75s-6.75,2.67-6.94,2.26,2.6-2.11,6.31-3.77S172.29,523.86,172.48,524.24Z" class="cls-6"/><path data-cppathid="10129" d="M172.19,521.51a5.66,5.66,0,0,0-2.21,2.82,2.51,2.51,0,0,0,1.31,3,2.39,2.39,0,0,0,2.21-.47,4.57,4.57,0,0,0,1.27-2,3.59,3.59,0,0,0,.14-2.48,1.73,1.73,0,0,0-2-1.08" class="cls-7"/><path data-cppathid="10130" d="M172.11,535.54a3.38,3.38,0,1,1-.72,0" class="cls-7"/><path data-cppathid="10131" d="M97.67,440.83a38.17,38.17,0,0,1,.42,5.65c.12,3.9.3,9.1.5,15.38.35,13,.71,30.92,1,50.73s.47,37.76.52,50.75v15.37a34.39,34.39,0,0,1-.25,5.65,36.59,36.59,0,0,1-.41-5.63c-.13-3.9-.29-9.1-.49-15.38-.35-13-.71-30.94-1-50.75s-.47-37.77-.47-50.74V446.47A39.34,39.34,0,0,1,97.67,440.83Z" class="cls-6"/><path data-cppathid="10132" d="M123,430a25,25,0,1,1-27-22.94h0A25.06,25.06,0,0,1,123,430Z" class="cls-8"/><g class="cls-9"><path data-cppathid="10133" d="M97,457.09c-.25,0,0-2.81.21-7.24A40.84,40.84,0,0,0,94.61,433a23.39,23.39,0,0,0-11.35-12.12c-4-1.83-6.85-1.58-6.83-1.89s.69-.27,2-.27a15.13,15.13,0,0,1,5.32,1.09,22.9,22.9,0,0,1,12.44,12.5,37.23,37.23,0,0,1,2.19,17.55C97.91,454.41,97.15,457.12,97,457.09Z"/></g><g class="cls-9"><path data-cppathid="10134" d="M120.31,422.21c0,.5-7,0-13.89,4.5s-9.36,11-9.8,10.82c-.19-.08.12-1.8,1.47-4.26a22.41,22.41,0,0,1,17.74-11.49C118.62,421.59,120.33,422,120.31,422.21Z"/></g><g class="cls-9"><path data-cppathid="10135" d="M109.12,424.2c-.29,0-.6-1.66-2.15-3.79a11.27,11.27,0,0,0-15.66-3.05A11.06,11.06,0,0,0,89.42,419c-1.88,1.84-2.48,3.48-2.75,3.37s0-1.9,1.88-4.17a11.73,11.73,0,0,1,19.4,1.58C109.4,422.32,109.29,424.2,109.12,424.2Z"/></g><g class="cls-9"><path data-cppathid="10136" d="M102.21,429c-.49,0-1-3.39-3.16-7s-4.74-5.8-4.48-6.19,3.64,1.36,5.93,5.35S102.65,429,102.21,429Z"/></g><g class="cls-9"><path data-cppathid="10137" d="M99.77,421.54c.11.49-2,1.16-3.66,2.83s-2.9,3.6-3.34,3.35.11-2.44,2.17-4.57S99.76,421.15,99.77,421.54Z"/></g><path data-cppathid="10138" d="M44.35,517.67c.45-.14,7.33,20.14,15.38,45.27s14.2,45.65,13.79,45.78-7.32-20.14-15.37-45.26S43.91,517.81,44.35,517.67Z" class="cls-6"/><path data-cppathid="10139" d="M60.38,567.69c-.29.3-7.31-5.25-16.1-12s-15.68-12.63-15.38-13,7.61,4.85,16.48,11.68S60.72,567.31,60.38,567.69Z" class="cls-6"/><path data-cppathid="10140" d="M25,540.61c-1.35,1.24-.87,4,.67,5.54s5.08.79,6.31-1a4.1,4.1,0,0,0-1.58-5.56,4.53,4.53,0,0,0-5.71,1.5" class="cls-7"/><path data-cppathid="10141" d="M60.38,507.79c.5.1-1,7.32-4,15.79S51.66,539,51.16,538.92s.68-7.37,3.66-15.88S60,507.71,60.38,507.79Z" class="cls-6"/><path data-cppathid="10142" d="M59.59,501.54c-1.68,1.2-1.76,1.91-2.39,3.87s.27,4.51,2.28,4.94,3.61-1.23,4.4-3a5.26,5.26,0,0,0,0-5,2.93,2.93,0,0,0-4-.84,2.56,2.56,0,0,0-.44.36" class="cls-7"/><path data-cppathid="10143" d="M30.91,561.46c-.16-.43,2.79-2.07,6.61-3.68s7.06-2.57,7.25-2.16-2.77,2.08-6.6,3.69S31.08,561.88,30.91,561.46Z" class="cls-6"/><path data-cppathid="10144" d="M24.86,558.66c-1.14.6-1.58,3.38-1.58,4.53a3.76,3.76,0,0,0,1.77,2.86,4.47,4.47,0,1,0-.22-7.39" class="cls-7"/><path data-cppathid="10145" d="M37,513a5.95,5.95,0,0,0,10.27,5.24,4.24,4.24,0,0,0,1.16-3.39A6.89,6.89,0,0,0,43,509.89,6.13,6.13,0,0,0,37,513.05" class="cls-7"/><path data-cppathid="10146" d="M122.72,537.91c.23.09-.59,2.6-2,6.63l-5.51,15.69c-2.1,5.77-4,11-5.65,15.66-1.49,4-2.43,6.44-2.67,6.31s2.33-10.34,6.74-22.59S122.28,537.72,122.72,537.91Z" class="cls-6"/><path data-cppathid="10147" d="M149.32,526.42A21.44,21.44,0,1,1,132.8,501h0A21.45,21.45,0,0,1,149.32,526.42Z" class="cls-8"/><g class="cls-9"><path data-cppathid="10148" d="M121.4,542.31c-.22-.11.69-2.3,1.86-5.92a35.29,35.29,0,0,0,2-14.41,20.09,20.09,0,0,0-6.31-12.63c-2.8-2.48-5.2-3-5.1-3.3s2.62,0,5.84,2.39a19.64,19.64,0,0,1,7.16,13.37,31.44,31.44,0,0,1-2.51,15C122.88,540.39,121.59,542.39,121.4,542.31Z"/></g><g class="cls-9"><path data-cppathid="10149" d="M149.05,519.38c-.09.49-5.77-1.58-12.45.41s-10.36,6.75-10.7,6.39.47-1.48,2.16-3.16a19,19,0,0,1,8.07-4.73,18.67,18.67,0,0,1,9.36-.33C147.84,518.4,149.13,519.12,149.05,519.38Z"/></g><g class="cls-9"><path data-cppathid="10150" d="M139.38,518.29c-.27,0-.14-1.58-.92-3.62a9.62,9.62,0,0,0-12.12-6.2,9.28,9.28,0,0,0-1.8.79c-2,1-2.89,2.19-3.16,2s.45-1.58,2.51-3a10.07,10.07,0,0,1,14,2.43,10.19,10.19,0,0,1,1.61,3.66C140.09,516.8,139.55,518.33,139.38,518.29Z"/></g><g class="cls-9"><path data-cppathid="10151" d="M132.56,520.54c-.49-.11-.14-3-1-6.47s-2.43-5.88-2.05-6.2,2.76,2,3.68,5.82S133,520.7,132.56,520.54Z"/></g><g class="cls-9"><path data-cppathid="10152" d="M132.35,513.82c0,.51-1.86.6-3.63,1.58s-3.26,2.19-3.61,1.83.6-2.05,2.86-3.32S132.45,513.43,132.35,513.82Z"/></g><path data-cppathid="10153" d="M73.41,493a15.55,15.55,0,0,1,.82,3.57c.46,2.65,1,5.92,1.58,9.75,1.31,8.26,3,19.67,4.74,32.28s3.28,24,4.31,32.33c.44,3.86.8,7.15,1.12,9.83a14.25,14.25,0,0,1,.17,3.63,16.05,16.05,0,0,1-.82-3.55q-.66-4-1.58-9.75c-1.31-8.24-3-19.67-4.73-32.3s-3.29-24.06-4.31-32.26c-.44-3.87-.81-7.15-1.12-9.82A15.38,15.38,0,0,1,73.41,493Z" class="cls-6"/><path data-cppathid="10154" d="M91.61,470.46a21.42,21.42,0,1,1-26.4-14.85,21.42,21.42,0,0,1,26.4,14.85Z" class="cls-8"/><g class="cls-9"><path data-cppathid="10155" d="M74.27,497.48c-.26,0-.46-2.35-1.11-6.11a35.39,35.39,0,0,0-4.94-13.66,20.09,20.09,0,0,0-11.41-8.29c-3.62-.9-6-.24-6-.55s2.29-1.25,6.31-.6a19.59,19.59,0,0,1,12.55,8.52,31.4,31.4,0,0,1,4.74,14.43C74.68,495.1,74.47,497.48,74.27,497.48Z"/></g><g class="cls-9"><path data-cppathid="10156" d="M88.11,464.34c.14.48-5.84,1.29-10.83,6.15s-6,10.78-6.52,10.62c-.2,0-.25-1.57.44-3.85a19,19,0,0,1,13.06-12.62C86.59,464,88.09,464.13,88.11,464.34Z"/></g><g class="cls-9"><path data-cppathid="10157" d="M79.05,467.86c-.25.11-.84-1.25-2.49-2.77a9.64,9.64,0,0,0-13.62.13,9.42,9.42,0,0,0-1.22,1.53c-1.3,1.83-1.58,3.28-1.83,3.24s-.35-1.58.82-3.86a10.09,10.09,0,0,1,13.61-4.32,10.25,10.25,0,0,1,3.09,2.46C79,466.21,79.22,467.82,79.05,467.86Z"/></g><g class="cls-9"><path data-cppathid="10158" d="M74.05,473c-.48.13-1.58-2.63-3.87-5.27s-4.9-4.09-4.74-4.53,3.35.44,6,3.44S74.47,473,74.05,473Z"/></g><g class="cls-9"><path data-cppathid="10159" d="M70.76,467.18c.21.45-1.39,1.39-2.51,3s-1.88,3.46-2.37,3.29-.41-2.09,1-4.25S70.64,466.78,70.76,467.18Z"/></g><polygon data-cppathid="10160" points="76.48 720.87 57.01 580.57 140.72 580.57 123.64 720.87 76.48 720.87" class="cls-6"/><path data-cppathid="10161" d="M134.69,635.44c0,.38-15.69.69-35,.69s-35-.31-35-.69,15.69-.71,35-.71S134.69,635.05,134.69,635.44Z" class="cls-5"/><path data-cppathid="10162" d="M132.94,644.45c0,.4-15,.71-33.53.71s-33.51-.31-33.51-.71,15-.63,33.51-.63S132.94,644.07,132.94,644.45Z" class="cls-5"/><path data-cppathid="10163" d="M131.9,653.09c0,.39-14.53.71-32.41.71s-32.42-.32-32.42-.71,14.52-.7,32.42-.7S131.9,652.71,131.9,653.09Z" class="cls-5"/><path data-cppathid="10164" d="M130.74,662.46c0,.4-14,.71-31.17.71s-31.19-.31-31.19-.71,14-.69,31.19-.69S130.74,662.08,130.74,662.46Z" class="cls-5"/><path data-cppathid="10165" d="M129.7,671c0,.4-13.32.71-29.75.71s-29.76-.31-29.76-.71,13.33-.71,29.76-.71S129.7,670.66,129.7,671Z" class="cls-5"/><path data-cppathid="10166" d="M128,679.61c0,.37-12.83.69-28.64.69s-28.65-.32-28.65-.69,12.83-.71,28.65-.71S128,679.21,128,679.61Z" class="cls-5"/><path data-cppathid="10167" d="M127.62,688.18c0,.38-12.47.69-27.85.69S72,688.56,72,688.18s12.45-.71,27.82-.71S127.62,687.78,127.62,688.18Z" class="cls-5"/><path data-cppathid="10168" d="M126.58,696.75c0,.38-12,.69-26.73.69s-26.72-.31-26.72-.69,12-.71,26.72-.71S126.58,696.35,126.58,696.75Z" class="cls-5"/></g><g id="freepik--Window--inject-1427"><path data-cppathid="10169" d="M364.35,354.78H262.72a.51.51,0,0,1-.5-.5v-127a.5.5,0,0,1,.5-.5H364.35a.5.5,0,0,1,.5.5v127A.51.51,0,0,1,364.35,354.78Zm-101.13-1H363.85v-126H263.22Z" class="cls-6"/></g><g id="freepik--Character--inject-1427"><path data-cppathid="10170" d="M397.54,156.26s0-24.21-41.55-19.36-59,41.55-71.51,49.27-35.76,14.53-36.73,26.1,9.68,16.42-1,25.12-27,16.47-23.18,28.08,14.52,23.18,9.68,30.93-18.37,15.46-5.81,24.2,18.36,10.64,18.36,22.22S241,362.18,252.61,366s18.34-3.87,25.12,10.62S291.25,395,302.85,392.1s28-7.73,33.89-3.86,24.2,14.53,31.88,8.7,14.53-14.52,26.1-9.68,21.26,11.6,26.09,2.9,0-10.63,18.36-14.52,25.12-2.89,25.12-18.35-1-19.36,7.73-26.09,16.43-3.87,13.54-20.3-8.7-20.29-5.81-36.72-4.84-22.22-10.63-27.06S456.56,233.6,458.5,224.9s16.43-9.68,1.92-25.12-21.25-10.64-24.2-22.24S423.63,140.8,397.54,156.26Z" class="cls-6"/><path data-cppathid="10171" d="M362.72,399.13c-10,0-24.31-9.19-26.26-10.47-5.08-3.35-18.77.16-29.77,3-1.28.33-2.52.65-3.71.94-12,3-18.94-1.26-25.7-15.73-4.32-9.22-8.47-9.16-14.23-9.09a30.39,30.39,0,0,1-10.6-1.26c-9.13-3-8.49-8.67-7.68-15.83a70.09,70.09,0,0,0,.56-7.85c0-9.61-4.08-12.35-13-18.33-1.56-1.05-3.27-2.19-5.12-3.48-3.31-2.31-5.07-4.68-5.36-7.27-.49-4.23,3.06-8.18,6.5-12a43,43,0,0,0,4.53-5.61c3.05-4.87-.53-11.63-4.32-18.78a76.85,76.85,0,0,1-5.41-11.73c-3.09-9.46,6.6-16.4,16-23.11,2.5-1.8,5.09-3.65,7.37-5.51,6.27-5.12,4.89-8.67,3-13.59-1.21-3.1-2.58-6.62-2.2-11.19.72-8.6,12.87-14.43,24.62-20.07,4.54-2.18,8.83-4.24,12.34-6.4s7.49-6.73,12.13-12c11.79-13.47,29.59-33.83,59.59-37.32,16.36-1.9,28.31.38,35.53,6.81A19.23,19.23,0,0,1,398,155.42c8.2-4.68,15.5-5.75,21.7-3.18,10.31,4.28,15.08,17.61,17,25.18,1.54,6,4.13,7.47,8.43,9.86a57.79,57.79,0,0,1,15.65,12.15c10.23,10.89,6.24,15.09,2.39,19.15-1.77,1.87-3.6,3.8-4.18,6.43-1.8,8.08,4.22,16.52,10.45,21.73l.57.48c5.83,4.84,13.08,10.87,10.23,27-1.84,10.48-.08,15.84,2.14,22.63a93.36,93.36,0,0,1,3.67,13.92c2.17,12.34-1.73,14.25-7.14,16.9a35.7,35.7,0,0,0-6.58,3.88c-7.66,5.92-7.63,9.53-7.56,21.49,0,1.3,0,2.7,0,4.2,0,13.87-5.55,14.94-19,17.53-2,.38-4.19.81-6.57,1.31-13.59,2.88-14.17,4.52-15.7,8.9a32.47,32.47,0,0,1-2.33,5.38c-4.21,7.59-11.94,4-20.88-.09-1.89-.87-3.83-1.76-5.84-2.6-9.32-3.9-15.34,1.14-21.71,6.47-1.27,1.06-2.57,2.15-3.88,3.15A10.08,10.08,0,0,1,362.72,399.13Zm-32.61-12.82c2.86,0,5.27.43,6.9,1.52,2.35,1.54,23.13,14.91,31.31,8.71,1.29-1,2.59-2.06,3.85-3.11,6.32-5.3,12.85-10.77,22.74-6.63,2,.84,4,1.74,5.86,2.61,8.85,4.07,15.84,7.29,19.6.51a30.34,30.34,0,0,0,2.25-5.22c1.63-4.63,2.3-6.55,16.45-9.55,2.38-.5,4.57-.93,6.58-1.31,13.57-2.62,18.14-3.51,18.14-16.55,0-1.5,0-2.89,0-4.19-.07-12-.1-16.07,8-22.29a36.7,36.7,0,0,1,6.75-4c5.39-2.64,8.64-4.23,6.6-15.83a92.71,92.71,0,0,0-3.64-13.78c-2.27-6.92-4.06-12.39-2.17-23.12,2.74-15.6-4.26-21.43-9.89-26.11l-.57-.48c-6.46-5.39-12.68-14.19-10.79-22.71.65-2.89,2.57-4.93,4.44-6.89,3.85-4.07,7.18-7.59-2.39-17.78a56.86,56.86,0,0,0-15.42-12c-4.38-2.44-7.27-4-8.91-10.49-1.88-7.39-6.51-20.39-16.43-24.51-6.07-2.52-13.31-1.33-21.51,3.53a.5.5,0,0,1-.5,0,.5.5,0,0,1-.25-.43,18.09,18.09,0,0,0-6.27-12.32c-7-6.21-18.67-8.42-34.72-6.55-29.62,3.45-46.57,22.84-58.95,37-4.89,5.58-8.75,10-12.36,12.22s-7.87,4.26-12.44,6.45c-11.49,5.52-23.38,11.23-24.05,19.26-.36,4.33,1,7.73,2.13,10.74,1.91,4.91,3.56,9.14-3.28,14.73-2.3,1.87-4.9,3.74-7.42,5.54-9.08,6.5-18.47,13.23-15.61,22a76,76,0,0,0,5.34,11.57c3.93,7.42,7.64,14.42,4.29,19.78a44.14,44.14,0,0,1-4.64,5.75c-3.29,3.66-6.69,7.44-6.25,11.22.26,2.28,1.88,4.43,4.94,6.56,1.85,1.29,3.55,2.42,5.1,3.47,9,6,13.48,9,13.48,19.16a69,69,0,0,1-.57,8c-.81,7.23-1.35,12,7,14.77A29.51,29.51,0,0,0,263,366.76c5.9-.07,10.56-.14,15.14,9.67,6.6,14.1,13,18.07,24.55,15.18,1.2-.29,2.44-.61,3.72-.94C314.27,388.66,323.44,386.31,330.11,386.31Zm67.93-230h0Z" class="cls-6"/><path data-cppathid="10172" d="M253.42,325.28l-.95-.32c1.38-4.14.48-6.94-.64-10.49a33.13,33.13,0,0,1-2-11c0-6.65,7.16-10.16,15.46-14.23,5.21-2.56,11.13-5.46,15.85-9.52,8.21-7,7.88-12.34,7.47-19.07a47.21,47.21,0,0,1,.14-10c1.06-7.4,13.72-14.22,27.12-21.44C325,224.34,334.32,219.29,340,214c7.07-6.63,11.42-14.17,15.62-21.47,1.43-2.48,2.9-5.05,4.44-7.48l.85.54c-1.53,2.41-2.93,4.85-4.42,7.44-4.24,7.36-8.63,15-15.8,21.7-5.74,5.35-15.17,10.43-24.28,15.34-12.6,6.79-25.63,13.81-26.61,20.7a46.56,46.56,0,0,0-.14,9.82c.42,6.73.78,12.53-7.8,19.89-4.83,4.14-10.8,7.07-16.07,9.66-8,3.92-14.9,7.31-14.9,13.33a32.27,32.27,0,0,0,1.93,10.67C253.92,317.74,254.9,320.83,253.42,325.28Z" class="cls-10"/><path data-cppathid="10173" d="M367.43,176.77l-.74-.68c.87-1,1.78-1.87,2.69-2.72,4.37-4.07,8.27-5.75,11.6-5,4,.93,5.58,5,5.65,5.17l-.93.35s-1.49-3.75-4.95-4.54c-3-.69-6.58.9-10.69,4.73C369.17,174.93,368.28,175.83,367.43,176.77Z" class="cls-10"/><path data-cppathid="10174" d="M243.91,298.42l-1-.24c.8-3.18,0-5.72-4.29-14.35a7.36,7.36,0,0,1-.38-6.06c2.34-6.3,12.84-11.3,20.53-14.52s8-9.34,8.48-18.62c.16-2.84.33-6.06.74-9.53.89-7.71,9.12-9.71,19.55-12.23l.76-.18.23,1-.76.18c-10,2.43-18,4.36-18.79,11.38-.4,3.43-.58,6.64-.73,9.46-.5,9.31-.86,16-9.09,19.49-7.52,3.15-17.78,8-20,13.95a6.28,6.28,0,0,0,.34,5.26C243.75,291.76,244.83,294.76,243.91,298.42Z" class="cls-10"/><path data-cppathid="10175" d="M303.1,219.45l-.33-.94A49.73,49.73,0,0,0,320.12,208c11-10.57,14.1-20.8,16.8-29.83,2.17-7.28,4.23-14.16,10-20.33,13-14,37.5,1.49,37.75,1.65l-.54.84c-.24-.15-24-15.17-36.48-1.81-5.6,6-7.62,12.77-9.77,19.94-2.73,9.15-5.83,19.51-17.07,30.27A50.84,50.84,0,0,1,303.1,219.45Z" class="cls-10"/><path data-cppathid="10176" d="M474.16,288.37a16.21,16.21,0,0,1-6-5.53l.84-.54a15.2,15.2,0,0,0,5.64,5.19Z" class="cls-10"/><path data-cppathid="10177" d="M461.91,269.86a61.64,61.64,0,0,1-2.73-18.24c0-19-4.36-23.87-13.5-27.2-6.86-2.5-10.15-13.74-13.34-24.6a121.54,121.54,0,0,0-4.26-12.88c-4.95-11.55-26-5-26.19-4.9l-.31-1c.9-.28,22.12-6.92,27.42,5.46a119.84,119.84,0,0,1,4.3,13c3.12,10.63,6.34,21.62,12.72,23.95,9.59,3.49,14.16,8.6,14.16,28.14a60.28,60.28,0,0,0,2.69,17.94Z" class="cls-10"/><path data-cppathid="10178" d="M262,335.76l-.85-.53c3.17-5.16,6.81-7.09,10-8.8,3.77-2,6.74-3.57,7.2-10a31,31,0,0,0-1.31-11.1c-1.12-4.3-2-7.7,2.29-12.55,6.92-7.79,18.28-11.4,18.4-11.44l.3.95c-.12,0-11.22,3.57-17.95,11.15-3.95,4.45-3.2,7.31-2.07,11.63a32.33,32.33,0,0,1,1.34,11.43c-.5,7-3.85,8.75-7.73,10.8C268.56,329,265.05,330.82,262,335.76Z" class="cls-10"/><path data-cppathid="10179" d="M270.78,360.12a41.72,41.72,0,0,1-8.33-9.36l.84-.55a40.25,40.25,0,0,0,8.13,9.14Z" class="cls-10"/><path data-cppathid="10180" d="M510.6,722.53s2.89-39.61-14.52-79.24-21.33-42.49-21.33-54.09S486.4,564.06,488.34,538s1-38.73,1-38.73,41.55,65.71,70.55,69.58,46.39-23.19,35.76-59.91-57-66.68-75.37-90.85-59.93-24.2-81.18-24.2-31.89-7.73-35.76-22.22-3.86-43.57-3.86-43.57-25.14,15.46-67.65-1.93c0,0,3.87,53.15-1,60.88s-11.56,15.6-40.55,15.6S237.12,408.43,223.6,422,154,489.62,139.53,510.89s-6.78,44.46,10.61,53.15,34.79,1,47.36-10.63,52.19-48.33,52.19-48.33,0,22.24,10.63,54.12,19.36,28,11.59,51.22-23.19,30-28,59.91A285,285,0,0,0,240,722.51" class="cls-11"/><g class="cls-12"><g class="cls-13"><path data-cppathid="10181" d="M447.19,424.16c-.66,0-3.08,1.61,0,6.31C450.27,425.81,447.85,424.16,447.19,424.16Z"/><path data-cppathid="10182" d="M524.64,424.16c-.66,0-3.08,1.61,0,6.31C527.72,425.81,525.3,424.16,524.64,424.16Z"/><path data-cppathid="10183" d="M524.64,462.89c-.66,0-3.08,1.61,0,6.31C527.72,464.53,525.3,462.89,524.64,462.89Z"/><path data-cppathid="10184" d="M447.19,462.89c-.66,0-3.08,1.61,0,6.31C450.27,464.53,447.85,462.89,447.19,462.89Z"/><path data-cppathid="10185" d="M485.91,443.52c-.66,0-3.08,1.62,0,6.31C489,445.17,486.58,443.52,485.91,443.52Z"/><path data-cppathid="10186" d="M485.91,404.8c-.66,0-3.08,1.61,0,6.31C489,406.44,486.58,404.8,485.91,404.8Z"/><path data-cppathid="10187" d="M448.93,431.44c5.58.31,5.78-2.62,5.46-3.23S451.34,426.42,448.93,431.44Z"/><path data-cppathid="10188" d="M531.11,430.33,529,428.11a7.66,7.66,0,0,0-2.65,3.33A6.52,6.52,0,0,0,531.11,430.33Z"/><path data-cppathid="10189" d="M487.66,450.8c5.58.31,5.77-2.61,5.45-3.23S490.06,445.78,487.66,450.8Z"/><path data-cppathid="10190" d="M487.66,412.08c5.58.3,5.77-2.62,5.45-3.23S490.06,407.06,487.66,412.08Z"/><path data-cppathid="10191" d="M517.51,428.26c-.32.56-.11,3.49,5.45,3.23C520.49,426.42,517.85,427.68,517.51,428.26Z"/><path data-cppathid="10192" d="M517.51,467a2,2,0,0,0,.84,2.21h0a6.79,6.79,0,0,0,4.61,1,8.82,8.82,0,0,0-.51-1C520.14,465.32,517.83,466.44,517.51,467Z"/><path data-cppathid="10193" d="M478.78,447.62c-.32.57-.11,3.49,5.46,3.23C481.77,445.78,479.12,447,478.78,447.62Z"/><path data-cppathid="10194" d="M478.78,408.9c-.32.56-.11,3.48,5.46,3.22C481.77,407.06,479.12,408.32,478.78,408.9Z"/><path data-cppathid="10195" d="M447.19,540.34c-.66,0-3.08,1.61,0,6.31C450.27,542,447.85,540.34,447.19,540.34Z"/><path data-cppathid="10196" d="M524.64,540.34c-.48,0-1.87.87-1.44,3.11.68.73,1.36,1.46,2,2.17C527.35,541.74,525.25,540.34,524.64,540.34Z"/><path data-cppathid="10197" d="M447.19,579.07c-.66,0-3.08,1.61,0,6.3C450.27,580.71,447.85,579.07,447.19,579.07Z"/><path data-cppathid="10198" d="M563.37,559.7c-.66,0-3.09,1.62,0,6.31C566.45,561.35,564,559.7,563.37,559.7Z"/><path data-cppathid="10199" d="M447.19,501.61c-.66,0-3.08,1.62,0,6.31C450.27,503.26,447.85,501.61,447.19,501.61Z"/><path data-cppathid="10200" d="M524.64,501.61c-.66,0-3.08,1.62,0,6.31C527.72,503.26,525.3,501.61,524.64,501.61Z"/><path data-cppathid="10201" d="M485.91,521c-.66,0-3.08,1.61,0,6.31C489,522.62,486.58,521,485.91,521Z"/><path data-cppathid="10202" d="M563.37,521c-.66,0-3.09,1.61,0,6.31C566.45,522.62,564,521,563.37,521Z"/><path data-cppathid="10203" d="M485.91,482.25c-.66,0-3.08,1.61,0,6.31C489,483.9,486.58,482.25,485.91,482.25Z"/><path data-cppathid="10204" d="M563.37,482.25c-.66,0-3.09,1.61,0,6.31C566.45,483.9,564,482.25,563.37,482.25Z"/><path data-cppathid="10205" d="M448.93,547.62c5.58.3,5.78-2.62,5.46-3.23S451.34,542.6,448.93,547.62Z"/><path data-cppathid="10206" d="M526.63,547l.58.59c4.69,0,4.84-2.66,4.56-3.22S529,542.71,526.63,547Z"/><path data-cppathid="10207" d="M453.09,582.58a3,3,0,0,0-1.93.68,6.79,6.79,0,0,0-.91.87,10.62,10.62,0,0,0-.87,1.24.17.17,0,0,1,0,.1c-.14.26-.3.55-.45.87a6.71,6.71,0,0,0,4.62-1h0a2.15,2.15,0,0,0,.32-.29,2.31,2.31,0,0,0,.4-.58,1.18,1.18,0,0,0-1.11-1.92Z"/><path data-cppathid="10208" d="M565.11,567c5.57.31,5.78-2.61,5.45-3.23S567.51,562,565.11,567Z"/><path data-cppathid="10209" d="M448.93,508.89c5.58.31,5.78-2.61,5.46-3.23S451.34,503.87,448.93,508.89Z"/><path data-cppathid="10210" d="M531.77,505.71c-.34-.58-3-1.84-5.45,3.23C531.89,509.2,532.1,506.28,531.77,505.71Z"/><path data-cppathid="10211" d="M487.66,528.25a10.9,10.9,0,0,0,1.4,0c0-.8.08-1.61.11-2.35A10,10,0,0,0,487.66,528.25Z"/><path data-cppathid="10212" d="M565.11,528.25c5.57.31,5.78-2.61,5.45-3.22S567.51,523.24,565.11,528.25Z"/><path data-cppathid="10213" d="M487.66,489.53c5.58.3,5.77-2.62,5.45-3.23S490.06,484.51,487.66,489.53Z"/><path data-cppathid="10214" d="M565.11,489.53c5.57.3,5.78-2.62,5.45-3.23S567.51,484.51,565.11,489.53Z"/><path data-cppathid="10215" d="M481.67,566.85l.89-2.4c-1.87-1.94-3.52-1.1-3.78-.65S478.61,566.29,481.67,566.85Z"/><path data-cppathid="10216" d="M595,544.44a2.08,2.08,0,0,0,1.08,2.39c.34-.94.63-1.91.91-2.89A1.89,1.89,0,0,0,595,544.44Z"/><path data-cppathid="10217" d="M556.23,563.8c-.33.57-.11,3.49,5.46,3.23C559.22,562,556.57,563.22,556.23,563.8Z"/><path data-cppathid="10218" d="M517.51,505.71c-.32.57-.11,3.49,5.45,3.23C520.49,503.87,517.85,505.13,517.51,505.71Z"/><path data-cppathid="10219" d="M478.78,525.07c-.32.57-.11,3.49,5.46,3.23C481.77,523.24,479.12,524.49,478.78,525.07Z"/><path data-cppathid="10220" d="M556.23,525.07c-.33.57-.11,3.49,5.46,3.23C559.22,523.24,556.57,524.49,556.23,525.07Z"/><path data-cppathid="10221" d="M478.78,486.35c-.32.56-.11,3.48,5.46,3.23C481.77,484.51,479.12,485.77,478.78,486.35Z"/><path data-cppathid="10222" d="M556.23,486.35c-.33.56-.11,3.48,5.46,3.23C559.22,484.51,556.57,485.77,556.23,486.35Z"/><path data-cppathid="10223" d="M530.93,469.2h0a2,2,0,0,0,.84-2.21c-.32-.55-2.63-1.62-4.93,2.21h0a7.44,7.44,0,0,0-.52,1A6.73,6.73,0,0,0,530.93,469.2Z"/><path data-cppathid="10224" d="M453.48,469.2h0a2,2,0,0,0,.84-2.21c-.32-.55-2.63-1.62-4.94,2.21h0a8.82,8.82,0,0,0-.51,1A6.73,6.73,0,0,0,453.48,469.2Z"/><path data-cppathid="10225" d="M447.19,656.52c-.66,0-3.08,1.61,0,6.31C450.27,658.16,447.85,656.52,447.19,656.52Z"/><path data-cppathid="10226" d="M447.19,695.24c-.66,0-3.08,1.62,0,6.31C450.27,696.89,447.85,695.24,447.19,695.24Z"/><path data-cppathid="10227" d="M485.91,675.88c-.66,0-3.08,1.61,0,6.31C489,677.53,486.58,675.88,485.91,675.88Z"/><path data-cppathid="10228" d="M447.19,617.79c-.66,0-3.08,1.61,0,6.31C450.27,619.44,447.85,617.79,447.19,617.79Z"/><path data-cppathid="10229" d="M485.91,637.15c-.66,0-3.08,1.62,0,6.31C489,638.8,486.58,637.15,485.91,637.15Z"/><path data-cppathid="10230" d="M448.93,663.79c5.58.31,5.78-2.61,5.46-3.22S451.34,658.78,448.93,663.79Z"/><path data-cppathid="10231" d="M453.09,698.76h-.33a2.72,2.72,0,0,0-1.18.37l-.42.29a7.56,7.56,0,0,0-1.78,2.12h0a8.82,8.82,0,0,0-.51,1,6.73,6.73,0,0,0,4.61-1h0a2,2,0,0,0,.84-2.21A1.61,1.61,0,0,0,453.09,698.76Z"/><path data-cppathid="10232" d="M487.66,683.16c5.58.3,5.77-2.62,5.45-3.23S490.06,678.14,487.66,683.16Z"/><path data-cppathid="10233" d="M448.93,625.07c5.58.3,5.78-2.62,5.46-3.23S451.34,620.05,448.93,625.07Z"/><path data-cppathid="10234" d="M487.66,644.43c5.58.31,5.77-2.61,5.45-3.23S490.06,639.41,487.66,644.43Z"/><path data-cppathid="10235" d="M478.78,680c-.32.56-.11,3.48,5.46,3.23C481.77,678.14,479.12,679.4,478.78,680Z"/><path data-cppathid="10236" d="M478.78,641.25c-.32.57-.11,3.49,5.46,3.23C481.77,639.41,479.12,640.67,478.78,641.25Z"/><path data-cppathid="10237" d="M485.91,714.61c-.66,0-3.08,1.61,0,6.3C489,716.25,486.58,714.61,485.91,714.61Z"/><path data-cppathid="10238" d="M487.66,721.88c5.58.31,5.77-2.61,5.45-3.22S490.06,716.86,487.66,721.88Z"/><path data-cppathid="10239" d="M478.78,718.7c-.32.57-.11,3.49,5.46,3.23C481.77,716.86,479.12,718.12,478.78,718.7Z"/><path data-cppathid="10240" d="M369.74,346.71c-.66,0-3.08,1.61,0,6.31C372.82,348.36,370.4,346.71,369.74,346.71Z"/><path data-cppathid="10241" d="M331.93,327.88c0,.87.13,2.08.23,3.6A3.39,3.39,0,0,0,331.93,327.88Z"/><path data-cppathid="10242" d="M375.64,350.23a2.9,2.9,0,0,0-1.93.67,6.89,6.89,0,0,0-.91.88,9.84,9.84,0,0,0-.87,1.24v.1a8.68,8.68,0,0,0-.45.87,6.74,6.74,0,0,0,4.61-1h0a3.11,3.11,0,0,0,.33-.29,2.85,2.85,0,0,0,.4-.58,1.61,1.61,0,0,0,.11-1.34A1.59,1.59,0,0,0,375.64,350.23Z"/><path data-cppathid="10243" d="M332.75,334.62c5.59.31,5.78-2.61,5.46-3.22S335.16,329.61,332.75,334.62Z"/><path data-cppathid="10244" d="M293.77,426a2.31,2.31,0,0,0-.21-.71h0a2.69,2.69,0,0,0-.16-.29h0a1.86,1.86,0,0,0-.37-.42h0a1.58,1.58,0,0,0-.39-.24h0a.68.68,0,0,0-.65,0c-.74.32-1.95,1.61-.59,4.62a13.6,13.6,0,0,0,.92,1.61,15.16,15.16,0,0,0,.92-1.61,5.75,5.75,0,0,0,.61-2.44,3.38,3.38,0,0,0,0-.45Z"/><path data-cppathid="10245" d="M369.74,424.16c-.66,0-3.08,1.61,0,6.31C372.82,425.81,370.4,424.16,369.74,424.16Z"/><path data-cppathid="10246" d="M369.74,462.89c-.66,0-3.08,1.61,0,6.31C372.82,464.53,370.4,462.89,369.74,462.89Z"/><path data-cppathid="10247" d="M293.77,464.68a2.16,2.16,0,0,0-.21-.71h0a2.69,2.69,0,0,0-.16-.29h0a1.86,1.86,0,0,0-.37-.42h0a1.58,1.58,0,0,0-.39-.24h0a.68.68,0,0,0-.65,0c-.74.32-1.95,1.61-.59,4.61a12.18,12.18,0,0,0,.92,1.61,13.41,13.41,0,0,0,.92-1.61,5.75,5.75,0,0,0,.61-2.44,3.38,3.38,0,0,0,0-.45Z"/><path data-cppathid="10248" d="M331,443.52c-.66,0-3.08,1.62,0,6.31C334.09,445.17,331.67,443.52,331,443.52Z"/><path data-cppathid="10249" d="M408.46,443.52c-.66,0-3.08,1.62,0,6.31C411.54,445.17,409.12,443.52,408.46,443.52Z"/><path data-cppathid="10250" d="M369.74,385.44c-.66,0-3.08,1.61,0,6.3C372.82,387.08,370.4,385.44,369.74,385.44Z"/><path data-cppathid="10251" d="M331,404.8c-.66,0-3.08,1.61,0,6.31C334.09,406.44,331.67,404.8,331,404.8Z"/><path data-cppathid="10252" d="M408.46,404.8c-.66,0-3.08,1.61,0,6.31C411.54,406.44,409.12,404.8,408.46,404.8Z"/><path data-cppathid="10253" d="M294,431.44c5.58.31,5.77-2.62,5.45-3.23S296.43,426.42,294,431.44Z"/><path data-cppathid="10254" d="M371.48,431.44c5.57.31,5.78-2.62,5.45-3.23S373.88,426.42,371.48,431.44Z"/><path data-cppathid="10255" d="M332.75,450.8c5.59.31,5.78-2.61,5.46-3.23S335.16,445.78,332.75,450.8Z"/><path data-cppathid="10256" d="M410.21,450.8c5.56.31,5.77-2.61,5.45-3.23S412.61,445.78,410.21,450.8Z"/><path data-cppathid="10257" d="M371.48,392.71c5.57.31,5.78-2.61,5.45-3.22S373.88,387.69,371.48,392.71Z"/><path data-cppathid="10258" d="M332.75,412.08c5.59.3,5.78-2.62,5.46-3.23S335.16,407.06,332.75,412.08Z"/><path data-cppathid="10259" d="M410.21,412.08c5.56.3,5.77-2.62,5.45-3.23S412.61,407.06,410.21,412.08Z"/><path data-cppathid="10260" d="M338.14,370.17c-.32-.55-2.68-1.61-5,2.34v.84C338.26,373.58,338.47,370.72,338.14,370.17Z"/><path data-cppathid="10261" d="M362.6,428.26c-.32.56-.11,3.49,5.46,3.23C365.59,426.42,362.94,427.68,362.6,428.26Z"/><path data-cppathid="10262" d="M362.6,467a2,2,0,0,0,.84,2.21h0a6.82,6.82,0,0,0,4.62,1,8.9,8.9,0,0,0-.52-1C365.24,465.32,362.93,466.44,362.6,467Z"/><path data-cppathid="10263" d="M323.88,447.62c-.32.57-.11,3.49,5.45,3.23C326.86,445.78,324.22,447,323.88,447.62Z"/><path data-cppathid="10264" d="M440.06,428.26c-.34.56-.12,3.49,5.45,3.23C443,426.42,440.4,427.68,440.06,428.26Z"/><path data-cppathid="10265" d="M445,469.2c-2.3-3.88-4.61-2.76-4.93-2.21a2,2,0,0,0,.84,2.21h0a6.73,6.73,0,0,0,4.61,1,7.44,7.44,0,0,0-.52-1Z"/><path data-cppathid="10266" d="M401.33,447.62c-.34.57-.11,3.49,5.45,3.23C404.32,445.78,401.67,447,401.33,447.62Z"/><path data-cppathid="10267" d="M362.6,389.53c-.32.57-.11,3.49,5.46,3.23C365.59,387.69,362.94,389,362.6,389.53Z"/><path data-cppathid="10268" d="M323.88,408.9c-.32.56-.11,3.48,5.45,3.22C326.86,407.06,324.22,408.32,323.88,408.9Z"/><path data-cppathid="10269" d="M401.33,408.9c-.34.56-.11,3.48,5.45,3.22C404.32,407.06,401.67,408.32,401.33,408.9Z"/><path data-cppathid="10270" d="M403.75,373.11c-.14-.45-.29-.89-.42-1.36s-.35-1.4-.51-2.16a1.72,1.72,0,0,0-1.49.58C401.07,370.61,401.15,372.45,403.75,373.11Z"/><path data-cppathid="10271" d="M367.54,353a8.14,8.14,0,0,0-.87-1.24,5.76,5.76,0,0,0-.9-.88,2.92,2.92,0,0,0-1.94-.67,1.61,1.61,0,0,0-1.23.58,1.65,1.65,0,0,0,.12,1.34,2.5,2.5,0,0,0,.4.58l.32.29h0a6.82,6.82,0,0,0,4.62,1c-.15-.33-.31-.62-.45-.87Z"/><path data-cppathid="10272" d="M293.77,542.13a2.16,2.16,0,0,0-.21-.71h0a2.69,2.69,0,0,0-.16-.29h0a1.86,1.86,0,0,0-.37-.42h0a1.58,1.58,0,0,0-.39-.24h0a.68.68,0,0,0-.65,0c-.74.32-1.95,1.61-.59,4.61a13,13,0,0,0,.92,1.62,14.37,14.37,0,0,0,.92-1.62,5.71,5.71,0,0,0,.61-2.43,3.53,3.53,0,0,0,0-.46Z"/><path data-cppathid="10273" d="M369.74,540.34c-.66,0-3.08,1.61,0,6.31C372.82,542,370.4,540.34,369.74,540.34Z"/><path data-cppathid="10274" d="M369.74,579.07c-.66,0-3.08,1.61,0,6.3C372.82,580.71,370.4,579.07,369.74,579.07Z"/><path data-cppathid="10275" d="M293.77,580.86a2.16,2.16,0,0,0-.21-.71h0a2.69,2.69,0,0,0-.16-.29h0a1.86,1.86,0,0,0-.37-.42h0a1.62,1.62,0,0,0-.39-.25h0a.74.74,0,0,0-.65,0c-.74.33-1.95,1.62-.59,4.62a12.18,12.18,0,0,0,.92,1.61,13.41,13.41,0,0,0,.92-1.61,5.75,5.75,0,0,0,.61-2.44,3.38,3.38,0,0,0,0-.45Z"/><path data-cppathid="10276" d="M331,559.7c-.66,0-3.08,1.62,0,6.31C334.09,561.35,331.67,559.7,331,559.7Z"/><path data-cppathid="10277" d="M408.46,559.7c-.66,0-3.08,1.62,0,6.31C411.54,561.35,409.12,559.7,408.46,559.7Z"/><path data-cppathid="10278" d="M293.77,503.4a2.31,2.31,0,0,0-.21-.71h0l-.16-.29h0A2.42,2.42,0,0,0,293,502h0a1.58,1.58,0,0,0-.39-.24h0a.74.74,0,0,0-.65,0c-.74.33-1.95,1.62-.59,4.62a12.85,12.85,0,0,0,.92,1.61,14.23,14.23,0,0,0,.92-1.61,5.75,5.75,0,0,0,.61-2.44,3.38,3.38,0,0,0,0-.45Z"/><path data-cppathid="10279" d="M369.74,501.61c-.66,0-3.08,1.62,0,6.31C372.82,503.26,370.4,501.61,369.74,501.61Z"/><path data-cppathid="10280" d="M331,521c-.66,0-3.08,1.61,0,6.31C334.09,522.62,331.67,521,331,521Z"/><path data-cppathid="10281" d="M408.46,521c-.66,0-3.08,1.61,0,6.31C411.54,522.62,409.12,521,408.46,521Z"/><path data-cppathid="10282" d="M331,482.25c-.66,0-3.08,1.61,0,6.31C334.09,483.9,331.67,482.25,331,482.25Z"/><path data-cppathid="10283" d="M408.46,482.25c-.66,0-3.08,1.61,0,6.31C411.54,483.9,409.12,482.25,408.46,482.25Z"/><path data-cppathid="10284" d="M294,547.62c5.58.3,5.77-2.62,5.45-3.23S296.43,542.6,294,547.62Z"/><path data-cppathid="10285" d="M371.48,547.62c5.57.3,5.78-2.62,5.45-3.23S373.88,542.6,371.48,547.62Z"/><path data-cppathid="10286" d="M375.64,582.58a3,3,0,0,0-1.93.68,6.24,6.24,0,0,0-.91.87,10.62,10.62,0,0,0-.87,1.24v.1c-.14.26-.31.55-.45.87a6.68,6.68,0,0,0,4.61-1h0a1.81,1.81,0,0,0,.33-.29,2.6,2.6,0,0,0,.4-.58,1.2,1.2,0,0,0-1.18-1.92Z"/><path data-cppathid="10287" d="M298.19,582.58a3,3,0,0,0-1.94.68,6.72,6.72,0,0,0-.9.87,10.62,10.62,0,0,0-.87,1.24v.1a8.77,8.77,0,0,0-.45.87,6.68,6.68,0,0,0,4.61-1h0a1.81,1.81,0,0,0,.33-.29,2.6,2.6,0,0,0,.4-.58,1.18,1.18,0,0,0-1.11-1.92Z"/><path data-cppathid="10288" d="M332.75,567c5.59.31,5.78-2.61,5.46-3.23S335.16,562,332.75,567Z"/><path data-cppathid="10289" d="M410.21,567c5.56.31,5.77-2.61,5.45-3.23S412.61,562,410.21,567Z"/><path data-cppathid="10290" d="M294,508.89c5.58.31,5.77-2.61,5.45-3.23S296.43,503.87,294,508.89Z"/><path data-cppathid="10291" d="M371.48,508.89c5.57.31,5.78-2.61,5.45-3.23S373.88,503.87,371.48,508.89Z"/><path data-cppathid="10292" d="M332.75,528.25c5.59.31,5.78-2.61,5.46-3.22S335.16,523.24,332.75,528.25Z"/><path data-cppathid="10293" d="M410.21,528.25c5.56.31,5.77-2.61,5.45-3.22S412.61,523.24,410.21,528.25Z"/><path data-cppathid="10294" d="M332.75,489.53c5.59.3,5.78-2.62,5.46-3.23S335.16,484.51,332.75,489.53Z"/><path data-cppathid="10295" d="M410.21,489.53c5.56.3,5.77-2.62,5.45-3.23S412.61,484.51,410.21,489.53Z"/><path data-cppathid="10296" d="M362.6,544.44c-.32.56-.11,3.48,5.46,3.22C365.59,542.6,362.94,543.86,362.6,544.44Z"/><path data-cppathid="10297" d="M323.88,563.8c-.32.57-.11,3.49,5.45,3.23C326.86,562,324.22,563.22,323.88,563.8Z"/><path data-cppathid="10298" d="M440.06,544.44c-.34.56-.12,3.48,5.45,3.22C443,542.6,440.4,543.86,440.06,544.44Z"/><path data-cppathid="10299" d="M401.33,563.8c-.34.57-.11,3.49,5.45,3.23C404.32,562,401.67,563.22,401.33,563.8Z"/><path data-cppathid="10300" d="M301.43,590.21s42,10.77,94.66-30.1,73.16-24.76,71,4.29-47.32,55.94-66.68,59.17C368.56,628.88,340.16,637.56,301.43,590.21Z"/><path data-cppathid="10301" d="M362.6,505.71c-.32.57-.11,3.49,5.46,3.23C365.59,503.87,362.94,505.13,362.6,505.71Z"/><path data-cppathid="10302" d="M323.88,525.07c-.32.57-.11,3.49,5.45,3.23C326.86,523.24,324.22,524.49,323.88,525.07Z"/><path data-cppathid="10303" d="M440.06,505.71c-.34.57-.12,3.49,5.45,3.23C443,503.87,440.4,505.13,440.06,505.71Z"/><path data-cppathid="10304" d="M401.33,525.07c-.34.57-.11,3.49,5.45,3.23C404.32,523.24,401.67,524.49,401.33,525.07Z"/><path data-cppathid="10305" d="M323.88,486.35c-.32.56-.11,3.48,5.45,3.23C326.86,484.51,324.22,485.77,323.88,486.35Z"/><path data-cppathid="10306" d="M401.33,486.35c-.34.56-.11,3.48,5.45,3.23C404.32,484.51,401.67,485.77,401.33,486.35Z"/><path data-cppathid="10307" d="M376,469.2h0a2,2,0,0,0,.84-2.21c-.32-.55-2.63-1.62-4.94,2.21h0a8.82,8.82,0,0,0-.51,1A6.73,6.73,0,0,0,376,469.2Z"/><path data-cppathid="10308" d="M298.58,469.2h0a2,2,0,0,0,.84-2.21c-.33-.55-2.63-1.62-4.94,2.21h0c-.19.31-.36.63-.52,1A6.75,6.75,0,0,0,298.58,469.2Z"/><path data-cppathid="10309" d="M293.77,658.31a2.16,2.16,0,0,0-.21-.71h0a2.69,2.69,0,0,0-.16-.29h0a1.86,1.86,0,0,0-.37-.42h0a1.58,1.58,0,0,0-.39-.24h0a.68.68,0,0,0-.65,0c-.74.32-1.95,1.61-.59,4.61a12.18,12.18,0,0,0,.92,1.61,13.41,13.41,0,0,0,.92-1.61,5.75,5.75,0,0,0,.61-2.44,3.38,3.38,0,0,0,0-.45Z"/><path data-cppathid="10310" d="M369.74,656.52c-.66,0-3.08,1.61,0,6.31C372.82,658.16,370.4,656.52,369.74,656.52Z"/><path data-cppathid="10311" d="M369.74,695.24c-.66,0-3.08,1.62,0,6.31C372.82,696.89,370.4,695.24,369.74,695.24Z"/><path data-cppathid="10312" d="M293.77,697a2.31,2.31,0,0,0-.21-.71h0l-.16-.29h0a2.1,2.1,0,0,0-.37-.42h0a1.58,1.58,0,0,0-.39-.24h0a.68.68,0,0,0-.65,0c-.74.32-1.95,1.62-.59,4.62a12.85,12.85,0,0,0,.92,1.61,14.23,14.23,0,0,0,.92-1.61,5.75,5.75,0,0,0,.61-2.44,3.38,3.38,0,0,0,0-.45Z"/><path data-cppathid="10313" d="M331,675.88c-.66,0-3.08,1.61,0,6.31C334.09,677.53,331.67,675.88,331,675.88Z"/><path data-cppathid="10314" d="M408.46,675.88c-.66,0-3.08,1.61,0,6.31C411.54,677.53,409.12,675.88,408.46,675.88Z"/><path data-cppathid="10315" d="M293.77,619.58a2.23,2.23,0,0,0-.21-.71h0a2.69,2.69,0,0,0-.16-.29h0a1.86,1.86,0,0,0-.37-.42h0a1.58,1.58,0,0,0-.39-.24h0a.68.68,0,0,0-.65,0c-.74.32-1.95,1.61-.59,4.61a13,13,0,0,0,.92,1.62,14.37,14.37,0,0,0,.92-1.62,5.67,5.67,0,0,0,.61-2.43,3.38,3.38,0,0,0,0-.45Z"/><path data-cppathid="10316" d="M369.74,617.79c-.66,0-3.08,1.61,0,6.31C372.82,619.44,370.4,617.79,369.74,617.79Z"/><path data-cppathid="10317" d="M331,637.15c-.66,0-3.08,1.62,0,6.31C334.09,638.8,331.67,637.15,331,637.15Z"/><path data-cppathid="10318" d="M408.46,637.15c-.66,0-3.08,1.62,0,6.31C411.54,638.8,409.12,637.15,408.46,637.15Z"/><path data-cppathid="10319" d="M331,598.43c-.66,0-3.08,1.61,0,6.31C334.09,600.07,331.67,598.43,331,598.43Z"/><path data-cppathid="10320" d="M408.46,598.43c-.66,0-3.08,1.61,0,6.31C411.54,600.07,409.12,598.43,408.46,598.43Z"/><path data-cppathid="10321" d="M294,663.79c5.58.31,5.77-2.61,5.45-3.22S296.43,658.78,294,663.79Z"/><path data-cppathid="10322" d="M371.48,663.79c5.57.31,5.78-2.61,5.45-3.22S373.88,658.78,371.48,663.79Z"/><path data-cppathid="10323" d="M375.64,698.76h-.34a2.68,2.68,0,0,0-1.17.37l-.42.29a7.56,7.56,0,0,0-1.78,2.12h0a8.82,8.82,0,0,0-.51,1,6.73,6.73,0,0,0,4.61-1h0a2,2,0,0,0,.84-2.21A1.63,1.63,0,0,0,375.64,698.76Z"/><path data-cppathid="10324" d="M298.19,698.76h-.34a2.77,2.77,0,0,0-1.18.37l-.42.29a7.53,7.53,0,0,0-1.77,2.12h0c-.19.31-.36.63-.52,1a6.75,6.75,0,0,0,4.62-1h0a2,2,0,0,0,.84-2.21A1.63,1.63,0,0,0,298.19,698.76Z"/><path data-cppathid="10325" d="M332.75,683.16c5.59.3,5.78-2.62,5.46-3.23S335.16,678.14,332.75,683.16Z"/><path data-cppathid="10326" d="M410.21,683.16c5.56.3,5.77-2.62,5.45-3.23S412.61,678.14,410.21,683.16Z"/><path data-cppathid="10327" d="M294,625.07c5.58.3,5.77-2.62,5.45-3.23S296.43,620.05,294,625.07Z"/><path data-cppathid="10328" d="M371.48,625.07c5.57.3,5.78-2.62,5.45-3.23S373.88,620.05,371.48,625.07Z"/><path data-cppathid="10329" d="M332.75,644.43c5.59.31,5.78-2.61,5.46-3.23S335.16,639.41,332.75,644.43Z"/><path data-cppathid="10330" d="M410.21,644.43c5.56.31,5.77-2.61,5.45-3.23S412.61,639.41,410.21,644.43Z"/><path data-cppathid="10331" d="M332.75,605.71c5.59.3,5.78-2.62,5.46-3.23S335.16,600.69,332.75,605.71Z"/><path data-cppathid="10332" d="M410.21,605.71c5.56.3,5.77-2.62,5.45-3.23S412.61,600.69,410.21,605.71Z"/><path data-cppathid="10333" d="M362.6,660.62c-.32.56-.11,3.48,5.46,3.22C365.59,658.78,362.94,660,362.6,660.62Z"/><path data-cppathid="10334" d="M365.77,699.52l-.42-.29a2.6,2.6,0,0,0-1.18-.37h-.34a1.61,1.61,0,0,0-1.23.58,2,2,0,0,0,.84,2.21h0a6.82,6.82,0,0,0,4.62,1,8.18,8.18,0,0,0-.52-1A7.28,7.28,0,0,0,365.77,699.52Z"/><path data-cppathid="10335" d="M323.88,680c-.32.56-.11,3.48,5.45,3.23C326.86,678.14,324.22,679.4,323.88,680Z"/><path data-cppathid="10336" d="M440.06,660.62c-.34.56-.12,3.48,5.45,3.22C443,658.78,440.4,660,440.06,660.62Z"/><path data-cppathid="10337" d="M445,701.55a7.33,7.33,0,0,0-1.77-2.11l-.42-.29a2.6,2.6,0,0,0-1.18-.37h-.34a1.57,1.57,0,0,0-1.22.58,2,2,0,0,0,.84,2.21h0a6.74,6.74,0,0,0,4.61,1,6.94,6.94,0,0,0-.52-1Z"/><path data-cppathid="10338" d="M401.33,680c-.34.56-.11,3.48,5.45,3.23C404.32,678.14,401.67,679.4,401.33,680Z"/><path data-cppathid="10339" d="M362.6,621.89c-.32.56-.11,3.48,5.46,3.23C365.59,620.05,362.94,621.31,362.6,621.89Z"/><path data-cppathid="10340" d="M323.88,641.25c-.32.57-.11,3.49,5.45,3.23C326.86,639.41,324.22,640.67,323.88,641.25Z"/><path data-cppathid="10341" d="M440.06,621.89c-.34.56-.12,3.48,5.45,3.23C443,620.05,440.4,621.31,440.06,621.89Z"/><path data-cppathid="10342" d="M401.33,641.25c-.34.57-.11,3.49,5.45,3.23C404.32,639.41,401.67,640.67,401.33,641.25Z"/><path data-cppathid="10343" d="M323.88,602.53c-.32.56-.11,3.48,5.45,3.22C326.86,600.69,324.22,602,323.88,602.53Z"/><path data-cppathid="10344" d="M401.33,602.53c-.34.56-.11,3.48,5.45,3.22C404.32,600.69,401.67,602,401.33,602.53Z"/><path data-cppathid="10345" d="M367.54,585.37a8.66,8.66,0,0,0-.87-1.24,6.17,6.17,0,0,0-.9-.87,3,3,0,0,0-1.94-.68,1.67,1.67,0,0,0-1.23.58,1.65,1.65,0,0,0,.12,1.34,2.31,2.31,0,0,0,.4.58l.32.29h0a6.77,6.77,0,0,0,4.62,1c-.15-.32-.31-.61-.45-.87Z"/><path data-cppathid="10346" d="M445,585.37a8.66,8.66,0,0,0-.87-1.24,6.17,6.17,0,0,0-.9-.87,3,3,0,0,0-1.94-.68,1.64,1.64,0,0,0-1.22.58,1.61,1.61,0,0,0,.11,1.34,2.6,2.6,0,0,0,.4.58,1.81,1.81,0,0,0,.33.29h0a6.68,6.68,0,0,0,4.61,1c-.14-.32-.31-.61-.45-.87A.36.36,0,0,1,445,585.37Z"/><path data-cppathid="10347" d="M331,714.61c-.66,0-3.08,1.61,0,6.3C334.09,716.25,331.67,714.61,331,714.61Z"/><path data-cppathid="10348" d="M408.46,714.61c-.66,0-3.08,1.61,0,6.3C411.54,716.25,409.12,714.61,408.46,714.61Z"/><path data-cppathid="10349" d="M332.75,721.88c5.59.31,5.78-2.61,5.46-3.22S335.16,716.86,332.75,721.88Z"/><path data-cppathid="10350" d="M410.21,721.88c5.56.31,5.77-2.61,5.45-3.22S412.61,716.86,410.21,721.88Z"/><path data-cppathid="10351" d="M323.88,718.7c-.32.57-.11,3.49,5.45,3.23C326.86,716.86,324.22,718.12,323.88,718.7Z"/><path data-cppathid="10352" d="M401.33,718.7c-.34.57-.11,3.49,5.45,3.23C404.32,716.86,401.67,718.12,401.33,718.7Z"/><path data-cppathid="10353" d="M214.83,462.89c-.66,0-3.08,1.61,0,6.31C217.92,464.53,215.49,462.89,214.83,462.89Z"/><path data-cppathid="10354" d="M253.56,443.52c-.66,0-3.08,1.62,0,6.31C256.64,445.17,254.22,443.52,253.56,443.52Z"/><path data-cppathid="10355" d="M255,406.28,252,407a7.54,7.54,0,0,0,1.53,4.07C255.06,408.85,255.3,407.28,255,406.28Z"/><path data-cppathid="10356" d="M216.58,431.44c5.56.31,5.77-2.62,5.45-3.23S219,426.42,216.58,431.44Z"/><path data-cppathid="10357" d="M255.3,450.8c5.57.31,5.78-2.61,5.46-3.23S257.71,445.78,255.3,450.8Z"/><path data-cppathid="10358" d="M255.3,412.08c5.57.3,5.78-2.62,5.46-3.23S257.71,407.06,255.3,412.08Z"/><path data-cppathid="10359" d="M207.7,467a2,2,0,0,0,.84,2.21h0a6.8,6.8,0,0,0,4.62,1c-.16-.33-.33-.65-.52-1C210.33,465.32,208,466.44,207.7,467Z"/><path data-cppathid="10360" d="M285.15,428.26c-.34.56-.11,3.49,5.46,3.23C288.14,426.42,285.49,427.68,285.15,428.26Z"/><path data-cppathid="10361" d="M290.09,469.2c-2.31-3.88-4.61-2.76-4.94-2.21a2,2,0,0,0,.84,2.21h0a6.75,6.75,0,0,0,4.62,1C290.45,469.83,290.28,469.51,290.09,469.2Z"/><path data-cppathid="10362" d="M246.43,447.62c-.34.57-.12,3.49,5.45,3.23C249.41,445.78,246.77,447,246.43,447.62Z"/><path data-cppathid="10363" d="M247.61,408.33l-.84.26a1,1,0,0,0-.34.31c-.34.56-.12,3.48,5.45,3.22C250.32,408.88,248.69,408.24,247.61,408.33Z"/><path data-cppathid="10364" d="M137.38,540.34c-.66,0-3.08,1.61,0,6.31C140.46,542,138,540.34,137.38,540.34Z"/><path data-cppathid="10365" d="M176.11,559.7c-.66,0-3.08,1.62,0,6.31C179.19,561.35,176.77,559.7,176.11,559.7Z"/><path data-cppathid="10366" d="M214.83,501.61c-.66,0-3.08,1.62,0,6.31C217.92,503.26,215.49,501.61,214.83,501.61Z"/><path data-cppathid="10367" d="M176.11,521c-.66,0-3.08,1.61,0,6.31C179.19,522.62,176.77,521,176.11,521Z"/><path data-cppathid="10368" d="M253.56,521c-.66,0-3.08,1.61,0,6.31C256.64,522.62,254.22,521,253.56,521Z"/><path data-cppathid="10369" d="M176.11,482.25c-.66,0-3.08,1.61,0,6.31C179.19,483.9,176.77,482.25,176.11,482.25Z"/><path data-cppathid="10370" d="M253.56,482.25c-.66,0-3.08,1.61,0,6.31C256.64,483.9,254.22,482.25,253.56,482.25Z"/><path data-cppathid="10371" d="M139.12,547.62c5.59.3,5.8-2.62,5.46-3.23S141.53,542.6,139.12,547.62Z"/><path data-cppathid="10372" d="M178.74,565.33q2.14-.8,4.23-1.8C182.29,563.07,180.54,562.77,178.74,565.33Z"/><path data-cppathid="10373" d="M144.51,505.71a1.34,1.34,0,0,0-.75-.48c-1,1.27-2,2.48-2.78,3.63C144.67,508.47,144.8,506.21,144.51,505.71Z"/><path data-cppathid="10374" d="M216.58,508.89c5.56.31,5.77-2.61,5.45-3.23S219,503.87,216.58,508.89Z"/><path data-cppathid="10375" d="M177.85,528.25c5.58.31,5.78-2.61,5.45-3.22S180.25,523.24,177.85,528.25Z"/><path data-cppathid="10376" d="M255.3,528.25c5.57.31,5.78-2.61,5.46-3.22S257.71,523.24,255.3,528.25Z"/><path data-cppathid="10377" d="M177.85,489.53c5.58.3,5.78-2.62,5.45-3.23S180.25,484.51,177.85,489.53Z"/><path data-cppathid="10378" d="M255.3,489.53c5.57.3,5.78-2.62,5.46-3.23S257.71,484.51,255.3,489.53Z"/><path data-cppathid="10379" d="M169,563.8c-.31.52-.15,3,4.09,3.23l1.21-.28C171.86,562,169.31,563.24,169,563.8Z"/><path data-cppathid="10380" d="M285.15,544.44c-.34.56-.11,3.48,5.46,3.22C288.14,542.6,285.49,543.86,285.15,544.44Z"/><path data-cppathid="10381" d="M207.7,505.71c-.32.57-.11,3.49,5.46,3.23C210.69,503.87,208,505.13,207.7,505.71Z"/><path data-cppathid="10382" d="M169,525.07c-.33.57-.12,3.49,5.45,3.23C172,523.24,169.31,524.49,169,525.07Z"/><path data-cppathid="10383" d="M285.15,505.71c-.34.57-.11,3.49,5.46,3.23C288.14,503.87,285.49,505.13,285.15,505.71Z"/><path data-cppathid="10384" d="M169,486.35c-.33.56-.12,3.48,5.45,3.23C172,484.51,169.31,485.77,169,486.35Z"/><path data-cppathid="10385" d="M246.43,486.35c-.34.56-.12,3.48,5.45,3.23C249.41,484.51,246.77,485.77,246.43,486.35Z"/><path data-cppathid="10386" d="M221.13,469.2h0A2,2,0,0,0,222,467c-.33-.55-2.63-1.62-4.94,2.21h0a8.9,8.9,0,0,0-.52,1A6.76,6.76,0,0,0,221.13,469.2Z"/><path data-cppathid="10387" d="M253.56,675.88c-.66,0-3.08,1.61,0,6.31C256.64,677.53,254.22,675.88,253.56,675.88Z"/><path data-cppathid="10388" d="M254.8,641l-1.35,2.28.11.17A10.26,10.26,0,0,0,254.8,641Z"/><path data-cppathid="10389" d="M255.3,683.16c5.57.3,5.78-2.62,5.46-3.23S257.71,678.14,255.3,683.16Z"/><path data-cppathid="10390" d="M255.3,644.43c5.57.31,5.78-2.61,5.46-3.23S257.71,639.41,255.3,644.43Z"/><path data-cppathid="10391" d="M285.15,660.62c-.34.56-.11,3.48,5.46,3.22C288.14,658.78,285.49,660,285.15,660.62Z"/><path data-cppathid="10392" d="M290.09,701.55a7.49,7.49,0,0,0-1.77-2.11l-.42-.29a2.63,2.63,0,0,0-1.18-.37h-.34a1.61,1.61,0,0,0-1.23.58,2,2,0,0,0,.84,2.21h0a6.75,6.75,0,0,0,4.62,1,10,10,0,0,0-.52-1Z"/><path data-cppathid="10393" d="M246.43,680c-.34.56-.12,3.48,5.45,3.23C249.41,678.14,246.77,679.4,246.43,680Z"/><path data-cppathid="10394" d="M285.15,621.89c-.34.56-.11,3.48,5.46,3.23C288.14,620.05,285.49,621.31,285.15,621.89Z"/><path data-cppathid="10395" d="M290.09,585.37a10.62,10.62,0,0,0-.87-1.24,6.72,6.72,0,0,0-.9-.87,3,3,0,0,0-1.94-.68,1.67,1.67,0,0,0-1.23.58,1.61,1.61,0,0,0,.12,1.34,2.31,2.31,0,0,0,.4.58,2.15,2.15,0,0,0,.32.29h0a6.7,6.7,0,0,0,4.62,1c-.15-.32-.31-.61-.45-.87Z"/><path data-cppathid="10396" d="M253.56,714.61c-.66,0-3.08,1.61,0,6.3C256.64,716.25,254.22,714.61,253.56,714.61Z"/><path data-cppathid="10397" d="M255.3,721.88c5.57.31,5.78-2.61,5.46-3.22S257.71,716.86,255.3,721.88Z"/><path data-cppathid="10398" d="M246.43,718.7c-.34.57-.12,3.49,5.45,3.23C249.41,716.86,246.77,718.12,246.43,718.7Z"/><path data-cppathid="10399" d="M133.59,544.7c.32,1,.69,2,1.11,2.93h1A8.75,8.75,0,0,0,133.59,544.7Z"/></g></g><path data-cppathid="10400" d="M510.6,723h0a.5.5,0,0,1-.47-.54c0-.39,2.68-40-14.48-79-5.58-12.72-9.82-21.72-12.91-28.29-6.67-14.2-8.46-18-8.46-26,0-5,2.08-10.24,4.71-16.84,3.46-8.69,7.77-19.5,8.88-34.43,1.91-25.74,1-38.52,1-38.65a.49.49,0,0,1,.34-.51.5.5,0,0,1,.58.2c.41.66,41.75,65.56,70.19,69.35,11.76,1.58,22.09-2,29.08-10.15,9.68-11.24,11.91-29.14,6.13-49.12-7-24.2-29.6-45.42-49.53-64.13-10.05-9.45-19.54-18.36-25.76-26.56-18.22-24-60.48-24-80.78-24-20.61,0-32.12-7.18-36.24-22.59-3.48-13-3.84-38-3.87-42.86-4.51,2.34-28.8,13.19-66.61-2,.48,6.93,3.5,53-1.1,60.38-5.23,8.35-12.29,15.84-41,15.84-30.85,0-53.78,6.64-66.32,19.22-2,2-5,4.93-8.59,8.5-20.49,20.21-63.11,62.27-75.42,80.33-6.82,10-9.1,21.2-6.42,31.51a32.5,32.5,0,0,0,16.85,20.92c19.93,10,37.88-2.34,46.79-10.56,12.43-11.45,51.79-48,52.19-48.32a.49.49,0,0,1,.54-.1.51.51,0,0,1,.3.46c0,.22.12,22.53,10.6,54a146.73,146.73,0,0,0,9.86,23.05c4.83,9.38,6.84,13.26,1.73,28.49-3.26,9.71-7.92,16.67-12.43,23.4-6.27,9.37-12.76,19.06-15.56,36.43a285,285,0,0,0-3.87,52.09.5.5,0,0,1-1,0,286,286,0,0,1,3.88-52.27c2.83-17.59,9.39-27.37,15.72-36.83,4.47-6.67,9.1-13.57,12.31-23.16,5-14.83,3.17-18.34-1.67-27.71a148,148,0,0,1-9.91-23.19c-9.21-27.61-10.47-48.24-10.64-53.16-5.72,5.31-39.94,37-51.37,47.58-15.5,14.28-33,18.19-47.92,10.71a33.49,33.49,0,0,1-17.37-21.56c-2.75-10.59-.42-22.07,6.56-32.32,12.37-18.14,55-60.25,75.55-80.48,3.62-3.57,6.57-6.48,8.58-8.5,12.73-12.76,35.91-19.51,67-19.51,28.17,0,35.05-7.27,40.12-15.37,4.7-7.5.94-60.05.9-60.58a.48.48,0,0,1,.2-.44.53.53,0,0,1,.49-.06c41.76,17.09,66.95,2.13,67.2,2a.49.49,0,0,1,.51,0,.47.47,0,0,1,.25.43c0,.29,0,29.18,3.84,43.44,4,14.91,15.2,21.85,35.28,21.85,20.46,0,63.05,0,81.57,24.4,6.17,8.13,15.64,17,25.66,26.43,20,18.8,42.71,40.12,49.8,64.58,5.88,20.31,3.57,38.56-6.33,50.06-7.22,8.38-17.86,12.1-30,10.48-26.72-3.56-63.19-57.92-69.88-68.21.18,4.44.43,16.7-1.07,36.9-1.11,15.08-5.46,26-8.94,34.73-2.59,6.5-4.64,11.63-4.64,16.47,0,7.76,1.77,11.54,8.37,25.57,3.09,6.58,7.33,15.59,12.92,28.31,17.26,39.29,14.59,79.09,14.56,79.48A.5.5,0,0,1,510.6,723Z" class="cls-6"/><path data-cppathid="10401" d="M249.69,505.1a121.28,121.28,0,0,1,6.37-30.66" class="cls-14"/><path data-cppathid="10402" d="M249.69,505.6h0a.5.5,0,0,1-.46-.54,121.8,121.8,0,0,1,6.4-30.78.5.5,0,0,1,.94.32,120.76,120.76,0,0,0-6.34,30.54A.5.5,0,0,1,249.69,505.6Z" class="cls-6"/><path data-cppathid="10403" d="M489.27,499.81a.5.5,0,0,1-.48-.38,119.24,119.24,0,0,0-8.79-23.1.5.5,0,0,1,.89-.45,119.74,119.74,0,0,1,8.86,23.3.5.5,0,0,1-.35.61Z" class="cls-6"/><path data-cppathid="10404" d="M347.32,606.92a.5.5,0,0,1-.15-1L408,586.43a.51.51,0,0,1,.63.32.5.5,0,0,1-.33.63l-60.86,19.51A.41.41,0,0,1,347.32,606.92Z" class="cls-6"/><path data-cppathid="10405" d="M374.88,590.84a.5.5,0,0,1-.18-1A197.91,197.91,0,0,1,419,577.8a.5.5,0,0,1,.57.42.5.5,0,0,1-.42.56,197,197,0,0,0-44.1,12A.58.58,0,0,1,374.88,590.84Z" class="cls-6"/><path data-cppathid="10406" d="M357.91,467.42c48.21,9.3,66.82-36.92,73.29-73.85-16.06-1.78-24.51-9.25-27.87-21.82-3.85-14.52-3.85-43.56-3.85-43.56s-25.14,15.45-67.66-1.94c0,0,3.87,53.15-1,60.88-3.36,5.39-7.68,10.78-19.78,13.54C310.63,417.26,314,458.93,357.91,467.42Z" class="cls-15"/><g class="cls-16"><g class="cls-17"><path data-cppathid="10407" d="M402.28,367c-2.8-15.27-2.8-38.73-2.8-38.73s-25.14,15.46-67.66-1.94c0,0,1.61,22.22,1.45,40C369.87,379.05,391,373.66,402.28,367Z"/></g></g><path data-cppathid="10408" d="M370,469.12a64,64,0,0,1-12.14-1.21h0c-44-8.5-47.71-49.87-47.25-67.26a.49.49,0,0,1,.39-.47c12-2.74,16.21-8.08,19.46-13.31,4.7-7.51.94-60.05.9-60.58a.52.52,0,0,1,.2-.45.51.51,0,0,1,.49,0c41.8,17.1,66.95,2.12,67.2,2a.51.51,0,0,1,.77.43c0,.29,0,29.14,3.84,43.43,3.45,12.95,12.17,19.76,27.43,21.45a.5.5,0,0,1,.44.58c-4,22.62-13.09,52.62-34.1,67.1A47.68,47.68,0,0,1,370,469.12Zm-12-2.19c15,2.89,28.09.53,39-7,20.55-14.17,29.61-43.55,33.58-65.92-15.4-1.83-24.22-8.87-27.76-22.12-3.46-13-3.83-38-3.87-42.85-4.5,2.33-28.8,13.18-66.61-2,.49,6.94,3.5,53-1.1,60.39-3.33,5.35-7.61,10.82-19.71,13.67-.39,17.35,3.5,57.57,46.44,65.86Z" class="cls-6"/><circle data-cppathid="10409" r="11.97" cy="297.75" cx="430.81" class="cls-18"/><path data-cppathid="10410" d="M430.81,310.23a12.48,12.48,0,1,1,12.47-12.48A12.49,12.49,0,0,1,430.81,310.23Zm0-24a11.48,11.48,0,1,0,11.47,11.47A11.48,11.48,0,0,0,430.81,286.28Z" class="cls-6"/><circle data-cppathid="10411" r="11.97" cy="297.75" cx="302.92" class="cls-18"/><path data-cppathid="10412" d="M302.92,310.23a12.48,12.48,0,1,1,12.47-12.48A12.49,12.49,0,0,1,302.92,310.23Zm0-24a11.48,11.48,0,1,0,11.47,11.47A11.48,11.48,0,0,0,302.92,286.28Z" class="cls-6"/><path data-cppathid="10413" d="M429.71,257s6-18.51,13.07-12-2.17,31.56-7.08,37.55-9.79,6-9.25-2.18S429.71,257,429.71,257Z" class="cls-15"/><path data-cppathid="10414" d="M306,275.57s1.62,43.22,33.44,64.43,55.45,9,68.51-9,21.22-35.89,21.22-62,3.22-37.53-5.72-53.85-40-24.46-40-24.46a489,489,0,0,1-41.6,45.68C317.36,260.06,306,275.57,306,275.57Z" class="cls-15"/><g class="cls-19"><g class="cls-17"><path data-cppathid="10415" d="M383.44,190.74a489,489,0,0,1-41.6,45.68C317.36,260.06,306,275.57,306,275.57a99,99,0,0,0,5,24.73c43-32.88,66.46-92,72.7-109.51Z"/></g></g><path data-cppathid="10416" d="M371.6,351.72c-10.32,0-21.2-3.79-32.49-11.31-31.67-21.1-33.64-64.39-33.66-64.82a.51.51,0,0,1,.1-.32c.11-.15,11.71-15.81,35.94-39.21a490.53,490.53,0,0,0,41.56-45.63.48.48,0,0,1,.51-.17c1.28.33,31.34,8.39,40.28,24.7,6.94,12.66,6.63,22.24,6.1,38.11-.15,4.66-.32,9.95-.32,16,0,23.42-6.18,41.46-21.32,62.27-5.19,7.14-14.18,16.29-27.51,19.36A41,41,0,0,1,371.6,351.72Zm-65.14-76c.17,3,3,43.72,33.2,63.86,37.32,24.87,59.87,2.1,67.83-8.85,15-20.62,21.13-38.49,21.13-61.68,0-6.05.17-11.34.32-16,.52-15.7.83-25.18-6-37.6-8.26-15.07-36.08-23.22-39.35-24.13a492.76,492.76,0,0,1-41.43,45.47C319.24,258.94,307.67,274.11,306.46,275.72Z" class="cls-6"/><path data-cppathid="10417" d="M354.36,272.69h-.05L336,271a.5.5,0,0,1,.09-1l18.32,1.71a.5.5,0,0,1-.05,1Z" class="cls-6"/><path data-cppathid="10418" d="M409.3,270.4l-.18,0c-5.53-2.21-17.36,0-17.47,0a.5.5,0,0,1-.59-.39.51.51,0,0,1,.4-.59c.49-.09,12.23-2.29,18,0a.51.51,0,0,1,.28.65A.51.51,0,0,1,409.3,270.4Z" class="cls-6"/><path data-cppathid="10419" d="M351.89,262.11c0,4.36-1.95,7.89-4.36,7.89s-4.34-3.53-4.34-7.89,1.94-7.89,4.34-7.89S351.89,257.75,351.89,262.11Z" class="cls-6"/><path data-cppathid="10420" d="M370.12,292.58a16.36,16.36,0,0,1-8.7-2.49.5.5,0,1,1,.53-.84,15.49,15.49,0,0,0,18.46-1.57.5.5,0,0,1,.7,0,.5.5,0,0,1,0,.71A16.44,16.44,0,0,1,370.12,292.58Z" class="cls-6"/><path data-cppathid="10421" d="M372.64,309.59a18,18,0,0,1-6.19-1,.5.5,0,0,1-.27-.66.49.49,0,0,1,.65-.26c.67.28,16.53,6.6,26-15.52a.49.49,0,0,1,.65-.26.5.5,0,0,1,.27.65C387.61,306.86,378.6,309.59,372.64,309.59Z" class="cls-6"/><path data-cppathid="10422" d="M388.36,263.38a1,1,0,0,1-.57-1.82c.44-.3,10.92-7.34,21.64-2.82a1,1,0,0,1,.54,1.31,1,1,0,0,1-1.32.53c-9.69-4.09-19.63,2.56-19.73,2.63A1,1,0,0,1,388.36,263.38Z" class="cls-6"/><path data-cppathid="10423" d="M385.1,245.49a1,1,0,0,1-.71-1.71c.12-.12,12.15-11.86,28.42-2.33a1,1,0,1,1-1,1.72c-14.9-8.73-25.55,1.58-26,2A1,1,0,0,1,385.1,245.49Z" class="cls-6"/><path data-cppathid="10424" d="M360.6,238.34a1,1,0,0,1-.7-.29h0c-.38-.37-9.41-9.08-22.15-.41a1,1,0,1,1-1.12-1.66c14.14-9.61,24.58.55,24.68.65a1,1,0,0,1-.71,1.71Z" class="cls-6"/><path data-cppathid="10425" d="M139.53,510.91s-17.4,19.36-17.4,39.61,11.59,38.73,43.57,67.64,61.83,50.25,74.4,57,25.13-1.94,25.13-1.94S286,694,288.41,689.19s-7.24-12.08-9.18-15a39.63,39.63,0,0,0-5.79-6.28s10.15,1.44,14,4.84,10.13,9.18,13,8.7,2.9-2.91-1.45-8.7a51.92,51.92,0,0,0-12.56-11.6c-2.9-1.92-12.57-7.24-12.57-7.24s14-1,18.85,1.93,17.88,11.6,18.85,7.73,1-6.28-3.88-10.63-14.52-9.68-20.28-10.64a60,60,0,0,1-11.6-3.37s11.12-3.87,15-3.87,19.37,7.73,23.67,6.78,1.94-4.85-1.43-7.27-18.36-8.21-24.66-8.69-41.55,11.6-45.89,11.6-15.46-15.46-27.06-36.24S199.52,548.12,174.88,537" class="cls-11"/><g class="cls-20"><g class="cls-13"><path data-cppathid="10426" d="M137.38,546.65c3.08-4.67.66-6.31,0-6.31C138,540.34,140.46,542,137.38,546.65Z"/><path data-cppathid="10427" d="M137.38,579.07c.66,0,3.08,1.61,0,6.3C140.46,580.71,138,579.07,137.38,579.07Z"/><path data-cppathid="10428" d="M176.11,559.7c-.66,0-3.08,1.62,0,6.31C179.19,561.35,176.77,559.7,176.11,559.7Z"/><path data-cppathid="10429" d="M144.51,544.44c-.34-.58-3-1.84-5.45,3.22C144.64,547.92,144.85,545,144.51,544.44Z"/><path data-cppathid="10430" d="M144,585.08a2.35,2.35,0,0,0,.41-.58,1.18,1.18,0,0,0-.14-1.66,1.2,1.2,0,0,0-1-.26,3,3,0,0,0-1.93.68,6.79,6.79,0,0,0-.91.87,10.62,10.62,0,0,0-.87,1.24h4.1A1.75,1.75,0,0,0,144,585.08Z"/><path data-cppathid="10431" d="M183.24,563.8c-.34-.58-3-1.84-5.45,3.23C183.37,567.29,183.56,564.37,183.24,563.8Z"/><path data-cppathid="10432" d="M174.43,567c-2.47-5-5.12-3.76-5.45-3.23S168.86,567.29,174.43,567Z"/><path data-cppathid="10433" d="M137.38,540.34v6.31C140.46,542,138,540.34,137.38,540.34Z"/><path data-cppathid="10434" d="M137.38,579.07v6.3C140.46,580.71,138,579.07,137.38,579.07Z"/><path data-cppathid="10435" d="M214.83,656.52a1.72,1.72,0,0,0-1.27,1.08l2.73,2C216.69,657.37,215.32,656.52,214.83,656.52Z"/><path data-cppathid="10436" d="M253.56,675.88a2,2,0,0,0-1.49,1.79,25.4,25.4,0,0,0,2.89-.39A1.84,1.84,0,0,0,253.56,675.88Z"/><path data-cppathid="10437" d="M214.83,617.79c-.66,0-3.08,1.61,0,6.31C217.92,619.44,215.49,617.79,214.83,617.79Z"/><path data-cppathid="10438" d="M253.56,643.46c3.08-4.66.66-6.31,0-6.31S250.46,638.8,253.56,643.46Z"/><path data-cppathid="10439" d="M176.11,604.74c3.08-4.67.66-6.31,0-6.31S173,600.07,176.11,604.74Z"/><path data-cppathid="10440" d="M222,660.62c-.26-.44-1.81-1.26-3.6.46.87.65,1.74,1.26,2.59,1.86A2,2,0,0,0,222,660.62Z"/><path data-cppathid="10441" d="M216.58,625.07c5.56.3,5.77-2.62,5.45-3.23S219,620.05,216.58,625.07Z"/><path data-cppathid="10442" d="M255.3,644.43c5.57.31,5.78-2.61,5.46-3.23S257.71,639.41,255.3,644.43Z"/><path data-cppathid="10443" d="M177.85,605.71c5.58.3,5.78-2.62,5.45-3.23S180.25,600.69,177.85,605.71Z"/><path data-cppathid="10444" d="M290,663.81c-1.39-1.1-2.66-2-3.63-2.65l-1.13-.71-.13.17C284.83,661.16,285,663.89,290,663.81Z"/><path data-cppathid="10445" d="M213.16,625.07c-2.47-5-5.12-3.76-5.46-3.23S207.59,625.37,213.16,625.07Z"/><path data-cppathid="10446" d="M246.43,641.25c-.34.57-.12,3.49,5.45,3.23C249.41,639.41,246.77,640.67,246.43,641.25Z"/><path data-cppathid="10447" d="M169,602.53c-.33.56-.12,3.48,5.45,3.22C172,600.69,169.31,602,169,602.53Z"/><path data-cppathid="10448" d="M143.67,585.37h-4.09v.1c-.15.26-.31.55-.46.87A6.67,6.67,0,0,0,143.67,585.37Z"/><path data-cppathid="10449" d="M137.38,540.34c-.66,0-3.08,1.61,0,6.31Z"/><path data-cppathid="10450" d="M137.38,585.37v-6.3C136.72,579.07,134.28,580.71,137.38,585.37Z"/><path data-cppathid="10451" d="M135.7,547.62c-2.47-5-5.11-3.76-5.45-3.23S130.14,547.92,135.7,547.62Z"/><path data-cppathid="10452" d="M134.28,584.13a6.17,6.17,0,0,0-.9-.87l-.11-.08a26.06,26.06,0,0,0,1.61,2.19h.36A9.55,9.55,0,0,0,134.28,584.13Z"/><path data-cppathid="10453" d="M135.25,585.47v-.1h-.35l.71,1h.16C135.56,586,135.4,585.73,135.25,585.47Z"/></g></g><path data-cppathid="10454" d="M287.14,690.42c-5.07,0-19.27-13.84-22-16.53-2.15,1.34-13.78,7.94-25.3,1.74-11.3-6.1-40.47-26.33-74.5-57.1-31.87-28.82-43.73-47.25-43.73-68,0-20.21,17.35-39.75,17.53-39.95a.5.5,0,0,1,.74.67c-.17.19-17.27,19.46-17.27,39.28,0,20.43,11.77,38.67,43.4,67.27,34,30.7,63.05,50.88,74.31,57,12.15,6.55,24.48-1.83,24.6-1.91a.49.49,0,0,1,.64.06c4.8,4.79,18.1,17.11,21.78,16.5A.77.77,0,0,0,288,689c1.61-3.25-3.18-8.13-6.35-11.36a27.05,27.05,0,0,1-2.8-3.11,39.32,39.32,0,0,0-5.71-6.18.5.5,0,0,1,.4-.87c.42.06,10.34,1.49,14.28,5l.9.79c3.46,3.06,9.24,8.19,11.73,7.79.83-.14,1.32-.44,1.51-.9.31-.79,0-2.65-3.28-7a51.24,51.24,0,0,0-12.43-11.48c-2.86-1.89-12.44-7.17-12.54-7.23a.51.51,0,0,1-.25-.54.5.5,0,0,1,.46-.39c.58-.05,14.22-1,19.14,2,.6.36,1.33.82,2.14,1.32,4.62,2.85,13.2,8.16,15.54,7.22a.65.65,0,0,0,.42-.5c.94-3.77.88-6-3.72-10.14s-14.18-9.55-20-10.51a60.89,60.89,0,0,1-11.71-3.4.51.51,0,0,1,0-.94c.46-.16,11.25-3.9,15.14-3.9,1.75,0,5.46,1.39,9.76,3,5.39,2,11.49,4.3,13.81,3.79,1.13-.25,1.77-.71,1.9-1.37.26-1.25-1.22-3.35-3.52-5-3.39-2.43-18.29-8.13-24.41-8.6-3.53-.3-17.1,3.72-28,6.92-8.54,2.51-15.92,4.68-17.84,4.68-5.25,0-17.64-18.85-27.49-36.5-3.41-6.09-6.13-13-9-20.4-6.92-17.63-14.07-35.86-31.33-43.64a.49.49,0,0,1-.25-.66.5.5,0,0,1,.66-.25c17.63,7.94,24.86,26.37,31.85,44.18,2.87,7.33,5.59,14.25,9,20.28,12,21.53,22.71,36,26.62,36,1.78,0,9.44-2.25,17.56-4.64,11.56-3.4,24.69-7.23,28.37-7,6.38.49,21.37,6.24,24.91,8.79,2.07,1.49,4.35,3.95,3.92,6-.15.74-.74,1.72-2.67,2.14-2.59.58-8.59-1.66-14.37-3.83-4-1.51-7.84-2.93-9.41-2.93-3,0-10.48,2.4-13.51,3.4a58.59,58.59,0,0,0,10.23,2.85c6,1,15.8,6.5,20.53,10.76s5.1,6.8,4,11.12a1.65,1.65,0,0,1-1,1.18c-2.59,1.06-9.54-3-16.44-7.29l-2.14-1.31c-3.65-2.19-12.93-2.1-16.81-1.95,2.86,1.58,8.85,4.95,11.07,6.41a51.94,51.94,0,0,1,12.67,11.72c2.95,3.91,4,6.44,3.41,8a2.68,2.68,0,0,1-2.27,1.51c-2.92.49-8.49-4.43-12.56-8l-.89-.79c-2.79-2.45-9.08-3.88-12.1-4.44a39.8,39.8,0,0,1,4.6,5.2,27.15,27.15,0,0,0,2.71,3c3.57,3.64,8.45,8.62,6.52,12.5a1.76,1.76,0,0,1-1.34,1A2.34,2.34,0,0,1,287.14,690.42Z" class="cls-6"/><path data-cppathid="10455" d="M313,634.59c-3.39-2.41-18.37-8.21-24.66-8.7s-41.55,11.6-45.89,11.6S227,622,215.38,601.25c-6.45-11.54-10.65-26.65-17.34-39.71-35.5-4.84-50.72,15.91-57.75,30.84a258.24,258.24,0,0,0,25.33,25.81c31.88,29,61.83,50.25,74.4,57s25.12-1.94,25.12-1.94,20.79,20.77,23.19,15.94-7.24-12.08-9.18-15a40.07,40.07,0,0,0-5.79-6.28s10.15,1.44,14,4.84,10.13,9.19,13,8.7,2.9-2.9-1.45-8.7a52.12,52.12,0,0,0-12.56-11.6c-2.9-1.92-12.57-7.24-12.57-7.24s14-1,18.85,1.93,17.88,11.61,18.85,7.73,1-6.27-3.88-10.63-14.52-9.68-20.28-10.63a59.3,59.3,0,0,1-11.6-3.38s11.12-3.87,15-3.87,19.37,7.73,23.67,6.78S316.36,637,313,634.59Z" class="cls-15"/><path data-cppathid="10456" d="M522.77,529c-4-9.21-.58-29.38,3.45-58.18s8.07-58.19,8.07-73.74,2.57-37.11-2.5-44.07-23.51-25.82-24.88-34.56S518,296.37,518,296.37s3.7-6.93,6.92-3.23,1.84,8.29,0,14.75-3.69,11.52-3.69,11.52,16.13,5.06,20.28,2.31,3.78-18.54,3.49-26.27c-.6-15.07-6.64-8.64-10.82-1.5-2,3.42-13.82,1.38-6.92-7.38S540.55,270.08,547,277s11.06,20.29,11.06,20.29,4.61-22,8.81-34.87,11.71-18,14.42-17.12,2.41,5.4-.3,11.71-8.72,23.72-10.22,29.43S569,298.75,572,298.16s13.51-18.93,16.53-26.74,7.5-15,12.6-18.31,9.31.9,7.21,6.3a274.28,274.28,0,0,1-14.17,28.53,123.51,123.51,0,0,0-8.4,18.62,211,211,0,0,1,15.62-15c7.21-6,15-7.2,17.41-5.1s.3,2.41-5.7,7.21-15,10.54-22.15,22.22A110.35,110.35,0,0,0,578,343.5a93.6,93.6,0,0,1-8.72,18.33s5.64,45.73,15.4,70.88,27,62,21.77,88.23-15.4,39.79-29.66,43.93a27.61,27.61,0,0,1-24.4-4.51" class="cls-11"/><g class="cls-21"><g class="cls-13"><path data-cppathid="10457" d="M602.09,269.26a1.79,1.79,0,0,1,1.29,1.11h0A1.72,1.72,0,0,0,602.09,269.26Z"/><path data-cppathid="10458" d="M602.09,269.26V273l1.29-2.66A1.79,1.79,0,0,0,602.09,269.26Z"/><path data-cppathid="10459" d="M602.09,507.92c3.08-4.66.66-6.31,0-6.31C602.75,501.61,605.17,503.26,602.09,507.92Z"/><path data-cppathid="10460" d="M607.37,508.47c0-1.07,0-2.15-.15-3.23-1,.26-2.26,1.21-3.45,3.67A9,9,0,0,0,607.37,508.47Z"/><path data-cppathid="10461" d="M602.09,501.61v6.31C605.17,503.26,602.75,501.61,602.09,501.61Z"/><path data-cppathid="10462" d="M524.64,308c-.56,0-2.34,1.18-1.08,4.3.4-1.31.84-2.75,1.27-4.26Z"/><path data-cppathid="10463" d="M563.37,333.66c3.08-4.67.66-6.31,0-6.31S560.27,329,563.37,333.66Z"/><path data-cppathid="10464" d="M601.41,274.4l.68-1.37v-3.77C601.48,269.26,599.43,270.65,601.41,274.4Z"/><path data-cppathid="10465" d="M563.37,288.62c-.66,0-3.09,1.61,0,6.31C566.45,290.27,564,288.62,563.37,288.62Z"/><path data-cppathid="10466" d="M531.66,352.15a1.61,1.61,0,0,0,.11-1.34,1.57,1.57,0,0,0-1.22-.58,2.47,2.47,0,0,0-.89.13c.66.8,1.26,1.53,1.74,2.17A1.7,1.7,0,0,0,531.66,352.15Z"/><path data-cppathid="10467" d="M570.5,331.45c-.34-.59-3-1.84-5.46,3.22C570.61,334.93,570.82,332,570.5,331.45Z"/><path data-cppathid="10468" d="M569.71,294.9a16.87,16.87,0,0,1,0-2.66c-1-.33-2.92,0-4.71,3.66A6.68,6.68,0,0,0,569.71,294.9Z"/><path data-cppathid="10469" d="M570.55,254.17c-.44.73-.84,1.52-1.26,2.34A2.21,2.21,0,0,0,570.55,254.17Z"/><path data-cppathid="10470" d="M517.51,312.08c-.32.55-.11,3.36,5.1,3.23l.14-.42C520.35,310.34,517.85,311.52,517.51,312.08Z"/><path data-cppathid="10471" d="M556.23,331.45c-.33.56-.11,3.48,5.46,3.22C559.22,329.61,556.57,330.86,556.23,331.45Z"/><path data-cppathid="10472" d="M595,273.36c-.32.56-.11,3.47,5.39,3.22h0C597.93,271.53,595.3,272.78,595,273.36Z"/><path data-cppathid="10473" d="M561.69,295.9a7.59,7.59,0,0,0-2.62-3.23c-.25,1.21-.48,2.23-.64,3A9.41,9.41,0,0,0,561.69,295.9Z"/><path data-cppathid="10474" d="M557.22,295c-.26-.67-.58-1.47-1-2.35h0A2,2,0,0,0,557.22,295Z"/><path data-cppathid="10475" d="M563.37,449.83c3.08-4.66.66-6.31,0-6.31S560.27,445.17,563.37,449.83Z"/><path data-cppathid="10476" d="M563.37,404.8c-.66,0-3.09,1.61,0,6.31C566.45,406.44,564,404.8,563.37,404.8Z"/><path data-cppathid="10477" d="M563.37,366.07c-.66,0-3.09,1.62,0,6.31C566.45,367.72,564,366.07,563.37,366.07Z"/><path data-cppathid="10478" d="M531.84,428.44a7.25,7.25,0,0,1-.13,1A1.81,1.81,0,0,0,531.84,428.44Z"/><path data-cppathid="10479" d="M531.77,467c-.32-.55-2.63-1.62-4.93,2.21h4.09A2,2,0,0,0,531.77,467Z"/><path data-cppathid="10480" d="M565.11,450.8c5.57.31,5.78-2.61,5.45-3.23S567.51,445.78,565.11,450.8Z"/><path data-cppathid="10481" d="M570.5,408.9c-.34-.58-3-1.84-5.46,3.22C570.61,412.38,570.82,409.46,570.5,408.9Z"/><path data-cppathid="10482" d="M565.11,373.35c4.1.23,5.29-1.29,5.5-2.34l-.14-.95C569.85,369.46,567.37,368.62,565.11,373.35Z"/><path data-cppathid="10483" d="M598,467c-1.61-1.12-2.85-.44-3.08,0a2,2,0,0,0,.84,2.21h3Z"/><path data-cppathid="10484" d="M556.23,447.62c-.33.57-.11,3.49,5.46,3.23C559.22,445.78,556.57,447,556.23,447.62Z"/><path data-cppathid="10485" d="M556.23,408.9c-.33.56-.11,3.48,5.46,3.22C559.22,407.06,556.57,408.32,556.23,408.9Z"/><path data-cppathid="10486" d="M556.23,370.17c-.33.57-.11,3.49,5.46,3.23C559.22,368.33,556.57,369.59,556.23,370.17Z"/><path data-cppathid="10487" d="M563.37,559.7c-.63,0-2.83,1.49-.46,5.59l.81.16C566.24,561.22,564,559.7,563.37,559.7Z"/><path data-cppathid="10488" d="M524.64,507.92c3.08-4.66.66-6.31,0-6.31S521.54,503.26,524.64,507.92Z"/><path data-cppathid="10489" d="M602.09,501.61c-.66,0-3.08,1.62,0,6.31Z"/><path data-cppathid="10490" d="M563.37,527.29c3.08-4.67.66-6.31,0-6.31S560.27,522.62,563.37,527.29Z"/><path data-cppathid="10491" d="M563.37,482.25c-.66,0-3.09,1.61,0,6.31C566.45,483.9,564,482.25,563.37,482.25Z"/><path data-cppathid="10492" d="M570.5,563.8c-.31-.53-2.52-1.61-4.84,2a26.67,26.67,0,0,0,4,.21A2,2,0,0,0,570.5,563.8Z"/><path data-cppathid="10493" d="M526.38,508.89c5.57.31,5.78-2.61,5.46-3.23S528.79,503.87,526.38,508.89Z"/><path data-cppathid="10494" d="M565.11,528.25c5.57.31,5.78-2.61,5.45-3.22S567.51,523.24,565.11,528.25Z"/><path data-cppathid="10495" d="M570.5,486.35c-.34-.58-3-1.84-5.46,3.23C570.61,489.83,570.82,486.91,570.5,486.35Z"/><path data-cppathid="10496" d="M595,544.44c-.26.43-.18,2.26,2.4,2.93.44-.77.88-1.61,1.28-2.37C596.82,543.16,595.22,544,595,544.44Z"/><path data-cppathid="10497" d="M557.15,563.27c.93.43,1.87.82,2.83,1.16A3.08,3.08,0,0,0,557.15,563.27Z"/><path data-cppathid="10498" d="M523,508.89a9.5,9.5,0,0,0-1.43-2.26c0,.76-.13,1.5-.18,2.24A12.36,12.36,0,0,0,523,508.89Z"/><path data-cppathid="10499" d="M600.41,508.89c-2.46-5-5.11-3.76-5.45-3.23S594.85,509.2,600.41,508.89Z"/><path data-cppathid="10500" d="M556.23,525.07c-.33.57-.11,3.49,5.46,3.23C559.22,523.24,556.57,524.49,556.23,525.07Z"/><path data-cppathid="10501" d="M556.23,486.35c-.33.56-.11,3.48,5.46,3.23C559.22,484.51,556.57,485.77,556.23,486.35Z"/><path data-cppathid="10502" d="M526.84,469.2c-.18.29-.34.61-.52.95h0a6.74,6.74,0,0,0,4.61-1h-4.09Z"/><path data-cppathid="10503" d="M598.8,469.2h-3a5.65,5.65,0,0,0,3.34,1Z"/></g></g><path data-cppathid="10504" d="M569.12,566.46a28.16,28.16,0,0,1-17-5.7.51.51,0,0,1-.1-.7.5.5,0,0,1,.7-.09,27.21,27.21,0,0,0,24,4.42c14.71-4.26,24.29-18.51,29.31-43.54,4.52-22.64-7.69-53-17.51-77.32-1.51-3.74-2.94-7.28-4.24-10.64-9.67-24.92-15.37-70.54-15.42-71a.45.45,0,0,1,.07-.32,93.8,93.8,0,0,0,8.67-18.24,110.78,110.78,0,0,1,13-27.73c6.1-9.93,13.39-15.51,19.26-20,1.06-.82,2.06-1.59,3-2.34,1.45-1.16,2.68-2.06,3.67-2.79,1.67-1.23,2.78-2.05,2.8-2.57,0-.25-.25-.6-.79-1.08-2.11-1.85-9.69-.78-16.76,5.11a207.7,207.7,0,0,0-15.58,15,.5.5,0,0,1-.84-.51,124.19,124.19,0,0,1,8.45-18.7,275.26,275.26,0,0,0,14.14-28.48c.94-2.41.57-4.77-1-6s-3.47-1-5.53.31c-4.6,3-9.12,9.57-12.41,18.07-3,7.65-13.56,26.39-16.89,27a1.92,1.92,0,0,1-1.86-.56c-1.63-1.74-1.14-7.17.07-11.77,1.46-5.56,7.41-22.93,10.24-29.51,2-4.6,2.62-8.12,1.82-9.91a2,2,0,0,0-1.21-1.13,3.77,3.77,0,0,0-2.58.52c-3.43,1.73-8.17,6.92-11.22,16.28-4.14,12.74-8.75,34.6-8.79,34.82a.5.5,0,0,1-.46.39.47.47,0,0,1-.5-.33c-.05-.13-4.64-13.34-11-20.11-1.64-1.76-3.28-2.58-5.09-2.5-4.59.19-9.56,6.48-13.94,12-1.83,2.32-2.44,4.34-1.77,5.83s2.63,2.21,4.2,2.3,3.16-.44,3.67-1.32c2.32-4,5.67-8.54,8.4-7.85,2,.5,3.11,3.64,3.35,9.59.38,10.15.41,24-3.71,26.7-4.3,2.86-20-2-20.71-2.25a.5.5,0,0,1-.3-.25.48.48,0,0,1,0-.39c0-.06,1.87-5.13,3.68-11.49l.1-.34c1.74-6.1,3-10.52,0-13.94a2.13,2.13,0,0,0-1.9-.9c-1.79.2-3.65,3-4.21,4l-.07.11c-.13.13-12.25,13.3-10.93,21.7,1,6.2,10.92,17.84,18.18,26.33,2.8,3.27,5.21,6.09,6.61,8,3.91,5.36,3.41,18.9,2.92,32-.17,4.38-.32,8.51-.32,12.37,0,16.18-4.48,48.13-8.07,73.81l-1.17,8.25c-3.43,24.08-5.9,41.49-2.32,49.66a.5.5,0,0,1-.26.66.5.5,0,0,1-.66-.26c-3.69-8.43-1.2-25.95,2.25-50.2l1.17-8.25c3.59-25.65,8.06-57.57,8.06-73.67,0-3.87.15-8,.32-12.4.48-12.93,1-26.29-2.73-31.37-1.38-1.9-3.78-4.71-6.56-8-7.34-8.58-17.39-20.34-18.41-26.82-1.36-8.71,10.21-21.48,11.14-22.5.29-.53,2.41-4.21,5-4.5a2.81,2.81,0,0,1,2.15.66c-.25-1.34.08-3.31,2.18-6,4.51-5.72,9.63-12.21,14.68-12.42a7.6,7.6,0,0,1,5.86,2.82c5.18,5.56,9.11,15,10.56,18.83,1.18-5.41,5-22.52,8.46-33.23,3.14-9.65,8.11-15,11.72-16.86a4.55,4.55,0,0,1,3.34-.58,3,3,0,0,1,1.81,1.67c1.18,2.63-.34,7.28-1.81,10.72-2.81,6.54-8.74,23.84-10.19,29.36-1.33,5.05-1.46,9.61-.31,10.83a1,1,0,0,0,.94.27c2.52-.51,12.89-18,16.15-26.43,3.36-8.7,8-15.46,12.8-18.55,2.43-1.59,4.94-1.68,6.7-.25s2.35,4.32,1.25,7.16a277.44,277.44,0,0,1-14.2,28.59,123.16,123.16,0,0,0-7.54,16.28c4.45-4.64,9.15-9.11,14-13.31,7.23-6,15.32-7.51,18.07-5.09a2.6,2.6,0,0,1,1.13,1.87c0,1-1.1,1.78-3.21,3.34-1,.72-2.2,1.61-3.64,2.77-.94.75-1.95,1.52-3,2.34-5.79,4.44-13,10-19,19.75a109.55,109.55,0,0,0-12.85,27.51,94.57,94.57,0,0,1-8.68,18.29c.4,3.11,6,46.56,15.34,70.59,1.3,3.35,2.73,6.89,4.24,10.63,9.86,24.48,22.14,54.95,17.56,77.88-5.1,25.44-14.91,39.93-30,44.31A27.9,27.9,0,0,1,569.12,566.46ZM521.84,319.08c4.77,1.45,16.23,4.3,19.35,2.22,2.74-1.82,3.84-10.52,3.27-25.84-.28-7-1.74-8.44-2.59-8.65-1.62-.4-4.35,2.36-7.29,7.39-.72,1.21-2.52,1.92-4.6,1.81a7.2,7.2,0,0,1-3.32-1c1.44,3.4.29,7.44-1.2,12.67l-.1.33C523.87,313.27,522.35,317.65,521.84,319.08Z" class="cls-6"/><path data-cppathid="10505" d="M590.93,315.87c7.21-11.71,16.23-17.42,22.23-22.21s8.07-5.12,5.7-7.22-10.2-.9-17.41,5.1a211,211,0,0,0-15.62,15,123.56,123.56,0,0,1,8.32-18.62,272.9,272.9,0,0,0,14.12-28.53c2.1-5.4-2.1-9.68-7.21-6.3s-9.6,10.5-12.6,18.31-13.52,26.14-16.53,26.74-2.71-6-1.21-11.72,7.52-23.12,10.22-29.43,3-10.81.31-11.71-10.22,4.19-14.43,17.12S558,297.29,558,297.29s-4.6-13.38-11-20.29-12.91.81-19.79,9.57,4.84,10.8,6.93,7.38c4.18-7.14,10.21-13.57,10.81,1.5.29,7.73.66,23.49-3.49,26.27s-20.28-2.31-20.28-2.31,1.84-5.07,3.69-11.52,3.23-11.07,0-14.75-6.92,3.23-6.92,3.23-12.44,13.36-11,22.12,19.81,27.64,24.88,34.56,2.5,28.51,2.5,44.07-4,44.94-8.07,73.74A8,8,0,0,1,526,472c6.38,6.7,19.37,16.3,41.33,15.56,14.71-.5,25.14-7.91,32.19-16.06C594.85,457.55,589,444,584.62,432.75c-9.76-25.16-15.4-70.89-15.4-70.89a93.6,93.6,0,0,0,8.72-18.33A109.93,109.93,0,0,1,590.93,315.87Z" class="cls-15"/><path data-cppathid="10506" d="M546.75,360.52a.49.49,0,0,1-.49-.38c-.11-.48-2.69-11.68,1.26-19a20.78,20.78,0,0,1,9.83-9.52.5.5,0,0,1,.42.9,19.93,19.93,0,0,0-9.37,9.08c-3.77,7-1.19,18.17-1.17,18.29a.49.49,0,0,1-.37.6Z" class="cls-6"/></g></g></g></svg>