<?xml version="1.0" encoding="UTF-8"?>
<svg xmlns="http://www.w3.org/2000/svg" onmouseup="{ if(window.parent.document.onmouseup) window.parent.document.onmouseup(arguments[0]);}" viewBox="0 0 643.28 552.81"><defs><style>.cls-1,.cls-11,.cls-6{fill:#c86161;}.cls-15,.cls-16,.cls-2,.cls-5,.cls-9{fill:#fff;}.cls-2{opacity:0.7;isolation:isolate;}.cls-12,.cls-3,.cls-7{fill:none;}.cls-10,.cls-11,.cls-13,.cls-14,.cls-16,.cls-17,.cls-3,.cls-5,.cls-6,.cls-7,.cls-8,.cls-9{stroke:#263238;}.cls-3,.cls-6{stroke-miterlimit:10;}.cls-10,.cls-4,.cls-8{fill:#263238;}.cls-10,.cls-11,.cls-12,.cls-13,.cls-14,.cls-16,.cls-17,.cls-5,.cls-7{stroke-linecap:round;stroke-linejoin:round;}.cls-8{stroke-miterlimit:10;}.cls-9{stroke-miterlimit:10;}.cls-12{stroke:#4c4c4c;}.cls-13{fill:#4c4c4c;}.cls-14{fill:#b5b5b5;}.cls-16{stroke-width:0.75px;}.cls-17{fill:gray;}</style></defs><g data-name="Layer 2" id="Layer_2"><g data-name="Layer 1" id="Layer_1-2"><g id="freepik--background-simple--inject-134"><path data-cppathid="10000" d="M26.45,341.69S52,445.8,155.32,500.66s227.27,39.2,328.16,29.1S649,451.31,642.78,365.49,555.41,267.77,494,179.26,429.7,58.7,330.07,14.65s-228.51,15-278.8,127.61S26.45,341.69,26.45,341.69Z" class="cls-1"/><path data-cppathid="10001" d="M26.45,341.69S52,445.8,155.32,500.66s227.27,39.2,328.16,29.1S649,451.31,642.78,365.49,555.41,267.77,494,179.26,429.7,58.7,330.07,14.65s-228.51,15-278.8,127.61S26.45,341.69,26.45,341.69Z" class="cls-2"/></g><g id="freepik--Wall--inject-134"><line data-cppathid="10002" y2="519.97" x2="76.37" y1="54.76" x1="76.37" class="cls-3"/><line data-cppathid="10003" y2="45.72" x2="76.37" y1="36.82" x1="76.37" class="cls-3"/><line data-cppathid="10004" y2="519.97" x2="245.77" y1="36.82" x1="245.77" class="cls-3"/><line data-cppathid="10005" y2="519.97" x2="415.18" y1="36.82" x1="415.18" class="cls-3"/><line data-cppathid="10006" y2="519.97" x2="584.59" y1="105.71" x1="584.59" class="cls-3"/><line data-cppathid="10007" y2="94.1" x2="584.59" y1="36.82" x1="584.59" class="cls-3"/></g><g id="freepik--Board--inject-134"><rect data-cppathid="10008" height="229.91" width="387.93" y="102.85" x="107.12" class="cls-4"/><rect data-cppathid="10009" height="216.84" width="383.55" y="109.39" x="109.32" class="cls-5"/><rect data-cppathid="10010" height="12.33" width="394.54" y="98.92" x="102.7" class="cls-4"/><circle data-cppathid="10011" r="11.09" cy="87.65" cx="305.44" class="cls-5"/><path data-cppathid="10012" d="M311.29,87.65a5.85,5.85,0,1,1-5.86-5.83h0A5.85,5.85,0,0,1,311.29,87.65Z" class="cls-6"/></g><g id="freepik--Graphics--inject-134"><polyline data-cppathid="10013" points="178.96 250.2 131.56 250.2 131.56 202.14 212.18 202.14 212.18 250.2 187.98 250.2" class="cls-3"/><rect data-cppathid="10014" height="38.37" width="64.34" y="273.22" x="195.17" class="cls-3"/><polyline data-cppathid="10015" points="330.52 202.14 338.64 202.14 338.64 250.2 258.02 250.2 258.02 202.14 322.79 202.14" class="cls-3"/><polyline data-cppathid="10016" points="264.73 131.87 359.36 131.87 359.36 179.95 237.32 179.95 237.32 131.87 255.71 131.87" class="cls-3"/><rect data-cppathid="10017" height="48.07" width="80.62" y="202.14" x="383.76" class="cls-3"/><path data-cppathid="10018" d="M230.67,155.54s-42.78,5.94-67.92,42.19" class="cls-3"/><line data-cppathid="10019" y2="271.91" x2="208.96" y1="255.39" x1="203.3" class="cls-3"/><line data-cppathid="10020" y2="269.43" x2="256.55" y1="253.9" x1="261.73" class="cls-3"/><polyline data-cppathid="10021" points="202.74 266.47 208.96 271.91 210.51 264.53" class="cls-3"/><polyline data-cppathid="10022" points="254.01 264.53 256.34 270.74 262.94 266.85" class="cls-3"/><polyline data-cppathid="10023" points="163.91 190.35 162.75 197.72 170.9 192.68" class="cls-3"/><line data-cppathid="10024" y2="224.91" x2="381.4" y1="224.91" x1="341.01" class="cls-3"/><polyline data-cppathid="10025" points="372.85 219.86 381.8 224.91 373.64 229.96" class="cls-3"/><line data-cppathid="10026" y2="224.91" x2="253.91" y1="224.91" x1="213.52" class="cls-3"/><polyline data-cppathid="10027" points="245.36 219.86 254.29 224.91 246.15 229.96" class="cls-3"/><line data-cppathid="10028" y2="196.08" x2="298.04" y1="183.79" x1="298.04" class="cls-3"/><polyline data-cppathid="10029" points="303.08 187.52 298.03 196.46 292.99 188.31" class="cls-3"/><line data-cppathid="10030" y2="239.43" x2="342.16" y1="239.43" x1="381.01" class="cls-3"/><polyline data-cppathid="10031" points="350.37 234.38 341.79 239.43 349.63 244.48" class="cls-3"/><line data-cppathid="10032" y2="146.85" x2="335.57" y1="146.85" x1="262.55" class="cls-3"/><line data-cppathid="10033" y2="153.84" x2="335.57" y1="153.84" x1="262.55" class="cls-3"/><line data-cppathid="10034" y2="160.83" x2="335.57" y1="160.83" x1="262.55" class="cls-3"/><line data-cppathid="10035" y2="219.86" x2="204.69" y1="219.86" x1="139.05" class="cls-3"/><line data-cppathid="10036" y2="226.86" x2="204.69" y1="226.86" x1="139.05" class="cls-3"/><line data-cppathid="10037" y2="233.85" x2="204.69" y1="233.85" x1="139.05" class="cls-3"/><line data-cppathid="10038" y2="219.86" x2="332.08" y1="219.86" x1="266.45" class="cls-3"/><line data-cppathid="10039" y2="226.86" x2="332.08" y1="226.86" x1="266.45" class="cls-3"/><line data-cppathid="10040" y2="233.85" x2="332.08" y1="233.85" x1="266.45" class="cls-3"/><line data-cppathid="10041" y2="219.86" x2="454.8" y1="219.86" x1="389.17" class="cls-3"/><line data-cppathid="10042" y2="226.86" x2="454.8" y1="226.86" x1="389.17" class="cls-3"/><line data-cppathid="10043" y2="233.85" x2="454.8" y1="233.85" x1="389.17" class="cls-3"/><line data-cppathid="10044" y2="286.28" x2="253.63" y1="286.28" x1="203.53" class="cls-3"/><line data-cppathid="10045" y2="293.26" x2="253.63" y1="293.26" x1="203.53" class="cls-3"/><line data-cppathid="10046" y2="300.27" x2="253.63" y1="300.27" x1="203.53" class="cls-3"/><path data-cppathid="10047" d="M425.69,153a.66.66,0,0,1-.34-1.22l.5-.32-.19.11a.67.67,0,0,1-.87-.35.66.66,0,0,1,.2-.78l2.65-1.69L425.32,150a.66.66,0,0,1-.89-.3.65.65,0,0,1,.2-.83l4.75-3.11-4.5,2.66a.67.67,0,0,1-.89-.23.68.68,0,0,1,.2-.9l7.41-5-7.22,4.16a.65.65,0,0,1-.88-.21.63.63,0,0,1,.17-.89h0l11.12-8-11.11,6.41a.66.66,0,0,1-.7-1.11l8-5.53-7.84,4.53a.65.65,0,0,1-.69-1.09l4.52-3-4.26,2.46a.67.67,0,0,1-.89-.23A.65.65,0,0,1,422,139l2.91-2-2.65,1.52a.66.66,0,0,1-.89-.32.68.68,0,0,1,.17-.78l7.77-5.75-7.69,4.44a.67.67,0,0,1-.73-1.11l6.88-5.31-6.84,3.89a.68.68,0,0,1-.89-.21.65.65,0,0,1,.17-.89l3.36-2.49-3.11,1.81a.68.68,0,0,1-.89-.21.66.66,0,0,1,.16-.89l2.75-2.09L420,130.05a.66.66,0,0,1-.88-.22.67.67,0,0,1,.13-.89l1.33-1.07-1.06.61a.65.65,0,0,1-.82-.13.66.66,0,0,1,0-.84l2.1-2.66L418.86,126a.64.64,0,0,1-1-.68l.2-.81a.73.73,0,0,1-.56-.33.69.69,0,0,1,.25-.91l1-.56a.67.67,0,0,1,.9.26.65.65,0,0,1,.07.47l-.17.68,3.5-2a.68.68,0,0,1,.91.26.69.69,0,0,1-.06.73l-2.08,2.65,6.28-3.62a.68.68,0,0,1,.88.2.66.66,0,0,1-.15.89l-1.33,1.08,3.33-1.92a.67.67,0,0,1,.9.27.66.66,0,0,1-.17.83l-2.75,2.09,4.53-2.66a.68.68,0,0,1,.89.21.66.66,0,0,1-.16.89l-3.38,2.49,5.07-2.93a.66.66,0,1,1,.73,1.09l-6.89,5.32,9.08-5.32a.68.68,0,0,1,.89.22.66.66,0,0,1-.16.89l-7.79,5.75,9.6-5.53a.67.67,0,0,1,.89.21.68.68,0,0,1-.19.91L439,129l3.77-2.18a.67.67,0,0,1,.89.31.68.68,0,0,1-.19.81l-4.5,3,5.31-3.08A.66.66,0,0,1,445,129l-8,5.53,9.06-5.23a.65.65,0,0,1,.88.31.65.65,0,0,1-.18.8l-11.12,8L448,131.24a.67.67,0,0,1,.89.23.63.63,0,0,1-.17.88h0l-7.43,5,8.07-4.66a.67.67,0,0,1,.89.29.68.68,0,0,1-.2.84l-4.76,3.11,5.09-2.94a.65.65,0,0,1,.89.23.63.63,0,0,1-.19.88h0l-2.66,1.7,2.75-1.6a.65.65,0,0,1,.89.23.67.67,0,0,1-.2.9l-.5.32.57-.33a.66.66,0,0,1,.7,1.11L445,142.88l8-4.61a.65.65,0,0,1,.89.21.67.67,0,0,1-.18.91l-.18.1h0a.67.67,0,0,1,.91.25.66.66,0,0,1-.19.87l-1.49,1,1.41-.8a.66.66,0,0,1,.83,1l-2.53,2.91,2.45-1.41a.63.63,0,0,1,.75.08.65.65,0,0,1,.19.74l-.27.63a.68.68,0,0,1,.66.33.66.66,0,0,1-.24.9l-1.41.81a.65.65,0,0,1-.9-.22.64.64,0,0,1,0-.6l.22-.56-4.18,2.42a.67.67,0,0,1-.83-1l2.53-2.91-9.69,5.55a.65.65,0,0,1-.87-.21.63.63,0,0,1,.16-.88h0l1.49-1.06-5.52,3.17a.65.65,0,0,1-.69-1.11l.16-.12-3.68,2.12a.65.65,0,0,1-.71-1.09h0l7.69-5.41L426,152.82A.57.57,0,0,1,425.69,153Z" class="cls-1"/><path data-cppathid="10048" d="M405.22,171.55a27.44,27.44,0,0,1-9.67-20.7c0-15.67,13.59-28.38,30.35-28.38s30.37,12.71,30.37,28.38-13.59,28.38-30.37,28.38a31.83,31.83,0,0,1-12.76-2.66" class="cls-3"/><line data-cppathid="10049" y2="144.73" x2="387.97" y1="144.73" x1="368.8" class="cls-3"/><line data-cppathid="10050" y2="151.33" x2="387.97" y1="151.33" x1="368.8" class="cls-3"/><line data-cppathid="10051" y2="157.95" x2="387.97" y1="157.95" x1="368.8" class="cls-3"/><line data-cppathid="10052" y2="257.46" x2="170.78" y1="257.46" x1="137.06" class="cls-3"/><line data-cppathid="10053" y2="264.07" x2="170.78" y1="264.07" x1="137.06" class="cls-3"/><line data-cppathid="10054" y2="171.5" x2="163.77" y1="171.5" x1="130.06" class="cls-3"/><line data-cppathid="10055" y2="270.68" x2="170.78" y1="270.68" x1="137.06" class="cls-3"/><line data-cppathid="10056" y2="284.56" x2="170.78" y1="284.56" x1="137.06" class="cls-3"/><line data-cppathid="10057" y2="291.18" x2="170.78" y1="291.18" x1="137.06" class="cls-3"/><line data-cppathid="10058" y2="297.79" x2="170.78" y1="297.79" x1="137.06" class="cls-3"/><polyline data-cppathid="10059" points="417.83 123.19 426.02 152.86 456.01 146.02" class="cls-3"/><polyline data-cppathid="10060" points="130.41 130.79 130.41 163.82 183.45 163.82" class="cls-3"/><rect data-cppathid="10061" height="28.52" width="11.01" y="135.3" x="135.91" class="cls-6"/><rect data-cppathid="10062" height="22.01" width="11.01" y="141.79" x="163.93" class="cls-6"/><rect data-cppathid="10063" height="37.53" width="11.01" y="126.29" x="149.93" class="cls-6"/></g><g id="freepik--Plants--inject-134"><path data-cppathid="10064" d="M66.56,343.64s0-5.55-7.77-13.28S46,318.15,46,318.15s-3.89,12.77,3.34,20.54a135.39,135.39,0,0,0,17.2,15Z" class="cls-1"/><path data-cppathid="10065" d="M55.28,378.32s0-5.55-7.77-13.29S34.74,352.8,34.74,352.8s-3.89,12.77,3.32,20.54a136.1,136.1,0,0,0,17.28,15Z" class="cls-1"/><path data-cppathid="10066" d="M66.07,353.1s.6-5.52,9.14-12.43,14-10.79,14-10.79S91.73,343,83.73,350A137,137,0,0,1,65,363Z" class="cls-1"/><path data-cppathid="10067" d="M52.45,394.05s1.16-5.42,10.39-11.4,15-9.3,15-9.3,1.13,13.29-7.56,19.38a136.45,136.45,0,0,1-19.93,11.06Z" class="cls-1"/><path data-cppathid="10068" d="M55,438.7s0-5.55,7.79-13.28,12.77-12.21,12.77-12.21,3.88,12.77-3.34,20.54a135.32,135.32,0,0,1-17.27,15Z" class="cls-1"/><path data-cppathid="10069" d="M54.88,449.6s.79-5.49-5.8-14.3-10.91-13.89-10.91-13.89-5.66,12.09.39,20.8a136.08,136.08,0,0,0,14.9,17.27Z" class="cls-1"/><path data-cppathid="10070" d="M47.22,481.91s0-5.55,7.77-13.29S67.76,456.4,67.76,456.4s3.89,12.77-3.34,20.54a135.48,135.48,0,0,1-17.27,15Z" class="cls-1"/><path data-cppathid="10071" d="M52.4,511.19s-1.4-5.38,4.14-14.87,9.3-15.05,9.3-15.05,7,11.37,2,20.73A137.27,137.27,0,0,1,55,520.86Z" class="cls-1"/><path data-cppathid="10072" d="M67.27,342.17a159.05,159.05,0,0,1-2.13,17.27c-3.07,15.94-10.76,26.12-13.83,40.46s5.75,32.81,3.39,51.23-9.53,28.67-7.48,41S60,537.66,60,537.66" class="cls-7"/><line data-cppathid="10073" y2="350.37" x2="74.37" y1="356.8" x1="66" class="cls-7"/><line data-cppathid="10074" y2="343.15" x2="62.88" y1="349.38" x1="66.39" class="cls-7"/><path data-cppathid="10075" d="M51.78,399.3s7-5.32,14.22-10.51" class="cls-7"/><path data-cppathid="10076" d="M55.28,388.31s-5.84-11.45-12.46-19.05" class="cls-7"/><path data-cppathid="10077" d="M55.28,446.61a87.41,87.41,0,0,1,15-20.08" class="cls-7"/><path data-cppathid="10078" d="M53.93,454.39A98.59,98.59,0,0,0,46.33,440c-4.09-6-4.68-6.82-4.68-6.82" class="cls-7"/><path data-cppathid="10079" d="M47.22,492.11a92.46,92.46,0,0,1,6.31-12.78,81.73,81.73,0,0,1,8.18-10.71" class="cls-7"/><path data-cppathid="10080" d="M54.94,520.86a23.68,23.68,0,0,1,2.1-12.3c2.92-5.65,6.23-13.06,7.6-15.94" class="cls-7"/><path data-cppathid="10081" d="M15.69,417.82s-.61-3.48,3.43-9.2,6.64-9,6.64-9,3.83,7.58.13,13.28a86.22,86.22,0,0,1-9.16,11.27Z" class="cls-1"/><path data-cppathid="10082" d="M26.51,438.34s-.62-3.48,3.42-9.2,6.65-9,6.65-9,3.81,7.59.13,13.29a87.06,87.06,0,0,1-9.17,11.28Z" class="cls-1"/><path data-cppathid="10083" d="M17,423.7s-1-3.4-7.08-6.8S0,411.59,0,411.59s-.16,8.5,5.62,12a86.41,86.41,0,0,0,13.11,6.32Z" class="cls-1"/><path data-cppathid="10084" d="M30,447.9s-1.33-3.27-7.76-6-10.45-4.17-10.45-4.17.75,8.46,6.86,11.33a89,89,0,0,0,13.72,4.73Z" class="cls-1"/><path data-cppathid="10085" d="M33.23,476.18s-.6-3.48-6.33-7.52-9.3-6.27-9.3-6.27-1.06,8.44,4.32,12.53a87.25,87.25,0,0,0,12.37,7.53Z" class="cls-1"/><path data-cppathid="10086" d="M34.49,483s-1.09-3.36,2.09-9.59,5.31-9.9,5.31-9.9,4.86,7,2,13.08A84.81,84.81,0,0,1,36.44,489Z" class="cls-1"/><path data-cppathid="10087" d="M44.24,511.08s.41-3.5,5.89-7.86,9-6.79,9-6.79,1.52,8.36-3.6,12.74a86.67,86.67,0,0,1-12,8.24Z" class="cls-1"/><path data-cppathid="10088" d="M42.81,502.42s-.55-3.48-6.33-7.46-9.3-6.29-9.3-6.29-1.05,8.44,4.33,12.53a87.1,87.1,0,0,0,12.41,7.53Z" class="cls-1"/><path data-cppathid="10089" d="M42.73,521.35s.3-3.52-4.21-8.87S31.08,504,31.08,504s-3.15,7.89,1,13.21a86.47,86.47,0,0,0,10.17,10.44Z" class="cls-1"/><path data-cppathid="10090" d="M15.07,417a101.47,101.47,0,0,0,3.2,10.63c3.65,9.63,9.58,15.21,13.07,23.91s0,21.26,3.43,32.5,9.09,16.94,9.14,24.87-3.08,29.88-3.08,29.88" class="cls-7"/><line data-cppathid="10091" y2="422.88" x2="11.49" y1="426" x1="17.44" class="cls-7"/><line data-cppathid="10092" y2="417.11" x2="17.92" y1="421.41" x1="16.4" class="cls-7"/><path data-cppathid="10093" d="M31,451.11s-5-2.54-10.06-5.06" class="cls-7"/><path data-cppathid="10094" d="M27.65,444.62a71.16,71.16,0,0,1,5.75-13.29" class="cls-7"/><path data-cppathid="10095" d="M33.92,481.16a55.8,55.8,0,0,0-11.59-11" class="cls-7"/><path data-cppathid="10096" d="M35.62,485.91A62.08,62.08,0,0,1,38.81,476c1.91-4.23,2.19-4.79,2.19-4.79" class="cls-7"/><path data-cppathid="10097" d="M43.59,514.88a53.55,53.55,0,0,1,6.4-6.64,33.53,33.53,0,0,0,4.23-3.67" class="cls-7"/><path data-cppathid="10098" d="M43.91,508.83a59.81,59.81,0,0,0-5.31-7.34,53.47,53.47,0,0,0-6.3-5.83" class="cls-7"/><path data-cppathid="10099" d="M42.26,527.69a15.18,15.18,0,0,0-2.65-7.49c-2.45-3.22-5.32-7.51-6.5-9.2" class="cls-7"/></g><g id="freepik--Clock--inject-134"><circle data-cppathid="10100" transform="translate(271.86 686.59) rotate(-76.92)" r="48.19" cy="172.16" cx="568.13" class="cls-8"/><circle data-cppathid="10101" r="40.93" cy="172.16" cx="568.09" class="cls-9"/><polyline data-cppathid="10102" points="580.74 145.88 568.09 172.12 586.16 172.12" class="cls-3"/><path data-cppathid="10103" d="M572.69,172.11a4.6,4.6,0,1,1-4.61-4.58h0a4.59,4.59,0,0,1,4.6,4.57Z" class="cls-6"/></g><g id="freepik--characters-3--inject-134"><path data-cppathid="10104" d="M307.53,296.63l-6.19-9s1.22-14.48-.16-16.74-23.76-4.88-25.09-3.2,3.38,3.18,3.38,3.18-3.19,1.41-2.86,3c.49,2.36,4.57,2.66,4.57,2.66s-3.24,2.16-2.84,3.57c.32,1.12,3.56,2,3.56,2s-3.28,1.49-.6,3.39,5,3.87,5,3.87-1.86,4,3.17,7.45,13.74,9.78,13.74,9.78Z" class="cls-5"/><path data-cppathid="10105" d="M276.93,261.64l-5-.41v1.53l4,2.24A20.79,20.79,0,0,1,276.93,261.64Z" class="cls-10"/><path data-cppathid="10106" d="M296.41,271.67a1.8,1.8,0,0,1-.65-.09l-19.67-6.2a2,2,0,0,1,1-3.8l.17.05,19.66,6.2a2,2,0,0,1,1.28,2.47,2,2,0,0,1-1.81,1.37Z" class="cls-5"/><path data-cppathid="10107" d="M306.65,275.54a2.93,2.93,0,0,1-.88-.13l-10.15-3.2a2.66,2.66,0,0,1,.74-5.27,2.51,2.51,0,0,1,.84.27l10.15,3.2a2.63,2.63,0,0,1-.7,5.13Z" class="cls-10"/><path data-cppathid="10108" d="M298.47,278.5a75.15,75.15,0,0,0-3.19-7.78c-1.4-2.58-4.08-4.8-5.14-7.39s-3.91,1.42-2.86,3.36,3.43,4.82,3.47,6.14.38,2.29-1.13,6.64-2.35,9.3,1,12.78" class="cls-5"/><line data-cppathid="10109" y2="272.83" x2="290.75" y1="270.86" x1="279.52" class="cls-7"/><path data-cppathid="10110" d="M281.23,276.55c1.33-.37,8.39,2.87,8.39,2.87" class="cls-7"/><line data-cppathid="10111" y2="284.07" x2="287.78" y1="282.12" x1="281.95" class="cls-7"/><path data-cppathid="10112" d="M386.14,279.31s-3.35-2-4.82,3.33-5.81,14.61-7.72,16.63-20.73,20.65-20.73,20.65-8.08-6.34-10-4a7.54,7.54,0,0,1-3.2,2.66l-32.26-25.31-11.95,18.08s43.84,40.07,47.51,41.28,6.25.8,7.56.1,25.37-18.81,25.37-18.81,14.68-47.38,15.95-49.05S386.14,279.31,386.14,279.31Z" class="cls-11"/><path data-cppathid="10113" d="M342.81,320s6.54,7.55,6.54,17.1" class="cls-11"/><path data-cppathid="10114" d="M353.38,323s2,5-1,16.09" class="cls-11"/><path data-cppathid="10115" d="M400.51,220.84s-14.24-9.3-12.55-18.13,33.63-16,52-10,22.09,33.44,19.67,50.39-3.88,55.64-3.88,55.64l-62.29,1.84s5.8-45.31,7-59.63S400.51,220.84,400.51,220.84Z" class="cls-10"/><path data-cppathid="10116" d="M368.63,470.28c1.33,13.54,3.85,73.2,5.31,82h64.77c-.13-10.18-.3-78.92,1.16-84.54,1.84-7,4.43-30.46,1.58-43.91s-6.33-19.93-6.33-19.93l-67.22-.06.2,5.51S366.83,451.11,368.63,470.28Z" class="cls-10"/><path data-cppathid="10117" d="M383,429.68c2.66,1.82,5.32,3.12,5.32,5.76,1.33,23.62,6.56,90,8.41,113.87" class="cls-12"/><path data-cppathid="10118" d="M402.31,278.4l32.87,1.22S408.79,320.23,409,342.55s4.65,68.59,4.65,68.59-14.46,11.43-29.4,9.3c-1.63-.24-2.49-13.64-2.49-13.64s-1,13-2.06,12.81c-8.37-1.5-11.62-10.15-11.62-10.15l1.74-44.71s0-29.32,3.27-37.74,25.35-45.84,25.35-45.84Z" class="cls-5"/><path data-cppathid="10119" d="M401,304.28s-10.16,21.12-13.88,33.5-5.32,69-5.32,69" class="cls-7"/><path data-cppathid="10120" d="M431.22,279.3s-23.05,34.38-27.5,46.77-7.43,59.78-6.85,79.87,6.94,42.25,6.94,42.25a124.66,124.66,0,0,0,55.92-3.84s-8.05-35.65-12-47.35a154.82,154.82,0,0,1-5.5-23.48s26.47-84.39,26.47-85.69-.52-2.66-3.16-3.41S431.22,279.3,431.22,279.3Z" class="cls-11"/><polyline data-cppathid="10121" points="410.09 410.83 444.3 408.09 444.76 413.57 430.17 415.39" class="cls-11"/><path data-cppathid="10122" d="M402,282.78s-27.46,48.53-28.07,57.3S369.25,389.24,367,402s-12,37.56-12,37.56-2.51-10.87-1.78-15.71,11.31-32.28,12.44-38.45,2.65-28.1,2.39-37.71-.93-16.61,1.06-23.67,17.06-44.72,17.06-44.72L408,278.24Z" class="cls-11"/><polygon data-cppathid="10123" points="396.05 278.77 391.48 299.69 403.23 290.58 396.05 278.77" class="cls-5"/><polygon data-cppathid="10124" points="410.04 268.62 396.05 278.77 401.32 292.57 401.03 304.28 416.9 280.75 410.04 268.62" class="cls-5"/><path data-cppathid="10125" d="M409.23,263.12s-2.66,19.57-3.49,24.78S401,304.28,401,304.28s24.94-24.12,26.17-26.11,5.54-21.26,5.54-21.26S416.7,262.91,409.23,263.12Z" class="cls-5"/><path data-cppathid="10126" d="M408.47,268.61c3.4,2.12,6,2.12,10,1.51s9.3-4.3,12.91-7.21c.8-3.39,1.33-6,1.33-6s-16.05,6-23.51,6.21C409.23,263.12,409,265.4,408.47,268.61Z" class="cls-10"/><path data-cppathid="10127" d="M417.21,203.8l-18.4,14.49s-1.86,14-2.55,23.78a25.33,25.33,0,0,0,8.71,21.5c5.31,4.72,8.26,5,13.43,4.15s12.79-6.87,15.63-9.56,8.14-10.63,8.14-10.63,4.23.85,5.48-1.13a13.69,13.69,0,0,0,1.53-3s-17.5-9.87-24.68-22.32S417.21,203.8,417.21,203.8Z" class="cls-5"/><path data-cppathid="10128" d="M411.49,229.61a19.09,19.09,0,0,1-1.78,5.9c-1.24,2-6.07,3.1-3.42,5.31a11.75,11.75,0,0,0,6.89,2.08" class="cls-7"/><path data-cppathid="10129" d="M406.15,246.66s9.86,4.25,16.19-1.46" class="cls-7"/><path data-cppathid="10130" d="M409.44,248.18s1.46,5.48,4.68,4.4,6-5.31,6-5.31A77.86,77.86,0,0,1,409.44,248.18Z" class="cls-7"/><path data-cppathid="10131" d="M423.9,232.16c0,1.44-.57,2.66-1.33,2.66s-1.49-1.12-1.53-2.55.57-2.66,1.33-2.66S423.86,230.74,423.9,232.16Z" class="cls-4"/><path data-cppathid="10132" d="M408.42,230.36c0,1.43-.57,2.65-1.33,2.65s-1.49-1.11-1.53-2.55.57-2.66,1.33-2.66S408.38,228.92,408.42,230.36Z" class="cls-4"/><path data-cppathid="10133" d="M403.21,224.34a5.09,5.09,0,0,1,7.21-.17,3.44,3.44,0,0,1,.27.27" class="cls-7"/><path data-cppathid="10134" d="M418.17,225.25s7.39-2.8,10.5,3.59" class="cls-7"/><polygon data-cppathid="10135" points="414.08 284.42 401.03 304.28 420.2 293.97 414.08 284.42" class="cls-5"/><polygon data-cppathid="10136" points="435.97 267.2 414.08 284.42 420.46 302.4 441.49 278.08 435.97 267.2" class="cls-5"/><path data-cppathid="10137" d="M409.36,369.25a32.2,32.2,0,0,1-8.38-3.7c-4.9-2.92-10.12-1.9-14.5-1.77s-7.41,1.11-6.92,2.83,4.87,1.61,6.18,1.57,3.56,2.09,3.56,2.09l-10.93,2.66s-3.43,2.29-.73,4.83,3.18,2,3.18,2,4.14,6.44,8.52,6.75,22.2-4.16,22.2-4.16Z" class="cls-5"/><path data-cppathid="10138" d="M440.35,319c.51,2.66,3.34,41.76,3.34,41.76l-36.07,8.51,1.93,20.52s64.55-7.6,65.75-11.57-3-72.58-2.66-76.53,5.62-17.27-10.13-17.27" class="cls-11"/><path data-cppathid="10139" d="M446.38,312.49s10.55-13.58,22.12-13.07" class="cls-11"/><path data-cppathid="10140" d="M446.38,317.51s9-5,18.09-5" class="cls-11"/></g><g id="freepik--character-1--inject-134"><path data-cppathid="10141" d="M43.14,552.31V475.44a2.29,2.29,0,0,0-2.29-2.29H31.43a2.29,2.29,0,0,0-2.29,2.29v76.87Z" class="cls-13"/><path data-cppathid="10142" d="M31.41,552.31V475.44a2.3,2.3,0,0,0-2.3-2.29H19.68a2.29,2.29,0,0,0-2.29,2.29h0v76.87Z" class="cls-10"/><path data-cppathid="10143" d="M36.71,552.31H204.87a17.05,17.05,0,0,0-5.74-7.44c-7.63-4.81-80.26-16-80.26-16l-75.45-1.21-3.62,1.21s-4,5.62-3.6,8.42C36.4,538.67,36.5,545.55,36.71,552.31Z" class="cls-10"/><path data-cppathid="10144" d="M105.22,383.14s-17.65,10-23.67,15.65-16,24.09-16.86,35.32-9.63,54.2-9.63,54.2S37,523.6,39.8,528.82s77.06,0,79.07,0-2-22.07-2-22.07,28.09-43.35,29.23-55-7.23-43.33-8.83-50.56S108.84,381.53,105.22,383.14Z" class="cls-5"/><path data-cppathid="10145" d="M91.42,444.47s14,13.29,19.93,17.74" class="cls-7"/><path data-cppathid="10146" d="M84.78,454.79s25.86,8.86,32.51,9.61" class="cls-7"/><path data-cppathid="10147" d="M160.2,338.18s2,14.86,1.61,19.27-4.41,19.66-5.62,22.88-2.41,6.81-6.82,6.41a15.72,15.72,0,0,1-7.22-2.4l-4.42,14.84-30.55-17.66,4-8s-4.41-7.21-5.62-19.26S111.16,328.6,120,323.4s24.07-3.22,28.48.39S160.2,338.18,160.2,338.18Z" class="cls-5"/><path data-cppathid="10148" d="M105.62,375.52c1.61.41,36.13,16.06,36.53,20.07s2,16.45,2,16.45A142.1,142.1,0,0,0,121.27,396a141.39,141.39,0,0,1-18.45-11.64Z" class="cls-5"/><path data-cppathid="10149" d="M136.13,305.29s10.43-4.41,18.85-2.41,11.64,11.64,11.64,19.67-4.41,17.65-6,18.05-5.62-18.85-13.29-24.47A52.25,52.25,0,0,1,136.13,305.29Z" class="cls-11"/><path data-cppathid="10150" d="M123.31,307.71s16.46-8.84,30.9,3.6,9.63,24.88,6.42,29.29-3.21,12.85-5.62,14.46-2.81-6.42-5.61-8-2.45,4.39-5.65,12.36-17.65,19.66-25.24,18.87-16.86-9.3-22.08-26.89-1.6-36.53,8-42.52A19.92,19.92,0,0,1,123.31,307.71Z" class="cls-11"/><path data-cppathid="10151" d="M155.19,315.27s3.19,9.22-5,19.49-19.13,15.94-27.27,11-8.52-10.63-8.52-10.63" class="cls-7"/><path data-cppathid="10152" d="M101.36,336.85s-1.78,27.68,14.88,30.56,25.87-14.61,25.87-14.61" class="cls-7"/><ellipse data-cppathid="10153" ry="16.86" rx="16.66" cy="320.54" cx="106.63" class="cls-11"/><path data-cppathid="10154" d="M103.12,318.11s2.13-11,8.15-12.41" class="cls-7"/><path data-cppathid="10155" d="M102.42,319.58s12-4.25,17.71.36" class="cls-7"/><path data-cppathid="10156" d="M101.7,321.64s-5.31,3.55-3.53,11.71" class="cls-7"/><path data-cppathid="10157" d="M151.78,356.25s-1.21-12-4.83-11.64-2,18.47,0,21.26a2.37,2.37,0,0,0,3.17,1.08,2.42,2.42,0,0,0,.82-.67" class="cls-5"/><polygon data-cppathid="10158" points="490.96 536.01 118.3 536.01 130.87 504.38 407.12 504.38 490.96 536.01" class="cls-14"/><rect data-cppathid="10159" height="9.98" width="363.42" y="542.33" x="122.43" class="cls-10"/><rect data-cppathid="10160" height="11.74" width="372.67" y="536.01" x="118.3" class="cls-13"/><polygon data-cppathid="10161" points="258.69 508.43 269.49 525.47 182 525.47 190.52 508.43 258.69 508.43" class="cls-15"/><polygon data-cppathid="10162" points="242.21 513.54 253.01 530.58 165.51 530.58 174.04 513.54 242.21 513.54" class="cls-15"/><path data-cppathid="10163" d="M135.73,419.66l16.8,78.26L218,507.15s19.67-8,21.26-8,4.41,4.81,5.62,6.42,3.2,4,4,5.22,1.19,7.21,0,8.82-3.62,6-6,5.62,0-6.82,0-6.82-14,5.61-18.46,5.61-13.28-4-13.28-4-74.46,8.35-78.94,6.77a13.93,13.93,0,0,1-8.43-7.23c-1.6-3.2-27.29-89.09-27.29-89.09" class="cls-5"/><path data-cppathid="10164" d="M244.88,505.58c-1.2-1.6-4-6.41-5.62-6.41s-21.25,8-21.25,8l-37.28-5.32A41.37,41.37,0,0,1,182.52,523c15.56-1.59,28.66-3.08,28.66-3.08s8.83,4,13.28,4,18.42-5.52,18.42-5.52-2.41,6.42,0,6.82,4.82-4,6-5.62.8-7.63,0-8.82S246.08,507.15,244.88,505.58Z" class="cls-5"/><line data-cppathid="10165" y2="552.31" x2="642.78" y1="552.31" x1="7.4" class="cls-7"/></g><g id="freepik--Device--inject-134"><polygon data-cppathid="10166" points="356.42 526 427.05 526 427.05 523.73 321.9 508 324.45 510.27 356.42 526" class="cls-5"/><polygon data-cppathid="10167" points="356.42 523.73 427.05 523.73 389.74 508.37 324.45 508 356.42 523.73" class="cls-5"/><polygon data-cppathid="10168" points="367.92 511.5 374.54 511.5 371.17 510.09 364.68 510.14 367.92 511.5" class="cls-16"/><polygon data-cppathid="10169" points="381.36 517.12 384.74 518.54 391.36 518.54 387.97 517.12 381.36 517.12" class="cls-16"/><polygon data-cppathid="10170" points="393.62 514.99 386.3 514.99 388.24 515.8 395.58 515.8 393.62 514.99" class="cls-16"/><polygon data-cppathid="10171" points="378.19 515.8 384.82 515.8 382.88 514.99 376.27 514.99 378.19 515.8" class="cls-16"/><polygon data-cppathid="10172" points="383.15 513.67 390.42 513.67 388.35 512.83 381.12 512.83 383.15 513.67" class="cls-16"/><polygon data-cppathid="10173" points="357.88 511.5 364.51 511.5 361.33 510.17 354.84 510.23 357.88 511.5" class="cls-16"/><polygon data-cppathid="10174" points="371.07 512.83 373.11 513.67 379.74 513.67 377.7 512.83 371.07 512.83" class="cls-16"/><polygon data-cppathid="10175" points="403.53 522.21 411.14 522.21 405.46 519.87 397.94 519.87 403.53 522.21" class="cls-16"/><polygon data-cppathid="10176" points="387.89 519.87 393.49 522.21 400.12 522.21 394.52 519.87 387.89 519.87" class="cls-16"/><polygon data-cppathid="10177" points="377.85 519.87 383.44 522.21 390.07 522.21 384.48 519.87 377.85 519.87" class="cls-16"/><polygon data-cppathid="10178" points="374.43 519.87 361.49 519.87 366.12 522.21 380.03 522.21 374.43 519.87" class="cls-16"/><polygon data-cppathid="10179" points="377.97 511.5 385.13 511.5 381.48 510 374.51 510.06 377.97 511.5" class="cls-16"/><polygon data-cppathid="10180" points="391.4 517.12 394.79 518.54 402.25 518.54 398.8 517.12 391.4 517.12" class="cls-16"/><polygon data-cppathid="10181" points="381.33 518.54 377.93 517.12 371.31 517.12 374.7 518.54 381.33 518.54" class="cls-16"/><polygon data-cppathid="10182" points="354.47 511.5 351.49 510.26 342.68 510.33 344.98 511.5 354.47 511.5" class="cls-16"/><polygon data-cppathid="10183" points="372.84 514.99 366.22 514.99 368.15 515.8 374.78 515.8 372.84 514.99" class="cls-16"/><polygon data-cppathid="10184" points="361.03 512.83 363.06 513.67 369.69 513.67 367.66 512.83 361.03 512.83" class="cls-16"/><polygon data-cppathid="10185" points="364.74 515.8 362.81 514.99 351.88 514.99 353.48 515.8 364.74 515.8" class="cls-16"/><polygon data-cppathid="10186" points="349.27 513.67 359.65 513.67 357.62 512.83 347.6 512.83 349.27 513.67" class="cls-16"/><polygon data-cppathid="10187" points="367.9 517.12 356.09 517.12 358.89 518.54 371.29 518.54 367.9 517.12" class="cls-16"/><polygon data-cppathid="10188" points="356.42 523.73 353.87 523.73 305.02 453.29 307.43 452.56 339.41 452.56 356.42 523.73" class="cls-5"/><polygon data-cppathid="10189" points="353.87 523.73 321.9 508 304.9 452.56 336.86 452.56 353.87 523.73" class="cls-5"/></g><g id="freepik--characters-2--inject-134"><path data-cppathid="10190" d="M633.37,552.31v-85.4a2.29,2.29,0,0,0-2.29-2.3H600a2.3,2.3,0,0,0-2.3,2.3h0v85.4Z" class="cls-10"/><path data-cppathid="10191" d="M622.12,552.31v-85.4a2.29,2.29,0,0,0-2.27-2.3H588.72a2.29,2.29,0,0,0-2.3,2.27v85.43Z" class="cls-13"/><path data-cppathid="10192" d="M497.46,416.16S483.75,425.3,482,430.92,470.07,468.53,469,471s-9.49,15.46-9.49,15.46l-45,2.1S394.16,484,392.4,484s-19.33,11.6-20.74,14.77-4.56,7.73-3.16,8.78,3.52-.71,3.52-.71.7,4.92,9.48,3.17,17.58-8.08,17.58-8.08,10.89,5.31,15.11,4.21l.35-.11v4.68s59.41,3.16,61.86,2.46,15.47-16.52,15.47-16.52L507,415.09S506.24,407.36,497.46,416.16Z" class="cls-11"/><path data-cppathid="10193" d="M415.49,489.77l-.85-1.22h-.12S394.14,484,392.37,484s-19.33,11.6-20.74,14.77-4.56,7.73-3.16,8.78,3.52-.71,3.52-.71.7,4.92,9.49,3.17,17.57-8.08,17.57-8.08,10.9,5.31,15.11,4.21l.36-.11v4.68Z" class="cls-13"/><path data-cppathid="10194" d="M499.13,552.31h1.4c-1.08-2.55-2-4.89-2.4-6.16C497,542.4,483.51,493.61,482,486.49s-.76-17.27,3-31.52,12.46-38.81,12.46-38.81L485,433.59s-10.51,40.52-10.51,45.77,5.25,31.88,10.51,45C488,532,494.37,543.75,499.13,552.31Z" class="cls-11"/><path data-cppathid="10195" d="M503.08,406.31s-13,20.38-16.51,34.45-6.33,26.36-6.33,39,14.06,48.51,16.17,53.08,24.95,6,32-15.83,10.19-84.69,6-99.11S511.88,396.83,503.08,406.31Z" class="cls-5"/><path data-cppathid="10196" d="M499.43,403.36c-.87,1.33-12.54,7.79-12.54,7.79l-.44,12.1,3.46-6.48,5.4,16.06,5.8-29.91Z" class="cls-17"/><path data-cppathid="10197" d="M500.73,552.31h95.66c-3.15-8.42-15.32-41-15.69-42.51-.44-1.74-10.38-78.72-20.77-93s-34.54-19.47-39.78-16.44c0,0-17.27,35-23.79,51.47s-10.82,48.87-10.82,53.62S494.63,540,494.63,540Z" class="cls-11"/><polyline data-cppathid="10198" points="569.63 526.58 528.27 538.89 530.91 544.17 553.79 537.14" class="cls-7"/><path data-cppathid="10199" d="M479,342.47s-3.32,10.26-3.4,12.37a46.42,46.42,0,0,0,.15,4.72,4.37,4.37,0,0,1-.59,2.4c-.69,1.12-8.46,8.6-7.55,10.1s6.29,7.47,6.29,7.47,3.76,17.92,8.79,20,12.15.8,12.15.8l2.56,7L528.79,397l-.48-10.33s3.15-18.38-.46-31.59S492.81,327.55,479,342.47Z" class="cls-5"/><path data-cppathid="10200" d="M480,363.55c-.37,1.52-1.16,2.65-1.74,2.51s-.77-1.5-.4-3,1.14-2.66,1.74-2.51S480.35,362,480,363.55Z" class="cls-4"/><path data-cppathid="10201" d="M477.76,356.58a5,5,0,0,1,6.14,3.49v0" class="cls-5"/><path data-cppathid="10202" d="M474.69,382s3.51,3.52,9.66,1.32" class="cls-5"/><path data-cppathid="10203" d="M498.23,317.34a15.94,15.94,0,0,0-11.7-9.63c-9-1.73-15.36,10.76-13.12,15.55s3.26,5.89-1.05,6.13-12.55,11.44-5.31,18.31,16-2.95,16.46.55-.74,6.65,3.47,6.79,11.13-.29,10,2.43-1.33,9,2.66,10,6.48-4,9.3-3.28,6.64,9.67,4.13,14.61-4.17,5-4.46,6.17,7.5,9.46,15.52,8,18.42-4.07,19.65-12.7-1.33-10.53,2-13.56,6.49-4,5.55-8.87-4-6.48-3-10.51-3-22.41-20.24-30.38S498.23,317.34,498.23,317.34Z" class="cls-10"/><polygon data-cppathid="10204" points="532.1 387.31 492.5 410.29 495.35 432.83 537.6 399.25 532.1 387.31" class="cls-5"/><path data-cppathid="10205" d="M428.51,494.19s-8-3-13-4.42c-8.66-2.48-16.78-6.17-19.81-5.31s-17.78,11-17.78,11-5.19,12.55-4.75,14.29,3.6-1.07,3.6-1.07-1.88,2.35-.15,4.1,3.47-1.75,3.47-1.75-.44,4.34,2.15,3.9a3,3,0,0,0,2.84-2.35s.19,2.35,2.35,2.35,6.93-9.08,6.93-9.08l8.21.43s6.49,3.47,10.39,3.89,8.65-2.16,8.65-2.16l5.18,1.32,4.33-12.54Z" class="cls-5"/><path data-cppathid="10206" d="M376.75,508.69s4.42-10.63,5.12-11.32,9.56-5.66,9.56-5.66" class="cls-7"/><path data-cppathid="10207" d="M380.07,511s5.31-10.84,5.88-11.37,7.24-3.88,7.24-3.88" class="cls-7"/><path data-cppathid="10208" d="M385,512.59s5.12-9.9,6-10.43,3.18-1.77,3.18-1.77" class="cls-7"/><path data-cppathid="10209" d="M543.14,415.91s-27.25,17.72-26.81,24.64,2.59,6.92,2.59,6.92l-13.85,51.9s-4.31-3.46-4.75.87l-.43,4.32-72.23-12.1-7.35,18.16s29.84,11.68,50.61,19,42.38,15.58,44.53,11.68,45-67.9,47.62-72.66,2.65-13.4,2.65-13.4" class="cls-11"/><path data-cppathid="10210" d="M518.89,447.47s8.21-16.86,28.11-18.16" class="cls-7"/></g></g></g></svg>