<?xml version="1.0" encoding="UTF-8"?>
<svg xmlns="http://www.w3.org/2000/svg" onmouseup="{ if(window.parent.document.onmouseup) window.parent.document.onmouseup(arguments[0]);}" viewBox="0 0 653.91 528.93" xmlns:xlink="http://www.w3.org/1999/xlink"><defs><style>.cls-1,.cls-12,.cls-20,.cls-22{fill:none;}.cls-2{fill:#c53f3f;}.cls-14,.cls-3,.cls-4{fill:#fff;}.cls-3{opacity:0.8;}.cls-13,.cls-3,.cls-8,.cls-9{isolation:isolate;}.cls-5{fill:#ad3a3a;}.cls-19,.cls-6{fill:#263238;}.cls-7,.cls-9{opacity:0.5;}.cls-8{opacity:0.2;}.cls-10{clip-path:url(#clip-path);}.cls-11,.cls-13{opacity:0.3;}.cls-12,.cls-14,.cls-17,.cls-19,.cls-20{stroke:#263238;}.cls-12,.cls-14,.cls-17,.cls-19,.cls-20,.cls-22{stroke-linecap:round;stroke-linejoin:round;}.cls-15,.cls-17{fill:#ccc;}.cls-16{clip-path:url(#clip-path-2);}.cls-18{clip-path:url(#clip-path-3);}.cls-20{stroke-width:5px;}.cls-21{clip-path:url(#clip-path-4);}.cls-22{stroke:#666;stroke-width:3px;}.cls-23{clip-path:url(#clip-path-5);}</style><clipPath id="clip-path"><path data-cppathid="10000" d="M653.41,525.69c-10.16-39.49-23.18-146.05-25.71-151.6s-36.53-8.45-69.3-14.16-61.31-27.54-73.26-28.59a149.1,149.1,0,0,0-20.27-.51s-132.16,30.78-152.45,31.83-33.25,2.6-33.77,9.87c-.45,6.37-9.59,124.26-10,153.16" class="cls-1"/></clipPath><clipPath id="clip-path-2"><path data-cppathid="10001" d="M418.62,281.46s-3.63,43.14-2.07,53,27.54,48.35,43.12,49.36,43.18-41.56,43.18-51.95V287.7s-23.91,13-48.36,6.76-33.77-11.95-33.77-11.95Z" class="cls-1"/></clipPath><clipPath id="clip-path-3"><path data-cppathid="10002" d="M404.6,225.29S407.21,257,407.21,270s5.72,29.62,30.14,44.16,57.16,5.72,71.19-8.83,8.83-44.68,7.79-59.23-1.07-30.66-1.07-38.45,1.07-34.3-7.28-47.8-60.78-15.59-82.61-4.16-27.54,32.24-26,38.45S404.6,225.29,404.6,225.29Z" class="cls-1"/></clipPath><clipPath id="clip-path-4"><path data-cppathid="10003" d="M473.19,220.09s-1.08,18.19.51,27,7.79,20.78-4.67,23.9-17.66-3.12-16.63-11.95" class="cls-1"/></clipPath><clipPath id="clip-path-5"><path data-cppathid="10004" d="M417.5,525.69l43.21-111.21s3.12-2.07,10.91-10.39,4.68-19.75,4.68-19.75a5.31,5.31,0,0,0,5.19,3.64c4.16,0,9.88-1.07,12.48-6.76s-.53-17.66-2.08-27.54-7.8-28.57-12.47-28.57-29.61,7.79-29.61,7.79-2.6-11.95-2.09-15.58,22.89-8.84,24.94-7.77,4.68,3.65,8.83,2.09,0-5.72-3.11-11.95-26.5-2.09-33.77,1.07S426.43,306,429,316.88s6.75,76.9,6.75,76.9,0,4.68-6.23,15.58c-5.27,9.23-68.7,91.34-88.16,116.42" class="cls-1"/></clipPath></defs><g data-name="Layer 2" id="Layer_2"><g data-name="Layer 1" id="Layer_1-2"><g id="freepik--background-simple--inject-72"><path data-cppathid="10005" d="M546.61,188.64c-11.22-43-30-83.15-49.44-110.67-47-66.13-156.11-95.24-231.59-67.53-64.29,23.65-86.73,95-142.94,129.16C71,171.13,24.1,196.69,6,256.63-32.13,383.26,118.79,484.21,231.52,452.15c35.6-10.14,65.69-31.45,103.66-31.53,77-.27,104.15,10.29,166.46-31.3C563.14,348.19,566.29,263.91,546.61,188.64Z" class="cls-2"/><path data-cppathid="10006" d="M546.61,188.64c-11.22-43-30-83.15-49.44-110.67-47-66.13-156.11-95.24-231.59-67.53-64.29,23.65-86.73,95-142.94,129.16C71,171.13,24.1,196.69,6,256.63-32.13,383.26,118.79,484.21,231.52,452.15c35.6-10.14,65.69-31.45,103.66-31.53,77-.27,104.15,10.29,166.46-31.3C563.14,348.19,566.29,263.91,546.61,188.64Z" class="cls-3"/><path data-cppathid="10007" d="M428.53,53.82c-6.31-3.41-9.09-.57-11.36-3.41s6.31-10.22-10.8-17.6c0,0-1.13-15.89-24.41-16.46s-17,15.9-23.27,19.87S350.8,34,344.5,37.92,341.09,49.84,336,51s-11.92-5.11-18.16-1.14-6.31,7.38-9.08,7.38-8.52-2.27-11.93,0-7.39,5.13-7.39,5.13H433.08S434.77,57.22,428.53,53.82Z" class="cls-4"/><path data-cppathid="10008" d="M429.58,299.15c-6.3-3.4-9.1-.56-11.37-3.4s6.31-10.23-10.78-17.61c0,0-1.14-15.9-24.41-16.47s-17,15.9-23.29,19.87-7.88-2.27-14.19,1.7-3.41,11.94-8.52,13.08-11.92-5.11-18.16-1.14-6.31,7.38-9.08,7.38-8.53-2.27-11.94,0-7.38,5.11-7.38,5.11H434.12S435.83,302.56,429.58,299.15Z" class="cls-4"/><path data-cppathid="10009" d="M519.52,199.91c-4.3-2.35-6.3-.39-7.88-2.35s4.32-7.06-7.46-12.16c0,0-.77-11-16.85-11.38s-11.77,11-16.09,13.73-5.49-1.57-9.81,1.19-2.35,8.23-5.88,9-8.23-3.53-12.61-.78-4.31,5.09-6.31,5.09-5.88-1.58-8.23,0-5.11,3.53-5.11,3.53h99.23S523.84,202.26,519.52,199.91Z" class="cls-4"/><path data-cppathid="10010" d="M460.19,177.68c-2.71-1.49-3.94-.26-4.94-1.49s2.72-4.43-4.73-7.63c0,0-.49-6.9-10.59-7.16s-7.4,6.91-10.11,8.63-3.45-1-6.17.74-1.48,5.19-3.7,5.68-5.17-2.23-7.89-.49-2.71,3.15-3.94,3.15-3.69-1-5.17,0-3.15,2.23-3.15,2.23h62.42A3.15,3.15,0,0,0,460.19,177.68Z" class="cls-4"/><path data-cppathid="10011" d="M276.16,209.94c-11.51-6.31-16.73-1-20.93-6.31s11.51-18.81-19.86-32.4c0,0-2.09-29.28-45-30.32s-31.36,29.26-42.87,36.59-14.64-4.19-26.15,3.16-6.3,22-15.69,24.06-21.94-9.46-33.46-2.1-11.49,13.59-16.73,13.59-15.67-4.17-21.95,0S20,225.68,20,225.68H284.58S287.72,216.21,276.16,209.94Z" class="cls-4"/></g><g id="freepik--Floor--inject-72"><path data-cppathid="10012" d="M585,468.6c-6,0-6,6.13-11.92,6.13s-6-6.13-11.92-6.13-6,6.13-11.92,6.13-6-6.13-11.92-6.13-6,6.13-11.92,6.13-6-6.13-11.92-6.13-6,6.13-11.92,6.13-6-6.13-11.92-6.13-5.95,6.13-11.91,6.13-6-6.13-11.92-6.13-6,6.13-11.92,6.13-6-6.13-11.91-6.13-6,6.13-11.92,6.13-6-6.13-11.9-6.13-6,6.13-11.92,6.13-6-6.13-11.91-6.13-6,6.13-11.92,6.13-6-6.13-11.9-6.13-6,6.13-11.92,6.13-5.95-6.13-11.91-6.13-6,6.13-11.92,6.13-6-6.13-11.92-6.13-5.94,6.13-11.91,6.13-6-6.13-11.92-6.13-6,6.13-11.92,6.13-5.94-6.13-11.9-6.13-6,6.13-11.92,6.13-6-6.13-11.91-6.13-6,6.13-11.92,6.13-6-6.13-11.92-6.13-5.94,6.13-11.9,6.13-6-6.13-11.92-6.13-6,6.13-11.91,6.13-6-6.13-11.92-6.13-6,6.13-11.91,6.13-6-6.13-11.92-6.13-6,6.13-11.9,6.13-6-6.13-11.92-6.13-6,6.13-11.92,6.13-6-6.13-11.91-6.13-6,6.13-11.9,6.13-6-6.13-11.92-6.13-6,6.13-11.92,6.13-6-6.13-11.91-6.13-6,6.13-11.9,6.13-6-6.13-11.92-6.13-6,6.13-11.91,6.13-6-6.13-11.92-6.13-6,6.13-11.91,6.13H.66v20.5H595.29V474.58C591,473.5,590.37,468.6,585,468.6Z" class="cls-5"/><rect data-cppathid="10013" height="10.08" width="594.63" y="488.56" x="0.66" class="cls-6"/></g><g id="freepik--Plants--inject-72"><path data-cppathid="10014" d="M432,326.88s8.45-6.67,10.62-11c1.85-3.66,3.16-8.82,1.28-12.71a7.27,7.27,0,0,0-9.61-3.65,6.24,6.24,0,0,0-.68.35c-5.21,3.23-5.76,14.29-4.44,19.6C429.31,320,431.93,327,432,326.88Z" class="cls-2"/><path data-cppathid="10015" d="M353.82,382.54c.34.31,6.3,4.73,6.41,4.59s3.36-10.24,2.81-15c-.47-4.06-2.21-9.09-5.94-11.29a7.24,7.24,0,0,0-10,2.21,7,7,0,0,0-.39.71C344.13,369.31,349.76,378.83,353.82,382.54Z" class="cls-2"/><path data-cppathid="10016" d="M531.07,337s-31,32-30.8,71.24,31.41,71,31.41,71,31-32,30.8-71.23S531.07,337,531.07,337Z" class="cls-2"/><path data-cppathid="10017" d="M486.92,431.75a13.74,13.74,0,0,0,1.12-1.4c2.25-3.43,4.16-8.39,2.72-12.48a7.25,7.25,0,0,0-9.09-4.74,6.77,6.77,0,0,0-.75.28c-4.21,2-6.3,8.74-6.71,14.19-1.67-.38-3.16-.66-4.48-.88-.57-1.25-1.12-2.51-1.69-3.78s-1-2.62-1.58-3.95c-.74-2-1.4-4-2.08-6.07,2.46-1.1,9.59-4.43,12.25-7.38s5.4-7.66,4.58-11.9a7.25,7.25,0,0,0-8.25-6.07c-.26.05-.53.1-.79.17-5.88,1.74-9.35,12.25-9.46,17.72,0,.18.08,1.34.21,2.72-.59-2-1.19-4-1.72-6.12-1.58-5.88-2.87-11.92-4.26-18-.28-1.26-.6-2.51-.88-3.77,2.06-.92,9.82-4.46,12.61-7.54s5.39-7.66,4.57-11.9a7.29,7.29,0,0,0-9.05-5.9c-5.86,1.75-9.33,12.25-9.46,17.72,0,.21.11,1.58.26,3.16-.81-3.28-1.58-6.53-2.58-9.73A128.26,128.26,0,0,0,446.63,350c.74-.31,9.92-4.29,13-7.71,2.74-3,5.39-7.66,4.59-11.9a7.3,7.3,0,0,0-9.06-5.9c-5.88,1.75-9.33,12.25-9.46,17.72,0,.4.46,5.39.68,7.18a.23.23,0,0,0-.08-.18,94.79,94.79,0,0,0-8.43-14.57,126.27,126.27,0,0,0-9.31-11.82c-3-3.52-6.05-6.55-8.73-9.21-1.47-1.44-2.84-2.71-4.12-3.9h.13c.11,0-2.87-6.84-3.16-7.25-2.74-4.73-10.83-12.28-16.84-11a7.28,7.28,0,0,0-5.3,8.81c.07.25.14.49.23.73,1.34,4.12,5.89,6.89,9.76,8.23s12.61.71,14.77.52c1.31,1.25,2.7,2.61,4.2,4.13,2.61,2.72,5.55,5.81,8.51,9.37.79.95,1.58,2,2.41,3-1.71-1.42-4.08-3.32-4.33-3.48-4.62-2.93-15.28-5.9-20-2a7.27,7.27,0,0,0-.64,10.26,5.39,5.39,0,0,0,.53.54c3.07,3,8.4,3.41,12.45,2.81S430.2,329,431.84,328c1.75,2.26,3.5,4.62,5.17,7.18a92.93,92.93,0,0,1,8,14.57c.13.28.22.61.35.9-.73-.84-5-5.19-5.38-5.46-4.27-3.44-14.54-7.55-19.66-4.18a7.28,7.28,0,0,0-1.78,10.13c.15.21.31.41.48.61,2.73,3.34,8,4.29,12.07,4.15,4.73-.18,14-4.86,14.35-5a127.76,127.76,0,0,1,5.23,15.77c1.06,3.95,2,8,2.84,12.07-1-1.08-5-5.12-5.3-5.37-4.26-3.44-14.54-7.56-19.65-4.18a7.25,7.25,0,0,0-1.79,10.1c.15.21.31.42.48.62,2.73,3.36,8,4.31,12.07,4.16,4.6-.17,13.51-4.62,14.27-5,.39,1.87.8,3.71,1.18,5.56,1.25,6.07,2.48,12.15,3.88,18.11.47,2.07,1,4.09,1.58,6.12-1.5-1.58-4.29-4.38-4.56-4.59-4.27-3.44-14.54-7.55-19.66-4.18a7.25,7.25,0,0,0-1.8,10.1,5.91,5.91,0,0,0,.49.63c2.74,3.35,8,4.3,12.08,4.16s11.68-3.74,13.79-4.73c.93,3.36,1.93,6.67,3.08,9.89.52,1.37,1,2.82,1.57,4.11l.87,2.05-1.18-.11s-.08,1.92.09,5c-4.51-3.15-11-6-15.23-4a7.27,7.27,0,0,0-3.29,9.74c.11.23.24.45.37.67a10.16,10.16,0,0,0,.95,1.31,28.46,28.46,0,0,0,5.82,13c.24.25,3.31,3.15,4.9,4.49-1.57-.84-3.15-1.67-4.73-2.57-2.28-1.26-4.73-2.7-7-4.05l-3.5-2.27c-1.23-.74-2.3-1.58-3.48-2.42-1.71-1.23-3.39-2.58-5.1-3.92,1.45-2.27,5.55-9,6.15-12.9s.27-9.37-2.74-12.47a7.26,7.26,0,0,0-10.27-.46,6.75,6.75,0,0,0-.53.54c-3.94,4.73-1,15.37,1.89,20,.09.14.8,1,1.67,2.14-1.58-1.37-3.23-2.73-4.81-4.16-4.51-4.07-9-8.34-13.46-12.62l-2.83-2.71c1.22-1.89,5.73-9.13,6.31-13.24s.27-9.37-2.74-12.46a7.19,7.19,0,0,0-10.8,0c-3.95,4.73-1,15.37,1.89,20,.09.17,1,1.26,1.94,2.47-2.48-2.28-5-4.54-7.51-6.7a128.32,128.32,0,0,0-13.73-10.26c.44-.68,5.9-9.05,6.59-13.61.61-4,.28-9.37-2.74-12.47a7.27,7.27,0,0,0-10.27-.54,6.88,6.88,0,0,0-.54.54c-3.94,4.73-1,15.37,1.9,20,.2.31,3.34,4.24,4.52,5.61l-.17-.11a94.42,94.42,0,0,0-15.06-7.51,130.62,130.62,0,0,0-14.29-4.73c-4.49-1.24-8.67-2.11-12.37-2.85-2-.38-3.85-.69-5.59-1h.11c.08,0-6.16-4.13-6.59-4.33-4.9-2.43-15.76-4.26-20.1.12a7.25,7.25,0,0,0,.41,10.25c.2.18.4.35.61.51,3.39,2.69,8.72,2.5,12.62,1.48s10.91-6.31,12.61-7.71c1.78.31,3.69.68,5.79,1.13,3.69.82,7.88,1.77,12.27,3.16,1.18.36,2.44.79,3.67,1.18-2.21-.24-5.23-.52-5.53-.51-5.47.1-16,3.51-17.79,9.37a7.27,7.27,0,0,0,5.11,8.92,6.41,6.41,0,0,0,.76.16c4.24.84,8.89-1.79,11.93-4.52s6.88-10.95,7.67-12.73c2.69.92,5.45,1.93,8.27,3.16A93.71,93.71,0,0,1,383.67,399l.78.58c-1.07-.31-7.06-1.58-7.49-1.58-5.45-.5-16.28,1.74-18.7,7.38a7.27,7.27,0,0,0,4.11,9.43q.35.14.72.24c4.13,1.28,9-.82,12.36-3.15,3.83-2.75,9-11.77,9.18-12.11A126.34,126.34,0,0,1,397.68,410c3.06,2.71,6.06,5.6,9,8.51-1.4-.37-7-1.57-7.4-1.57-5.44-.51-16.28,1.73-18.68,7.38a7.27,7.27,0,0,0,4.1,9.42,6.75,6.75,0,0,0,.72.24c4.13,1.28,9-.82,12.37-3.15,3.73-2.68,8.72-11.31,9.13-12,1.35,1.32,2.71,2.63,4.05,4,4.4,4.37,8.76,8.77,13.23,13,1.57,1.45,3.15,2.84,4.73,4.22-2.12-.48-6-1.29-6.31-1.32-5.46-.5-16.29,1.73-18.7,7.38a7.26,7.26,0,0,0,4.1,9.42,6.84,6.84,0,0,0,.72.25c4.14,1.27,9-.82,12.37-3.16s7.69-9.55,8.87-11.59c2.64,2.29,5.3,4.51,8,6.56,1.18.87,2.35,1.82,3.55,2.59l3.51,2.35c2.46,1.57,4.73,2.95,7.08,4.3,1.17.7,2.29,1.33,3.44,2-2.08-.81-5.39-2-5.69-2.11-5.33-1.33-16.37-.76-19.6,4.44a7.26,7.26,0,0,0,2.6,9.93,5.71,5.71,0,0,0,.7.35c3.89,1.91,9.05.57,12.7-1.27,4-2,10.08-9.54,10.82-10.46,2.81,1.58,5.57,3.16,8.17,4.53,6.95,3.72,13,6.68,17.72,8.89,15.3,13.23,36.82,14.68,36.82,14.68S521,461.93,505.82,445A53.26,53.26,0,0,0,486.92,431.75ZM459.59,456.9c.49-1.06,4.15-9.26,4.4-13.88.85-.15,1.72-.33,2.54-.52A59.78,59.78,0,0,0,476,465.19c-2.78-1.3-5.79-2.77-9-4.4-2.35-1.21-4.78-2.52-7.41-3.89Z" class="cls-2"/><path data-cppathid="10018" d="M599.72,426.81s-25.8.81-41.6,17.21-15.59,42.22-15.59,42.22,25.8-.78,41.6-17.2S599.72,426.81,599.72,426.81Z" class="cls-2"/><g class="cls-7"><path data-cppathid="10019" d="M432,326.88s8.45-6.67,10.62-11c1.85-3.66,3.16-8.82,1.28-12.71a7.27,7.27,0,0,0-9.61-3.65,6.24,6.24,0,0,0-.68.35c-5.21,3.23-5.76,14.29-4.44,19.6C429.31,320,431.93,327,432,326.88Z" class="cls-4"/><path data-cppathid="10020" d="M353.82,382.54c.34.31,6.3,4.73,6.41,4.59s3.36-10.24,2.81-15c-.47-4.06-2.21-9.09-5.94-11.29a7.24,7.24,0,0,0-10,2.21,7,7,0,0,0-.39.71C344.13,369.31,349.76,378.83,353.82,382.54Z" class="cls-4"/><path data-cppathid="10021" d="M531.07,337s-31,32-30.8,71.24,31.41,71,31.41,71,31-32,30.8-71.23S531.07,337,531.07,337Z" class="cls-4"/><path data-cppathid="10022" d="M486.92,431.75a13.74,13.74,0,0,0,1.12-1.4c2.25-3.43,4.16-8.39,2.72-12.48a7.25,7.25,0,0,0-9.09-4.74,6.77,6.77,0,0,0-.75.28c-4.21,2-6.3,8.74-6.71,14.19-1.67-.38-3.16-.66-4.48-.88-.57-1.25-1.12-2.51-1.69-3.78s-1-2.62-1.58-3.95c-.74-2-1.4-4-2.08-6.07,2.46-1.1,9.59-4.43,12.25-7.38s5.4-7.66,4.58-11.9a7.25,7.25,0,0,0-8.25-6.07c-.26.05-.53.1-.79.17-5.88,1.74-9.35,12.25-9.46,17.72,0,.18.08,1.34.21,2.72-.59-2-1.19-4-1.72-6.12-1.58-5.88-2.87-11.92-4.26-18-.28-1.26-.6-2.51-.88-3.77,2.06-.92,9.82-4.46,12.61-7.54s5.39-7.66,4.57-11.9a7.29,7.29,0,0,0-9.05-5.9c-5.86,1.75-9.33,12.25-9.46,17.72,0,.21.11,1.58.26,3.16-.81-3.28-1.58-6.53-2.58-9.73A128.26,128.26,0,0,0,446.63,350c.74-.31,9.92-4.29,13-7.71,2.74-3,5.39-7.66,4.59-11.9a7.3,7.3,0,0,0-9.06-5.9c-5.88,1.75-9.33,12.25-9.46,17.72,0,.4.46,5.39.68,7.18a.23.23,0,0,0-.08-.18,94.79,94.79,0,0,0-8.43-14.57,126.27,126.27,0,0,0-9.31-11.82c-3-3.52-6.05-6.55-8.73-9.21-1.47-1.44-2.84-2.71-4.12-3.9h.13c.11,0-2.87-6.84-3.16-7.25-2.74-4.73-10.83-12.28-16.84-11a7.28,7.28,0,0,0-5.3,8.81c.07.25.14.49.23.73,1.34,4.12,5.89,6.89,9.76,8.23s12.61.71,14.77.52c1.31,1.25,2.7,2.61,4.2,4.13,2.61,2.72,5.55,5.81,8.51,9.37.79.95,1.58,2,2.41,3-1.71-1.42-4.08-3.32-4.33-3.48-4.62-2.93-15.28-5.9-20-2a7.27,7.27,0,0,0-.64,10.26,5.39,5.39,0,0,0,.53.54c3.07,3,8.4,3.41,12.45,2.81S430.2,329,431.84,328c1.75,2.26,3.5,4.62,5.17,7.18a92.93,92.93,0,0,1,8,14.57c.13.28.22.61.35.9-.73-.84-5-5.19-5.38-5.46-4.27-3.44-14.54-7.55-19.66-4.18a7.28,7.28,0,0,0-1.78,10.13c.15.21.31.41.48.61,2.73,3.34,8,4.29,12.07,4.15,4.73-.18,14-4.86,14.35-5a127.76,127.76,0,0,1,5.23,15.77c1.06,3.95,2,8,2.84,12.07-1-1.08-5-5.12-5.3-5.37-4.26-3.44-14.54-7.56-19.65-4.18a7.25,7.25,0,0,0-1.79,10.1c.15.21.31.42.48.62,2.73,3.36,8,4.31,12.07,4.16,4.6-.17,13.51-4.62,14.27-5,.39,1.87.8,3.71,1.18,5.56,1.25,6.07,2.48,12.15,3.88,18.11.47,2.07,1,4.09,1.58,6.12-1.5-1.58-4.29-4.38-4.56-4.59-4.27-3.44-14.54-7.55-19.66-4.18a7.25,7.25,0,0,0-1.8,10.1,5.91,5.91,0,0,0,.49.63c2.74,3.35,8,4.3,12.08,4.16s11.68-3.74,13.79-4.73c.93,3.36,1.93,6.67,3.08,9.89.52,1.37,1,2.82,1.57,4.11l.87,2.05-1.18-.11s-.08,1.92.09,5c-4.51-3.15-11-6-15.23-4a7.27,7.27,0,0,0-3.29,9.74c.11.23.24.45.37.67a10.16,10.16,0,0,0,.95,1.31,28.46,28.46,0,0,0,5.82,13c.24.25,3.31,3.15,4.9,4.49-1.57-.84-3.15-1.67-4.73-2.57-2.28-1.26-4.73-2.7-7-4.05l-3.5-2.27c-1.23-.74-2.3-1.58-3.48-2.42-1.71-1.23-3.39-2.58-5.1-3.92,1.45-2.27,5.55-9,6.15-12.9s.27-9.37-2.74-12.47a7.26,7.26,0,0,0-10.27-.46,6.75,6.75,0,0,0-.53.54c-3.94,4.73-1,15.37,1.89,20,.09.14.8,1,1.67,2.14-1.58-1.37-3.23-2.73-4.81-4.16-4.51-4.07-9-8.34-13.46-12.62l-2.83-2.71c1.22-1.89,5.73-9.13,6.31-13.24s.27-9.37-2.74-12.46a7.19,7.19,0,0,0-10.8,0c-3.95,4.73-1,15.37,1.89,20,.09.17,1,1.26,1.94,2.47-2.48-2.28-5-4.54-7.51-6.7a128.32,128.32,0,0,0-13.73-10.26c.44-.68,5.9-9.05,6.59-13.61.61-4,.28-9.37-2.74-12.47a7.27,7.27,0,0,0-10.27-.54,6.88,6.88,0,0,0-.54.54c-3.94,4.73-1,15.37,1.9,20,.2.31,3.34,4.24,4.52,5.61l-.17-.11a94.42,94.42,0,0,0-15.06-7.51,130.62,130.62,0,0,0-14.29-4.73c-4.49-1.24-8.67-2.11-12.37-2.85-2-.38-3.85-.69-5.59-1h.11c.08,0-6.16-4.13-6.59-4.33-4.9-2.43-15.76-4.26-20.1.12a7.25,7.25,0,0,0,.41,10.25c.2.18.4.35.61.51,3.39,2.69,8.72,2.5,12.62,1.48s10.91-6.31,12.61-7.71c1.78.31,3.69.68,5.79,1.13,3.69.82,7.88,1.77,12.27,3.16,1.18.36,2.44.79,3.67,1.18-2.21-.24-5.23-.52-5.53-.51-5.47.1-16,3.51-17.79,9.37a7.27,7.27,0,0,0,5.11,8.92,6.41,6.41,0,0,0,.76.16c4.24.84,8.89-1.79,11.93-4.52s6.88-10.95,7.67-12.73c2.69.92,5.45,1.93,8.27,3.16A93.71,93.71,0,0,1,383.67,399l.78.58c-1.07-.31-7.06-1.58-7.49-1.58-5.45-.5-16.28,1.74-18.7,7.38a7.27,7.27,0,0,0,4.11,9.43q.35.14.72.24c4.13,1.28,9-.82,12.36-3.15,3.83-2.75,9-11.77,9.18-12.11A126.34,126.34,0,0,1,397.68,410c3.06,2.71,6.06,5.6,9,8.51-1.4-.37-7-1.57-7.4-1.57-5.44-.51-16.28,1.73-18.68,7.38a7.27,7.27,0,0,0,4.1,9.42,6.75,6.75,0,0,0,.72.24c4.13,1.28,9-.82,12.37-3.15,3.73-2.68,8.72-11.31,9.13-12,1.35,1.32,2.71,2.63,4.05,4,4.4,4.37,8.76,8.77,13.23,13,1.57,1.45,3.15,2.84,4.73,4.22-2.12-.48-6-1.29-6.31-1.32-5.46-.5-16.29,1.73-18.7,7.38a7.26,7.26,0,0,0,4.1,9.42,6.84,6.84,0,0,0,.72.25c4.14,1.27,9-.82,12.37-3.16s7.69-9.55,8.87-11.59c2.64,2.29,5.3,4.51,8,6.56,1.18.87,2.35,1.82,3.55,2.59l3.51,2.35c2.46,1.57,4.73,2.95,7.08,4.3,1.17.7,2.29,1.33,3.44,2-2.08-.81-5.39-2-5.69-2.11-5.33-1.33-16.37-.76-19.6,4.44a7.26,7.26,0,0,0,2.6,9.93,5.71,5.71,0,0,0,.7.35c3.89,1.91,9.05.57,12.7-1.27,4-2,10.08-9.54,10.82-10.46,2.81,1.58,5.57,3.16,8.17,4.53,6.95,3.72,13,6.68,17.72,8.89,15.3,13.23,36.82,14.68,36.82,14.68S521,461.93,505.82,445A53.26,53.26,0,0,0,486.92,431.75ZM459.59,456.9c.49-1.06,4.15-9.26,4.4-13.88.85-.15,1.72-.33,2.54-.52A59.78,59.78,0,0,0,476,465.19c-2.78-1.3-5.79-2.77-9-4.4-2.35-1.21-4.78-2.52-7.41-3.89Z" class="cls-4"/><path data-cppathid="10023" d="M599.72,426.81s-25.8.81-41.6,17.21-15.59,42.22-15.59,42.22,25.8-.78,41.6-17.2S599.72,426.81,599.72,426.81Z" class="cls-4"/></g><polygon data-cppathid="10024" points="532.34 443.43 557.68 420.66 556.6 419.45 532.33 441.26 532.2 411.41 532.33 411.5 553.76 380.17 552.42 379.26 532.19 408.84 531.87 337 530.25 337 530.47 385.75 514.34 371.8 513.26 373.03 530.47 387.91 530.63 422.78 506.17 401.14 505.1 402.36 530.63 424.95 530.77 456.69 512.4 442.28 511.39 443.56 530.78 458.78 530.86 479.21 532.49 479.2 532.33 443.43 532.34 443.43" class="cls-4"/><polygon data-cppathid="10025" points="509.01 452.23 507.38 452.04 505.33 470.08 494.45 457.93 494.49 457.93 491.73 436.09 490.12 436.29 492.58 455.83 465.53 425.6 464.32 426.67 482.67 447.19 471.05 447.33 471.08 448.95 484.11 448.8 496.98 463.18 478.81 463.19 478.81 464.83 498.43 464.8 510.13 477.87 497.31 478.64 497.42 480.27 511.51 479.42 519.3 488.14 520.5 487.05 506.78 471.71 509.01 452.23" class="cls-4"/><polygon data-cppathid="10026" points="570.22 458.67 591.79 454.28 591.46 452.69 572.17 456.6 600.3 427.38 599.12 426.26 580.04 446.08 579.03 434.51 577.42 434.65 578.54 447.64 565.17 461.54 563.79 443.43 562.16 443.56 563.66 463.11 551.49 475.76 549.77 463.03 548.16 463.25 550.05 477.24 541.95 485.66 543.11 486.8 557.38 471.96 576.98 472.71 577.05 471.09 558.9 470.4 570.22 458.63 570.22 458.67" class="cls-4"/></g><g id="freepik--Gift--inject-61"><rect data-cppathid="10027" height="18.23" width="1.36" y="319.01" x="24.56" class="cls-2"/><rect data-cppathid="10028" height="7.54" width="1.36" y="342.67" x="24.56" class="cls-2"/><path data-cppathid="10029" d="M29.31,252.39H251.12v238H35.66a6.34,6.34,0,0,1-6.34-6.34h0V252.39Z" class="cls-2"/><polygon data-cppathid="10030" points="251.13 252.38 29.31 252.38 29.31 269.26 156.93 269.26 161.17 490.4 164.12 269.26 251.13 269.26 251.13 252.38" class="cls-8"/><path data-cppathid="10031" d="M27.4,216.21H251.12v48.23H27.4a3.16,3.16,0,0,1-3.17-3.16h0v-41.9a3.17,3.17,0,0,1,3.15-3.17Z" class="cls-2"/><polygon data-cppathid="10032" points="114.72 490.4 112.4 216.21 160.64 216.21 162.94 490.4 114.72 490.4" class="cls-6"/><path data-cppathid="10033" d="M338.55,490.4H251.18v-238h93.66V484.06A6.33,6.33,0,0,1,338.55,490.4Z" class="cls-2"/><path data-cppathid="10034" d="M338.55,490.4H251.18v-238h93.66V484.06A6.33,6.33,0,0,1,338.55,490.4Z" class="cls-8"/><polygon data-cppathid="10035" points="251.13 252.38 344.83 252.38 344.83 269.26 292.54 269.26 285.43 490.4 286.2 269.26 251.13 269.26 251.13 252.38" class="cls-8"/><path data-cppathid="10036" d="M346.75,264.44H251.12V216.21h95.63a3.15,3.15,0,0,1,3.16,3.16h0v41.9a3.15,3.15,0,0,1-3.14,3.17Z" class="cls-2"/><path data-cppathid="10037" d="M346.75,264.44H251.12V216.21h95.63a3.15,3.15,0,0,1,3.16,3.16h0v41.9a3.15,3.15,0,0,1-3.14,3.17Z" class="cls-8"/><polygon data-cppathid="10038" points="285.43 490.4 289.47 216.21 319.57 216.21 315.53 490.4 285.43 490.4" class="cls-6"/><polygon data-cppathid="10039" points="285.43 490.4 289.47 216.21 319.57 216.21 315.53 490.4 285.43 490.4" class="cls-8"/><path data-cppathid="10040" d="M301.14,125.19v-.07H261.68a18.43,18.43,0,0,0-6.54,1.8c-40,16.76-59.47,60.7-68.07,89.23h40.37S323,122.48,301.14,125.19Z" class="cls-6"/><path data-cppathid="10041" d="M227.44,216.21c0-37.07,28.05-72.47,68.07-89.24S227.44,216.21,227.44,216.21Z" class="cls-9"/><path data-cppathid="10042" d="M311.45,148.67H282.16a17.62,17.62,0,0,0-5.43,1.36c-34.5,12.45-61.54,45.07-76.12,66.26h30S328.44,146.64,311.45,148.67Z" class="cls-6"/><path data-cppathid="10043" d="M230.64,216.21c14.12-36.62,41.62-53.81,76.13-66.26S230.64,216.21,230.64,216.21Z" class="cls-9"/><path data-cppathid="10044" d="M114.25,113.62v-.08H74.69a4.07,4.07,0,0,0-3.59,2C58.76,134.46,111.79,184,150.36,216.2h40.36S131.58,110.54,114.25,113.62Z" class="cls-6"/><path data-cppathid="10045" d="M190.72,216.21c-38.51-32.19-91.6-81.74-79.25-100.63S190.72,216.21,190.72,216.21Z" class="cls-9"/><path data-cppathid="10046" d="M155.48,140.11H126.13a4.16,4.16,0,0,0-3.09,1.5c-13.08,14,16.06,50.83,38,74.72H191S169,137.75,155.48,140.11Z" class="cls-6"/><path data-cppathid="10047" d="M191,216.21c-21.92-23.9-51.07-60.69-38-74.73S191,216.21,191,216.21Z" class="cls-9"/></g><g id="freepik--character-2--inject-7"><path data-cppathid="10048" d="M653.41,525.69c-10.16-39.49-23.18-146.05-25.71-151.6s-36.53-8.45-69.3-14.16-61.31-27.54-73.26-28.59a149.1,149.1,0,0,0-20.27-.51s-132.16,30.78-152.45,31.83-33.25,2.6-33.77,9.87c-.45,6.37-9.59,124.26-10,153.16" class="cls-2"/><g class="cls-10"><g class="cls-11"><path data-cppathid="10049" d="M265.63,525.69h47.92c0-6.44-.44-14.59,3.8-22.23,7.61-13.69,27.38-54.8,25.1-70S328,412.2,332.57,419.8s7.6,27.39,0,15.21-25.87-54-45.64-52.48c-5.55.43-9.25,2.15-11.69,4.3C274.58,420.48,266,502.27,265.63,525.69Z"/><path data-cppathid="10050" d="M625.14,525.69c-8-11-18.06-27.26-20.29-42-3.8-25.1-4.57-50.2-10.65-51.72s-21.3,54-21.3,54l-1.52-15.24s-11.4,32.7-53.23,52.48c-1.87.87-3.75,1.69-5.67,2.45Z"/><path data-cppathid="10051" d="M444.82,365.17S427.37,413.52,405.9,439s-78.52,89.94-78.52,89.94h38.25s60.4-89.26,78.53-120.81S456.88,357.78,444.82,365.17Z"/><path data-cppathid="10052" d="M587.3,386.45s-25.67,15.69-28.72,36.25,15.76,20.13,20.89,1.37,19.71-34.56,19-39.9S587.3,386.45,587.3,386.45Z"/></g><path data-cppathid="10053" d="M573,452.46c-1.65,5.71-3.12,11.92-3.12,15.85,0,8.87,5.46,55.94,5.46,55.94" class="cls-12"/><path data-cppathid="10054" d="M577.34,438.94s-.83,2.27-1.94,5.64" class="cls-12"/><line data-cppathid="10055" y2="445.76" x2="565.75" y1="468.27" x1="569.84" class="cls-12"/><path data-cppathid="10056" d="M349,424.81a41.67,41.67,0,0,1,.56,14.13C347.47,458,347,524,347,524" class="cls-12"/><path data-cppathid="10057" d="M343.38,415.07a10.83,10.83,0,0,1,3.39,3.94" class="cls-12"/><path data-cppathid="10058" d="M358.39,421.88s5.46,8.19,0,19.11-10.2,26.76-10.2,26.76" class="cls-12"/></g><path data-cppathid="10059" d="M653.41,525.69c-10.16-39.49-23.18-146.05-25.71-151.6s-36.53-8.45-69.3-14.16-61.31-27.54-73.26-28.59a149.1,149.1,0,0,0-20.27-.51s-132.16,30.78-152.45,31.83-33.25,2.6-33.77,9.87c-.45,6.37-9.59,124.26-10,153.16" class="cls-12"/><path data-cppathid="10060" d="M401,345.27s-6.84,12.16-4.56,25.85,1.52,47.93,8.37,42.6,17.72-21.05,24.33-20.54,37.27-8.41,37.27-8.41,26.63,14.45,38,19,9.89,1.52,6.09-11.41-2.29-22.82-1.53-44.88S450,322,435.24,326.21,398.74,343,401,345.27Z" class="cls-13"/><path data-cppathid="10061" d="M426.94,309.55s-22.34,5.2-27.54,15.59,8.89,58.17,8.89,65.44.52,9.35.52,10.91,4.15,3.64,8.84-4.16,26-19.74,33.77-22.34,20.78-5.72,26-3.12,27,28.06,35.86,31.17.51-4.68,0-10.91,12.46-22.35,4.16-50.41-18.25-34.32-32.83-36.36S426.94,309.55,426.94,309.55Z" class="cls-14"/><path data-cppathid="10062" d="M418.62,281.46s-3.63,43.14-2.07,53,27.54,48.35,43.12,49.36,43.18-41.56,43.18-51.95V287.7s-23.91,13-48.36,6.76-33.77-11.95-33.77-11.95Z" class="cls-15"/><g class="cls-16"><path data-cppathid="10063" d="M479.73,332.87c11.34-3.22,18.55-7,23.07-10.26V287.7s-23.91,13-48.35,6.76c-20.23-5.17-30.09-10-32.91-11.47l-3.23,1.31c-.77,9.77-3.17,41.82-1.85,50.16a28.68,28.68,0,0,0,2.82,7.32,99.83,99.83,0,0,1,1.07-11.33c1.22-6.45,4-4.84,8.48-1.21S453.92,340.13,479.73,332.87Z" class="cls-13"/></g><path data-cppathid="10064" d="M418.62,281.46s-3.63,43.14-2.07,53,27.54,48.35,43.12,49.36,43.18-41.56,43.18-51.95V287.7s-23.91,13-48.36,6.76-33.77-11.95-33.77-11.95Z" class="cls-12"/><path data-cppathid="10065" d="M406.68,232s-4.16-21.83-11.95-23.9-8.84,22.34-4.16,36.37,17.19,20.78,20.26,13.51S406.68,232,406.68,232Z" class="cls-17"/><path data-cppathid="10066" d="M410.32,245.55s-13-26-17.67-25.46-1.55,13-1.55,13" class="cls-12"/><path data-cppathid="10067" d="M404.6,235.68s-7.8-5.2-7.8,6.23" class="cls-12"/><path data-cppathid="10068" d="M513.25,232s4.16-21.83,12-23.9,8.83,22.34,4.15,36.37S512.16,265.29,509.09,258,513.25,232,513.25,232Z" class="cls-17"/><path data-cppathid="10069" d="M509.6,245.55s13-26,17.67-25.46,1.56,13,1.56,13" class="cls-12"/><path data-cppathid="10070" d="M515.32,235.68s7.8-5.2,7.8,6.23" class="cls-12"/><path data-cppathid="10071" d="M404.6,225.29S407.21,257,407.21,270s5.72,29.62,30.14,44.16,57.16,5.72,71.19-8.83,8.83-44.68,7.79-59.23-1.07-30.66-1.07-38.45,1.07-34.3-7.28-47.8-60.78-15.59-82.61-4.16-27.54,32.24-26,38.45S404.6,225.29,404.6,225.29Z" class="cls-15"/><g class="cls-18"><path data-cppathid="10072" d="M459.17,164.27c-3.23-.65-29-2.87-42.06-3.29-15,11.68-19,27.77-17.71,33.13,1.56,6.24,5.2,31.16,5.2,31.16s2.61,31.71,2.61,44.7c0,9.84,3.3,21.78,15.52,33.31a17.73,17.73,0,0,0,3.78-11.15c0-12.09,1.61-21.38-3.22-29.44S414,232.84,418,223.56s7.67-27,8.47-35.1,3.22-7.25,15.73-1.2a28.74,28.74,0,0,0,23.8.4S463.2,165.07,459.17,164.27Z" class="cls-13"/><path data-cppathid="10073" d="M449.24,221s-23.95-3.07-19.52,1.76,21,7.66,27,5.65S457.05,221.25,449.24,221Z" class="cls-13"/><path data-cppathid="10074" d="M476.51,208.24s-4.44,8.07,0,8.46,6.45-8.07,16.54-4.83,8.07-5.25,1.61-7.67S479.73,204.6,476.51,208.24Z" class="cls-13"/><path data-cppathid="10075" d="M516.31,246.07c-1.08-14.55-1.08-30.66-1.08-38.45s1.08-34.3-7.27-47.8c-1.56-2.54-4.67-4.68-8.86-6.38-3.07.26-13.35,1.55-13.35,1.55l-4.84,30.66S491,184,495,180.41s7.26-.41,8.07,8.87,4,14.52,6.45,19.76.81,25.41-1.61,39.12,3.22,15.74-2,30.66-20.17,30.25-32.24,36.71c-4.3,2.3-3.59,4.24-.15,5.56,14.29-1.72,27.38-7.91,35-15.79C522.54,290.76,517.35,260.62,516.31,246.07Z" class="cls-13"/></g><path data-cppathid="10076" d="M404.6,225.29S407.21,257,407.21,270s5.72,29.62,30.14,44.16,57.16,5.72,71.19-8.83,8.83-44.68,7.79-59.23-1.07-30.66-1.07-38.45,1.07-34.3-7.28-47.8-60.78-15.59-82.61-4.16-27.54,32.24-26,38.45S404.6,225.29,404.6,225.29Z" class="cls-12"/><line data-cppathid="10077" y2="237.82" x2="448.93" y1="237.82" x1="437.58" class="cls-12"/><line data-cppathid="10078" y2="237.82" x2="499.28" y1="239.24" x1="485.8" class="cls-12"/><path data-cppathid="10079" d="M525.13,185.8v-.91a7,7,0,0,0,.62-13.6,7,7,0,0,0-2.42-12.58,9.68,9.68,0,0,0-9.19-16.12,9.44,9.44,0,0,0,.34-2.43,9.74,9.74,0,0,0-9.74-9.74h0a9.6,9.6,0,0,0-5.25,1.56,12.58,12.58,0,0,0-23.06-3,12.59,12.59,0,0,0-24.18-3,12.58,12.58,0,0,0-22.72,3.15,10.18,10.18,0,0,0-16.24,5.38A7,7,0,0,0,403,140.61a7.27,7.27,0,0,0,.44,2.39,7,7,0,0,0-9.8,6.45,6.91,6.91,0,0,0,1.08,3.64,7,7,0,0,0-2.33,12.39,7,7,0,0,0-.23,13.59,6.92,6.92,0,0,0-1.23,9.71,7.51,7.51,0,0,0,1,1,7,7,0,0,0,1.51,13.66,14.4,14.4,0,0,0,1.28,4.72c3.63,6.24,5.2,8.84,5.2,8.84s1.66,8.72,5,12.42c.7,9,2.27,30.46,2.27,40.57,0,13,5.72,29.63,30.14,44.16s57.16,5.72,71.19-8.83,8.83-44.68,7.79-59.23c-.61-8.59-.86-17.73-1-25.38a16.22,16.22,0,0,0,3.57-2.15c1.47-1.07,2.78-4.79,3.8-9.67a4.36,4.36,0,0,0,.62.07,7,7,0,0,0,5.19-11.69,7,7,0,0,0-.42-9.82,6.8,6.8,0,0,0-3-1.61Zm-17.65,88.29c-5.72,6.24-17.67-.51-23.9-6.74s-12.48-7.81-27.54-4.16-17.19,13.5-27,16.62-13-9.35-15-19.22-3.63-38.45-3.63-38.45c0-5.72,7.27-6.76,10.39-16.63s-4.16-15.58,1.07-29.1,21.28,5,21.59,5.37c7.41,7.66,22.31,7.52,32.24,6.65,5.63-.51,12.61-8.59,18-13.4a6.19,6.19,0,0,1,10,3.23c1.49,5.65,3.12,12.7,2.83,15.34-.52,4.67.71,4.48,4.87,11.76,2,3.58,1.73,1.32,2.06,3.82-.25,4.48-.46,12.53-1.21,25C511.11,251.27,513.19,267.89,507.48,274.09Z" class="cls-19"/><line data-cppathid="10080" y2="221.65" x2="455.51" y1="218.53" x1="429.54" class="cls-20"/><path data-cppathid="10081" d="M475.26,210.7s5.2-13,21.31-4.68" class="cls-20"/><path data-cppathid="10082" d="M473.19,220.09s-1.08,18.19.51,27,7.79,20.78-4.67,23.9-17.66-3.12-16.63-11.95" class="cls-15"/><g class="cls-21"><path data-cppathid="10083" d="M453.12,264.3s10.08,6.45,16.53,2.42,5.28-13.41,4.05-19.61-1.63-11-1.63-11,7.26,21.78,4.85,28.63-13.72,10.9-21.35,8.07S453.12,264.3,453.12,264.3Z" class="cls-13"/></g><path data-cppathid="10084" d="M473.19,220.09s-1.08,18.19.51,27,7.79,20.78-4.67,23.9-17.66-3.12-16.63-11.95" class="cls-12"/><path data-cppathid="10085" d="M452.61,226.71c0,3.16-1.51,5.71-3.37,5.71s-3.34-2.55-3.34-5.71,1.51-5.72,3.38-5.72S452.61,223.59,452.61,226.71Z" class="cls-6"/><path data-cppathid="10086" d="M493.51,223.89c0,3.15-1.52,5.72-3.38,5.72s-3.38-2.57-3.38-5.72,1.51-5.71,3.38-5.71S493.51,220.73,493.51,223.89Z" class="cls-6"/><path data-cppathid="10087" d="M466.43,281.92s3.59-8.1,10.91-6.75" class="cls-22"/><path data-cppathid="10088" d="M417.5,525.69l43.21-111.21s3.12-2.07,10.91-10.39,4.68-19.75,4.68-19.75a5.31,5.31,0,0,0,5.19,3.64c4.16,0,9.88-1.07,12.48-6.76s-.53-17.66-2.08-27.54-7.8-28.57-12.47-28.57-29.61,7.79-29.61,7.79-2.6-11.95-2.09-15.58,22.89-8.84,24.94-7.77,4.68,3.65,8.83,2.09,0-5.72-3.11-11.95-26.5-2.09-33.77,1.07S426.43,306,429,316.88s6.75,76.9,6.75,76.9,0,4.68-6.23,15.58c-5.27,9.23-68.7,91.34-88.16,116.42" class="cls-15"/><g class="cls-23"><path data-cppathid="10089" d="M481.49,388a15.36,15.36,0,0,0,9.08-2.52c2-2.52,3.63-6.87-.81-12.9-7.38-10.07-23.49.67-29.53,5.38s-9.39,0-14.76-6.71c-4.17-5.21-10.08-21.77-13.89-33.46,2.15,23.18,4.19,56,4.19,56s0,4.67-6.23,15.58c-5.27,9.23-68.7,91.34-88.16,116.41h45.67C408,496.29,449.38,424,452.18,416.21c2.15-6.13,9.5-6.56,16.38-8.89.93-.95,1.94-2,3.06-3.22,7.8-8.32,4.68-19.75,4.68-19.75A5.31,5.31,0,0,0,481.49,388Z" class="cls-13"/></g><path data-cppathid="10090" d="M417.5,525.69l43.21-111.21s3.12-2.07,10.91-10.39,4.68-19.75,4.68-19.75a5.31,5.31,0,0,0,5.19,3.64c4.16,0,9.88-1.07,12.48-6.76s-.53-17.66-2.08-27.54-7.8-28.57-12.47-28.57-29.61,7.79-29.61,7.79-2.6-11.95-2.09-15.58,22.89-8.84,24.94-7.77,4.68,3.65,8.83,2.09,0-5.72-3.11-11.95-26.5-2.09-33.77,1.07S426.43,306,429,316.88s6.75,76.9,6.75,76.9,0,4.68-6.23,15.58c-5.27,9.23-68.7,91.34-88.16,116.42" class="cls-12"/><path data-cppathid="10091" d="M452.92,348.49s27.54-7.27,29.62-7.27,6.76,4.16,6.76,4.16" class="cls-12"/><path data-cppathid="10092" d="M457.6,366.67s24.42-6.23,28.57-6.23a10.23,10.23,0,0,1,6.76,2.6" class="cls-12"/><path data-cppathid="10093" d="M472.66,385.9s5.2-1.56,12.48-7.28" class="cls-12"/></g></g></g></svg>