<?xml version="1.0" encoding="UTF-8"?>
<svg xmlns="http://www.w3.org/2000/svg" onmouseup="{ if(window.parent.document.onmouseup) window.parent.document.onmouseup(arguments[0]);}" viewBox="0 0 671.04 684.05"><defs><style>.cls-1,.cls-6,.cls-7{fill:#c53f3f;}.cls-2{fill:#fff;opacity:0.7;isolation:isolate;}.cls-3{fill:none;}.cls-11,.cls-3,.cls-4,.cls-5,.cls-6,.cls-7,.cls-8,.cls-9{stroke:#263238;}.cls-3,.cls-4,.cls-5,.cls-6{stroke-linecap:round;stroke-linejoin:round;}.cls-10,.cls-11,.cls-4{fill:#263238;}.cls-5,.cls-9{fill:#ddb98c;}.cls-7{stroke-miterlimit:10;}.cls-8{fill:#ffc9a4;}.cls-11,.cls-8,.cls-9{stroke-miterlimit:10;}</style></defs><g data-name="Layer 2" id="Layer_2"><g data-name="Layer 1" id="Layer_1-2"><g id="freepik--background-simple--inject-25"><path data-cppathid="10000" d="M57.08,154c-71,107-54.74,251.73,35.27,313s119.18,45.75,227.59,48.84,161,66.59,238.26,23.52S660.74,401.84,616.87,309s-95-208.78-196.23-267.19S216.23,20.09,216.23,20.09,128.06,47,57.08,154Z" class="cls-1"/><path data-cppathid="10001" d="M57.08,154c-71,107-54.74,251.73,35.27,313s119.18,45.75,227.59,48.84,161,66.59,238.26,23.52S660.74,401.84,616.87,309s-95-208.78-196.23-267.19S216.23,20.09,216.23,20.09,128.06,47,57.08,154Z" class="cls-2"/></g><path data-cppathid="10002" d="M292.44,500.87a3.68,3.68,0,0,0,.39-.4,5.12,5.12,0,0,0-.5-7.25c-3.37-2.75-10.94-.64-14.22,1.45-.28.21-4.34,3.57-4.33,3.57s6.44,4.16,9.81,4.64C286.47,503.29,290.25,503,292.44,500.87Z" class="cls-1"/><path data-cppathid="10003" d="M217.66,550.64c.63.44,5.47,4,8.22,4.53,2.54.49,5.84.49,8-1.22l.36-.33a4.51,4.51,0,0,0,0-6.39c-2.81-2.6-9.56-1.18-12.56.5-.18.11-2.3,1.61-3.37,2.4.71-.84,1.41-1.68,2.17-2.52,1.07-1.22,2.24-2.5,3.37-3.74l1.86-1.89c.62-.65,1.28-1.2,1.93-1.81,1-.91,2-1.75,3.05-2.59,1.19,1.18,4.7,4.48,7.1,5.38s5.7,1.37,8-.08a3.62,3.62,0,0,0,.41-.27,4.5,4.5,0,0,0,.93-6.31c-2.36-3-9.28-2.59-12.49-1.4-.1,0-.75.35-1.53.74,1.05-.8,2.08-1.62,3.16-2.4,3.07-2.22,6.27-4.39,9.47-6.57l2-1.38c1,1,4.89,4.68,7.28,5.57s5.7,1.36,8-.09a3.74,3.74,0,0,0,.42-.27,4.49,4.49,0,0,0,.93-6.31c-2.35-3-9.28-2.59-12.48-1.41a15.2,15.2,0,0,0-1.77.84q2.53-1.8,5.07-3.72a79,79,0,0,0,8-7c.36.35,4.78,4.74,7.48,5.75,2.4.89,5.7,1.37,8-.08a4.94,4.94,0,0,0,.42-.27,4.5,4.5,0,0,0,.93-6.31c-2.36-3-9.28-2.59-12.49-1.4-.22.08-3,1.48-4,2l.08-.08a58.78,58.78,0,0,0,6.53-8.22,78.65,78.65,0,0,0,4.72-8.09c1.38-2.57,2.45-5,3.38-7.16.46-1.18.92-2.26,1.31-3.28l0,.08c0,.06,3.32-3.23,3.5-3.46,2.15-2.67,4.66-9.08,2.53-12.25-.1-.13-.2-.26-.31-.38a4.55,4.55,0,0,0-6.4-.37c-2.09,1.75-2.65,4.95-2.54,7.56s2.5,7.46,3.1,8.66c-.42,1-.89,2.14-1.43,3.36-1,2.14-2.1,4.55-3.49,7.07-.34.67-.79,1.38-1.19,2.08.42-1.31,1-3.12,1-3.31.64-3.34-.07-10.19-3.45-12l-.46-.2a4.54,4.54,0,0,0-5.85,2.61c-1.05,2.48-.09,5.55,1.24,7.85s5.81,5.57,6.8,6.29c-.9,1.53-1.87,3.07-3,4.63a57.78,57.78,0,0,1-6.64,8l-.18-.13c.53-1.16,1.62-3.63,1.69-3.85,1-3.25,1-10.13-2.11-12.32l-.43-.25a4.55,4.55,0,0,0-6.11,1.93c-1.31,2.34-.65,5.6.38,7.93,1.16,2.68,6,7,6.23,7.14a80,80,0,0,1-7.95,6.63c-2,1.52-4.19,3-6.36,4.42.4-.81,1.83-4.06,1.9-4.3,1-3.25,1-10.14-2.1-12.32a3.58,3.58,0,0,0-.42-.25,4.54,4.54,0,0,0-6.11,1.93c-1.33,2.35-.67,5.61.36,7.93,1.12,2.62,5.79,6.76,6.19,7.11l-3,2c-3.24,2.1-6.49,4.21-9.64,6.39-1.09.75-2.13,1.53-3.18,2.31.57-1.23,1.55-3.48,1.61-3.68,1-3.26,1-10.14-2.1-12.33a3.38,3.38,0,0,0-.41-.24,4.55,4.55,0,0,0-6.12,1.92c-1.33,2.35-.64,5.58.36,7.93s4.82,5.9,5.91,6.88c-1.76,1.31-3.45,2.65-5.06,4-.68.62-1.41,1.2-2,1.83l-1.9,1.84c-1.25,1.3-2.41,2.51-3.54,3.76-.61.62-1.13,1.22-1.69,1.84.77-1.16,2-3,2-3.2,1.49-3.07,2.57-9.86-.2-12.5-.12-.11-.25-.21-.38-.31a4.55,4.55,0,0,0-6.33,1,4.62,4.62,0,0,0-.54.84,17.55,17.55,0,0,0-6.21,6.34c-.1.19-1,2.61-1.48,3.85.12-1.08.25-2.16.41-3.28.21-1.63.49-3.31.74-5,.17-.86.36-1.7.51-2.59s.4-1.73.6-2.57c.32-1.27.72-2.55,1.1-3.84,1.65.32,6.43,1.16,8.92.59s5.5-2,6.61-4.44c.07-.15.13-.29.19-.44a4.52,4.52,0,0,0-2.72-5.79c-3.65-1.2-9.18,2.93-11.2,5.68l-.84,1.46c.45-1.21.83-2.49,1.3-3.73,1.31-3.54,2.77-7.1,4.22-10.68l.89-2.24c1.39.27,6.67,1.22,9.16.65s5.51-2,6.61-4.45a4.32,4.32,0,0,0,.19-.45,4.5,4.5,0,0,0-2.72-5.78c-3.65-1.2-9.18,2.93-11.19,5.68-.08.09-.51.84-1,1.68.76-2,1.49-3.91,2.16-5.88a79.4,79.4,0,0,0,2.8-10.29c.49.1,6.62,1.34,9.43.7,2.49-.57,5.51-2,6.62-4.45a4.32,4.32,0,0,0,.19-.45,4.51,4.51,0,0,0-2.72-5.78c-3.64-1.2-9.18,2.93-11.2,5.68-.14.19-1.7,2.92-2.22,3.9v-.12a59.82,59.82,0,0,0,.84-10.43,81,81,0,0,0-.54-9.34c-.35-2.88-.77-5.5-1.19-7.81q-.36-1.87-.72-3.45l.07,0c.06,0,1-4.51,1-4.81.29-3.39-1.16-10.12-4.7-11.59l-.46-.14a4.54,4.54,0,0,0-5.56,3.19c-.78,2.58.52,5.57,2.06,7.68s6.22,4.85,7.39,5.52c.23,1.08.45,2.28.67,3.6.38,2.32.77,4.93,1,7.81.06.77.11,1.56.16,2.4-.37-1.37-.91-3.19-1-3.36-1.32-3.15-5.73-8.45-9.54-8.13a3.4,3.4,0,0,0-.46.07,4.52,4.52,0,0,0-3.47,5.39c.49,2.67,3,4.69,5.38,5.88s7.94,1.47,9.16,1.52c.08,1.77.14,3.6.08,5.5a56.76,56.76,0,0,1-1.1,10.32h-.22c-.19-1.27-.66-3.92-.73-4.14-1-3.24-4.75-9-8.58-9.12a4.41,4.41,0,0,0-.52,0,4.52,4.52,0,0,0-4,5c.2,2.68,2.56,5,4.7,6.41,2.48,1.57,8.92,2.52,9.16,2.52a80.8,80.8,0,0,1-2.94,9.89c-.87,2.39-1.85,4.78-2.87,7.18-.11-.9-.71-4.39-.79-4.63-1-3.25-4.75-9-8.58-9.13a4.36,4.36,0,0,0-.51,0,4.53,4.53,0,0,0-4,5c.2,2.69,2.55,5,4.7,6.42,2.42,1.54,8.58,2.44,9.1,2.52-.46,1.08-.91,2.17-1.38,3.26-1.52,3.53-3.07,7.08-4.49,10.61-.49,1.23-.93,2.45-1.37,3.68-.21-1.34-.64-3.75-.7-4-1-3.25-4.76-9-8.59-9.13l-.5,0a4.54,4.54,0,0,0-4,5c.21,2.69,2.54,5,4.7,6.42s7.33,2.26,8.79,2.48c-.72,2-1.4,4.1-2,6.14-.23.89-.5,1.74-.69,2.64s-.37,1.74-.56,2.58c-.28,1.74-.59,3.36-.84,5-.13.84-.24,1.61-.35,2.45,0-1.39-.09-3.58-.09-3.78-.45-3.38-3.32-9.64-7.1-10.32a3.88,3.88,0,0,0-.48,0,4.54,4.54,0,0,0-4.74,4.31c-.21,2.69,1.76,5.37,3.68,7,2.11,1.86,7.86,3.65,8.57,3.86-.29,2-.54,3.94-.76,5.77-.43,3.83-.73,7.22-.93,10.08h2.53c.14-2.8.35-6.12.71-9.85.15-1.65.34-3.41.55-5.19.72,0,6.33.27,9.07-.64a51.14,51.14,0,0,0,3.38,4.66c-1.34,1.51-2.63,3-3.82,4.4-2,2.42-3.84,4.64-5.38,6.62h3.07c1.22-1.6,2.58-3.34,4.07-5.18C215.36,553.37,216.49,552,217.66,550.64Z" class="cls-1"/><path data-cppathid="10004" d="M231.38,469.13c2.63-1.23,5.64-3.53,6.26-6.54a5.06,5.06,0,0,0-4.33-6.31c-4.3-.45-9.48,5.47-11.06,9-.13.31-1.71,5.35-1.62,5.35S228.29,470.59,231.38,469.13Z" class="cls-1"/><g id="freepik--Floor--inject-25"><line data-cppathid="10005" y2="557.86" x2="634.45" y1="557.86" x1="0.5" class="cls-3"/></g><path data-cppathid="10006" d="M16.75,460.26c-.23-.22-.45-.44-.66-.68a8.67,8.67,0,0,1,.84-12.24c5.66-4.64,18.38-1.08,23.9,2.45.47.34,7.27,6,7.26,6s-10.81,7-16.48,7.84C26.77,464.34,20.42,463.89,16.75,460.26Z" class="cls-1"/><path data-cppathid="10007" d="M142.37,544.3c-1.05.74-9.19,6.68-13.81,7.64-4.26.83-9.8.83-13.37-2.05a8.24,8.24,0,0,1-.62-.56,7.63,7.63,0,0,1,.08-10.79c4.7-4.4,16-2,21.09.84.31.18,3.87,2.72,5.67,4-1.19-1.41-2.38-2.83-3.65-4.25-1.8-2.07-3.77-4.23-5.67-6.33L129,529.68c-1-1.11-2.16-2-3.25-3.07-1.61-1.54-3.37-3-5.12-4.38-2,2-7.9,7.58-11.92,9.09s-9.58,2.31-13.42-.12c-.24-.15-.47-.3-.7-.47A7.61,7.61,0,0,1,93,520.08c4-5.07,15.59-4.37,21-2.37.17,0,1.26.59,2.57,1.26-1.76-1.36-3.49-2.74-5.31-4.06-5.16-3.75-10.54-7.41-15.9-11.1-1.12-.77-2.22-1.56-3.33-2.33-1.69,1.66-8.21,7.9-12.24,9.41s-9.57,2.29-13.4-.15a6.49,6.49,0,0,1-.7-.46,7.61,7.61,0,0,1-1.57-10.65c4-5.07,15.59-4.37,21-2.37a24.65,24.65,0,0,1,3,1.41q-4.26-3-8.51-6.28A133.77,133.77,0,0,1,66,480.51c-.59.59-8,8-12.56,9.71-4,1.51-9.57,2.31-13.4-.13a6.49,6.49,0,0,1-.7-.46A7.61,7.61,0,0,1,37.78,479c3.95-5.07,15.58-4.37,21-2.37.39.14,5.11,2.51,6.75,3.42l-.14-.15A97.86,97.86,0,0,1,54.4,466a131.79,131.79,0,0,1-7.94-13.65c-2.31-4.34-4.12-8.46-5.68-12.1-.78-2-1.54-3.82-2.19-5.53l-.07.12c-.06.1-5.58-5.44-5.88-5.84-3.61-4.51-7.84-15.33-4.25-20.68.16-.22.34-.44.52-.65a7.61,7.61,0,0,1,10.75-.62c3.51,2.95,4.46,8.36,4.26,12.76s-4.18,12.61-5.21,14.62c.71,1.75,1.51,3.62,2.41,5.68,1.61,3.61,3.52,7.68,5.86,11.94.58,1.13,1.34,2.34,2,3.51-.71-2.21-1.71-5.27-1.71-5.58-1.08-5.65.12-17.21,5.8-20.3a6.65,6.65,0,0,1,.77-.34,7.61,7.61,0,0,1,9.82,4.41c1.77,4.19.16,9.36-2.08,13.25s-9.76,9.42-11.42,10.62c1.52,2.58,3.15,5.19,5,7.83A96.2,96.2,0,0,0,66.33,479a1.94,1.94,0,0,1,.29-.21c-.89-2-2.72-6.14-2.83-6.51-1.69-5.49-1.75-17.1,3.54-20.81A7.24,7.24,0,0,1,68,451a7.62,7.62,0,0,1,10.27,3.25c2.21,4,1.11,9.46-.62,13.39-2,4.54-10.16,11.78-10.47,12a132.22,132.22,0,0,0,13.35,11.21c3.44,2.56,7,5,10.69,7.46-.68-1.36-3.08-6.85-3.21-7.26-1.7-5.49-1.74-17.12,3.54-20.81a7,7,0,0,1,.71-.42,7.61,7.61,0,0,1,10.26,3.26c2.23,4,1.12,9.47-.61,13.4-1.88,4.42-9.73,11.4-10.39,12l5,3.3c5.45,3.56,10.91,7.12,16.2,10.79,1.83,1.28,3.59,2.6,5.34,3.9-1-2.07-2.61-5.87-2.7-6.21-1.71-5.5-1.75-17.12,3.53-20.82.22-.14.45-.28.68-.4a7.62,7.62,0,0,1,10.29,3.24c2.23,4,1.07,9.43-.61,13.39s-8.09,10-9.92,11.63c3,2.21,5.8,4.46,8.51,6.83,1.13,1,2.36,2,3.4,3.09l3.19,3.11c2.1,2.2,4,4.24,5.94,6.34,1,1,1.9,2.07,2.84,3.11-1.29-2-3.26-5.1-3.4-5.41-2.5-5.17-4.33-16.65.34-21.1a7.91,7.91,0,0,1,.63-.52,7.62,7.62,0,0,1,10.64,1.7,8.7,8.7,0,0,1,.91,1.41,29.63,29.63,0,0,1,10.42,10.71c.17.33,1.75,4.41,2.5,6.51-.21-1.83-.43-3.64-.7-5.54-.35-2.75-.82-5.59-1.24-8.43-.29-1.44-.6-2.86-.86-4.37s-.68-2.92-1-4.34c-.54-2.14-1.21-4.31-1.86-6.49-2.77.54-10.79,2-15,1s-9.24-3.35-11.1-7.51a6.26,6.26,0,0,1-.32-.75,7.62,7.62,0,0,1,4.57-9.77c6.13-2,15.42,5,18.81,9.6L158,499c-.77-2.06-1.41-4.21-2.19-6.31-2.19-6-4.65-12-7.09-18-.51-1.26-1-2.52-1.5-3.78-2.33.45-11.21,2-15.39,1.09s-9.25-3.36-11.1-7.52c-.12-.25-.23-.5-.33-.76A7.62,7.62,0,0,1,125,454c6.13-2,15.42,4.95,18.81,9.59.12.16.85,1.42,1.66,2.84-1.28-3.31-2.51-6.61-3.63-9.93a134,134,0,0,1-4.71-17.38c-.83.18-11.12,2.27-15.84,1.18-4.19-1-9.27-3.36-11.12-7.51-.12-.25-.23-.51-.33-.76a7.62,7.62,0,0,1,4.58-9.75c6.11-2,15.42,4.95,18.81,9.58.24.33,2.86,4.92,3.74,6.58v-.19a101,101,0,0,1-1.42-17.62,136.31,136.31,0,0,1,.91-15.77c.58-4.86,1.29-9.29,2-13.19.4-2.11.81-4,1.21-5.83l-.12.07c-.1.06-1.69-7.61-1.69-8.11-.48-5.73,2-17.09,7.9-19.57a7.64,7.64,0,0,1,10.12,5.15c1.31,4.35-.87,9.4-3.46,13s-10.46,8.18-12.41,9.32q-.58,2.75-1.14,6.08c-.62,3.92-1.29,8.33-1.7,13.19-.11,1.29-.18,2.63-.27,4,.62-2.31,1.52-5.37,1.65-5.67,2.21-5.3,9.61-14.27,16-13.73a7,7,0,0,1,.78.13,7.65,7.65,0,0,1,5.83,9.1c-.84,4.51-5,7.92-9.05,9.93s-13.34,2.48-15.39,2.57c-.14,3-.24,6.07-.14,9.29A97.81,97.81,0,0,0,138.43,438h.37c.32-2.14,1.11-6.62,1.22-7,1.66-5.47,8-15.23,14.42-15.4a8.65,8.65,0,0,1,.88.05,7.64,7.64,0,0,1,6.7,8.46c-.35,4.54-4.3,8.51-7.9,10.84-4.17,2.65-15,4.25-15.39,4.25a134.33,134.33,0,0,0,5,16.69c1.46,4,3.1,8.09,4.81,12.13.18-1.52,1.2-7.4,1.33-7.82,1.66-5.48,8-15.24,14.42-15.41a8.08,8.08,0,0,1,.85.05,7.65,7.65,0,0,1,6.73,8.46c-.35,4.54-4.3,8.51-7.9,10.83-4.07,2.61-14.43,4.13-15.29,4.26.76,1.83,1.53,3.67,2.31,5.5,2.57,6,5.16,12,7.54,17.93.83,2.07,1.56,4.14,2.32,6.21.35-2.26,1.06-6.34,1.16-6.68,1.67-5.49,8-15.25,14.44-15.42a7.89,7.89,0,0,1,.84,0,7.65,7.65,0,0,1,6.73,8.46c-.34,4.54-4.27,8.5-7.9,10.84s-12.31,3.81-14.76,4.18c1.22,3.46,2.35,6.92,3.3,10.37.38,1.5.84,2.95,1.15,4.47s.62,2.93.94,4.35c.48,2.94,1,5.67,1.41,8.51.22,1.42.4,2.71.6,4.13,0-2.34.14-6,.14-6.39.77-5.7,5.59-16.26,11.93-17.41a7,7,0,0,1,.8-.08,7.62,7.62,0,0,1,8,7.28c.36,4.54-2.95,9.08-6.17,11.92-3.54,3.13-13.2,6.15-14.39,6.51.48,3.37.91,6.65,1.26,9.74.74,6.47,1.23,12.2,1.58,17h-4.26c-.24-4.73-.6-10.33-1.19-16.64-.26-2.78-.57-5.74-.92-8.76-1.22,0-10.64.47-15.25-1.08a84.37,84.37,0,0,1-5.67,7.87c2.25,2.55,4.42,5,6.41,7.43,3.37,4.09,6.45,7.84,9.05,11.18h-5.17c-2-2.7-4.32-5.63-6.83-8.75C146.24,548.91,144.34,546.63,142.37,544.3Z" class="cls-1"/><path data-cppathid="10008" d="M119.33,406.66c-4.43-2.08-9.48-6-10.53-11.05a9.32,9.32,0,0,1-.17-.92,8.66,8.66,0,0,1,7.45-9.73c7.23-.76,15.93,9.23,18.58,15.22.22.51,2.88,9,2.73,9C137.39,409.2,124.52,409.11,119.33,406.66Z" class="cls-1"/><g id="freepik--Plants--inject-25"><path data-cppathid="10009" d="M334.74,460.26c-.23-.22-.45-.44-.66-.68a8.67,8.67,0,0,1,.84-12.24c5.66-4.64,18.38-1.08,23.9,2.45.47.34,7.28,6,7.26,6s-10.81,7-16.48,7.84C344.77,464.34,338.41,463.89,334.74,460.26Z" class="cls-1"/><path data-cppathid="10010" d="M461.25,545.34a1.5,1.5,0,0,0-2-.26c-2.62,1.84-8.87,6.06-12.71,6.86-4.25.83-9.8.83-13.44-2.05a6.53,6.53,0,0,1-.61-.56,7.63,7.63,0,0,1,.07-10.79c4.71-4.4,16.05-2,21.09.84.31.18,3.87,2.72,5.67,4-1.19-1.41-2.38-2.83-3.64-4.25-1.81-2.07-3.78-4.23-5.68-6.33l-3.12-3.17c-1-1.11-2.15-2-3.25-3.07-1.3-1.24-2.69-2.4-4.09-3.54a1.46,1.46,0,0,0-1.95.07c-2.53,2.43-7.48,6.86-11,8.18-4,1.52-9.58,2.31-13.42-.12-.24-.15-.47-.3-.7-.47a7.6,7.6,0,0,1-1.55-10.65c3.95-5.07,15.58-4.37,21-2.37.17,0,1.26.59,2.57,1.26-1.76-1.36-3.49-2.74-5.31-4.06-5.16-3.75-10.53-7.41-15.89-11.1-.79-.54-1.56-1.08-2.34-1.63a1.47,1.47,0,0,0-1.86.14c-2.44,2.33-7.86,7.25-11.38,8.57-4,1.5-9.57,2.29-13.4-.15A7.59,7.59,0,0,1,382,499.63c4-5.07,15.59-4.37,21-2.37a23.9,23.9,0,0,1,3,1.41q-4.24-3-8.51-6.28A132.79,132.79,0,0,1,385,481.53a1.46,1.46,0,0,0-2.05,0c-2.31,2.22-7.88,7.34-11.55,8.71-4,1.51-9.57,2.31-13.4-.13a6.49,6.49,0,0,1-.7-.46A7.61,7.61,0,0,1,355.7,479c4-5.07,15.59-4.37,21-2.37.38.14,5.1,2.51,6.75,3.42l-.15-.15a97.86,97.86,0,0,1-11-13.87,133.61,133.61,0,0,1-7.94-13.65c-2.31-4.34-4.11-8.46-5.67-12.1-.78-2-1.55-3.82-2.2-5.53l-.07.12c-.06.1-5.58-5.44-5.87-5.84-3.62-4.51-7.85-15.33-4.26-20.68.16-.22.34-.44.52-.65a7.62,7.62,0,0,1,10.76-.62c3.5,2.95,4.45,8.36,4.25,12.76-.18,4.05-3.58,11.34-4.91,14a1.44,1.44,0,0,0,0,1.2c.64,1.57,1.36,3.24,2.16,5.06,1.6,3.61,3.51,7.68,5.85,11.94.59,1.13,1.34,2.34,2,3.51-.7-2.21-1.71-5.27-1.71-5.58-1.08-5.65.13-17.21,5.8-20.3a7.51,7.51,0,0,1,.77-.34,7.61,7.61,0,0,1,9.82,4.41c1.78,4.19.16,9.36-2.08,13.25-1.91,3.31-7.66,7.83-10.34,9.83a1.46,1.46,0,0,0-.39,1.94c1.32,2.21,2.74,4.43,4.32,6.68A96.2,96.2,0,0,0,384.25,479a1.61,1.61,0,0,1,.3-.21c-.9-2-2.73-6.14-2.84-6.51-1.69-5.49-1.74-17.1,3.55-20.81A6.23,6.23,0,0,1,386,451a7.61,7.61,0,0,1,10.26,3.25c2.22,4,1.11,9.46-.62,13.39-1.53,3.55-6.89,8.76-9.29,11a1.48,1.48,0,0,0,0,2.17,133.68,133.68,0,0,0,12.18,10.1c2.07,1.54,4.19,3,6.35,4.52a1.48,1.48,0,0,0,2.19-1.82c-.55-1.27-1-2.33-1-2.5-1.71-5.49-1.75-17.12,3.53-20.81.23-.15.46-.29.71-.42a7.62,7.62,0,0,1,10.27,3.26c2.22,4,1.12,9.47-.61,13.4-1.47,3.43-6.52,8.4-9,10.74a1.47,1.47,0,0,0,.2,2.31l3.38,2.25c5.45,3.56,10.91,7.12,16.2,10.79.3.21.6.42.89.64a1.48,1.48,0,0,0,2.22-1.79c-.26-.61-.44-1.05-.47-1.16-1.7-5.5-1.75-17.12,3.53-20.82.22-.14.45-.28.68-.4a7.63,7.63,0,0,1,10.3,3.24c2.22,4,1.06,9.43-.61,13.39-1.39,3.29-6.07,8-8.66,10.45a1.47,1.47,0,0,0,.13,2.24c2.46,1.87,4.83,3.78,7.11,5.77,1.13,1,2.37,2,3.4,3.09l3.19,3.11c2.1,2.2,4,4.24,5.95,6.34,1,1,1.9,2.07,2.83,3.11-1.29-2-3.26-5.1-3.4-5.41-2.5-5.17-4.33-16.65.34-21.1a8.06,8.06,0,0,1,.72-.59,8.06,8.06,0,0,1,11.36,2.87,1.44,1.44,0,0,0,.48.5,29.73,29.73,0,0,1,10.12,10.52c.17.33,1.74,4.41,2.49,6.51-.21-1.83-.42-3.64-.69-5.54-.36-2.75-.83-5.59-1.25-8.43-.28-1.44-.6-2.86-.85-4.37s-.68-2.92-1-4.34c-.43-1.72-.95-3.46-1.47-5.21a1.49,1.49,0,0,0-1.68-1c-3.45.62-10,1.6-13.68.77-4.19-.95-9.25-3.35-11.11-7.51-.12-.24-.22-.49-.32-.75a7.63,7.63,0,0,1,4.58-9.77c6.12-2,15.41,5,18.8,9.6.09.14.7,1.21,1.42,2.47-.77-2.06-1.4-4.21-2.18-6.31-2.2-6-4.66-12-7.09-18-.36-.88-.71-1.77-1.06-2.65a1.45,1.45,0,0,0-1.63-.91c-3.32.6-10.55,1.71-14.21.87-4.18-1-9.24-3.36-11.1-7.52a7.19,7.19,0,0,1-.32-.76A7.62,7.62,0,0,1,443,454c6.13-2,15.42,4.95,18.81,9.59.13.16.85,1.42,1.66,2.84-1.28-3.31-2.51-6.61-3.63-9.93a135.51,135.51,0,0,1-4.42-16,1.45,1.45,0,0,0-1.7-1.15c-3.15.58-10.61,1.79-14.43.9-4.19-1-9.26-3.36-11.12-7.51a8.2,8.2,0,0,1-.32-.76,7.62,7.62,0,0,1,4.57-9.75c6.12-2,15.42,4.95,18.81,9.58h0l2.73-1a100.59,100.59,0,0,1-.49-10.27,138.57,138.57,0,0,1,.91-15.77c.51-4.86,1.29-9.29,2-13.19.4-2.11.81-4,1.21-5.83l-.12.07c-.1.06-1.68-7.61-1.68-8.11-.49-5.73,1.95-17.09,7.9-19.57a6.75,6.75,0,0,1,.76-.25,7.63,7.63,0,0,1,9.35,5.4c1.32,4.35-.87,9.4-3.46,13-2.4,3.28-9.26,7.47-11.85,9a1.44,1.44,0,0,0-.69,1q-.51,2.49-1,5.44c-.62,3.92-1.29,8.33-1.7,13.19-.11,1.29-.18,2.63-.27,4,.63-2.31,1.52-5.37,1.65-5.67,2.21-5.3,9.61-14.27,16-13.73a6.71,6.71,0,0,1,.76.13,7.63,7.63,0,0,1,5.83,9.1c-.83,4.51-5,7.92-9.05,9.93-3.44,1.72-10.71,2.31-14,2.5a1.48,1.48,0,0,0-1.4,1.41c-.11,2.57-.17,5.21-.09,7.95A97.81,97.81,0,0,0,456.35,438h.37c.33-2.14,1.11-6.62,1.22-7,1.66-5.47,8-15.23,14.42-15.4a8.49,8.49,0,0,1,.88.05,7.64,7.64,0,0,1,6.7,8.46c-.34,4.54-4.3,8.51-7.9,10.84-3.26,2.07-10.58,3.5-13.82,4a1.49,1.49,0,0,0-1.2,1.81,134.66,134.66,0,0,0,4.58,15.1c.88,2.43,1.82,4.86,2.8,7.28a1.49,1.49,0,0,0,2.84-.3c.24-1.37.45-2.49.5-2.67,1.66-5.48,8-15.24,14.42-15.41a7.92,7.92,0,0,1,.85.05,7.64,7.64,0,0,1,6.73,8.46c-.34,4.54-4.3,8.51-7.9,10.83-3.16,2-10.1,3.39-13.45,4a1.46,1.46,0,0,0-1.11,2c.52,1.26,1.05,2.52,1.58,3.77,2.57,6,5.16,12,7.55,17.93l.42,1a1.48,1.48,0,0,0,2.82-.29c.11-.64.2-1.09.23-1.19,1.67-5.49,8-15.25,14.44-15.42a7.89,7.89,0,0,1,.84,0,7.64,7.64,0,0,1,6.73,8.46c-.34,4.54-4.27,8.5-7.9,10.84-3,1.94-9.53,3.29-13.05,3.9a1.47,1.47,0,0,0-1.13,1.94c1,2.91,1.92,5.81,2.72,8.71.39,1.5.84,2.95,1.15,4.47s.63,2.93.94,4.35c.48,2.94,1,5.67,1.42,8.51.21,1.42.39,2.71.59,4.13,0-2.2.13-5.58.14-6.28a1.49,1.49,0,0,1,0-.21c.81-5.72,5.61-16.17,11.91-17.31a7.22,7.22,0,0,1,.8-.08,7.63,7.63,0,0,1,8,7.28c.35,4.54-3,9.08-6.17,11.92-3,2.62-10.24,5.17-13.22,6.13a1.49,1.49,0,0,0-1,1.62c.41,2.94.77,5.79,1.08,8.5.66,5.77,1.13,11,1.46,15.43a1.48,1.48,0,0,1-1.48,1.59H487a1.47,1.47,0,0,1-1.48-1.39c-.24-4.42-.58-9.55-1.12-15.25-.21-2.36-.47-4.85-.76-7.4a1.48,1.48,0,0,0-1.51-1.31c-2.82.08-9,.13-12.92-.85a1.46,1.46,0,0,0-1.57.63q-2,3.09-4.31,6a1.48,1.48,0,0,0,0,1.89c2,2.23,3.85,4.41,5.59,6.5,2.59,3.13,5,6.08,7.16,8.78a1.48,1.48,0,0,1-1.17,2.4h-1.37a1.46,1.46,0,0,1-1.17-.58c-1.93-2.53-4.07-5.27-6.4-8.17C464.5,549.24,462.9,547.31,461.25,545.34Z" class="cls-1"/><path data-cppathid="10011" d="M620.69,471.36a7.94,7.94,0,0,0,.57-.59,7.7,7.7,0,0,0-.72-10.88c-5.07-4.14-16.38-.95-21.27,2.18-.43.27-6.45,5.33-6.45,5.33s9.58,6.26,14.63,7C611.75,475,617.4,474.59,620.69,471.36Z" class="cls-1"/><path data-cppathid="10012" d="M575.93,423.75c3.92-1.86,8.42-5.32,9.36-9.81a8,8,0,0,0,.15-.83,7.7,7.7,0,0,0-6.62-8.65c-6.48-.65-14.15,8.21-16.51,13.53-.2.46-2.55,8-2.44,8S571.32,425.92,575.93,423.75Z" class="cls-1"/><path data-cppathid="10013" d="M555.11,546c.93.67,8.17,5.93,12.28,6.8,3.73.78,8.71.73,11.76-1.92.18-.15.36-.31.53-.48a6.79,6.79,0,0,0,0-9.59c-4.19-3.91-14.27-1.74-18.74.74-.28.16-3.46,2.41-5,3.6,1-1.25,2.1-2.49,3.24-3.77,1.6-1.9,3.36-3.82,5-5.67l2.83-2.84c.87-1,1.86-1.8,2.84-2.72,1.45-1.32,3-2.61,4.55-3.9,1.79,1.76,7,6.78,10.6,8.08s8.51,2.06,11.91-.11a5.4,5.4,0,0,0,.68-.46,6.75,6.75,0,0,0,1.33-9.47c-3.54-4.51-13.84-3.89-18.63-2.11-.16.05-1.14.54-2.29,1.12,1.56-1.21,3.11-2.43,4.73-3.61,4.65-3.33,9.41-6.58,14.18-9.85l3-2.07c1.51,1.47,7.31,7,10.88,8.34s8.5,2,11.91-.12a4.45,4.45,0,0,0,.68-.45,6.74,6.74,0,0,0,1.32-9.47c-3.53-4.51-13.84-3.89-18.63-2.12-.17.06-1.33.64-2.62,1.29,2.56-1.81,5.09-3.66,7.54-5.57a117.09,117.09,0,0,0,12-10.57c.52.54,7.12,7.14,11.16,8.64,3.57,1.31,8.49,2.06,11.91-.11a7.57,7.57,0,0,0,.66-.44,6.78,6.78,0,0,0,1.34-9.49c-3.54-4.5-13.84-3.89-18.63-2.1-.33.13-4.59,2.24-6,3.05l.14-.14a88.79,88.79,0,0,0,9.73-12.31A123.62,123.62,0,0,0,640.33,464c2-3.86,3.56-7.5,5-10.75.73-1.76,1.39-3.39,2-4.91v.1c.05.1,5-4.84,5.23-5.18,3.16-4.07,6.92-13.68,3.73-18.43a5.33,5.33,0,0,0-.46-.58,6.77,6.77,0,0,0-9.55-.56c-3.11,2.64-4,7.43-3.79,11.35s3.73,11.2,4.64,13c-.64,1.57-1.33,3.25-2.16,5.08-1.44,3.2-3.12,6.8-5.19,10.59-.55,1-1.19,2.08-1.78,3.13.63-2,1.53-4.69,1.53-5,1-5-.14-15.29-5.16-18l-.7-.31a6.76,6.76,0,0,0-8.71,3.92c-1.57,3.71-.15,8.32,1.85,11.77s8.73,8.37,10.15,9.43c-1.36,2.3-2.81,4.62-4.45,7a87.09,87.09,0,0,1-9.93,12l-.27-.19c.81-1.74,2.43-5.44,2.52-5.77,1.52-4.82,1.55-15.15-3.13-18.44a6.44,6.44,0,0,0-.63-.36,6.77,6.77,0,0,0-9.13,2.92c-2,3.53-1,8.41.56,11.9,1.75,4,9,10.48,9.29,10.72a118.11,118.11,0,0,1-11.85,9.92c-3.07,2.29-6.27,4.47-9.5,6.63.6-1.21,2.72-6.07,2.84-6.44,1.51-4.82,1.54-15.15-3.14-18.44a5.88,5.88,0,0,0-.6-.35,6.78,6.78,0,0,0-9.15,2.9c-2,3.54-1,8.41.55,11.92,1.71,3.93,8.65,10.12,9.23,10.65-1.47,1-3,2-4.41,2.93-4.84,3.18-9.69,6.33-14.38,9.59-1.63,1.14-3.19,2.31-4.77,3.48.86-1.85,2.33-5.22,2.43-5.53,1.5-4.83,1.55-15.15-3.15-18.44a4.48,4.48,0,0,0-.6-.35,6.79,6.79,0,0,0-9.16,2.9c-2,3.53-1,8.41.56,11.91s7.24,8.91,8.88,10.33c-2.6,2-5.14,4-7.54,6.07-1,.92-2.11,1.8-3,2.75l-2.84,2.75c-1.87,2-3.6,3.82-5.29,5.67l-2.48,2.84c1.15-1.74,2.89-4.52,3-4.79,2.22-4.57,3.83-14.79-.32-18.75a6,6,0,0,0-.55-.45,6.78,6.78,0,0,0-9.47,1.48,7.41,7.41,0,0,0-.8,1.28,26.17,26.17,0,0,0-9.26,9.52c-.15.28-1.54,3.91-2.22,5.78.19-1.63.38-3.24.62-4.93.31-2.44.72-5,1.11-7.48.25-1.29.52-2.55.75-3.88s.61-2.57.9-3.86c.47-1.9,1.07-3.83,1.65-5.76,2.47.47,9.53,1.76,13.3.9s8.29-3,9.93-6.68a6.21,6.21,0,0,0,.28-.66,6.78,6.78,0,0,0-4-8.69c-5.36-1.82-13.69,4.38-16.71,8.51-.1.14-.65,1.08-1.29,2.2.64-1.87,1.25-3.75,2-5.6,2-5.32,4.15-10.66,6.32-16,.46-1.11.9-2.24,1.34-3.36,2.07.41,9.88,1.81,13.67,1s8.28-3,9.93-6.66q.15-.33.27-.66a6.77,6.77,0,0,0-4-8.69c-5.43-1.81-13.68,4.38-16.7,8.51a28.28,28.28,0,0,1-1.42,2.52c1.13-2.92,2.22-5.85,3.22-8.8A119.72,119.72,0,0,0,560,452.58c.73.16,9.82,2,14.07,1.05,3.79-.86,8.28-3,9.93-6.68a6.54,6.54,0,0,0,.28-.66,6.78,6.78,0,0,0-4.05-8.68c-5.36-1.81-13.69,4.39-16.71,8.51-.21.29-2.54,4.43-3.32,5.85v-.18a88.64,88.64,0,0,0,1.32-15.6,121.83,121.83,0,0,0-.81-14c-.45-4.31-1.13-8.24-1.77-11.71-.36-1.88-.72-3.59-1.08-5.18l.24.07s1.42-6.78,1.42-7.22c.37-5.09-1.8-15.17-7.09-17.39l-.68-.22a6.79,6.79,0,0,0-8.3,4.81c-1.18,3.87.78,8.35,3.08,11.51s9.27,7.28,11,8.27c.34,1.66.68,3.45,1,5.42.56,3.47,1.16,7.46,1.51,11.71.1,1.15.16,2.38.24,3.59-.51-2-1.31-4.72-1.41-5-1.9-4.72-8.51-12.68-14.19-12.19a5.5,5.5,0,0,0-.69.11,6.78,6.78,0,0,0-5.16,8.08c.73,4,4.48,7,8,8.8s11.85,2.27,13.67,2.27c.13,2.59.21,5.43.13,8.26a87.5,87.5,0,0,1-2.1,15.46h-.33c-.28-1.95-1-5.88-1.08-6.21-1.41-4.91-7.09-13.53-12.76-13.69-.25,0-.49,0-.74,0a6.77,6.77,0,0,0-6,7.47c.37,4,3.88,7.56,7.09,9.63,3.73,2.39,13.3,3.81,13.66,3.81a119.71,119.71,0,0,1-4.39,14.84c-1.27,3.58-2.73,7.17-4.25,10.76-.16-1.35-1.06-6.58-1.18-6.95-1.42-4.91-7.09-13.53-12.76-13.68a6.12,6.12,0,0,0-.74,0,6.75,6.75,0,0,0-6,7.46c.36,4,3.88,7.56,7.09,9.63,3.66,2.38,12.8,3.69,13.58,3.8-.65,1.62-1.36,3.25-2.07,4.88-2.27,5.3-4.58,10.62-6.69,15.92-.74,1.85-1.39,3.69-2.06,5.54-.31-2-.95-5.65-1-6-1.42-4.89-7.09-13.53-12.77-13.69-.23,0-.47,0-.7,0a6.79,6.79,0,0,0-6,7.48c.37,4,3.91,7.53,7.09,9.62s10.92,3.38,13.1,3.73c-1.09,3.06-2.1,6.14-2.93,9.2-.34,1.33-.74,2.67-1,4s-.56,2.6-.84,3.87c-.47,2.65-.92,5.12-1.31,7.6-.19,1.27-.35,2.46-.54,3.68,0-2.09-.11-5.38-.11-5.68-.68-5.06-4.93-14.45-10.61-15.47-.23,0-.46-.06-.69-.07a6.79,6.79,0,0,0-7.09,6.48c-.32,4,2.65,8,5.49,10.58,3.13,2.78,11.71,5.46,12.76,5.79-.41,3-.79,5.91-1.11,8.65-.68,5.74-1.12,10.86-1.41,15.12H533c.21-4.2.54-9.18,1.06-14.78.23-2.48.5-5.11.81-7.8,1.09.06,9.46.47,13.55-.95a75.84,75.84,0,0,0,5.09,7c-2,2.25-3.9,4.48-5.67,6.59-3,3.62-5.73,7-8.05,9.93h4.6c1.81-2.4,3.84-4.94,6.07-7.77C552,550.13,553.65,548.1,555.11,546Z" class="cls-1"/></g><g id="freepik--character-2--inject-25"><path data-cppathid="10014" d="M99.61,153c0-3.27-13.47-6.71-35.18,16.4s-50.81,57.3-54.57,90.07,18.31,58.82,40.49,68,54.94,19.27,88.2,9.64,53-27,66.52-49.17S207,236.81,194,217.05s-50.61-48.67-50.61-48.67,8.21-2.49,3.39-4.35-35.2,2.45-35.2,2.45,9.14-4.79,9.63-11.55-20.72,5.78-20.72,5.78A44.28,44.28,0,0,1,99.61,153Z" class="cls-4"/><path data-cppathid="10015" d="M102.41,296.2s3.37,40.52,1.92,41.45S60.5,351.1,50.84,359.77,36.19,372.46,33.29,397s-13.48,61.11-13.48,61.11L64.6,437s21.22,37.61,21.22,44.84S80,496.33,73.28,514.64s-13,49.66-13,49.66,28.44,15.93,86.28,17.36S241,564.77,241,564.77s-5.31-31.35-8.68-41.94-22.66-43.36-22.66-43.36l3.86-13.5s29.47,17.82,40.07,13,13-8.28,11.55-15.9-35.94-87.88-38.35-93.66-8.21-12.51-21.21-17.82-48.21-16.86-48.21-16.86l-4.91-37.1C139,305.84,102.41,296.2,102.41,296.2Z" class="cls-5"/><path data-cppathid="10016" d="M155.8,322.26l-3.31-24.58c-13.5,8.21-50-1.48-50-1.48s.44,5.39,1,12.3c6.29,5.7,14.31,12.07,21,14.52C136.14,327.4,148.33,329,155.8,322.26Z" class="cls-4"/><path data-cppathid="10017" d="M60.28,564.3s28.44,15.93,86.28,17.36S241,564.77,241,564.77s-5.31-31.35-8.68-41.94-22.66-43.36-22.66-43.36l3.86-13.5s29.57,17.82,40.17,13,13-8.28,11.55-15.9-35.89-87.86-38.35-93.66a28.72,28.72,0,0,0-11-12.51C185.43,364.3,109.07,380,40.39,371.23c-3.2,5.26-5.41,12.51-7,25.81C30.53,421.62,20,458.15,20,458.15L64.75,437S86,474.65,86,481.88s-5.78,14.45-12.54,32.76S60.28,564.3,60.28,564.3Z" class="cls-6"/><path data-cppathid="10018" d="M210.06,409s1.77,2.63,4.37,13.1-7,30.56-7,30.56" class="cls-3"/><path data-cppathid="10019" d="M29.87,417.79c78,12,181.59-13.62,208.63-21-5.95-14.07-10.79-25.35-11.63-27.39a28.72,28.72,0,0,0-11-12.51C185.38,364.3,109,380,40.34,371.23c-3.19,5.26-5.41,12.51-7,25.81C32.62,403.43,31.34,410.64,29.87,417.79Z" class="cls-6"/><path data-cppathid="10020" d="M147.18,208S170,254.27,172.5,266.07s-6.91,31.66-13.55,42.62-21,9.64-34.41,4.57-32-25.27-32-25.27-4.13.91-11.8-2.45S69,276.27,70.65,264.47s12.66-.86,12.66-.86l-1.7-16L143.07,208Z" class="cls-5"/><path data-cppathid="10021" d="M137.52,271.47c5.77.47,12-5.33,12-8.21s-6.76-6.73-9.64-9.63a13.24,13.24,0,0,1-2.9-8.19" class="cls-3"/><path data-cppathid="10022" d="M147.64,284.08a16.52,16.52,0,0,0-19.29-.49" class="cls-3"/><path data-cppathid="10023" d="M138.47,227.6a12.28,12.28,0,0,1,13.5,3.85" class="cls-3"/><path data-cppathid="10024" d="M108.5,252.38c2.87-12.54,16.37-13,16.37-13" class="cls-3"/><path data-cppathid="10025" d="M220.73,450c-11.56,1.84-135,5.31-139.78,6.76S53.47,478,52.51,481.36s0,17.33,0,21.68,6.27,13.5,6.27,13.5-1.4,9.58,2.46,8.67,4.84-19.24,5.31-22.12,9.14-9.64,12.53-13a159.64,159.64,0,0,0,11.09-14.95s138.84,28,157.62,22.66,19.64-26.49,14.92-35.66-19.66-14.95-19.66-14.95C239.21,446.67,232.28,448.17,220.73,450Z" class="cls-5"/><rect data-cppathid="10026" transform="translate(-145.96 101.36) rotate(-33.61)" rx="5.68" height="65.12" width="29.08" y="259.76" x="80.28" class="cls-7"/><path data-cppathid="10027" d="M79.35,317.05a45.11,45.11,0,0,0-.86-14.33,12,12,0,0,0-9.56-9.12c-2.16,0-2.14,2.63.89,8.26s6.07,13.45,6.07,13.45Z" class="cls-8"/><path data-cppathid="10028" d="M19.37,452c-5.65,13-9.12,24.29,1.31,35.6s33.87,3.91,37.34-.86S119.67,358.64,121,356s3.49-9.56,3-10.87-10-40.39-10-40.39L118.93,294a2,2,0,0,0-1-2.68h0a2.07,2.07,0,0,0-2.68.79l-7.37,12.29v10.42l-6.07-5.21,3.22-29.5a2.65,2.65,0,0,0-1.95-2.85h0a2.66,2.66,0,0,0-3.24,1.9L92.73,306.5l1.59-31.95a1.85,1.85,0,0,0,0-.23,2.45,2.45,0,0,0-2.46-2.45h0a2.45,2.45,0,0,0-2.46,2.06l-5.68,28.76-1.94-22.83a2.57,2.57,0,0,0-.06-.4,2.45,2.45,0,0,0-2.92-1.89h0A2.47,2.47,0,0,0,76.72,280c-.37,8-1.23,36.16-.37,38.32S102,345.27,102,345.27,25,439,19.37,452Z" class="cls-9"/><ellipse data-cppathid="10029" ry="4.33" rx="2.6" cy="253.62" cx="119.81" class="cls-10"/><ellipse data-cppathid="10030" ry="4.33" rx="2.6" cy="248.42" cx="151.01" class="cls-10"/></g><polygon data-cppathid="10031" points="305.75 684.04 328.39 647.84 328.39 0 305.75 42.55 305.75 684.04"/><g id="freepik--character-1--inject-25"><path data-cppathid="10032" d="M439.14,437.36S426.65,454.55,417,462.12s-11.68,13.76-21.31,0-42-100.42-42-100.42-28.19-32.35-35.08-41.27-11.65-22-8.23-24.76S350.3,323.87,351,321.8a23.45,23.45,0,0,0-.69-11.67c-1.37-4.13-1.37-12.39,1.38-14.46s4.13,3.44,5.5,8.26,5.51,17.87,7.58,24.07S371,359,371,359l30.46,41.49,1.87,2.46Z" class="cls-5"/><path data-cppathid="10033" d="M333.81,338.94s-8.95-11-11-17.21-3.44-19.94-4.13-26.13,2.07-4.13,2.07-4.13L329.68,319s13.05,8.14,16.49,11,6.88,15.14,6.88,15.14" class="cls-5"/><polygon data-cppathid="10034" points="452.1 403.59 440.4 442.8 399.83 401.52 452.79 297.66 452.1 403.59" class="cls-6"/><polygon data-cppathid="10035" points="407.14 387.22 399.83 401.52 440.4 442.8 445.26 426.52 407.14 387.22" class="cls-11"/><path data-cppathid="10036" d="M538.92,291.93c-6.24-.68-84.76.69-86,5.51s-12.29,129.3-12.29,129.3L420,552.61s21.31,6.22,65.34,16.52,97,2.75,97,2.75S585,516.91,585,508s28.88-97,28.88-97,12.39,50.1,25.45,55a23.49,23.49,0,0,0,29.49-12.29c4-9.61-20.74-112.17-22.12-116.22s-94.22-44.65-94.22-44.65S545.17,292.62,538.92,291.93Z" class="cls-6"/><path data-cppathid="10037" d="M639.24,466.2a23.5,23.5,0,0,0,29.5-12.29c1.53-3.52-.86-19.57-4.55-38.67-7-4.23-17.18-8.09-24.85-1.28a64,64,0,0,0-16.4,26.77C627.39,452.53,633.27,464,639.24,466.2Z" class="cls-11"/><path data-cppathid="10038" d="M600.16,453.61,441,420.18c-.37,4.45-.61,6.91-.61,6.91l-1.26,7.77,156.62,32.91C597.21,462.86,598.68,458.19,600.16,453.61Z" class="cls-10"/><path data-cppathid="10039" d="M485.11,569.4c44,10.3,97,2.75,97,2.75s2.75-55,2.75-63.92A110.61,110.61,0,0,1,589,490.54l-153.77-32-15.46,94.25S441.08,559.1,485.11,569.4Z" class="cls-11"/><path data-cppathid="10040" d="M496.57,292.7a72.71,72.71,0,0,0-2.85,9.83c-1.53,7.13,15.68,89.9,15.68,89.9l80.38-83c-19.86-9-37.26-16.6-37.26-16.6s-7.58,0-13.77-.68C535.8,291.84,516.31,292,496.57,292.7Z" class="cls-11"/><path data-cppathid="10041" d="M578.65,261.89s-11,40.61-15.81,52.29-44.71,52.26-44.71,52.26-13.77-48.13-11.71-55,6.2-42.65,6.2-42.65C543.57,279.79,578.65,261.89,578.65,261.89Z" class="cls-5"/><path data-cppathid="10042" d="M512.59,268.78s-.71,6.17-1.69,13.86A19.43,19.43,0,0,0,525.06,293a70.46,70.46,0,0,0,41.79-7.65c2.46-1.23,4.47-2.28,6.14-3.22,3.2-10.94,5.66-20.21,5.66-20.21S543.57,279.79,512.59,268.78Z" class="cls-4"/><path data-cppathid="10043" d="M559.55,166.64c11.16,0,34.81,6.24,45.94,23.65s-6.27,24.36-6.27,24.36,8.39,1.4,11.85,14.62-9,28.49-15.31,33.41S579,267.6,579,267.6s-1.38,2.09-13.91,8.36a70.79,70.79,0,0,1-41.79,7.67c-15.61-2.17-18.81-22.3-23.68-34.12s6.25-32,13.23-41.08,17.4-29.92,17.4-29.92S548.39,166.64,559.55,166.64Z" class="cls-5"/><path data-cppathid="10044" d="M528.82,231.72c-4.18.69-9.15-1.38-11.14-7.64s4.92-4.18,9.84-7.67a20.14,20.14,0,0,0,6.26-6.27" class="cls-3"/><path data-cppathid="10045" d="M552.57,242.17a24.88,24.88,0,0,1-13.23,4.18c-9.05.69-22.27-7-22.27-7" class="cls-3"/><path data-cppathid="10046" d="M557.67,218.71c1.57.95,1.55,3.68,0,6.09s-3.91,3.59-5.48,2.66-1.53-3.62,0-6.07S556.09,217.75,557.67,218.71Z" class="cls-10"/><path data-cppathid="10047" d="M528.51,206.48c1.57.93,1.55,3.63,0,6.07s-3.91,3.61-5.48,2.68-1.52-3.64,0-6.1S526.94,205.54,528.51,206.48Z" class="cls-10"/><path data-cppathid="10048" d="M545.67,209.75c.31,6.18,15.92,4.35,15.92,4.35" class="cls-3"/><path data-cppathid="10049" d="M527.22,195.09c6.47-3.22,6.32,9.46,6.32,9.46" class="cls-3"/><path data-cppathid="10050" d="M580.25,214c-2.78,6.27,1.37,13.22.68,15.31s-4.2,4.16-7.64,7.65,2.83,9,4.91,9,13.89-4.84,20.88-4.15,3.49,13.91,3.49,13.91,23-14.62,31.31-32.72-2.9-23-7.64-38.27S582.51,143,562.32,138.84s-22.27,13.22-22.27,13.22H531.7c-5.59,0-23.68,4.84-19.5,16.69s43.17,10.45,43.17,10.45-10.47,5.56-7,13.22,48.74,7.67,48.74,7.67S583,207.74,580.25,214Z" class="cls-4"/><rect data-cppathid="10051" transform="translate(45.38 603.45) rotate(-56.39)" rx="5.68" height="30.73" width="68.78" y="244.04" x="551.13" class="cls-7"/><path data-cppathid="10052" d="M601.9,285.52a48.72,48.72,0,0,1,.91-15.14,12.68,12.68,0,0,1,10-9.62c2.28,0,2.26,2.73-.94,8.71s-6.41,14.2-6.41,14.2Z" class="cls-9"/><path data-cppathid="10053" d="M664.86,428c6,13.74,9.54,25.67-1.38,37.59s-35.79,4.13-39.33-.91-65-135.25-66.37-138-3.64-10.1-3.2-11.48,10.55-42.62,10.55-42.62L560,261.18a2.2,2.2,0,0,1,1-2.83h0a2.15,2.15,0,0,1,2.83.84l7.69,12.93v11l6.42-5.5-3.42-31.1a2.81,2.81,0,0,1,2-2.73h0l.07,0a2.78,2.78,0,0,1,3.37,2l7.55,28.89-1.7-33.85v-.1a2.7,2.7,0,0,1,2.68-2.73h0a2.69,2.69,0,0,1,2.66,2.16l6,30.39,2.07-24.09a1.07,1.07,0,0,1,0-.25,2.7,2.7,0,0,1,3.11-2.21h0a2.73,2.73,0,0,1,2.22,2.46c.27,8.53,1.3,38.2.39,40.48s-27,28.42-27,28.42S658.86,414.28,664.86,428Z" class="cls-9"/></g></g></g></svg>