<?xml version="1.0" encoding="UTF-8"?>
<svg xmlns="http://www.w3.org/2000/svg" onmouseup="{ if(window.parent.document.onmouseup) window.parent.document.onmouseup(arguments[0]);}" viewBox="0 0 623.21 690.09" xmlns:xlink="http://www.w3.org/1999/xlink"><defs><style>.cls-1,.cls-15{fill:none;}.cls-2{fill:#ebebeb;}.cls-3{fill:#e0e0e0;}.cls-4{fill:#f5f5f5;}.cls-5{fill:#fafafa;}.cls-13,.cls-14,.cls-6{fill:#263238;}.cls-7{fill:#455a64;}.cls-8{fill:#ff725e;}.cls-9{opacity:0.3;}.cls-10{clip-path:url(#clip-path);}.cls-11,.cls-17{fill:#ddb98c;}.cls-11,.cls-12,.cls-13,.cls-14,.cls-15,.cls-16,.cls-17{stroke:#263238;}.cls-11,.cls-12,.cls-14,.cls-15{stroke-linecap:round;stroke-linejoin:round;}.cls-12,.cls-16{fill:#c53f3f;}.cls-13,.cls-17{stroke-miterlimit:10;}.cls-16{stroke-miterlimit:10;}</style><clipPath id="clip-path"><rect data-cppathid="10000" height="548" width="573" y="93.5" x="19.21" class="cls-1"/></clipPath></defs><g data-name="Layer 2" id="Layer_2"><g data-name="Layer 1" id="Layer_1-2"><g id="freepik--background-complete--inject-33"><path data-cppathid="10001" d="M573.91,465.07c9.38-4.84,20.44-5.47,30.9-3.75,5.62.93,11.44,2.6,15.25,6.8s4.53,11.61.15,15.23c-2.6,2.15-6.22,2.47-9.61,2.43-8.16-.1-17.21-1.53-23.73,3.39-3.72,2.81-6.19,7.44-10.63,8.82s-9.26-1.21-11.56-5.14a18,18,0,0,1-1.31-13.26A20.22,20.22,0,0,1,573.91,465.07Z" class="cls-2"/><path data-cppathid="10002" d="M552.4,423.56c5.74,8.19,16.86,5.48,22.07.48s7.36-12.27,9.35-19.18c4.54-15.8,9.14-32.38,5.75-48.46a26.92,26.92,0,0,0-6.19-13.18c-3.38-3.57-8.57-5.69-13.34-4.44-5.62,1.49-9.11,7-11.64,12.24A115.45,115.45,0,0,0,547,400.59c0,8,.91,16.37,5.41,23" class="cls-2"/><path data-cppathid="10003" d="M536.64,435.33c6.23-7.4,7.41-18.19,4.65-27.45s-9-17.15-16.27-23.58a87.36,87.36,0,0,0-29.11-17.19,31.16,31.16,0,0,0-13.09-2.21c-4.44.42-8.92,2.69-11,6.64-3.06,5.84-.13,12.94,3.05,18.71A222.67,222.67,0,0,0,494,419.37c5.73,7.39,12.31,14.69,21.07,18s17.82,2.94,22.48-3.12" class="cls-2"/><path data-cppathid="10004" d="M552,547.22a18.72,18.72,0,0,0,.52-3.73c.25-2.71.59-6.11,1-10.17a146.84,146.84,0,0,1,2.29-14.9,114.15,114.15,0,0,1,5.43-17.61,64.5,64.5,0,0,1,9-15.91,33.64,33.64,0,0,1,11.37-9.46,32.41,32.41,0,0,1,9.56-3,16.52,16.52,0,0,0,3.71-.53,16.88,16.88,0,0,0-3.76,0,28.89,28.89,0,0,0-10,2.6,33.5,33.5,0,0,0-12,9.52,63.84,63.84,0,0,0-9.32,16.24,109.44,109.44,0,0,0-5.38,17.9,127.94,127.94,0,0,0-2,15.09c-.32,4.33-.45,7.81-.5,10.24A15.8,15.8,0,0,0,552,547.22Z" class="cls-3"/><path data-cppathid="10005" d="M552.72,539.39a7.7,7.7,0,0,0,.1-1.73v-4.93c0-4.3,0-10.51.21-18.16.38-15.34,1.7-31.84,4.22-55.1,2.41-21.87,5.61-47.33,9.07-63.88.73-3.76,1.48-7.15,2.16-10.11s1.24-5.54,1.79-7.62.84-3.54,1.15-4.8a7.14,7.14,0,0,0,.3-1.7,7.06,7.06,0,0,0-.59,1.61l-1.41,4.74c-.63,2.06-1.28,4.61-2,7.57s-1.6,6.32-2.4,10.09a556.94,556.94,0,0,0-9.54,59.27c-2.56,23.3-3.71,44.53-3.81,59.9-.09,7.68.07,13.91.27,18.26.12,2,.22,3.64.31,4.93A6.61,6.61,0,0,0,552.72,539.39Z" class="cls-3"/><path data-cppathid="10006" d="M552.82,498.45a31.63,31.63,0,0,0,0-5.15c-.18-3.32-.65-8.12-1.57-14.05a189.33,189.33,0,0,0-4.55-20.39,168.23,168.23,0,0,0-8.53-24.1c-7-16.78-16.68-30.49-25-39a63.47,63.47,0,0,0-5.9-5.46c-.9-.77-1.7-1.53-2.52-2.14l-2.27-1.57a33.37,33.37,0,0,0-4.36-2.81c-.24.34,6.17,4.1,14.26,12.71a135.37,135.37,0,0,1,24.4,38.83,193.09,193.09,0,0,1,8.57,23.89,205.22,205.22,0,0,1,4.85,20.17c1.12,5.8,1.67,10.56,2.05,13.85A31.37,31.37,0,0,0,552.82,498.45Z" class="cls-3"/><polygon data-cppathid="10007" points="513.25 570.68 517.35 626.87 589.54 626.87 593.64 570.68 513.25 570.68" class="cls-3"/><rect data-cppathid="10008" height="22.15" width="95.99" y="548.52" x="506.28" class="cls-3"/><polygon data-cppathid="10009" points="506.28 624.72 506.28 630.86 510.79 630.86 600.68 630.86 600.68 624.72 506.28 624.72" class="cls-2"/><polygon data-cppathid="10010" points="515.21 641.66 510.79 630.86 597.24 630.86 592.09 641.66 515.21 641.66" class="cls-3"/><path data-cppathid="10011" d="M592.31,589a2.45,2.45,0,0,1-.34.52l-1.08,1.4-4.21,5.38-.19.24-.18-.25c-2.65-3.65-6.18-8.54-10.34-14.29h.59c-3.06,4.36-6.49,9.2-10.17,14.4l-.31.45-.36-.42-12.07-14.36h.7l-.66.83L542.9,596.47l-.36.45-.33-.48-10.13-14.37h.59l-12.53,14.29-.22.25-.17-.28-3.92-6.6-1-1.76a2.77,2.77,0,0,1-.31-.62,3.8,3.8,0,0,1,.42.55l1.11,1.7,4.13,6.46h-.39l12.3-14.45.31-.37.28.39L542.94,596h-.68L553,582.44l.66-.83.33-.44.37.42,12,14.39h-.67L576,581.65l.31-.42.29.42,10.1,14.44h-.36l4.38-5.24,1.17-1.4A2,2,0,0,1,592.31,589Z" class="cls-4"/><path data-cppathid="10012" d="M594.66,570.3c0,.25-18.1.45-40.41.45s-40.4-.2-40.4-.45,18.09-.45,40.4-.45S594.66,570.06,594.66,570.3Z" class="cls-4"/><path data-cppathid="10013" d="M598.31,631.46c0,.26-19.67.45-43.92.45s-43.9-.19-43.9-.45,19.67-.45,43.9-.45S598.31,631.21,598.31,631.46Z" class="cls-4"/><rect data-cppathid="10014" height="182.49" width="175.07" y="54.1" x="443.89" class="cls-3"/><rect data-cppathid="10015" height="182.49" width="175.07" y="54.1" x="432.03" class="cls-5"/><path data-cppathid="10016" d="M607.16,236.65H432V54H607.16Zm-175.07-.12h175V54.16h-175Z" class="cls-3"/><rect data-cppathid="10017" height="133.43" width="128" y="78.63" x="455.58" class="cls-5"/><path data-cppathid="10018" d="M455.58,213a20.84,20.84,0,0,1-3.16,3.66c-2.06,2.17-4.92,5.09-8.14,8.26s-6.18,6-8.43,8a20.24,20.24,0,0,1-3.69,3.09,20,20,0,0,1,3.14-3.67c2-2.15,4.92-5.07,8.15-8.26s6.2-6,8.43-8A19.37,19.37,0,0,1,455.58,213Z" class="cls-3"/><path data-cppathid="10019" d="M583.57,212.62a20.55,20.55,0,0,1,3.67,3.16c2.16,2,5.08,4.92,8.26,8.14s6,6.18,8,8.43a19.85,19.85,0,0,1,3.09,3.69,19.87,19.87,0,0,1-3.66-3.13c-2.15-2-5.07-4.93-8.26-8.16s-6-6.2-8-8.43A20.48,20.48,0,0,1,583.57,212.62Z" class="cls-3"/><path data-cppathid="10020" d="M583.22,79a21.27,21.27,0,0,1,3.16-3.67c2-2.16,4.92-5.07,8.14-8.24s6.18-6,8.35-8a20.13,20.13,0,0,1,3.67-3,19.92,19.92,0,0,1-3.15,3.65c-2,2.16-4.91,5.08-8.14,8.26s-6.2,6-8.43,8A19.3,19.3,0,0,1,583.22,79Z" class="cls-3"/><path data-cppathid="10021" d="M455.23,79.32a21.4,21.4,0,0,1-3.69-3.16c-2.14-2-5.07-4.92-8.24-8.14s-6-6.18-8-8.43A20.52,20.52,0,0,1,432.21,56a19.6,19.6,0,0,1,3.66,3.14c2.16,2,5.08,4.92,8.27,8.15s6,6.2,8,8.43A21,21,0,0,1,455.23,79.32Z" class="cls-3"/><path data-cppathid="10022" d="M583.22,212.06c0-.21,0-.43,0-.64v-9.08c0-6.31-.07-15.45-.13-27.18,0-23.38-.15-56.66-.25-96.53l.49.49H455.7l.57-.56c0,49,0,94.78-.09,133.46l-.48-.49,92.43.25,26,.13h.2l-25.85.12-92.72.26h-.49v-.49c0-38.65,0-84.46-.09-133.47v-.56H583.85v.49c-.1,40-.18,73.39-.25,96.84,0,11.63-.1,20.79-.13,27.09v8.92A4,4,0,0,1,583.22,212.06Z" class="cls-3"/><rect data-cppathid="10023" height="42.71" width="42.71" y="123.99" x="498.21" class="cls-2"/><rect data-cppathid="10024" height="10.45" width="329.93" y="215.53" class="cls-3"/><rect data-cppathid="10025" height="33.08" width="16.7" y="220.76" x="55.72" class="cls-3"/><rect data-cppathid="10026" height="38.31" width="16.7" y="215.53" x="253.8" class="cls-3"/><polygon data-cppathid="10027" points="48.14 145.35 58.95 216.33 121.7 216.33 136.27 146.37 48.14 145.35" class="cls-2"/><path data-cppathid="10028" d="M127.49,190.89c0,.21-16.09.37-35.91.37s-35.92-.16-35.92-.37,16.09-.36,35.92-.36S127.49,190.64,127.49,190.89Z" class="cls-5"/><path data-cppathid="10029" d="M127.73,187.35c0,.2-16.19.37-36.15.37s-36.16-.17-36.16-.37S71.6,187,91.58,187,127.73,187.14,127.73,187.35Z" class="cls-5"/><path data-cppathid="10030" d="M127.62,183.4c0,.21-16.2.37-36.16.37s-36.17-.16-36.17-.37S71.48,183,91.46,183,127.62,183.21,127.62,183.4Z" class="cls-5"/><path data-cppathid="10031" d="M66.15,212.27a57.86,57.86,0,0,1-1.88-8.93,59,59,0,0,1-1.19-9.06A59.17,59.17,0,0,1,65,203.21,57.71,57.71,0,0,1,66.15,212.27Z" class="cls-5"/><path data-cppathid="10032" d="M70.42,211.53a68.88,68.88,0,0,1-.77-8.73,75.07,75.07,0,0,1-.42-8.75,40.54,40.54,0,0,1,1.15,8.7A41.56,41.56,0,0,1,70.42,211.53Z" class="cls-5"/><path data-cppathid="10033" d="M78.21,211.51a43,43,0,0,1-1.63-8.93,43.1,43.1,0,0,1-.48-9.08,82.76,82.76,0,0,1,1.21,9A79.91,79.91,0,0,1,78.21,211.51Z" class="cls-5"/><path data-cppathid="10034" d="M83.67,212a44.67,44.67,0,0,1-.87-9.09,43.36,43.36,0,0,1,.28-9.11,81.31,81.31,0,0,1,.45,9.1A83.74,83.74,0,0,1,83.67,212Z" class="cls-5"/><path data-cppathid="10035" d="M93.34,211.53a49.88,49.88,0,0,1-.66-8.63,50,50,0,0,1,0-8.65,49.84,49.84,0,0,1,.66,8.62A52.17,52.17,0,0,1,93.34,211.53Z" class="cls-5"/><path data-cppathid="10036" d="M100.4,212a53.16,53.16,0,0,1-.3-8.92,52,52,0,0,1,.44-8.9,55.36,55.36,0,0,1,.3,8.92A55.19,55.19,0,0,1,100.4,212Z" class="cls-5"/><path data-cppathid="10037" d="M107,211a59.39,59.39,0,0,1,.53-9.33,59.87,59.87,0,0,1,1.27-9.24,56.83,56.83,0,0,1-.53,9.31A60.13,60.13,0,0,1,107,211Z" class="cls-5"/><path data-cppathid="10038" d="M115.56,210a30.81,30.81,0,0,1,1.06-7.94,30.84,30.84,0,0,1,2.33-7.64,74.64,74.64,0,0,1-1.62,7.81A74,74,0,0,1,115.56,210Z" class="cls-5"/><path data-cppathid="10039" d="M109.51,5.28a2,2,0,0,1,0,.35c-.09.27-.17.59-.3,1L108,10.47c-.54,1.65-1.18,3.69-1.84,6.07s-1.52,5.07-2.26,8.09-1.66,6.31-2.45,9.83S99.8,42,99,46c-1.51,8.1-2.88,17.1-3.81,26.48s-1.41,18.51-1.41,26.7c0,4.11,0,8,.12,11.68s.25,7,.43,10.18.44,5.91.62,8.43.41,4.59.6,6.32.33,3,.42,4a3.56,3.56,0,0,0,.09,1c.08.28,0,.36,0,.36a2,2,0,0,1-.09-.35,7.29,7.29,0,0,0-.16-1c-.13-1-.31-2.3-.55-4s-.51-3.84-.73-6.31-.56-5.27-.73-8.43-.44-6.52-.54-10.19-.15-7.58-.18-11.7c.09-8.26.49-17.32,1.41-26.8s2.36-18.45,3.9-26.54c.84-4,1.6-7.9,2.5-11.45s1.7-6.87,2.53-9.83,1.66-5.71,2.37-8.08,1.41-4.4,2-6l1.32-3.8c.16-.39.27-.71.37-1S109.51,5.28,109.51,5.28Z" class="cls-2"/><path data-cppathid="10040" d="M98.18,49.24A23.45,23.45,0,0,1,108,36.91c1.54-1,3.51-1.75,5.15-.95,2.2,1.06,2.36,4.22,1.72,6.48a17.1,17.1,0,0,1-7.11,9.68,14.52,14.52,0,0,1-10.65,2.7" class="cls-2"/><path data-cppathid="10041" d="M94.38,78.91C96,72.79,100.88,64.08,106,60.28a7.9,7.9,0,0,1,2.64-1.4,3,3,0,0,1,2.81.62,4.24,4.24,0,0,1,.64,4.06A24.71,24.71,0,0,1,93.77,82" class="cls-2"/><path data-cppathid="10042" d="M93.32,105A35.83,35.83,0,0,1,105,90.35a5.54,5.54,0,0,1,4.08-1.41c2.22.41,3.23,3.12,3,5.35-.41,4.63-3.93,8.33-7.59,11.24a46.23,46.23,0,0,1-10.8,5.62" class="cls-2"/><path data-cppathid="10043" d="M93.91,123.82a34.66,34.66,0,0,1,10-11.32,7.18,7.18,0,0,1,3-1.4,3,3,0,0,1,2.93,1.11c1,1.4,0,3.44-1,4.86a28.35,28.35,0,0,1-14.19,10.39" class="cls-2"/><path data-cppathid="10044" d="M93.42,116.2a109.93,109.93,0,0,0-14.21-14.49,3.23,3.23,0,0,0-2.81-1.08,2.13,2.13,0,0,0-1.31,1.91,5.56,5.56,0,0,0,.55,2.37A27.53,27.53,0,0,0,93.9,120.37" class="cls-2"/><path data-cppathid="10045" d="M93.87,91.75,82.7,78.14a12.9,12.9,0,0,0-3.62-3.44,4,4,0,0,0-6.3,4.44A12.06,12.06,0,0,0,75,83.6a33.42,33.42,0,0,0,8.15,8.66c3.27,2.24,6.25,3.72,10.2,3.14" class="cls-2"/><path data-cppathid="10046" d="M95.43,64.23A39.07,39.07,0,0,0,84.19,47.37a6.58,6.58,0,0,0-2.93-1.7c-2.24-.43-4.4,1.41-5.12,3.6a9.23,9.23,0,0,0,1,7.39,19.71,19.71,0,0,0,5.26,5.62A45.12,45.12,0,0,0,94.83,69" class="cls-2"/><path data-cppathid="10047" d="M99.9,39.7c-1.08-7.89-5.2-14.45-10-20.85-1-1.4-2.4-2.81-4.06-2.52a3.23,3.23,0,0,0-2.33,2,7.36,7.36,0,0,0-.45,3.15A24.41,24.41,0,0,0,98.93,43.27" class="cls-2"/><path data-cppathid="10048" d="M103,27.17A64.52,64.52,0,0,1,102.61,15a21.93,21.93,0,0,1,4-11.38A9.32,9.32,0,0,1,110.72.37a5.08,5.08,0,0,1,5,.66,5.4,5.4,0,0,1,1.71,4.42,14.14,14.14,0,0,1-1.26,4.68c-3,7.15-7.94,15.09-13.12,17.08" class="cls-2"/><path data-cppathid="10049" d="M54.35,36.58a4.18,4.18,0,0,1,0,1v7.35c0,1.73,0,3.76.21,6,.2,4.44.64,9.72,1.31,15.55S57.58,78.69,59,85.32,62,98.2,63.71,103.83s3.46,10.62,5.06,14.77c.76,2.08,1.54,3.93,2.2,5.62s1.25,3,1.76,4.21l1.12,2.64a5.63,5.63,0,0,1,.35.94,5.37,5.37,0,0,1-.49-.88c-.31-.66-.73-1.52-1.23-2.59s-1.2-2.5-1.89-4.13-1.51-3.47-2.31-5.62c-1.68-4.13-3.46-9.13-5.23-14.75s-3.23-11.85-4.64-18.51-2.36-13.07-3-18.93-1-11.15-1.15-15.6c-.11-2.24-.08-4.22-.1-6s0-3.28,0-4.53a21.37,21.37,0,0,1,.1-2.81C54.24,37.28,54.29,36.93,54.35,36.58Z" class="cls-3"/><path data-cppathid="10050" d="M56.11,69a16.61,16.61,0,0,1,4-10.49,4,4,0,0,1,3.31-1.76c1.72.25,2.5,2.3,2.56,4a12.32,12.32,0,0,1-2.81,8.12A10.36,10.36,0,0,1,56.45,73" class="cls-3"/><path data-cppathid="10051" d="M59.9,90c-.21-4.51,1.24-11.49,3.88-15.18a5.23,5.23,0,0,1,1.49-1.51,2.17,2.17,0,0,1,2-.2,3.14,3.14,0,0,1,1.31,2.61A17.62,17.62,0,0,1,60.2,92.17" class="cls-3"/><path data-cppathid="10052" d="M64.81,108A25.62,25.62,0,0,1,69.6,95.47a4,4,0,0,1,2.47-1.86c1.59-.2,2.81,1.4,3.22,3,.71,3.24-.9,6.52-2.81,9.26A34.32,34.32,0,0,1,66.31,112" class="cls-3"/><path data-cppathid="10053" d="M69.26,120.65a24.6,24.6,0,0,1,4.33-9.84,5.18,5.18,0,0,1,1.74-1.55,2.18,2.18,0,0,1,2.23.12c1,.79.77,2.33.35,3.53a20.25,20.25,0,0,1-7.41,10.14" class="cls-3"/><path data-cppathid="10054" d="M67.28,115.55a80,80,0,0,0-12.84-6.8,2.35,2.35,0,0,0-2.17-.11,1.48,1.48,0,0,0-.47,1.57,3.68,3.68,0,0,0,.88,1.5,19.7,19.7,0,0,0,15.81,6.55" class="cls-3"/><path data-cppathid="10055" d="M62.32,98.82,51.78,92a9.35,9.35,0,0,0-3.2-1.56,3.31,3.31,0,0,0-3.26,1,3.25,3.25,0,0,0,0,3.4,8.55,8.55,0,0,0,2.44,2.57,23.94,23.94,0,0,0,7.41,4.22c2.72.83,5.07,1.18,7.63,0" class="cls-3"/><path data-cppathid="10056" d="M57.46,79.75a27.79,27.79,0,0,0-11.24-9.07,4.84,4.84,0,0,0-2.36-.54,3.53,3.53,0,0,0-2.71,3.56,6.51,6.51,0,0,0,2.23,4.8,14.14,14.14,0,0,0,4.78,2.66A32.37,32.37,0,0,0,58,83" class="cls-3"/><path data-cppathid="10057" d="M55.21,62.08C52.78,56.94,48.57,53.36,44,50a3.5,3.5,0,0,0-3.31-.85,2.33,2.33,0,0,0-1.16,1.87,5.56,5.56,0,0,0,.38,2.25A17.42,17.42,0,0,0,55.34,64.72" class="cls-3"/><path data-cppathid="10058" d="M54.65,52.88a45.89,45.89,0,0,1-2.91-8.22,15.57,15.57,0,0,1,.31-8.61A6.89,6.89,0,0,1,54.11,33a3.71,3.71,0,0,1,3.54-.62,3.87,3.87,0,0,1,2.1,2.6,9.83,9.83,0,0,1,.15,3.46c-.48,5.52-2.16,12-5.25,14.46" class="cls-3"/><path data-cppathid="10059" d="M133.7,35.89a4.82,4.82,0,0,1,.08,1,25.27,25.27,0,0,0,.12,2.81,35.84,35.84,0,0,1,0,4.54c-.09,1.73,0,3.78-.12,6-.12,4.46-.5,9.75-1.15,15.61s-1.66,12.26-3,18.92-3.11,12.93-4.82,18.56-3.56,10.62-5.23,14.75c-.78,2.08-1.63,3.92-2.32,5.62s-1.33,3-1.86,4.13-1,1.93-1.25,2.59a7.5,7.5,0,0,1-.48.88,5.24,5.24,0,0,1,.33-.94c.3-.67.67-1.56,1.13-2.64s1.11-2.53,1.75-4.22,1.41-3.49,2.21-5.61c1.62-4.22,3.34-9.16,5.07-14.77s3.36-11.81,4.76-18.45,2.38-13,3.1-18.85,1.1-11.11,1.3-15.55c.14-2.22.16-4.21.21-6s0-3.29,0-4.54V37A5.5,5.5,0,0,1,133.7,35.89Z" class="cls-2"/><path data-cppathid="10060" d="M131.94,68.26a16.51,16.51,0,0,0-4-10.49A4,4,0,0,0,124.68,56c-1.73.25-2.5,2.3-2.57,4a12.25,12.25,0,0,0,2.81,8.12,10.33,10.33,0,0,0,6.69,4.12" class="cls-2"/><path data-cppathid="10061" d="M128.15,89.28c.22-4.51-1.24-11.49-3.88-15.17a5,5,0,0,0-1.49-1.52,2.17,2.17,0,0,0-2-.2A3.07,3.07,0,0,0,119.44,75a17.62,17.62,0,0,0,8.43,16.48" class="cls-2"/><path data-cppathid="10062" d="M123.28,107.3a25.69,25.69,0,0,0-4.8-12.53A4,4,0,0,0,116,92.9c-1.59-.19-2.81,1.41-3.2,3-.72,3.24.88,6.51,2.81,9.25a33.36,33.36,0,0,0,6.17,6.11" class="cls-2"/><path data-cppathid="10063" d="M118.81,120a24.66,24.66,0,0,0-4.34-9.83,5,5,0,0,0-1.75-1.56,2.2,2.2,0,0,0-2.23.12c-1,.79-.77,2.34-.35,3.53a20.21,20.21,0,0,0,7.42,10.14" class="cls-2"/><path data-cppathid="10064" d="M120.77,114.86a79.89,79.89,0,0,1,12.8-6.85,2.32,2.32,0,0,1,2.17-.12,1.49,1.49,0,0,1,.47,1.58,3.75,3.75,0,0,1-.88,1.5,19.7,19.7,0,0,1-15.78,6.55" class="cls-2"/><path data-cppathid="10065" d="M125.73,98.17l10.54-6.87a9.82,9.82,0,0,1,3.2-1.56,3.3,3.3,0,0,1,3.26,1,3.25,3.25,0,0,1,.07,3.4,8.66,8.66,0,0,1-2.44,2.57,23.8,23.8,0,0,1-7.41,4.21c-2.71.83-5,1.18-7.61,0" class="cls-2"/><path data-cppathid="10066" d="M130.59,79.07A28,28,0,0,1,141.83,70a4.91,4.91,0,0,1,2.38-.53A3.52,3.52,0,0,1,146.92,73a6.58,6.58,0,0,1-2.29,4.82,14.12,14.12,0,0,1-4.76,2.65A32.09,32.09,0,0,1,130,82.37" class="cls-2"/><path data-cppathid="10067" d="M132.84,61.39c2.43-5.14,6.65-8.72,11.24-12a3.46,3.46,0,0,1,3.3-.84,2.33,2.33,0,0,1,1.18,1.91,5.54,5.54,0,0,1-.38,2.24,17.42,17.42,0,0,1-15.45,11.43" class="cls-2"/><path data-cppathid="10068" d="M133.4,52.19A45.89,45.89,0,0,0,136.31,44a15.57,15.57,0,0,0-.31-8.61,6.81,6.81,0,0,0-2.06-3.08,3.69,3.69,0,0,0-3.53-.61,3.86,3.86,0,0,0-2.11,2.61,10,10,0,0,0-.15,3.46c.49,5.52,2.16,12,5.25,14.45" class="cls-2"/><path data-cppathid="10069" d="M41,131.3v13.23a5.23,5.23,0,0,0,5.23,5.23H137a5.23,5.23,0,0,0,5.23-5.23h0V131.26Z" class="cls-2"/><polygon data-cppathid="10070" points="48.82 149.8 49.58 154.03 133.43 160 135.55 149.8 48.82 149.8" class="cls-3"/><path data-cppathid="10071" d="M183.25,121.83s-15.08,11.46-.63,26.69a1.21,1.21,0,0,0,.95.39l131.61-.75s11.24-12.65,1.91-27.13Z" class="cls-2"/><path data-cppathid="10072" d="M286.08,133.8c0,.15-16.38.27-36.52.27S213,134,213,133.8s16.38-.27,36.6-.27S286.08,133.66,286.08,133.8Z" class="cls-3"/><path data-cppathid="10073" d="M265.61,138.56c0,.16-7.69.27-17.21.27s-17.2-.11-17.2-.27,7.71-.27,17.2-.27S265.61,138.42,265.61,138.56Z" class="cls-3"/><path data-cppathid="10074" d="M299.54,147.68c-.08,0,.3-1.52.7-4a54.5,54.5,0,0,0-.18-19.19c-.46-2.43-.86-3.92-.77-3.93a5.12,5.12,0,0,1,.38,1c.22.66.47,1.63.76,2.81a46.52,46.52,0,0,1,.18,19.34,26.34,26.34,0,0,1-.7,2.81A4,4,0,0,1,299.54,147.68Z" class="cls-3"/><path data-cppathid="10075" d="M309.36,120.8a4.13,4.13,0,0,1,.59,1,10,10,0,0,1,.59,1.18c.2.46.46,1,.66,1.6a27.66,27.66,0,0,1,1.27,4.37,34.09,34.09,0,0,1,.56,5.62,32,32,0,0,1-.48,5.53,28.83,28.83,0,0,1-1.18,4.4c-.2.62-.45,1.14-.65,1.62a12.52,12.52,0,0,1-.56,1.19,4.67,4.67,0,0,1-.57,1c-.1,0,.64-1.41,1.4-3.9a30.69,30.69,0,0,0,1.07-4.35,35.53,35.53,0,0,0,.42-5.45,32.14,32.14,0,0,0-.52-5.45,30.71,30.71,0,0,0-1.12-4.34C310,122.25,309.28,120.85,309.36,120.8Z" class="cls-3"/><path data-cppathid="10076" d="M204,147.85a4.44,4.44,0,0,1-.62-.87,11.81,11.81,0,0,1-.61-1.1c-.22-.45-.48-.94-.71-1.52a23.78,23.78,0,0,1-1.28-4.21,24.83,24.83,0,0,1,.14-10.58,23.3,23.3,0,0,1,1.41-4.12c.24-.57.52-1.06.74-1.5a11.89,11.89,0,0,1,.65-1.08,3.81,3.81,0,0,1,.63-.86c.1,0-.74,1.32-1.67,3.58a26.71,26.71,0,0,0-1.26,4.08,27.32,27.32,0,0,0-.59,5.18,28.39,28.39,0,0,0,.45,5.2,25.71,25.71,0,0,0,1.15,4.12C203.35,146.5,204.1,147.8,204,147.85Z" class="cls-3"/><path data-cppathid="10077" d="M189.79,151.06a6.14,6.14,0,0,1-.67-1c-.25-.4-.48-.82-.69-1.24s-.55-1.12-.79-1.7a29,29,0,0,1-1.51-4.65,31.12,31.12,0,0,1-.73-5.93,30.63,30.63,0,0,1,.47-6,26.75,26.75,0,0,1,1.3-4.71c.22-.66.5-1.22.71-1.72a11.6,11.6,0,0,1,.64-1.27,5.88,5.88,0,0,1,.63-1c.1,0-.75,1.56-1.63,4.22a31.15,31.15,0,0,0-1.17,4.66,35,35,0,0,0-.43,5.87,35.93,35.93,0,0,0,.69,5.85,32.23,32.23,0,0,0,1.4,4.61C189,149.55,189.89,151,189.79,151.06Z" class="cls-3"/><path data-cppathid="10078" d="M310.34,188.18v25.19H261.61V188.18Z" class="cls-2"/><path data-cppathid="10079" d="M153,201v.66a14.43,14.43,0,0,0,14.5,13.51H312.62v-1.81H278.16a12.64,12.64,0,0,1-12.64-12.65h0a12.64,12.64,0,0,1,12.64-12.64h34.46V185.4l-145.18.49A14.51,14.51,0,0,0,153,200.42C153,200.61,153,200.81,153,201Z" class="cls-3"/><path data-cppathid="10080" d="M310.34,201.1c0,.16-10,.27-22.38.27s-22.37-.11-22.37-.27,10-.26,22.37-.26S310.34,201,310.34,201.1Z" class="cls-3"/><path data-cppathid="10081" d="M309.64,206.78c0,.15-9.48.27-21.17.27s-21.18-.12-21.18-.27,9.48-.27,21.18-.27S309.64,206.64,309.64,206.78Z" class="cls-3"/><path data-cppathid="10082" d="M310.34,212c0,.16-8.52.27-19,.27s-19-.11-19-.27,8.52-.25,19-.25S310.34,211.82,310.34,212Z" class="cls-3"/><path data-cppathid="10083" d="M310.34,196c0,.16-9.83.27-21.91.27s-21.93-.11-21.93-.27,9.83-.26,21.93-.26S310.34,195.86,310.34,196Z" class="cls-3"/><path data-cppathid="10084" d="M309.64,190.89c0,.16-8.74.27-19.51.27s-19.51-.11-19.51-.27,8.73-.27,19.51-.27S309.64,190.76,309.64,190.89Z" class="cls-3"/><path data-cppathid="10085" d="M170.53,186.41a35.94,35.94,0,0,0-3.07,3.67,18.65,18.65,0,0,0,.25,21.59,31.78,31.78,0,0,0,3.18,3.58,4.23,4.23,0,0,1-1.06-.77,15.62,15.62,0,0,1-2.41-2.6,18.26,18.26,0,0,1-.27-22,16.58,16.58,0,0,1,2.36-2.66A6.1,6.1,0,0,1,170.53,186.41Z" class="cls-4"/><path data-cppathid="10086" d="M165.63,185.88a32.62,32.62,0,0,0-3,3.61,18.63,18.63,0,0,0,.25,21.57,32.83,32.83,0,0,0,3.16,3.6,4.92,4.92,0,0,1-1-.77,17.1,17.1,0,0,1-2.43-2.6,18.36,18.36,0,0,1-.25-22,16.16,16.16,0,0,1,2.36-2.66A4.62,4.62,0,0,1,165.63,185.88Z" class="cls-4"/><path data-cppathid="10087" d="M264.25,186.41a33.89,33.89,0,0,0-3.09,3.67,18.71,18.71,0,0,0,.25,21.59,33.75,33.75,0,0,0,3.18,3.58,5,5,0,0,1-1.06-.77,17,17,0,0,1-2.41-2.6,18.38,18.38,0,0,1-.27-22,16.23,16.23,0,0,1,2.38-2.66A4.68,4.68,0,0,1,264.25,186.41Z" class="cls-4"/><path data-cppathid="10088" d="M259.33,185.88a35.83,35.83,0,0,0-3.07,3.66,18.62,18.62,0,0,0,.25,21.58,29.81,29.81,0,0,0,3.18,3.65,4.23,4.23,0,0,1-1.06-.77,15.62,15.62,0,0,1-2.41-2.6,18.26,18.26,0,0,1-.27-22,16.11,16.11,0,0,1,2.36-2.66A5.18,5.18,0,0,1,259.33,185.88Z" class="cls-4"/><path data-cppathid="10089" d="M187.05,204.55c0-3.42,0-6.84-.14-10.25a7.17,7.17,0,0,0-.35-2.64,2.5,2.5,0,0,0-1.95-1.64c-1.28-.56-3.27.51-4.21,2a9.78,9.78,0,0,0-1,5,75.43,75.43,0,0,0,.4,8.09,9.56,9.56,0,0,0,.95,3.71,3.09,3.09,0,0,0,5.86-.51A10,10,0,0,0,187.05,204.55Z" class="cls-4"/><path data-cppathid="10090" d="M243.42,201.6c0,.15-10.48.26-23.42.26s-23.45-.11-23.45-.26,10.5-.27,23.45-.27S243.42,201.46,243.42,201.6Z" class="cls-4"/><polygon data-cppathid="10091" points="177.33 185.41 177.07 161.53 190.06 161.53 190.51 185.41 177.33 185.41" class="cls-4"/><path data-cppathid="10092" d="M189.3,165.79a34.59,34.59,0,0,1-6,.26,34.82,34.82,0,0,1-6-.26,33.86,33.86,0,0,1,6-.27A33.64,33.64,0,0,1,189.3,165.79Z" class="cls-3"/><path data-cppathid="10093" d="M189.3,169.47a34.59,34.59,0,0,1-6,.26,34.82,34.82,0,0,1-6-.26,34.83,34.83,0,0,1,6-.27A35.61,35.61,0,0,1,189.3,169.47Z" class="cls-3"/><path data-cppathid="10094" d="M189.3,173.15a32.73,32.73,0,0,1-6,.26,33,33,0,0,1-6-.26,35.84,35.84,0,0,1,6-.27A35.61,35.61,0,0,1,189.3,173.15Z" class="cls-3"/><path data-cppathid="10095" d="M189.3,176.84a35.65,35.65,0,0,1-6,.26,35.84,35.84,0,0,1-6-.26,33,33,0,0,1,6-.26A32.73,32.73,0,0,1,189.3,176.84Z" class="cls-3"/><path data-cppathid="10096" d="M189.3,180.52a35.61,35.61,0,0,1-6,.27,33.86,33.86,0,0,1-6-.27,33,33,0,0,1,6-.26A32.73,32.73,0,0,1,189.3,180.52Z" class="cls-3"/><path data-cppathid="10097" d="M176.38,160.9h144c1.77,7.91,1.52,16.6,0,25.8H177V185h8.75a4.21,4.21,0,0,0,4.14-4.13V166.53a4.13,4.13,0,0,0-4.13-4.13h-9.38Z" class="cls-2"/><path data-cppathid="10098" d="M210.38,173.82h2.4a.39.39,0,0,1,.5.47.38.38,0,0,1,0,.15,3.78,3.78,0,0,1-.17.6,6.55,6.55,0,0,1-1.5,2.73,2.81,2.81,0,0,1-2,1h-.29a2.26,2.26,0,0,1-1.63-1.18,5.24,5.24,0,0,1-.73-2.89,7.66,7.66,0,0,1,.29-2.07,6.73,6.73,0,0,1,1.41-2.81,2.92,2.92,0,0,1,2.16-1.15,2.1,2.1,0,0,1,.92.21,3,3,0,0,1,1.4,1.76.49.49,0,0,1,0,.24.43.43,0,0,1-.07.25.48.48,0,0,1-.45.25h-.15a.48.48,0,0,1-.34-.32h0a3,3,0,0,0-.3-.56,1.4,1.4,0,0,0-1.15-.69,1.24,1.24,0,0,0-.78.3,4.19,4.19,0,0,0-1.33,1.88,7.22,7.22,0,0,0-.56,2.71,5,5,0,0,0,.41,2.12,1.4,1.4,0,0,0,1.25.94,1.65,1.65,0,0,0,1.17-.69,6.18,6.18,0,0,0,1.23-2.23h-1.72a.59.59,0,0,1-.58-.58.43.43,0,0,1,0-.16A.57.57,0,0,1,210.38,173.82Z" class="cls-5"/><path data-cppathid="10099" d="M218.61,169.13v.17q.15.52,1.7,8.93v.13a.62.62,0,0,1,0,.27.52.52,0,0,1-.44.25h-.08a.47.47,0,0,1-.4-.35l-.57-3h-3l-1.4,3v.1a.58.58,0,0,1-.45.25.54.54,0,0,1-.28-.08.5.5,0,0,1-.24-.43.38.38,0,0,1,0-.15c.08-.21.22-.53.44-1q3.11-6.8,3.7-8a.56.56,0,0,1,.51-.35A.54.54,0,0,1,218.61,169.13Zm-.65,2-1.6,3.38h2.26Z" class="cls-5"/><path data-cppathid="10100" d="M226.63,178.88h-4.34a.5.5,0,0,1-.27-.08.78.78,0,0,1-.25-.54h0c0-.17.41-3.13,1.19-8.88v-.19a.47.47,0,0,1,.47-.31.33.33,0,0,1,.24,0,.49.49,0,0,1,.28.45,19.79,19.79,0,0,1-.3,2.44c-.49,3.79-.76,5.8-.79,6h3.7a1.31,1.31,0,0,1,.28,0,.48.48,0,0,1,.32.49.49.49,0,0,1,0,.17A.61.61,0,0,1,226.63,178.88Z" class="cls-5"/><path data-cppathid="10101" d="M232.57,169.13a.49.49,0,0,1,0,.17q.17.52,1.7,8.93a.28.28,0,0,1,0,.13.62.62,0,0,1,0,.27.5.5,0,0,1-.43.25h-.09a.48.48,0,0,1-.39-.35l-.58-3h-2.95l-1.4,3a.17.17,0,0,1,0,.1.58.58,0,0,1-.45.25.54.54,0,0,1-.28-.08.5.5,0,0,1-.23-.43.38.38,0,0,1,0-.15l.44-1q3.12-6.8,3.72-8a.54.54,0,0,1,.49-.35A.5.5,0,0,1,232.57,169.13Zm-.64,2-1.61,3.38h2.27Z" class="cls-5"/><path data-cppathid="10102" d="M239.48,174.26l.79,2.16c.45,1.24.67,1.9.67,2a.38.38,0,0,1-.08.25.51.51,0,0,1-.44.24.45.45,0,0,1-.43-.34l-.07-.22c-.24-.55-.63-1.56-1.17-3.06l-2.46,3.35a.56.56,0,0,1-.46.27.62.62,0,0,1-.27,0,.48.48,0,0,1-.23-.44v-.19a1,1,0,0,1,.26-.42q1.23-1.61,2.73-3.81c-.11-.28-.21-.56-.3-.82-.93-2.47-1.4-3.75-1.4-3.83a.52.52,0,0,1,.07-.27.43.43,0,0,1,.42-.25.51.51,0,0,1,.48.28L239,173l2.9-3.94a.56.56,0,0,1,.46-.25.49.49,0,0,1,.24,0,.48.48,0,0,1,.25.46.49.49,0,0,1,0,.24Z" class="cls-5"/><path data-cppathid="10103" d="M250.23,168.91a.49.49,0,0,1,.24,0,.52.52,0,0,1,.28.44q-1.08,8.43-1.18,9.09a5.53,5.53,0,0,1-.93,2.38,3.35,3.35,0,0,1-4.21,1.05,3.07,3.07,0,0,1-1.53-1.4.57.57,0,0,1,0-.26A.38.38,0,0,1,243,180a.48.48,0,0,1,.65-.18.77.77,0,0,1,.18.18,2.8,2.8,0,0,0,2.23,1.27,2.14,2.14,0,0,0,1.71-.88,4.68,4.68,0,0,0,1-2.72,2.51,2.51,0,0,1-.63.67,2.58,2.58,0,0,1-1.56.51h-.3a2.35,2.35,0,0,1-1.64-1.18,5.43,5.43,0,0,1-.72-2.89c0-.55,0-1.09.07-1.63.09-.89.27-2.13.58-3.74a.43.43,0,0,1,0-.16.46.46,0,0,1,.46-.35.77.77,0,0,1,.26.07.47.47,0,0,1,.25.41c0,.27-.09.93-.24,2a28.27,28.27,0,0,0-.34,3,6.22,6.22,0,0,0,.38,2.34c.31.72.73,1.07,1.29,1.07h.17a2.42,2.42,0,0,0,1.31-1,6.61,6.61,0,0,0,1.07-2.39l.66-4.94a.62.62,0,0,1,.07-.23A.46.46,0,0,1,250.23,168.91Z" class="cls-5"/><path data-cppathid="10104" d="M315,187c-.15,0-.26-5.93-.26-13.23s.11-13.24.26-13.24.27,5.92.27,13.24S315.13,187,315,187Z" class="cls-4"/><path data-cppathid="10105" d="M197.14,187c-.15,0-.27-5.93-.27-13.23s.12-13.24.27-13.24.25,5.92.25,13.24S197.28,187,197.14,187Z" class="cls-3"/><path data-cppathid="10106" d="M317.51,187c-.14,0-.25-5.93-.25-13.23s.11-13.24.25-13.24.27,5.92.27,13.24S317.66,187,317.51,187Z" class="cls-4"/><path data-cppathid="10107" d="M194.77,187c-.14,0-.26-5.93-.26-13.23s.12-13.24.26-13.24.26,5.92.26,13.24S194.92,187,194.77,187Z" class="cls-3"/><path data-cppathid="10108" d="M280.07,164.93h0l15.23,12.28.12.11h-.16l-2,.53-12.85,3.38h0l-11.65-4.94-3.3-1.4-.87-.38-.22-.1h0l.22.1.88.35,3.31,1.41,11.67,4.87h0l12.85-3.38,2-.54v.16l-15.19-12.32h0" class="cls-3"/><polygon data-cppathid="10109" points="293.89 175.25 294.72 176.03 295.83 175.79 295.35 176.83 295.92 177.81 294.79 177.66 294.03 178.51 293.82 177.39 292.77 176.93 293.78 176.39 293.89 175.25" class="cls-3"/><polygon data-cppathid="10110" points="279.28 180.09 279.86 180.56 280.56 180.37 280.29 181.04 280.7 181.66 279.96 181.62 279.51 182.19 279.32 181.48 278.64 181.23 279.25 180.83 279.28 180.09" class="cls-3"/><polygon data-cppathid="10111" points="263.15 173.47 264.07 173.53 264.63 172.82 264.86 173.7 265.7 174 264.94 174.5 264.9 175.4 264.21 174.82 263.34 175.07 263.66 174.23 263.15 173.47" class="cls-3"/><polygon data-cppathid="10112" points="300.72 165.13 301.62 165.18 302.18 164.47 302.41 165.34 303.25 165.66 302.49 166.14 302.45 167.05 301.76 166.47 300.89 166.71 301.21 165.87 300.72 165.13" class="cls-3"/><polygon data-cppathid="10113" points="279.32 164.54 279.9 164.56 280.27 164.12 280.41 164.68 280.95 164.87 280.46 165.18 280.44 165.76 280 165.39 279.44 165.55 279.65 165.01 279.32 164.54" class="cls-3"/><path data-cppathid="10114" d="M302,165.76s-4.94-.11-11-.37-11-.52-11-.57,4.92.1,11,.36S302,165.7,302,165.76Z" class="cls-3"/><path data-cppathid="10115" d="M307.52,160.67H161.42c-1.91-4.34-2.38-8.43,0-12.15h146.1A14.13,14.13,0,0,1,307.52,160.67Z" class="cls-3"/><rect data-cppathid="10116" height="4.43" width="79.13" y="151.99" x="191.69" class="cls-2"/><path data-cppathid="10117" d="M167.05,160.74a4.32,4.32,0,0,1-1.15-1.4,10.72,10.72,0,0,1-.77-8.8,4.22,4.22,0,0,1,.88-1.64,15.44,15.44,0,0,1-.52,1.76,12.21,12.21,0,0,0,.75,8.51A15.52,15.52,0,0,1,167.05,160.74Z" class="cls-3"/><path data-cppathid="10118" d="M170.21,160.74a4.32,4.32,0,0,1-1.15-1.4,10.72,10.72,0,0,1-.77-8.8,4.22,4.22,0,0,1,.88-1.64,15.44,15.44,0,0,1-.52,1.76,12.27,12.27,0,0,0,.75,8.51A15.52,15.52,0,0,1,170.21,160.74Z" class="cls-3"/><path data-cppathid="10119" d="M301.61,160.46a26,26,0,0,0,1-5.94,25.56,25.56,0,0,0-.95-6A12.39,12.39,0,0,1,301.61,160.46Z" class="cls-4"/><path data-cppathid="10120" d="M298.88,160.43c-.15,0,.46-2.59.45-5.83s-.62-5.77-.46-5.81a17.86,17.86,0,0,1,0,11.64Z" class="cls-4"/></g><g id="freepik--Plant--inject-33"><path data-cppathid="10121" d="M150.12,479.45c.13.19-2.43,1.93-6.39,5a149.23,149.23,0,0,0-27.63,27.15c-3.08,3.91-4.88,6.43-5.06,6.31s1.33-2.81,4.21-6.94A112.54,112.54,0,0,1,128,496a109.43,109.43,0,0,1,15.11-12.47C147.27,480.74,150,479.29,150.12,479.45Z" class="cls-6"/><path data-cppathid="10122" d="M144.88,458c.41.1-.95,7-3,15.46s-4.09,15.27-4.53,15.16,1-7,3-15.46S144.49,457.9,144.88,458Z" class="cls-6"/><path data-cppathid="10123" d="M142.61,456.83c-1,.45-1.32,3-.48,4.21a3.14,3.14,0,0,0,4,.7,3.38,3.38,0,0,0,1.33-4.52,3.34,3.34,0,0,0-4.67-.59c-.11.09-.22.18-.32.28" class="cls-7"/><path data-cppathid="10124" d="M153.51,466.58c.17.36-2.32,1.87-5.62,3.34s-6,2.38-6.18,2,2.31-1.88,5.62-3.36S153.34,466.24,153.51,466.58Z" class="cls-6"/><path data-cppathid="10125" d="M153.25,464.15a5,5,0,0,0-2,2.51,2.24,2.24,0,0,0,1.16,2.7,2.13,2.13,0,0,0,2-.42,4,4,0,0,0,1.12-1.74,3.12,3.12,0,0,0,.13-2.21,1.55,1.55,0,0,0-1.8-1" class="cls-7"/><path data-cppathid="10126" d="M153.18,476.64a3,3,0,1,1-.64,0" class="cls-7"/><path data-cppathid="10127" d="M86.93,392.35a33.72,33.72,0,0,1,.37,5c.11,3.47.26,8.1.45,13.69.31,11.56.63,27.52.9,45.15s.42,33.6.46,45.17v13.68a30.22,30.22,0,0,1-.23,5,35.11,35.11,0,0,1-.36-5c-.11-3.47-.25-8.09-.44-13.68-.31-11.56-.63-27.54-.91-45.17s-.42-33.61-.42-45.16v-13.7A34.92,34.92,0,0,1,86.93,392.35Z" class="cls-6"/><path data-cppathid="10128" d="M109.42,382.71a22.28,22.28,0,1,1-24-20.43h0A22.29,22.29,0,0,1,109.42,382.71Z" class="cls-8"/><g class="cls-9"><path data-cppathid="10129" d="M86.3,406.82c-.23,0,0-2.51.18-6.45a36.47,36.47,0,0,0-2.27-15,20.86,20.86,0,0,0-10.1-10.79C70.57,373,68,373.18,68,372.9s.62-.24,1.76-.24a13.68,13.68,0,0,1,4.73,1,20.41,20.41,0,0,1,11.07,11.13,33.12,33.12,0,0,1,2,15.62C87.14,404.43,86.47,406.84,86.3,406.82Z"/></g><g class="cls-9"><path data-cppathid="10130" d="M107.08,375.77c0,.45-6.25,0-12.37,4s-8.33,9.84-8.72,9.64c-.17-.07.11-1.6,1.31-3.79a19.94,19.94,0,0,1,15.79-10.23C105.57,375.22,107.09,375.59,107.08,375.77Z"/></g><g class="cls-9"><path data-cppathid="10131" d="M97.12,377.54c-.26,0-.54-1.48-1.91-3.37a10.05,10.05,0,0,0-13.95-2.72,10.36,10.36,0,0,0-1.68,1.42c-1.67,1.63-2.2,3.1-2.44,3s0-1.69,1.67-3.71a10.45,10.45,0,0,1,14.69-1.63,10.56,10.56,0,0,1,2.58,3C97.37,375.87,97.27,377.54,97.12,377.54Z"/></g><g class="cls-9"><path data-cppathid="10132" d="M91,381.81c-.43,0-.91-3-2.81-6.21s-4.21-5.16-4-5.51,3.25,1.21,5.29,4.77S91.36,381.84,91,381.81Z"/></g><g class="cls-9"><path data-cppathid="10133" d="M88.8,375.18c.1.43-1.74,1-3.26,2.51s-2.58,3.21-3,3,.1-2.16,1.94-4.06S88.79,374.83,88.8,375.18Z"/></g><path data-cppathid="10134" d="M39.48,460.73c.39-.12,6.51,17.93,13.68,40.29s12.64,40.63,12.28,40.74-6.52-17.92-13.69-40.27S39.08,460.86,39.48,460.73Z" class="cls-6"/><path data-cppathid="10135" d="M53.74,505.25c-.26.27-6.51-4.68-14.33-10.69S25.46,483.32,25.72,483s6.77,4.31,14.67,10.4S54,504.92,53.74,505.25Z" class="cls-6"/><path data-cppathid="10136" d="M22.25,481.15c-1.21,1.11-.77,3.56.59,4.93s4.53.7,5.62-.93a3.66,3.66,0,0,0-1.4-4.95A4.06,4.06,0,0,0,22,481.54" class="cls-7"/><path data-cppathid="10137" d="M53.74,451.94c.44.08-.89,6.52-3.54,14.05S46,479.71,45.53,479.64s.61-6.56,3.26-14.13S53.38,451.87,53.74,451.94Z" class="cls-6"/><path data-cppathid="10138" d="M53,446.38c-1.49,1.06-1.56,1.7-2.12,3.44s.24,4,2,4.4,3.22-1.1,3.92-2.66a4.67,4.67,0,0,0,0-4.47,2.59,2.59,0,0,0-3.59-.75,2.44,2.44,0,0,0-.4.32" class="cls-7"/><path data-cppathid="10139" d="M27.51,499.7c-.14-.38,2.48-1.84,5.88-3.27s6.28-2.29,6.45-1.92-2.46,1.85-5.87,3.28S27.66,500.08,27.51,499.7Z" class="cls-6"/><path data-cppathid="10140" d="M22.13,497.22c-1,.53-1.41,3-1.41,4a3.33,3.33,0,0,0,1.57,2.54,4,4,0,1,0-.19-6.57" class="cls-7"/><path data-cppathid="10141" d="M32.9,456.56a5.3,5.3,0,0,0,9.15,4.67,3.84,3.84,0,0,0,1-3,6.12,6.12,0,0,0-4.77-4.39,5.44,5.44,0,0,0-5.4,2.81" class="cls-7"/><path data-cppathid="10142" d="M109.23,478.74c.19.09-.54,2.32-1.77,5.9q-2.19,6.21-4.91,14c-1.86,5.14-3.54,9.83-5,13.93-1.32,3.56-2.16,5.74-2.37,5.62s2.08-9.2,6-20.1S108.83,478.57,109.23,478.74Z" class="cls-6"/><path data-cppathid="10143" d="M132.9,468.52a19.08,19.08,0,1,1-14.71-22.62h0A19.1,19.1,0,0,1,132.9,468.52Z" class="cls-8"/><g class="cls-9"><path data-cppathid="10144" d="M108.05,482.66c-.2-.1.61-2.05,1.65-5.27a31.38,31.38,0,0,0,1.75-12.82,17.86,17.86,0,0,0-5.62-11.24c-2.49-2.21-4.63-2.67-4.54-2.94s2.33,0,5.2,2.13a17.49,17.49,0,0,1,6.38,11.89,28,28,0,0,1-2.24,13.34C109.37,481,108.22,482.73,108.05,482.66Z"/></g><g class="cls-9"><path data-cppathid="10145" d="M132.66,462.25c-.08.44-5.14-1.4-11.08.37s-9.22,6-9.53,5.69.42-1.32,1.92-2.81a17.07,17.07,0,0,1,7.18-4.22,16.68,16.68,0,0,1,8.33-.29C131.58,461.38,132.73,462,132.66,462.25Z"/></g><g class="cls-9"><path data-cppathid="10146" d="M124.05,461.28c-.24,0-.13-1.4-.82-3.22a8.56,8.56,0,0,0-12.39-4.81c-1.77.89-2.57,1.95-2.81,1.79s.4-1.4,2.24-2.69a9,9,0,0,1,12.49,2.16,9.07,9.07,0,0,1,1.43,3.26C124.68,460,124.2,461.32,124.05,461.28Z"/></g><g class="cls-9"><path data-cppathid="10147" d="M118,463.29c-.44-.1-.13-2.71-.89-5.76s-2.16-5.24-1.82-5.52,2.46,1.74,3.27,5.18S118.34,463.43,118,463.29Z"/></g><g class="cls-9"><path data-cppathid="10148" d="M117.8,457.31c0,.45-1.66.53-3.23,1.4s-2.91,2-3.22,1.63.53-1.83,2.54-2.95S117.88,457,117.8,457.31Z"/></g><path data-cppathid="10149" d="M65.34,438.75a14.44,14.44,0,0,1,.73,3.17c.41,2.36.9,5.27,1.4,8.68,1.17,7.35,2.69,17.51,4.22,28.73s2.92,21.4,3.83,28.77c.4,3.45.72,6.37,1,8.76a12.93,12.93,0,0,1,.16,3.23,13.69,13.69,0,0,1-.73-3.16c-.4-2.36-.87-5.26-1.41-8.68-1.17-7.34-2.68-17.51-4.21-28.75s-2.93-21.41-3.84-28.71c-.39-3.44-.72-6.37-1-8.74A14,14,0,0,1,65.34,438.75Z" class="cls-6"/><path data-cppathid="10150" d="M81.54,418.71A19.07,19.07,0,1,1,58,405.5a19.08,19.08,0,0,1,23.51,13.21Z" class="cls-8"/><g class="cls-9"><path data-cppathid="10151" d="M66.1,442.77c-.23,0-.41-2.1-1-5.44a31.39,31.39,0,0,0-4.39-12.17,17.94,17.94,0,0,0-10.16-7.37c-3.22-.8-5.34-.21-5.37-.49s2-1.11,5.62-.54A17.5,17.5,0,0,1,62,424.35a28.08,28.08,0,0,1,4.22,12.84C66.46,440.64,66.28,442.77,66.1,442.77Z"/></g><g class="cls-9"><path data-cppathid="10152" d="M78.42,413.26c.12.44-5.2,1.16-9.64,5.48s-5.38,9.6-5.8,9.46c-.18,0-.23-1.41.39-3.43A16.88,16.88,0,0,1,75,413.53C77.07,413,78.4,413.08,78.42,413.26Z"/></g><g class="cls-9"><path data-cppathid="10153" d="M70.35,416.4c-.22.09-.74-1.11-2.22-2.46a8.55,8.55,0,0,0-12.11.11,8.34,8.34,0,0,0-1.09,1.36c-1.15,1.63-1.41,2.93-1.63,2.88s-.31-1.4.73-3.42a9,9,0,0,1,14.86-1.66C70.34,414.94,70.51,416.37,70.35,416.4Z"/></g><g class="cls-9"><path data-cppathid="10154" d="M65.9,421c-.42.12-1.4-2.34-3.44-4.69s-4.36-3.64-4.22-4,3,.39,5.3,3.06S66.28,421,65.9,421Z"/></g><g class="cls-9"><path data-cppathid="10155" d="M63,415.79c.18.41-1.24,1.24-2.23,2.71s-1.68,3.08-2.11,2.93-.37-1.86.88-3.78S62.87,415.44,63,415.79Z"/></g><polygon data-cppathid="10156" points="68.06 641.58 50.74 516.72 125.24 516.72 110.04 641.58 68.06 641.58" class="cls-6"/><path data-cppathid="10157" d="M119.88,565.55c0,.34-14,.62-31.18.62s-31.19-.28-31.19-.62,14-.63,31.19-.63S119.88,565.2,119.88,565.55Z" class="cls-5"/><path data-cppathid="10158" d="M118.32,573.57c0,.35-13.36.63-29.84.63s-29.83-.28-29.83-.63S72,573,88.48,573,118.32,573.23,118.32,573.57Z" class="cls-5"/><path data-cppathid="10159" d="M117.39,581.26c0,.35-12.93.63-28.84.63s-28.86-.28-28.86-.63,12.93-.62,28.86-.62S117.39,580.92,117.39,581.26Z" class="cls-5"/><path data-cppathid="10160" d="M116.36,589.6c0,.35-12.42.63-27.74.63s-27.76-.28-27.76-.63S73.28,589,88.62,589,116.36,589.26,116.36,589.6Z" class="cls-5"/><path data-cppathid="10161" d="M115.44,597.23c0,.35-11.86.63-26.49.63s-26.48-.28-26.48-.63,11.86-.63,26.48-.63S115.44,596.89,115.44,597.23Z" class="cls-5"/><path data-cppathid="10162" d="M114,604.86c0,.33-11.42.61-25.5.61S63,605.19,63,604.86s11.42-.64,25.49-.64S114,604.51,114,604.86Z" class="cls-5"/><path data-cppathid="10163" d="M113.58,612.48c0,.34-11.1.62-24.78.62S64,612.82,64,612.48s11.09-.63,24.77-.63S113.58,612.13,113.58,612.48Z" class="cls-5"/><path data-cppathid="10164" d="M112.65,620.11c0,.34-10.64.62-23.78.62s-23.78-.28-23.78-.62,10.65-.63,23.78-.63S112.65,619.76,112.65,620.11Z" class="cls-5"/></g><g class="cls-10"><g id="freepik--character-1--inject-25"><path data-cppathid="10165" d="M228.16,511.7s-16.16,22.24-28.63,32-15.11,17.81-27.58,0-54.31-130-54.31-130-36.49-41.87-45.4-53.42-15.08-28.47-10.66-32,51.61,36.49,52.5,33.82a30.41,30.41,0,0,0-.89-15.12c-1.79-5.34-1.79-16,1.78-18.7s5.34,4.45,7.12,10.69,7.13,23.13,9.8,31.14,8,40.06,8,40.06l39.42,53.7,2.42,3.18Z" class="cls-11"/><path data-cppathid="10166" d="M91.84,384.31S80.26,370,77.58,362s-4.45-25.8-5.34-33.82,2.67-5.34,2.67-5.34l11.58,35.63s16.9,10.53,21.35,14.22,8.91,19.6,8.91,19.6" class="cls-11"/><polygon data-cppathid="10167" points="244.93 467.98 229.79 518.73 177.29 465.31 245.82 330.89 244.93 467.98" class="cls-12"/><polygon data-cppathid="10168" points="186.74 446.8 177.29 465.31 229.79 518.73 236.09 497.67 186.74 446.8" class="cls-13"/><path data-cppathid="10169" d="M357.3,323.48c-8.08-.89-109.7.89-111.35,7.13S230,498,230,498l-26.69,162.9s27.58,8,84.56,21.38,125.51,3.56,125.51,3.56S417,614.65,417,603.07s37.38-125.51,37.38-125.51,16,64.84,32.93,71.2a30.41,30.41,0,0,0,38.18-15.9c5.18-12.44-26.86-145.18-28.64-150.43S374.9,324.66,374.9,324.66,365.38,324.37,357.3,323.48Z" class="cls-12"/><path data-cppathid="10170" d="M487.14,549a30.43,30.43,0,0,0,38.18-15.91c2-4.55-1.12-25.33-5.89-50.05-9-5.47-22.24-10.46-32.16-1.65A82.75,82.75,0,0,0,466,516.06C471.8,531.33,479.41,546.15,487.14,549Z" class="cls-13"/><path data-cppathid="10171" d="M436.55,532.73l-206-43.27c-.47,5.76-.79,8.94-.79,8.94l-1.63,10.05,202.7,42.6C432.73,544.69,434.64,538.65,436.55,532.73Z" class="cls-6"/><path data-cppathid="10172" d="M287.66,682.58c57,13.33,125.51,3.56,125.51,3.56s3.56-71.17,3.56-82.72a145.2,145.2,0,0,1,5.38-22.91l-199-41.36-20,122S230.68,669.25,287.66,682.58Z" class="cls-13"/><path data-cppathid="10173" d="M302.48,324.47a96.86,96.86,0,0,0-3.69,12.72c-2,9.23,20.3,116.35,20.3,116.35l104-107.41c-25.71-11.61-48.23-21.47-48.23-21.47s-9.8,0-17.82-.89C353.26,323.35,328,323.54,302.48,324.47Z" class="cls-13"/><path data-cppathid="10174" d="M408.71,284.6s-14.22,52.56-20.45,67.67-57.87,67.64-57.87,67.64-17.82-62.29-15.15-71.2,8-55.2,8-55.2C363.31,307.76,408.71,284.6,408.71,284.6Z" class="cls-11"/><path data-cppathid="10175" d="M323.23,293.51s-.92,8-2.2,17.95a25.17,25.17,0,0,0,18.33,13.36,91.25,91.25,0,0,0,54.08-9.9c3.18-1.59,5.79-3,8-4.16,4.13-14.16,7.31-26.16,7.31-26.16S363.31,307.76,323.23,293.51Z" class="cls-14"/><path data-cppathid="10176" d="M384,161.32c14.45,0,45.05,8.08,59.47,30.61s-8.12,31.53-8.12,31.53,10.85,1.81,15.34,18.92S439,279.26,430.86,285.62,409.22,292,409.22,292s-1.78,2.71-18,10.82a91.53,91.53,0,0,1-54.09,9.93c-20.2-2.8-24.34-28.86-30.64-44.16s8.08-41.46,17.12-53.16,22.52-38.72,22.52-38.72S369.55,161.32,384,161.32Z" class="cls-11"/><path data-cppathid="10177" d="M344.23,245.55c-5.41.89-11.84-1.78-14.42-9.89s6.37-5.41,12.73-9.93a26.16,26.16,0,0,0,8.11-8.11" class="cls-15"/><path data-cppathid="10178" d="M375,259.07a32,32,0,0,1-17.12,5.41c-11.71.89-28.82-9-28.82-9" class="cls-15"/><path data-cppathid="10179" d="M386.56,225.71c2,1.24,2,4.77,0,7.89s-5.06,4.64-7.09,3.43-2-4.67,0-7.86S384.53,224.47,386.56,225.71Z" class="cls-6"/><path data-cppathid="10180" d="M347.83,211.88c2,1.21,2,4.71,0,7.86s-5.06,4.67-7.1,3.46-2-4.7,0-7.89S345.79,210.67,347.83,211.88Z" class="cls-6"/><path data-cppathid="10181" d="M366,217.12c.4,8,20.6,5.62,20.6,5.62" class="cls-15"/><path data-cppathid="10182" d="M342.16,198.15c8.36-4.17,8.17,12.24,8.17,12.24" class="cls-15"/><path data-cppathid="10183" d="M410.78,222.63c-3.59,8.11,1.78,17.11.89,19.82s-5.44,5.38-9.89,9.89,3.66,11.71,6.36,11.71,18-6.27,27-5.38,4.52,18,4.52,18,29.72-18.93,40.53-42.34-3.75-29.72-9.89-49.54-56.6-54.05-82.72-59.46-28.82,17.11-28.82,17.11H348c-7.22,0-30.64,6.27-25.23,21.61s55.87,13.52,55.87,13.52-13.56,7.19-9,17.11,63.09,9.93,63.09,9.93S414.38,214.52,410.78,222.63Z" class="cls-14"/><rect data-cppathid="10184" transform="translate(-47.89 473.42) rotate(-56.39)" rx="7.35" height="39.77" width="89.02" y="261.49" x="373.1" class="cls-16"/><path data-cppathid="10185" d="M438.81,315.18a62.65,62.65,0,0,1,1.18-19.6,16.39,16.39,0,0,1,12.95-12.44c3,0,2.92,3.53-1.21,11.26s-8.31,18.39-8.31,18.39Z" class="cls-17"/><path data-cppathid="10186" d="M520.29,499.61c7.76,17.78,12.34,33.21-1.78,48.64s-46.32,5.35-50.91-1.17S383.49,372,381.7,368.47s-4.71-13.08-4.13-14.86,13.65-55.17,13.65-55.17l-6.62-14.76a2.84,2.84,0,0,1,1.3-3.66h0a2.77,2.77,0,0,1,3.66,1.08l10,16.74v14.25l8.3-7.13-4.42-40.24a3.62,3.62,0,0,1,2.64-3.53h0l.09,0a3.61,3.61,0,0,1,4.37,2.6l9.76,37.39-2.19-43.81s0-.09,0-.13a3.5,3.5,0,0,1,3.48-3.53h0a3.46,3.46,0,0,1,3.43,2.8l7.73,39.32,2.68-31.18c0-.1,0-.21,0-.31a3.51,3.51,0,0,1,4-2.87h0a3.54,3.54,0,0,1,2.86,3.18c.35,11,1.69,49.44.51,52.4s-35,36.78-35,36.78S512.53,481.82,520.29,499.61Z" class="cls-17"/></g></g></g></g></svg>