<?xml version="1.0" encoding="UTF-8"?>
<svg xmlns="http://www.w3.org/2000/svg" onmouseup="{ if(window.parent.document.onmouseup) window.parent.document.onmouseup(arguments[0]);}" xml:space="preserve" style="enable-background:new 0 0 589.7 627.8;" viewBox="0 0 589.7 627.8" y="0px" x="0px" id="Layer_1" version="1.1" xmlns:xlink="http://www.w3.org/1999/xlink"><style type="text/css">
	.st0{fill:url(#SVGID_1_);}
	.st1{fill:none;stroke:#FFFFFF;stroke-width:0.25;stroke-miterlimit:10;}
</style><linearGradient gradientTransform="matrix(-1 0 0 -1 590.0553 627)" y2="556.3405" x2="-218.2797" y1="115.2704" x1="637.0702" gradientUnits="userSpaceOnUse" id="SVGID_1_"><stop style="stop-color:#3F458F" offset="0"/><stop style="stop-color:#444084" offset="7.000000e-02"/><stop style="stop-color:#542E5F" offset="0.35"/><stop style="stop-color:#5F2144" offset="0.6"/><stop style="stop-color:#671A34" offset="0.83"/><stop style="stop-color:#69172E" offset="1"/></linearGradient><path data-cppathid="10000" d="M62.1,627.3h527.7V0.3h-506c8.5,29.3,25.6,47.2,31.8,79.5C143.3,223.7-11.6,327.5,1.1,448  c7.1,67.3,26.6,60.2,50.7,114.3C63.7,589.3,64.2,613.3,62.1,627.3z" class="st0"/><path data-cppathid="10001" d="M575.9,0.3c-5.3,9.3-8.8,15.3-6.2,21.8c2.4,5.8,10,7.3,20,6.7" class="st1"/><path data-cppathid="10002" d="M589.7,101c-26.1,21.6-46.5,43.2-42.1,59.9c2.6,9.9,14.3,18.9,42.1,24.8" class="st1"/><path data-cppathid="10003" d="M396.6,627.4c49.6-28,101.3-63.1,90.9-87.1C448.6,450,27.9,582,9.2,446.8C-12.9,287.7,307.6,181.5,244.3,55.5  C221.5,10.1,137.4,41.6,111.9,0.3" class="st1"/></svg>