<?xml version="1.0" encoding="UTF-8"?>
<svg xmlns="http://www.w3.org/2000/svg" onmouseup="{ if(window.parent.document.onmouseup) window.parent.document.onmouseup(arguments[0]);}" xml:space="preserve" style="enable-background:new 0 0 589.7 627.8;" viewBox="0 0 589.7 627.8" y="0px" x="0px" id="Layer_1" version="1.1" xmlns:xlink="http://www.w3.org/1999/xlink"><style type="text/css">
	.st0{fill:url(#SVGID_1_);}
	.st1{fill:none;stroke:#FFFFFF;stroke-width:0.25;stroke-miterlimit:10;}
</style><linearGradient gradientTransform="matrix(1 0 0 -1 0 627)" y2="556.3405" x2="-218.2797" y1="115.2704" x1="637.0702" gradientUnits="userSpaceOnUse" id="SVGID_1_"><stop style="stop-color:#3F458F" offset="0"/><stop style="stop-color:#444084" offset="7.000000e-02"/><stop style="stop-color:#542E5F" offset="0.35"/><stop style="stop-color:#5F2144" offset="0.6"/><stop style="stop-color:#671A34" offset="0.83"/><stop style="stop-color:#69172E" offset="1"/></linearGradient><path data-cppathid="10000" d="M538.3,562.3c24.1-54.1,43.6-47,50.7-114.3c12.6-120.5-142.2-224.3-114.5-368.1c6.2-32.3,23.3-50.2,31.8-79.5  H0.3v627H528C525.9,613.3,526.3,589.3,538.3,562.3z" class="st0"/><path data-cppathid="10001" d="M0.3,28.8c10,0.6,17.6-1,20-6.7c2.6-6.4-0.9-12.4-6.1-21.8" class="st1"/><path data-cppathid="10002" d="M0.3,185.7c27.8-5.9,39.5-14.9,42.1-24.8c4.4-16.7-16-38.3-42.1-59.9" class="st1"/><path data-cppathid="10003" d="M478.1,0.3c-25.5,41.3-109.6,9.8-132.4,55.2c-63.3,126,257.2,232.2,235.1,391.3  C562.1,582,141.4,450,102.5,540.3c-10.4,24,41.3,59.1,90.9,87.1" class="st1"/></svg>