<?xml version="1.0" encoding="UTF-8"?>
<svg xmlns="http://www.w3.org/2000/svg" onmouseup="{ if(window.parent.document.onmouseup) window.parent.document.onmouseup(arguments[0]);}" xml:space="preserve" style="enable-background:new 0 0 2187.6 2144.2;" viewBox="0 0 2187.6 2144.2" y="0px" x="0px" id="Layer_1" version="1.1" xmlns:xlink="http://www.w3.org/1999/xlink"><style type="text/css">
	.st0{clip-path:url(#SVGID_2_);}
	.st1{fill:url(#SVGID_3_);}
	.st2{opacity:0.5;fill:none;stroke:#FFFFFF;stroke-miterlimit:10;enable-background:new    ;}
	.st3{fill:url(#SVGID_4_);}
	.st4{opacity:0.1;}
	.st5{fill:url(#SVGID_5_);}
	.st6{opacity:5.000000e-02;}
	.st7{fill:#8F172E;}
	.st8{fill-rule:evenodd;clip-rule:evenodd;fill:#8F172E;}
</style><g id="Layer_2_1_"><g id="Layer_1-2"><g><defs><rect data-cppathid="10000" height="628.4" width="1024.3" y="606.7" x="496.1" id="SVGID_1_"/></defs><clipPath id="SVGID_2_"><use style="overflow:visible;" xlink:href="#SVGID_1_"/></clipPath><g class="st0"><linearGradient gradientTransform="matrix(1 0 0 -1 496.11 2749.6499)" y2="2405.7583" x2="685.7061" y1="2381.4888" x1="19.5823" gradientUnits="userSpaceOnUse" id="SVGID_3_"><stop style="stop-color:#3F458F" offset="0"/><stop style="stop-color:#444084" offset="7.000000e-02"/><stop style="stop-color:#542E5F" offset="0.35"/><stop style="stop-color:#5F2144" offset="0.6"/><stop style="stop-color:#671A34" offset="0.83"/><stop style="stop-color:#69172E" offset="1"/></linearGradient><path data-cppathid="10001" d="M261.6,512.6c4.2-7.2,81.5-151.1,129.6-133.2c28.9,10.7,23.1-6.8,61.8,141.1      c25.3,96.8,64.1,167.8,151.9,171.6c121,5.1,149-52.1,295.2-60.4c46.6-2.7,95.8,20.6,154.8,2.8c54.8-16.5,124-78.7,147.7-107.6      l-164-506.1L191.9,232.6L261.6,512.6z" class="st1"/><path data-cppathid="10002" d="M1149.3,465.8c-40,78.4-90.5,154.1-138.5,148c-55-7-41-105.3-93.2-117c-137.6-31-150.3,148.8-310,165.9      c-135.8,14.6-122.3-268.9-219.3-284.9c-29.7-4.9-53.9,73.9-68.9,134.2" class="st2"/><path data-cppathid="10003" d="M922.8,56.7c-20.1,64.8-24.2,119.8-51.5,115.4c-24.9-4-3.8-104.6-22.9-108.8      c-25-5.5-61.7,164.6-106.4,163.9c-23.4-0.4-53.1-47.3-86.2-228.5" class="st2"/><linearGradient gradientTransform="matrix(-1 0 0 1 13871.4004 11675.6504)" y2="-10177.7891" x2="13033.4268" y1="-10202.0684" x1="12367.3027" gradientUnits="userSpaceOnUse" id="SVGID_4_"><stop style="stop-color:#3F458F" offset="0"/><stop style="stop-color:#444084" offset="7.000000e-02"/><stop style="stop-color:#542E5F" offset="0.35"/><stop style="stop-color:#5F2144" offset="0.6"/><stop style="stop-color:#671A34" offset="0.83"/><stop style="stop-color:#69172E" offset="1"/></linearGradient><path data-cppathid="10004" d="M1758.2,1329.1c-4.2,7.2-81.5,151.1-129.6,133.2c-28.8-10.8-23.2,6.8-61.8-141.1      c-25.3-96.8-64.1-167.8-151.8-171.6c-121-5.1-149,52.1-295.2,60.4c-46.6,2.7-95.8-20.6-154.8-2.8      c-54.8,16.5-124,78.7-147.6,107.6l164,506.1l846.7-211.7L1758.2,1329.1z" class="st3"/><path data-cppathid="10005" d="M870.4,1376c40-78.4,90.6-154.1,138.5-148c55,7,41,105.3,93.2,117c137.6,31,150.3-148.8,310-165.9      c135.8-14.6,122.3,268.9,219.3,284.9c29.7,4.9,53.8-73.9,68.9-134.2" class="st2"/><path data-cppathid="10006" d="M1097,1785c20.1-64.8,24.2-119.8,51.5-115.4c24.9,4,3.8,104.6,22.9,108.8c25,5.5,61.6-164.6,106.4-163.9      c23.4,0.4,53.1,47.3,86.2,228.5" class="st2"/><g class="st4"><linearGradient gradientTransform="matrix(-0.8 -0.61 -0.61 0.8 3069.5601 2152.49)" y2="624.2853" x2="1005.6245" y1="282.6399" x1="1668.1699" gradientUnits="userSpaceOnUse" id="SVGID_5_"><stop style="stop-color:#8F172E" offset="0"/><stop style="stop-color:#69172E" offset="1"/></linearGradient><path data-cppathid="10007" d="M1958.3,1276.8c1.2,8.2,30.8,169-17.9,185.2c-29.2,9.7-13.8,19.8-136.3-71.3       c-80.2-59.6-154.8-90.7-225.6-38.5c-97.5,71.9-83.7,134.1-192.5,232.3c-34.7,31.3-87.6,44.1-122.5,94.9       c-32.4,47.2-47.6,139.1-48,176.5l443.9,291.8l528.1-696.2L1958.3,1276.8z" class="st5"/><path data-cppathid="10008" d="M953.9,1355.2c-17.8-86.3-25.6-177,15.6-202.3c47.3-29.1,97.8,56.4,145.8,32.8       c126.6-62.1,24.3-210.3,138.2-323.8c96.8-96.5,263.3,133,348.9,84.6c26.2-14.8-4.1-91.4-30-147.9" class="st2"/><path data-cppathid="10009" d="M1386,1532.1c-24.8-63.2-55.9-108.6-31.9-122.3c21.9-12.5,68.3,79.2,85.8,70.5       c22.9-11.4-54.7-167-19.4-194.6c18.4-14.4,71,3.6,209.9,124.2" class="st2"/></g><path data-cppathid="10010" d="M0.4,1641c37-56.8,56-108.5,81-96.9c22.9,10.6-25,101.7-7.7,111c22.5,12.1,104.2-141.4,147.1-128.5      c22.4,6.7,38.2,60.1,20.5,243.5" class="st2"/><g class="st6"><path data-cppathid="10011" d="M1019.9,665.3l68.1,26.5c7.2,2.8,10.8,10.9,8,18.2l-26.4,68.2c-2.8,7.2-10.9,10.8-18.1,8l-68.1-26.5       c-7.2-2.8-10.8-10.9-8-18.2l26.4-68.2C1004.6,666.1,1012.7,662.5,1019.9,665.3z" class="st7"/><path data-cppathid="10012" d="M1726.8,912.7l-237.6-92.4c-6.6-2.6-9.8-10-7.3-16.6l0,0c2.6-6.6-0.7-14-7.3-16.6c0,0,0,0,0,0L1368.6,746       c-6.6-2.6-14,0.7-16.5,7.3l-27.5,71.1c-2.5,6.6-9.9,9.9-16.5,7.3c0,0,0,0,0,0l-73.6-28.6c-6.6-2.6-14,0.7-16.5,7.3l-39.7,102.5       c-2.5,6.6,0.7,14,7.3,16.5l39,15.2c6.6,2.6,9.8,10,7.3,16.6l-84.4,218.1c-2.6,6.6-10,9.9-16.5,7.3l-74.2-28.8       c-6.6-2.5-13.9,0.7-16.5,7.3l-38.2,98.7c-2.6,6.6,0.7,14,7.2,16.6l98.5,38.3c6.6,2.6,14-0.7,16.5-7.3c0,0,0,0,0,0l28.6-73.8       c2.5-6.6,9.9-9.9,16.5-7.3c0,0,0,0,0,0l57.9,22.5c6.6,2.6,9.8,10,7.3,16.6c0,0,0,0,0,0l-10.1,26.1c-2.6,6.6,0.7,14,7.3,16.6       c0,0,0,0,0,0l132.6,51.6c6.6,2.6,14-0.7,16.5-7.3c0,0,0,0,0,0l4.2-10.8c2.5-6.6,9.9-9.9,16.5-7.3c0,0,0,0,0,0l43.8,17       c6.6,2.6,14-0.7,16.5-7.3c0,0,0,0,0,0l14.7-38c2.5-6.6,9.9-9.9,16.5-7.3l40,15.6c6.6,2.6,14-0.7,16.5-7.3c0,0,0,0,0,0       l25.8-66.7c2.6-6.6,10-9.9,16.5-7.3l8.1,3.2c6.6,2.6,14-0.7,16.5-7.3c0,0,0,0,0,0l117.5-303.3       C1736.7,922.7,1733.4,915.3,1726.8,912.7z" class="st7"/><path data-cppathid="10013" d="M1032.8,911.9l54,21c7.2,2.8,10.8,10.9,8,18.2l-21,54.1c-2.8,7.2-10.9,10.8-18.1,8l-54-21       c-7.2-2.8-10.8-10.9-8-18.2l21-54.1C1017.5,912.7,1025.6,909.1,1032.8,911.9z" class="st7"/><path data-cppathid="10014" d="M1336,584.1l47.5,18.5c7.2,2.8,10.8,10.9,8,18.2l-18.4,47.6c-2.8,7.2-10.9,10.8-18.1,8l-47.5-18.5       c-7.2-2.8-10.8-10.9-8-18.2l18.4-47.6C1320.7,584.9,1328.8,581.3,1336,584.1z" class="st7"/><path data-cppathid="10015" d="M1252.3,690.8l4.7,1.8c7.2,2.8,10.8,10.9,8,18.2l-1.8,4.8c-2.8,7.2-10.9,10.8-18.1,8l-4.7-1.8       c-7.2-2.8-10.8-10.9-8-18.2l1.8-4.8C1237,691.6,1245.1,688,1252.3,690.8z" class="st7"/><path data-cppathid="10016" d="M989.4,1088.5l7.5,2.9c7.2,2.8,10.8,10.9,8,18.2l-2.9,7.5c-2.8,7.2-10.9,10.8-18.1,8l-7.5-2.9       c-7.2-2.8-10.8-10.9-8-18.2l2.9-7.5C974.1,1089.3,982.2,1085.7,989.4,1088.5z" class="st7"/><path data-cppathid="10017" d="M943.7,891L943.7,891c4.2,1.6,6.3,6.3,4.6,10.5l0,0c-1.6,4.2-6.3,6.3-10.5,4.6l0,0       c-4.2-1.6-6.3-6.3-4.6-10.5l0,0C934.8,891.4,939.5,889.3,943.7,891z" class="st7"/></g></g></g><path data-cppathid="10018" d="M1067.1,878.3c1.7-1.7,3.3-3.4,5-5.1l5.3-5.2c5.5-5.1,11-10.2,16.5-15.4l15-14.4c1.6-1.6,3.2-3.3,4.9-5    c2.9-2.5,5.6-5.2,8-8.2c1.8-1.9,3.7-3.7,5.5-5.5c4-4.9,8.4-9.2,12.1-14.3c2-2.7,6.2-7.6,6.1-11.2c0-0.2,0-0.3,0-0.4    c-0.2,0-0.4-0.1-0.6-0.1c-0.3,0-0.5,0.1-0.8,0.2l-0.4,0.2l-0.3-0.3l-0.1-0.2c-0.5,0.6-1.3,0.9-2.1,0.9h-0.1h-0.1l-0.6-0.2    l-0.7-0.2l0.5-0.6h-0.1l-0.1-0.5c0-0.2-0.1-0.2-0.6-0.3c-0.4,0-0.9,0.1-1.2,0.3c-0.3,0.1-0.5,0.3-0.6,0.5l-0.2,0.6l-0.5-0.2    c-0.2-0.1-0.3-0.1-0.5-0.2l-0.2-0.1l-0.1-0.2c0-0.1-0.1-0.1-0.1-0.2l-0.2-0.5l0.5-0.3h0.1c-0.1-0.1-0.3-0.3-0.4-0.4    c-0.3,0.1-0.7,0.2-1,0.2h-0.2l-0.2-0.1c-0.4-0.3-0.8-0.6-1.2-0.9c-0.5,0.2-0.8,0.1-1,0.2c-0.9,0.8-1.6,1.8-2.2,2.8    c-0.9,1.4-1.8,2.9-2.3,3.6l-3.9,4.9c-4.6,5.7-10.1,10.8-15.2,16l-9.4,9.4c-10.6,10.2-21.2,20.4-31.9,30.6    c-7.6,7.3-15.3,14.7-22.9,22l-47.7,46.1c-5.5,5.2-11,10.5-16.5,15.7c-2.3,2.3-4.6,4.6-6.9,6.9l-9.5,9.3c-2.4,2.6-3.9,5.9-4.3,9.5    c-0.1,0.8-0.2,1.5-0.2,2.3c0,0.6,0,1.1,0.2,1.7c0.5,0.4,1.1,0.8,1.6,1.2c1.1,0.7,2.3,1.2,3.6,1.2c2.7-0.2,5.1-1.5,6.7-3.6    c1.3-1.6,2.2-3.4,3.5-5.2l0,0l0,0l18.8-18l11.9-11.4l24-22l9.1-8.6l11.7-11.3L1067.1,878.3z" class="st7"/><path data-cppathid="10019" d="M1177.7,915l-22.4-3.3l-22-2.7l-0.4-0.1l-0.1-0.4c-2.4-17.1-16.8-22.6-36.8-22.6c-0.5,0-0.9,0-1.4,0    c-3.2,0.3-6.4,0.5-9.5,0.8c-8.1,1.6-15.9,2.6-21.8,6c-2.2,1.3-3.5,3.7-3.7,6.2c0,1.4,0.7,2.8,1.8,3.6c1.2,0.7,2.5,1.1,3.9,1    c2.2-0.1,4.4-0.4,6.6-1c2.7-1,5.4-2,8.2-3c6.5-1.7,13.2-2.6,19.9-2.7c3.5-0.1,7.1,0.4,10.5,1.5c2.5,0.9,7.9,3.7,8,8.1    c0,0.7-0.1,1.3-0.4,1.9v0.1l-0.1,0.1c-0.8,0.7-2.5,0.9-4.5,1.1c-1.9,0.3-3.9,0.4-4.7,0.6l-24.5,3.9c-17.5,3.7-32.8,9.5-46.1,17.4    c-6,3.6-12.3,7.4-16.5,12.6c-2.9,3.6-9.7,11.4-9.7,18.6c0,1.4,0.3,2.9,0.8,4.2c2.4,5.7,10.7,7.8,19.7,7.8c6.5-0.1,13-0.9,19.3-2.6    c18.7-5.1,34.7-12.1,48.5-21.9c4.6-3.3,8.8-7,13.2-10.6c4-3.4,7.6-7.2,10.7-11.4c1.1-1.5,2.2-3.1,3.3-4.6l0,0l0,0    c0.7-0.4,1.5-0.6,2.3-0.6c1.1-0.1,2.2-0.2,3.3-0.2c0.7,0,1.3,0,2,0.1l22.7,1.4c4,0.3,8,0.7,11.9,1c4.5,0.4,9,0.8,13.6,1.2    c9.5,1.6,19,1.8,28.2,3.6c7.4,1.5,14.6,2.9,21.7,4.8c3.1,0.8,6.4,2.4,9.6,2.6c0-0.1,0.1-0.3,0.1-0.4l0.1-0.4h0.4h0.8l-0.2-0.3    l-0.8-1l1.3,0.1h0.7c0-0.1-0.1-0.2-0.1-0.3l-0.3-0.7l0.8-0.1l0.7-0.1c-8.1-5.1-18.2-7.8-28.5-10.8    C1205.3,920,1191.6,917.8,1177.7,915z M1104.8,931.6l-0.4-0.4L1104.8,931.6c-4.1,4-9.3,7.1-14.2,10c-12.7,7.6-25.9,14.3-41.8,18.7    c-4.8,1.4-9.8,2.1-14.8,2.1c-2.9,0.1-5.8-0.3-8.6-1.1l-0.3-0.1v-0.4v-0.1c0.1-8.2,10.2-13.6,15.3-16.7c12-7.1,26.4-12.2,41.6-15.9    c4.8-1.1,9.6-1.6,14.7-2.5c2.4-0.2,4.7-0.4,7.1-0.6c0.5,0,1.1-0.1,1.7-0.1c1.1,0,2.3,0,2.8,1.2c0,0.2,0.1,0.3,0.1,0.5    C1108.2,928.8,1105.4,931,1104.8,931.6z" class="st7"/><path data-cppathid="10020" d="M1162.2,956.1c3.2-0.1,8.5-0.3,9.9,1.4c-0.3,1.7-3,2.8-4.4,3.4c-5,2.2-11.8,3.4-18.7,3.6    c-3.3,0.1-8.5,0.6-10.1-1.2c0.1-0.1,0.2-0.3,0.3-0.4l2.4-1.9l6.4-1.3c0.3-0.3,0.5-0.6,0.8-0.9c1.1-0.7,2.4-1.2,3.7-1.5l7-1.2    C1160.4,956.2,1161.3,956.2,1162.2,956.1z" class="st8"/><path data-cppathid="10021" d="M901.8,908.9c-1.1-0.6-2.4-0.9-3.6-0.8c-2.7,0.1-5.3,0.7-7.7,1.7c-5.8,2.4-18.3,12.5-31.3,22.7    s-26.6,20.8-35.1,24.5c-0.9,0.4-1.8,0.7-2.7,0.8c-0.4,0-0.9-0.1-1.2-0.4c-0.3-0.3-0.4-0.8-0.3-1.2c0.1-1.2,1-2.6,2.3-4.6    c1.3-2,3.1-4.3,5.3-7c4.3-5.4,10.1-12.1,15.9-19.1c11.5-13.8,23.1-28.9,23.6-35.5c0.2-1-0.1-2-0.8-2.7c-1.1-0.9-2.6-1.4-4-1.2    c-7.1-0.1-20.4,7-32.4,14.7c-8.9,5.7-17.5,11.8-25.8,18.4c-0.8,0.5-1.4,1.3-1.8,2.1l0,0l0,0v0.2l0,0c0,0.3,0.1,0.6,0.6,0.8    c0.4,0.2,0.9,0.4,1.4,0.4h0.2l0.2-0.1h0.1c0.2,0,0.3,0,0.5,0.1h0.2c0.3,0,0.7-0.1,1.3-0.1c0.7,0,1.4,0.4,1.6,1.1    c0,0.2,0.4,0.4,1.2,0.4c1-0.1,2-0.2,3-0.5c1.8-0.5,3.6-0.4,5.2-1.1c1-0.4,2.1-0.6,3.2-0.7l0,0c2.2-1.1,4.3-2.4,6.4-3.9    c2.5-1.6,4.6-3.1,4.6-3.1l0.5,0.5v-0.3l0,0c0.3-0.1,0.5-0.1,0.8-0.2c0.4-0.1,0.9-0.2,1.3-0.2c0.2,0,0.3,0,0.5,0.1    c0.2,0.2,0.4,0.4,0.3,0.7c0,0.2-0.1,0.5-0.3,0.6l0,0v0.1c-6.9,7.4-13.1,15.5-18.6,24.1c-4.8,7.4-7.9,13.6-8.3,15v0.1v0.1    c-2.3,5.3-3.6,9.4-3.8,12.4c-0.2,2.7,0.3,4.4,1.2,5.5c1.2,1.2,2.9,1.8,4.6,1.6c6.2,0,16.7-4.7,27.4-10.9c10-5.9,19.7-12.3,29-19.3    l0.2-0.1h0.2c0.7-0.1,1.4-0.2,2.1-0.2c0.6,0,1.2,0.1,1.6,0.5c0.3,0.3,0.5,0.6,0.6,1c0.4,0.4,0.6,0.9,0.6,1.5    c0.1,0.8,0.1,1.6,0,2.4c-0.3,3.2-1.4,7.6-1.5,9.6c0,0.2,0,0.5,0,0.7l0.1,0.2l-0.1,0.3c-0.2,0.8-0.3,1.6-0.4,2.4    c-0.2,1.3,0,2.6,0.6,3.8c0.5,0.7,1.3,1,2.1,0.9c3.6,0.1,10.7-4.9,14.1-8c0.6-0.5,1.1-1.1,1.7-1.8l0,0c0,0,0-0.1-0.2-0.1    c-0.3-0.1-0.5-0.1-0.8-0.1c-0.6,0-1.3-0.1-1.9-0.4c-2.6-0.6-3.8-2.7-3.5-5.2c0.8-7.9,12.1-22.5,17.7-32.5l0,0l0,0    c2.4-3.3,3.4-5.8,3.6-7.4C903.2,910.6,902.7,909.5,901.8,908.9z" class="st7"/><path data-cppathid="10022" d="M1027.4,780.4c-1.3-0.1-2.5-0.1-3.8-0.2h-0.1l0,0c-2.5-0.6-5.1-0.8-7.7-0.8c-2.8,0-5.7,0.2-8.1,0.2    c-2.7,1.2-7.3,0.3-10,1c-4,0.9-8.7,1.6-12.4,2.8h-0.1h-1.6c-1.4,0.3-3.1,0.7-4.6,1.2c-4.5,1.5-9.4,2.6-13.9,4.2    c-3.4,1.2-6.9,2.4-10.3,3.7c-10.2,3.7-20.2,8-29.9,12.8c-3.9,2-7.8,3.3-11.3,5.4c-5.2,3.1-10.7,6.1-15.8,9.1    c-1.4,0.9-2.9,1.6-4.2,2.4c0.1,0.3,0.2,0.5,0.3,0.8l1.6,0.3c0.3,0.4,0,0.7-0.2,1.2c1.7-0.1,2.6-1.1,4.5-0.8c0,0.3,0,0.6,0,0.9    l2.2-0.2c0,0,0,0.1,0.1,0.1c-0.4,0.4-0.6,0.9-0.7,1.4c0.1,0.1,0.2,0.3,0.3,0.4c2.7,1,5.7-0.4,8.2,0.5c1.6-1.1,3.5-1.6,5.5-1.4    c0.2,0.2,0.4,0.6,0.7,0.9c2.2-1.1,4.5-2.1,6.7-3.1c1.1-0.5,2.3-1,3.4-1.5c7.1-3,14.7-6.4,22-9.5c5.7-2.4,11.6-3.8,17.1-6.2    c2.1-0.9,4.1-0.8,6-1.5c4.8-1.7,10.2-2.5,15-4.3h0.1h1.6c1.8-0.4,4.5-0.9,6.2-1.4h0.1h2.2c1.2-0.2,3.7-0.5,4.7-0.9h4.3    c1.9-0.3,3.9-0.5,5.8-0.5c8.3,0,17.9,2.3,22.9,4.9c4.3,2.2,8.5,5.3,11.1,9.4c1.8,3.1,2.7,6.7,2.6,10.4c0,5.8-1.5,11.4-4.3,16.4    c-6.4,10.8-4.6,9.8-12.4,19c-5.7,6.7-12.3,12.7-18,19.3c-3.9,4.5-8.2,8.3-12.2,12.5c-1.4,1.4-3,4-5,5.2l-0.1,0.1h-0.1h-0.2h-0.1    h-0.1l0,0c-0.1,0-0.1-0.1-0.2-0.1c-0.1-0.1-0.4-0.3-0.7-0.5c-0.5-0.4-1.3-1-2-1.5c-1.2-0.9-2.4-1.8-3.7-2.6    c-4.1-2-9.2-3.1-14.7-3.7l-2.3,0.3h-0.1l-3.3-0.2c-4.6,1-9.9,1.2-14.3,2.7c-19.6,6.7-39.4,22.9-50,39c-3.8,5.6-6.6,11.9-8.4,18.4    c-0.4,1.4-0.5,2.9-0.5,4.4c0,0.7,0,1.4,0.2,2.2c0.4,2.5,0.1,4.7,0.6,6.7c1.4,6.4,5.2,12.9,11,14.4c1.6,0.4,3.3,0.6,5,0.6    c5.6,0,10.9-2.3,14.8-4.5c5.2-3.1,10.2-5.8,15-9.1c5.3-3.7,9.8-8.4,14.7-12.6c6.2-5.3,12.3-10.7,18.1-16.4c2.4-2.4,4.7-5,7.3-7.3    c2.8-2.4,5.5-4.9,8.3-7.4c1.9-1.7,3.6-4,5.7-5.8c2.8-2.3,5.2-5.1,8-7.6c6.6-6,13-12.2,19.2-18.6c6.8-6.9,14.3-13.3,20.2-21    c1-1,2-2,3-3c3.2-3.4,6.3-9.6,8.9-13.6c1.3-1.6,0.8-1.6,2.1-3.1c0.7-0.9,1.2-1.9,1.7-3c1.2-2.9,2.2-5.9,3-9    c1-3.5,1.6-7.1,1.6-10.7C1063.4,800.8,1044.8,784.6,1027.4,780.4z M984.9,904.3c-1.6,2.4-4.6,4.2-6.6,5.8    c-3.9,3.1-7.5,6.7-11.4,9.9l-8.3,7.7c-5.7,4.9-11.3,9.8-17.2,14.5c-4.6,3.6-8.9,7.9-13.8,11.3c-4.3,3-9,6.6-14.2,8.7    c-1.5,0.6-3,0.9-4.6,1l0,0c-1.3,0.1-2.6-0.5-3.4-1.5c-0.9-1.4-1.4-3.1-1.3-4.8c0-1.5,0.2-2.9,0.6-4.3c1.7-5.4,4.5-10.5,8.2-14.8    c11.2-14.1,25.8-25,42.4-31.8c4.3-1.8,9-2.6,13.8-3.9l5.9-0.6h0.1c3.3,0,7.2,0.3,9.4,2h1L984.9,904.3z" class="st7"/></g></g></svg>