<?xml version="1.0" encoding="UTF-8"?>
<svg xmlns="http://www.w3.org/2000/svg" onmouseup="{ if(window.parent.document.onmouseup) window.parent.document.onmouseup(arguments[0]);}" viewBox="0 0 658.45 684.05"><defs><style>.cls-1,.cls-4,.cls-8{fill:#c53f3f;}.cls-14,.cls-2,.cls-5{fill:#fff;}.cls-2{opacity:0.7;isolation:isolate;}.cls-10,.cls-3{fill:#ddb98c;}.cls-10,.cls-11,.cls-14,.cls-3,.cls-4,.cls-5,.cls-6,.cls-7,.cls-8,.cls-9{stroke:#263238;}.cls-12,.cls-3,.cls-4,.cls-5,.cls-6,.cls-7{stroke-linecap:round;stroke-linejoin:round;}.cls-12,.cls-6{fill:none;}.cls-11,.cls-13,.cls-7{fill:#263238;}.cls-8{stroke-miterlimit:10;}.cls-9{fill:#ffc9a4;}.cls-10,.cls-11,.cls-14,.cls-9{stroke-miterlimit:10;}.cls-12{stroke:gray;}</style></defs><g data-name="Layer 2" id="Layer_2"><g data-name="Layer 1" id="Layer_1-2"><path data-cppathid="10000" d="M625.85,551.64c-5.68-.8-16.47-7.84-16.48-7.84s6.79-5.67,7.26-6c5.51-3.53,18.24-7.09,23.89-2.45a8.67,8.67,0,0,1,.84,12.24,8.31,8.31,0,0,1-.65.68C637,551.89,630.68,552.34,625.85,551.64Z" class="cls-1"/><path data-cppathid="10001" d="M509.47,639.11c-2.51,3.12-4.8,6-6.84,8.75h-5.16c2.59-3.34,5.67-7.09,9-11.18,2-2.38,4.15-4.88,6.41-7.43a84.48,84.48,0,0,1-5.68-7.87c-4.61,1.55-14,1.13-15.24,1.08-.36,3-.67,6-.92,8.76-.6,6.31-1,11.91-1.2,16.64h-4.25c.34-4.82.84-10.55,1.57-17,.36-3.09.78-6.37,1.27-9.74-1.2-.36-10.85-3.38-14.4-6.51-3.22-2.84-6.52-7.38-6.17-11.92a7.63,7.63,0,0,1,8-7.28,7.4,7.4,0,0,1,.81.08c6.34,1.15,11.16,11.71,11.92,17.41,0,.34.13,4,.15,6.39.19-1.42.38-2.71.59-4.13.43-2.84.94-5.57,1.42-8.51.31-1.42.62-2.84.94-4.35s.76-3,1.14-4.47c1-3.45,2.09-6.91,3.31-10.37-2.46-.37-11.13-1.84-14.77-4.18s-7.55-6.3-7.9-10.84a7.66,7.66,0,0,1,6.73-8.46,8.08,8.08,0,0,1,.85-.05c6.44.17,12.76,9.93,14.44,15.42.1.34.8,4.42,1.16,6.68.75-2.07,1.49-4.14,2.31-6.21,2.38-6,5-12,7.55-17.93.78-1.83,1.54-3.67,2.31-5.5-.87-.13-11.22-1.65-15.29-4.26-3.6-2.32-7.56-6.29-7.9-10.83a7.63,7.63,0,0,1,6.73-8.46,7.89,7.89,0,0,1,.84-.05c6.44.17,12.77,9.93,14.43,15.41.12.42,1.14,6.3,1.33,7.82,1.7-4,3.35-8.09,4.81-12.13a136.06,136.06,0,0,0,5-16.69c-.41,0-11.22-1.6-15.39-4.25-3.6-2.33-7.56-6.3-7.9-10.84a7.63,7.63,0,0,1,6.7-8.46,8.46,8.46,0,0,1,.87-.05c6.44.17,12.77,9.93,14.43,15.4.11.37.89,4.85,1.22,7H519a97.81,97.81,0,0,0,1.86-17.41c.1-3.22,0-6.3-.14-9.29-2-.09-11.35-.55-15.39-2.57s-8.21-5.42-9.05-9.93a7.65,7.65,0,0,1,5.83-9.1,7,7,0,0,1,.78-.13c6.41-.54,13.82,8.43,16,13.73.13.3,1,3.36,1.64,5.67-.08-1.41-.15-2.75-.27-4-.41-4.86-1.07-9.27-1.7-13.19q-.55-3.33-1.13-6.08c-2-1.14-9.82-5.76-12.41-9.32s-4.78-8.61-3.46-13A7.63,7.63,0,0,1,511,446a6.91,6.91,0,0,1,.77.25c5.94,2.48,8.38,13.84,7.9,19.57,0,.5-1.59,8.17-1.69,8.11l-.11-.07c.4,1.79.81,3.72,1.2,5.83.71,3.9,1.42,8.33,2,13.19a136.31,136.31,0,0,1,.91,15.77,100.06,100.06,0,0,1-1.42,17.62v.19c.88-1.66,3.51-6.25,3.75-6.58,3.39-4.63,12.69-11.61,18.8-9.58a7.61,7.61,0,0,1,4.58,9.75,8.2,8.2,0,0,1-.32.76c-1.86,4.15-6.94,6.55-11.12,7.51-4.72,1.09-15-1-15.84-1.18a137.23,137.23,0,0,1-4.71,17.38c-1.12,3.32-2.36,6.62-3.63,9.93.81-1.42,1.53-2.68,1.66-2.84,3.39-4.64,12.68-11.62,18.8-9.59a7.62,7.62,0,0,1,4.58,9.75,7.19,7.19,0,0,1-.32.76c-1.86,4.16-6.92,6.55-11.11,7.52s-13.06-.64-15.38-1.09c-.51,1.26-1,2.52-1.51,3.78-2.44,6-4.89,12.06-7.09,18-.78,2.1-1.42,4.25-2.18,6.31.72-1.26,1.33-2.33,1.42-2.47,3.38-4.65,12.67-11.61,18.8-9.6a7.62,7.62,0,0,1,4.57,9.77c-.09.26-.2.51-.31.75-1.86,4.16-6.93,6.56-11.11,7.51s-12.21-.47-15-1c-.65,2.18-1.31,4.35-1.85,6.49-.33,1.42-.76,2.84-1,4.34s-.57,2.93-.85,4.37c-.43,2.84-.89,5.68-1.25,8.43-.27,1.9-.48,3.71-.69,5.54.75-2.1,2.32-6.18,2.49-6.51a29.58,29.58,0,0,1,10.43-10.71,8,8,0,0,1,.9-1.41,7.62,7.62,0,0,1,10.64-1.7,8.06,8.06,0,0,1,.64.52c4.66,4.45,2.83,15.93.34,21.1-.14.31-2.11,3.45-3.4,5.41.93-1,1.81-2.06,2.83-3.11,1.9-2.1,3.84-4.14,5.94-6.34l3.19-3.11c1-1.06,2.27-2,3.41-3.09,2.71-2.37,5.56-4.62,8.51-6.83-1.83-1.66-8.26-7.68-9.93-11.63s-2.84-9.42-.61-13.39a7.62,7.62,0,0,1,10.29-3.24,7.76,7.76,0,0,1,.69.4c5.27,3.7,5.23,15.32,3.53,20.82-.1.34-1.76,4.14-2.71,6.21,1.76-1.3,3.52-2.62,5.35-3.9,5.29-3.67,10.75-7.23,16.19-10.79l5-3.3c-.67-.6-8.51-7.58-10.4-12-1.73-3.93-2.84-9.43-.61-13.4a7.62,7.62,0,0,1,10.27-3.26c.24.13.48.27.71.42,5.27,3.69,5.23,15.32,3.53,20.81-.13.41-2.52,5.9-3.21,7.26,3.65-2.44,7.25-4.9,10.7-7.46a131,131,0,0,0,13.34-11.21c-.31-.27-8.51-7.51-10.46-12.05-1.73-3.93-2.84-9.43-.63-13.39A7.62,7.62,0,0,1,589.41,539a7.24,7.24,0,0,1,.71.41c5.29,3.71,5.23,15.32,3.55,20.81-.12.37-1.95,4.54-2.84,6.51l.3.21a96.9,96.9,0,0,0,11.16-13.5c1.86-2.64,3.49-5.25,5-7.83-1.66-1.2-9.18-6.74-11.42-10.62S592,526,593.79,521.76a7.63,7.63,0,0,1,9.83-4.41,7.51,7.51,0,0,1,.77.34c5.67,3.09,6.88,14.65,5.8,20.3,0,.31-1,3.37-1.72,5.58.67-1.17,1.42-2.38,2-3.51,2.34-4.26,4.26-8.33,5.86-11.94.91-2.06,1.7-3.93,2.41-5.68-1-2-5-10.22-5.2-14.62s.75-9.81,4.25-12.76a7.61,7.61,0,0,1,10.75.62c.19.21.36.43.53.65,3.58,5.35-.64,16.17-4.26,20.68-.3.4-5.81,5.94-5.87,5.84l-.07-.12c-.65,1.71-1.42,3.54-2.2,5.53-1.56,3.64-3.36,7.76-5.67,12.1a133.7,133.7,0,0,1-8,13.65,97.86,97.86,0,0,1-11,13.87L592,568c1.65-.91,6.37-3.28,6.75-3.42,5.39-2,17-2.7,21,2.37a7.59,7.59,0,0,1-2.27,11.11c-3.83,2.44-9.38,1.64-13.41.13-4.53-1.7-12-9.12-12.56-9.71a132.69,132.69,0,0,1-13.52,11.88q-4.24,3.24-8.51,6.28a23.72,23.72,0,0,1,3-1.41c5.39-2,17-2.7,21,2.37a7.61,7.61,0,0,1-1.56,10.65,6.62,6.62,0,0,1-.71.46c-3.82,2.44-9.37,1.65-13.4.15s-10.55-7.75-12.24-9.41c-1.1.77-2.21,1.56-3.33,2.33-5.36,3.69-10.74,7.35-15.9,11.1-1.81,1.32-3.54,2.7-5.3,4.06,1.3-.67,2.39-1.21,2.56-1.26,5.39-2,17-2.7,21,2.37a7.6,7.6,0,0,1-1.56,10.65c-.22.17-.45.32-.69.47-3.85,2.43-9.39,1.64-13.42.12s-9.93-7.09-11.93-9.09c-1.74,1.42-3.5,2.84-5.12,4.38-1.09,1-2.21,2-3.25,3.07l-3.12,3.17c-1.9,2.1-3.87,4.26-5.67,6.33-1.26,1.42-2.45,2.84-3.64,4.25,1.8-1.33,5.36-3.87,5.67-4,5-2.84,16.38-5.24,21.09-.84a7.63,7.63,0,0,1,.07,10.79,8.09,8.09,0,0,1-.61.56c-3.57,2.88-9.12,2.88-13.37,2.05-4.63-1-12.77-6.9-13.82-7.64C513.11,634.63,511.21,636.91,509.47,639.11Z" class="cls-1"/><path data-cppathid="10002" d="M520.06,497.2c-.14,0,2.51-8.51,2.74-9,2.65-6,11.34-16,18.58-15.22a8.66,8.66,0,0,1,7.44,9.73,7.1,7.1,0,0,1-.17.92c-1,5.08-6.1,9-10.52,11.05C532.94,497.11,520.06,497.2,520.06,497.2Z" class="cls-1"/><g id="freepik--background-simple--inject-25"><path data-cppathid="10003" d="M441.22,20.09S338.07-16.6,236.81,41.8,84.45,216.13,40.58,309,22,496.31,99.26,539.38,229.11,519,337.52,515.86,475.09,528.27,565.1,467s106.26-205.93,35.27-313S441.22,20.09,441.22,20.09Z" class="cls-1"/><path data-cppathid="10004" d="M441.22,20.09S338.07-16.6,236.81,41.8,84.45,216.13,40.58,309,22,496.31,99.26,539.38,229.11,519,337.52,515.86,475.09,528.27,565.1,467s106.26-205.93,35.27-313S441.22,20.09,441.22,20.09Z" class="cls-2"/></g><g id="freepik--Plants--inject-25"><path data-cppathid="10005" d="M307.85,551.64c-5.67-.8-16.46-7.84-16.48-7.84s6.8-5.67,7.26-6c5.52-3.53,18.24-7.09,23.9-2.45a8.67,8.67,0,0,1,.84,12.24c-.21.24-.42.46-.65.68C319,551.89,312.69,552.34,307.85,551.64Z" class="cls-1"/><path data-cppathid="10006" d="M191.47,639.11c-2.33,2.9-4.47,5.64-6.4,8.17a1.44,1.44,0,0,1-1.17.58h-1.37a1.48,1.48,0,0,1-1.17-2.4c2.16-2.7,4.57-5.65,7.16-8.78,1.75-2.09,3.63-4.27,5.59-6.5a1.47,1.47,0,0,0,0-1.89q-2.28-2.91-4.31-6a1.45,1.45,0,0,0-1.56-.63c-3.93,1-10.11.93-12.92.85a1.47,1.47,0,0,0-1.51,1.31c-.29,2.55-.55,5-.77,7.4-.54,5.7-.88,10.83-1.12,15.25a1.47,1.47,0,0,1-1.47,1.39h-1.19a1.49,1.49,0,0,1-1.48-1.59c.34-4.47.8-9.66,1.46-15.43.31-2.71.68-5.56,1.09-8.5a1.5,1.5,0,0,0-1-1.62c-3-1-10.24-3.51-13.21-6.13-3.22-2.84-6.53-7.38-6.17-11.92a7.63,7.63,0,0,1,8-7.28,7,7,0,0,1,.8.08c6.31,1.14,11.11,11.59,11.92,17.31a1.48,1.48,0,0,1,0,.21c0,.7.13,4.08.14,6.28.2-1.42.39-2.71.6-4.13.42-2.84.93-5.57,1.42-8.51.31-1.42.62-2.84.93-4.35s.77-3,1.15-4.47c.8-2.9,1.73-5.8,2.73-8.71a1.48,1.48,0,0,0-1.14-1.94c-3.51-.61-10-2-13-3.9-3.63-2.34-7.56-6.3-7.9-10.84a7.66,7.66,0,0,1,6.73-8.46,7.92,7.92,0,0,1,.85-.05c6.44.17,12.76,9.93,14.43,15.42,0,.1.12.55.24,1.19a1.48,1.48,0,0,0,2.82.29c.13-.34.27-.68.42-1,2.38-6,5-12,7.54-17.93.54-1.25,1.06-2.51,1.59-3.77a1.46,1.46,0,0,0-1.11-2c-3.36-.58-10.3-1.94-13.45-4-3.61-2.32-7.56-6.29-7.9-10.83a7.63,7.63,0,0,1,6.73-8.46,7.89,7.89,0,0,1,.84-.05c6.44.17,12.76,9.93,14.42,15.41.06.18.27,1.3.51,2.67a1.48,1.48,0,0,0,2.83.3c1-2.42,1.93-4.85,2.8-7.28a134.66,134.66,0,0,0,4.58-15.1,1.48,1.48,0,0,0-1.2-1.81c-3.23-.53-10.55-2-13.81-4-3.61-2.33-7.56-6.3-7.9-10.84a7.63,7.63,0,0,1,6.7-8.46,8.46,8.46,0,0,1,.87-.05c6.44.17,12.76,9.93,14.42,15.4.12.37.9,4.85,1.22,7h.37A97.81,97.81,0,0,0,203,508.56c.08-2.74,0-5.38-.08-7.95a1.48,1.48,0,0,0-1.4-1.41c-3.34-.19-10.6-.78-14-2.5-4-2-8.21-5.42-9.05-9.93a7.65,7.65,0,0,1,5.83-9.1,6.51,6.51,0,0,1,.77-.13c6.42-.54,13.82,8.43,16,13.73.12.3,1,3.36,1.64,5.67-.08-1.41-.15-2.75-.27-4-.41-4.86-1.08-9.27-1.7-13.19q-.49-3-1-5.44a1.47,1.47,0,0,0-.69-1c-2.59-1.52-9.46-5.71-11.85-9-2.6-3.56-4.78-8.61-3.46-13A7.63,7.63,0,0,1,193,446a6.91,6.91,0,0,1,.77.25c5.94,2.48,8.38,13.84,7.9,19.57,0,.5-1.59,8.17-1.69,8.11l-.11-.07c.39,1.79.81,3.72,1.2,5.83.71,3.9,1.49,8.33,2,13.19A136.31,136.31,0,0,1,204,508.6a100.59,100.59,0,0,1-.49,10.27l2.74,1h0c3.39-4.63,12.7-11.61,18.81-9.58a7.61,7.61,0,0,1,4.58,9.75c-.1.25-.2.51-.32.76-1.86,4.15-6.94,6.55-11.12,7.51-3.82.89-11.29-.32-14.44-.9a1.46,1.46,0,0,0-1.7,1.15,135.47,135.47,0,0,1-4.41,16c-1.12,3.32-2.36,6.62-3.63,9.93.8-1.42,1.53-2.68,1.65-2.84,3.39-4.64,12.68-11.62,18.81-9.59a7.62,7.62,0,0,1,4.58,9.75c-.1.26-.2.51-.32.76-1.86,4.16-6.93,6.55-11.11,7.52-3.65.84-10.88-.27-14.21-.87a1.46,1.46,0,0,0-1.63.91c-.35.88-.69,1.77-1.05,2.65-2.44,6-4.89,12.06-7.09,18-.78,2.1-1.42,4.25-2.19,6.31l1.42-2.47c3.39-4.65,12.68-11.61,18.81-9.6a7.62,7.62,0,0,1,4.57,9.77,6.26,6.26,0,0,1-.32.75c-1.86,4.16-6.92,6.56-11.1,7.51-3.65.83-10.24-.15-13.69-.77a1.48,1.48,0,0,0-1.67,1c-.53,1.75-1,3.49-1.48,5.21-.32,1.42-.75,2.84-1,4.34s-.57,2.93-.85,4.37c-.43,2.84-.9,5.68-1.25,8.43-.27,1.9-.48,3.71-.7,5.54.75-2.1,2.33-6.18,2.5-6.51a29.71,29.71,0,0,1,10.11-10.52,1.28,1.28,0,0,0,.48-.5,8.46,8.46,0,0,1,.74-1.1,7.63,7.63,0,0,1,10.63-1.77,8.06,8.06,0,0,1,.72.59c4.66,4.45,2.83,15.93.34,21.1-.15.31-2.12,3.45-3.41,5.41.94-1,1.82-2.06,2.84-3.11,1.9-2.1,3.84-4.14,5.94-6.34l3.19-3.11c1-1.06,2.27-2,3.41-3.09,2.27-2,4.65-3.9,7.1-5.77a1.47,1.47,0,0,0,.13-2.24c-2.59-2.45-7.26-7.16-8.65-10.45-1.68-4-2.84-9.42-.61-13.39A7.62,7.62,0,0,1,220,577.11c.24.12.46.26.69.4,5.27,3.7,5.23,15.32,3.53,20.82,0,.11-.21.55-.48,1.16a1.48,1.48,0,0,0,2.22,1.79l.89-.64c5.29-3.67,10.75-7.23,16.2-10.79l3.39-2.25a1.48,1.48,0,0,0,.19-2.31c-2.5-2.34-7.55-7.31-9-10.74-1.73-3.93-2.84-9.43-.61-13.4a7.62,7.62,0,0,1,10.27-3.26c.24.13.48.27.71.42,5.27,3.69,5.23,15.32,3.53,20.81-.06.17-.5,1.23-1.06,2.5a1.49,1.49,0,0,0,2.2,1.82c2.15-1.48,4.28-3,6.35-4.52a133.55,133.55,0,0,0,12.17-10.1,1.48,1.48,0,0,0,0-2.17c-2.41-2.23-7.76-7.44-9.29-11-1.74-3.93-2.84-9.43-.63-13.39A7.62,7.62,0,0,1,271.49,539a7.24,7.24,0,0,1,.71.41c5.29,3.71,5.23,15.32,3.54,20.81-.11.37-1.94,4.54-2.83,6.51a2.73,2.73,0,0,1,.3.21,97.61,97.61,0,0,0,11.16-13.5c1.58-2.25,3-4.47,4.32-6.68a1.47,1.47,0,0,0-.39-1.94c-2.68-2-8.43-6.52-10.34-9.83-2.24-3.89-3.86-9.06-2.09-13.25a7.63,7.63,0,0,1,9.83-4.41,7.51,7.51,0,0,1,.77.34c5.67,3.09,6.87,14.65,5.8,20.3,0,.31-1,3.37-1.72,5.58.67-1.17,1.42-2.38,2-3.51,2.34-4.26,4.25-8.33,5.86-11.94.8-1.82,1.51-3.49,2.16-5.06a1.44,1.44,0,0,0-.05-1.2c-1.33-2.7-4.72-10-4.91-14-.2-4.4.75-9.81,4.26-12.76a7.61,7.61,0,0,1,10.75.62,7.79,7.79,0,0,1,.52.65c3.59,5.35-.64,16.17-4.25,20.68-.3.4-5.82,5.94-5.87,5.84l-.07-.12c-.66,1.71-1.42,3.54-2.2,5.53-1.56,3.64-3.36,7.76-5.68,12.1A131.79,131.79,0,0,1,285.13,554a97.86,97.86,0,0,1-11,13.87L274,568c1.64-.91,6.37-3.28,6.75-3.42,5.39-2,17-2.7,21,2.37a7.59,7.59,0,0,1-2.26,11.11c-3.83,2.44-9.38,1.64-13.41.13-3.67-1.37-9.23-6.49-11.54-8.71a1.46,1.46,0,0,0-2.05,0A132.91,132.91,0,0,1,260,580.39q-4.24,3.24-8.51,6.28a23.72,23.72,0,0,1,3-1.41c5.39-2,17-2.7,21,2.37a7.61,7.61,0,0,1-1.57,10.65,6.49,6.49,0,0,1-.7.46c-3.83,2.44-9.37,1.65-13.4.15-3.51-1.32-8.93-6.24-11.37-8.57a1.48,1.48,0,0,0-1.87-.14c-.77.55-1.55,1.09-2.33,1.63-5.36,3.69-10.74,7.35-15.9,11.1-1.82,1.32-3.55,2.7-5.3,4.06,1.3-.67,2.39-1.21,2.56-1.26,5.39-2,17-2.7,21,2.37A7.61,7.61,0,0,1,245,618.73c-.22.17-.46.32-.7.47-3.84,2.43-9.39,1.64-13.41.12-3.52-1.32-8.48-5.75-11-8.18a1.47,1.47,0,0,0-2-.07c-1.4,1.14-2.79,2.3-4.09,3.54-1.09,1-2.21,2-3.25,3.07l-3.12,3.17c-1.9,2.1-3.87,4.26-5.67,6.33-1.26,1.42-2.45,2.84-3.65,4.25,1.81-1.33,5.36-3.87,5.68-4,5-2.84,16.38-5.24,21.09-.84a7.63,7.63,0,0,1,.07,10.79c-.2.2-.4.38-.61.56-3.65,2.88-9.19,2.88-13.45,2.05-3.83-.8-10.09-5-12.71-6.86a1.48,1.48,0,0,0-2,.26C194.55,635.31,193,637.24,191.47,639.11Z" class="cls-1"/><path data-cppathid="10007" d="M50,562.38c5-.72,14.64-7,14.64-7s-6-5.06-6.46-5.33c-4.89-3.13-16.19-6.32-21.27-2.18a7.71,7.71,0,0,0-.71,10.88,7.94,7.94,0,0,0,.57.59C40.06,562.59,45.7,563,50,562.38Z" class="cls-1"/><path data-cppathid="10008" d="M97.58,514c.12,0-2.24-7.55-2.44-8-2.35-5.32-10-14.18-16.51-13.53A7.71,7.71,0,0,0,72,501.11a8.09,8.09,0,0,0,.16.83c.93,4.49,5.43,7.95,9.36,9.81C86.14,513.92,97.57,514,97.58,514Z" class="cls-1"/><path data-cppathid="10009" d="M107,640.09c2.22,2.83,4.25,5.37,6.07,7.77h4.59c-2.31-3-5-6.31-8-9.93-1.77-2.11-3.7-4.34-5.67-6.59a75.84,75.84,0,0,0,5.09-7c4.08,1.42,12.45,1,13.54.95.31,2.69.58,5.32.81,7.8.52,5.6.85,10.58,1.06,14.78h3.72c-.3-4.26-.74-9.38-1.42-15.12-.31-2.74-.69-5.67-1.11-8.65,1.05-.33,9.63-3,12.77-5.79,2.84-2.54,5.8-6.55,5.49-10.58a6.8,6.8,0,0,0-7.1-6.48c-.23,0-.46,0-.69.07-5.67,1-9.93,10.41-10.61,15.47,0,.3-.11,3.59-.11,5.68-.18-1.22-.34-2.41-.54-3.68-.38-2.48-.84-4.95-1.3-7.6-.29-1.27-.56-2.56-.84-3.87s-.68-2.64-1-4c-.84-3.06-1.85-6.14-2.94-9.2,2.19-.35,9.93-1.65,13.11-3.73s6.72-5.59,7.09-9.62a6.79,6.79,0,0,0-6-7.48c-.24,0-.47,0-.71,0-5.67.16-11.34,8.8-12.76,13.69-.09.31-.73,3.94-1,6-.66-1.85-1.32-3.69-2.05-5.54-2.12-5.3-4.43-10.62-6.7-15.92-.71-1.63-1.42-3.26-2.07-4.88.78-.11,9.93-1.42,13.59-3.8,3.2-2.07,6.72-5.59,7.09-9.63a6.75,6.75,0,0,0-6-7.46,6,6,0,0,0-.73,0c-5.68.15-11.35,8.77-12.77,13.68-.11.37-1,5.6-1.18,6.95-1.51-3.59-3-7.18-4.25-10.76A119.66,119.66,0,0,1,99,540.68c.35,0,9.93-1.42,13.66-3.81,3.2-2.07,6.72-5.59,7.09-9.63a6.78,6.78,0,0,0-6-7.47c-.24,0-.49,0-.74,0-5.67.16-11.34,8.78-12.76,13.69-.1.33-.79,4.26-1.08,6.21h-.32a87.5,87.5,0,0,1-2.1-15.46c-.09-2.83,0-5.67.12-8.26,1.82,0,10.12-.49,13.68-2.27s7.3-4.83,8-8.8a6.79,6.79,0,0,0-5.16-8.08,5.37,5.37,0,0,0-.7-.11c-5.67-.49-12.28,7.47-14.18,12.19-.1.26-.91,3-1.42,5,.09-1.21.14-2.44.24-3.59.36-4.25,1-8.24,1.52-11.71.32-2,.67-3.76,1-5.42,1.74-1,8.72-5.11,11-8.27s4.25-7.64,3.07-11.51a6.78,6.78,0,0,0-8.3-4.81l-.67.22c-5.29,2.22-7.46,12.3-7.1,17.39,0,.44,1.42,7.26,1.42,7.22l.24-.07c-.35,1.59-.72,3.3-1.07,5.18-.64,3.47-1.32,7.4-1.78,11.71a121.83,121.83,0,0,0-.81,14,88.64,88.64,0,0,0,1.32,15.6V540c-.78-1.42-3.1-5.56-3.32-5.85-3-4.12-11.34-10.32-16.7-8.51a6.77,6.77,0,0,0-4,8.68,4.84,4.84,0,0,0,.28.66c1.64,3.7,6.14,5.82,9.92,6.68,4.26,1,13.35-.89,14.07-1A118.18,118.18,0,0,0,101.67,556c1,3,2.08,5.88,3.22,8.8a25.7,25.7,0,0,1-1.42-2.52c-3-4.13-11.28-10.32-16.71-8.51a6.78,6.78,0,0,0-4.05,8.69,6.21,6.21,0,0,0,.28.66c1.64,3.68,6.14,5.81,9.93,6.66s11.6-.55,13.67-1c.44,1.12.88,2.25,1.33,3.36,2.17,5.37,4.36,10.71,6.33,16,.71,1.85,1.32,3.73,2,5.6-.63-1.12-1.19-2.06-1.29-2.2-3-4.13-11.34-10.33-16.7-8.51a6.78,6.78,0,0,0-4.06,8.69c.09.22.18.44.28.66,1.65,3.68,6.16,5.81,9.93,6.68s10.84-.43,13.3-.9c.59,1.93,1.18,3.86,1.65,5.76.3,1.29.68,2.52.91,3.86s.49,2.59.75,3.88c.38,2.49.79,5,1.11,7.48.24,1.69.42,3.3.62,4.93-.68-1.87-2.07-5.5-2.23-5.78a26,26,0,0,0-9.26-9.52,8,8,0,0,0-.79-1.28,6.78,6.78,0,0,0-9.47-1.48,6.12,6.12,0,0,0-.56.45c-4.14,4-2.54,14.18-.31,18.75.14.27,1.88,3.05,3,4.79l-2.48-2.84c-1.69-1.85-3.42-3.67-5.29-5.67l-2.83-2.75c-.93-1-2-1.83-3-2.75-2.4-2.1-4.94-4.1-7.53-6.07,1.63-1.42,7.33-6.82,8.88-10.33s2.52-8.38.55-11.91a6.79,6.79,0,0,0-9.16-2.9,6.21,6.21,0,0,0-.6.35c-4.69,3.29-4.65,13.61-3.15,18.44.1.31,1.58,3.68,2.43,5.53-1.57-1.17-3.13-2.34-4.77-3.48-4.69-3.26-9.54-6.41-14.38-9.59-1.41-1-2.93-2-4.41-2.93.58-.53,7.52-6.72,9.24-10.65,1.53-3.51,2.52-8.38.55-11.92a6.79,6.79,0,0,0-9.16-2.9c-.2.11-.41.22-.6.35-4.68,3.29-4.65,13.62-3.13,18.44.11.37,2.24,5.23,2.83,6.44-3.23-2.16-6.42-4.34-9.5-6.63a118,118,0,0,1-11.84-9.92c.27-.24,7.53-6.68,9.29-10.72,1.54-3.49,2.52-8.37.55-11.9a6.77,6.77,0,0,0-9.13-2.92c-.22.11-.42.23-.63.36-4.68,3.29-4.65,13.62-3.13,18.44.1.33,1.72,4,2.52,5.77a1.85,1.85,0,0,1-.27.19,86.3,86.3,0,0,1-9.92-12c-1.65-2.34-3.09-4.66-4.46-7,1.42-1.06,8.16-6,10.16-9.43s3.42-8.06,1.84-11.77a6.75,6.75,0,0,0-8.71-3.92c-.23.1-.47.2-.69.31-5,2.74-6.13,13-5.16,18,0,.27.89,3,1.53,5-.6-1.05-1.24-2.11-1.79-3.13-2.07-3.79-3.74-7.39-5.19-10.59-.82-1.83-1.52-3.51-2.15-5.08.9-1.79,4.45-9.08,4.63-13s-.68-8.71-3.78-11.35a6.77,6.77,0,0,0-9.55.56,5.4,5.4,0,0,0-.47.58c-3.19,4.75.57,14.36,3.73,18.43.29.34,5.18,5.28,5.24,5.18v-.1c.58,1.52,1.23,3.15,2,4.91,1.42,3.25,3,6.89,5,10.75a119.75,119.75,0,0,0,7.09,12.14A87.31,87.31,0,0,0,34,576.48l.14.14c-1.42-.81-5.67-2.92-6-3-4.79-1.79-15.09-2.4-18.64,2.1a6.78,6.78,0,0,0,1.35,9.49c.21.16.43.3.65.44,3.42,2.17,8.34,1.42,11.92.11,4-1.5,10.63-8.1,11.16-8.64a115.94,115.94,0,0,0,12,10.57q3.69,2.86,7.55,5.57c-1.29-.65-2.45-1.23-2.62-1.29-4.8-1.77-15.11-2.39-18.64,2.12a6.76,6.76,0,0,0,1.32,9.47,5,5,0,0,0,.68.45c3.42,2.17,8.34,1.42,11.91.12s9.38-6.87,10.88-8.34l3,2.07c4.77,3.27,9.54,6.52,14.19,9.85,1.61,1.18,3.16,2.4,4.72,3.61-1.15-.58-2.13-1.07-2.28-1.12-4.8-1.78-15.09-2.4-18.64,2.11a6.76,6.76,0,0,0,1.33,9.47,7.38,7.38,0,0,0,.68.46c3.41,2.17,8.34,1.42,11.92.11s8.81-6.32,10.59-8.08c1.56,1.29,3.11,2.58,4.55,3.9,1,.92,2,1.74,2.84,2.72l2.84,2.84c1.69,1.85,3.44,3.77,5,5.67,1.13,1.28,2.18,2.52,3.23,3.77-1.59-1.19-4.77-3.44-5-3.6-4.47-2.48-14.55-4.65-18.73-.74a6.78,6.78,0,0,0,0,9.59,6,6,0,0,0,.53.48c3,2.65,8,2.7,11.76,1.92,4.11-.87,11.34-6.13,12.28-6.8C103.81,636.1,105.44,638.13,107,640.09Z" class="cls-1"/></g><g id="freepik--character-2--inject-25"><path data-cppathid="10010" d="M474.55,376.73l-1.68,12.77s-6.92,47.41-2.13,71.92,13.85,49.54,14.39,55.39-2.67,28.76,1.06,47.41,10.65,55.4,10.65,55.4L491,633.48s-12.25,8-13.84,10.65a2.39,2.39,0,0,0,.41,3.36,2.48,2.48,0,0,0,.65.37h38.3a21.8,21.8,0,0,0,1.6-9.07V601.51c0-3.73,2.13-67.11,4.25-78.3s4.26-95.89,4.26-95.89h2.14s10.13,84.16,12.76,93.22,13.86,47.94,17,55.94,6.94,35.68,9.07,42.62a145.2,145.2,0,0,1,4.79,19.17,46.92,46.92,0,0,0,2.67,9.59h28.86s.54-4.8-1.61-8-16-17-18.11-27.17,3.21-57,2.7-73.51-5.33-18.65-5.33-33,5.33-58.06,5.33-78.84-2.84-39.92-8-50.86l-7.41-7.2H479.79Z" class="cls-3"/><path data-cppathid="10011" d="M588.53,622.22v.07s-7.46-4.8-10.13-1.07-2.66,5.86-2.66,5.86h-5.68a97.17,97.17,0,0,1,2.49,11.19,46.26,46.26,0,0,0,2.66,9.59h28.71s.54-4.8-1.61-8C600.81,637.6,593.48,630,588.53,622.22Z" class="cls-4"/><path data-cppathid="10012" d="M575.16,647.86h28.76a16.94,16.94,0,0,0-.1-3.7h-30C574.52,646.28,575.16,647.86,575.16,647.86Z" class="cls-5"/><path data-cppathid="10013" d="M518.16,638.8v-9H508s.54-4.26-4.25-7.46-9.61,4.25-9.61,4.25h-.25L491,633.46s-12.25,8-13.84,10.65a2.4,2.4,0,0,0,.41,3.37,2.44,2.44,0,0,0,.65.36h38.3A21.9,21.9,0,0,0,518.16,638.8Z" class="cls-4"/><path data-cppathid="10014" d="M477.11,644.16a2.39,2.39,0,0,0,.46,3.35,2.45,2.45,0,0,0,.63.35h38.3a15.58,15.58,0,0,0,1.1-3.7Z" class="cls-5"/><path data-cppathid="10015" d="M584.06,593.06c.9-18.14,3.16-42.81,2.84-53.9-.53-16.52-5.33-18.65-5.33-33s5.33-58,5.33-78.81-2.84-39.92-8-50.86l-7.41-7.2H479.79l-5.24,7.47-1.68,12.77s-6.92,47.41-2.13,71.92,13.85,49.54,14.39,55.39-2.67,28.76,1.06,47.41c1.64,8.19,3.89,19.86,5.9,30.38A98.9,98.9,0,0,0,518.27,597c.45-15.41,2.3-64.09,4.14-73.75,2.13-11.19,4.26-95.88,4.26-95.88h2.08s10.13,84.15,12.76,93.22,13.86,47.93,17,55.93c1.42,3.41,2.84,10.38,4.26,17.82A46.12,46.12,0,0,0,584.06,593.06Z" class="cls-5"/><line data-cppathid="10016" y2="399.62" x2="563.97" y1="422.53" x1="535.2" class="cls-6"/><line data-cppathid="10017" y2="414.01" x2="508.03" y1="401.75" x1="493.11" class="cls-6"/><path data-cppathid="10018" d="M555.7,143.62s-12.24-7.23-12-3.33S549.3,147,549.3,147s-17.53-2.49-20.31-1.42,2,2.51,2,2.51-21.7,16.68-29.2,28.09-14.18,28.09-6.4,40.88,19.19,22.81,38.38,28.37,38.09-.29,50.88-5.56S610.14,219.51,608,200.6s-19-38.63-31.48-52-20.3-11.35-20.3-9.46A25.46,25.46,0,0,1,555.7,143.62Z" class="cls-7"/><path data-cppathid="10019" d="M525.69,222.61,522.85,244s-20.31,6.66-27.81,9.73S484.19,260.69,482.8,264s-21.27,49.64-22.12,54,.55,6.4,6.66,9.18,23.12-7.5,23.12-7.5l2.22,7.78s-11.13,18.91-13.07,25-5,24.19-5,24.19,21.13,10.57,54.51,9.75,49.78-10,49.78-10-3.62-18.08-7.51-28.64-7.23-14.74-7.23-18.91S576.39,303,576.39,303l25.84,12.19s-6.1-21.08-7.77-35.26-4.56-16.5-10.13-21.5-30-12.23-30.86-12.77,1.11-23.91,1.11-23.91S533.47,227.35,525.69,222.61Z" class="cls-3"/><path data-cppathid="10020" d="M541.83,237.27c3.88-1.42,8.51-5.1,12.14-8.39.29-4,.55-7.09.55-7.09s-21,5.59-28.83.85l-1.92,14.19C528.08,240.68,535.12,239.79,541.83,237.27Z" class="cls-7"/><path data-cppathid="10021" d="M571.3,347.82c-3.9-10.57-7.24-14.74-7.24-18.91S576.3,303,576.3,303l25.84,12.19s-6.09-21.08-7.77-35.26c-.89-7.67-2.17-11.86-4-14.89-39.63,5-83.68-4-101.25-8.27a16.58,16.58,0,0,0-6.37,7.22c-1.42,3.34-21.27,49.64-22.12,54s.55,6.4,6.66,9.18,23.18-7.5,23.18-7.5l2.22,7.78s-11.13,18.91-13.07,25-5,24.19-5,24.19,21.13,10.57,54.51,9.75,49.78-10,49.78-10S575.21,358.38,571.3,347.82Z" class="cls-4"/><path data-cppathid="10022" d="M494,312.08s-5.54-11.59-4-17.63,2.52-7.56,2.52-7.56" class="cls-6"/><path data-cppathid="10023" d="M594.4,280c-.89-7.67-2.17-11.86-4-14.89-39.63,5-83.68-4-101.25-8.27a16.52,16.52,0,0,0-6.37,7.22c-.48,1.17-3.27,7.68-6.71,15.8,15.6,4.25,75.35,19,120.37,12.11C595.58,287.81,594.84,283.66,594.4,280Z" class="cls-4"/><path data-cppathid="10024" d="M531.12,170.91l35.45,22.84-1,9.24s6.32-6.31,7.3.49-1.42,10.21-5.84,12.16-6.81,1.42-6.81,1.42-10.69,11.65-18.44,14.57-16,3.69-19.85-2.63-9.28-17.79-7.82-24.6,14.61-33.49,14.61-33.49Z" class="cls-3"/><path data-cppathid="10025" d="M534.61,192.51a7.6,7.6,0,0,1-1.68,4.72c-1.66,1.67-5.56,3.9-5.56,5.56s3.62,5,7,4.73" class="cls-6"/><path data-cppathid="10026" d="M528.48,211.14a9.52,9.52,0,0,0,11.13-.28" class="cls-6"/><path data-cppathid="10027" d="M541.84,196.68s6.11-2.23,9.45,2.49" class="cls-6"/><path data-cppathid="10028" d="M522.92,193.9s5-2.23,7.52.55" class="cls-6"/><path data-cppathid="10029" d="M526,184.44a7.1,7.1,0,0,1,7.79-2.23" class="cls-6"/><path data-cppathid="10030" d="M544.62,185s7.79.28,9.45,7.52" class="cls-6"/><path data-cppathid="10031" d="M473.44,308.9s-8.62,3.33-11.35,8.62S459.87,335,470.7,338.1,561.64,325,561.64,325a92.43,92.43,0,0,0,6.4,8.62c2,1.94,7,5.84,7.23,7.5s.84,12.24,3.06,12.76,1.42-5,1.42-5,3.62-5.28,3.62-7.79.55-10.56,0-12.51S569.74,315.27,567,314.43s-74-2.84-80.64-3.9S475.65,308.6,473.44,308.9Z" class="cls-3"/><rect data-cppathid="10032" transform="translate(66.7 563.54) rotate(-56.39)" rx="3.28" height="16.78" width="37.57" y="211.16" x="540.17" class="cls-8"/><path data-cppathid="10033" d="M569.88,232.81s1.76-4.51,3.5-7.76,1.76-4.76.51-4.76a6.92,6.92,0,0,0-5.51,5.26,25.82,25.82,0,0,0-.5,8.27Z" class="cls-9"/><path data-cppathid="10034" d="M554.83,250.1s14.28-14.28,14.78-15.53,0-17.51-.21-22.11a1.42,1.42,0,0,0-1.21-1.42h0a1.42,1.42,0,0,0-1.68,1.09.91.91,0,0,0,0,.23l-1.12,13.18-3.28-16.6a1.42,1.42,0,0,0-1.42-1.19h0a1.42,1.42,0,0,0-1.42,1.41v.14l.92,18.43L556.05,212a1.54,1.54,0,0,0-1.87-1.1h0A1.53,1.53,0,0,0,553,212.5l1.86,17-3.5,3v-6l-4.25-7.09a1.2,1.2,0,0,0-1.55-.45h0a1.18,1.18,0,0,0-.55,1.55l2.83,6.22s-5.51,22.55-5.77,23.3,1,4.77,1.76,6.27,34.32,72.64,36.32,75.4,15.53,7,21.54.49,4-13,.75-20.53S554.83,250.1,554.83,250.1Z" class="cls-10"/></g><g id="freepik--character-1--inject-25"><path data-cppathid="10035" d="M198.69,285.66l1.08-1.42,17.57-23.94s2.38-14.28,3.57-17.86,3.58-11.1,4.37-13.88,1.59-6,3.18-4.77,1.59,6,.79,8.34a13.52,13.52,0,0,0-.4,6.74c.4,1.19,21.43-16.67,23.4-15.08s-.78,9.14-4.75,14.28-20.23,23.82-20.23,23.82-18.65,50-24.21,57.93-6.74,4.37-12.3,0S178,305.54,178,305.54Z" class="cls-3"/><path data-cppathid="10036" d="M227.66,252.33s2-7.09,4-8.74,9.52-6.34,9.52-6.34l5.16-15.88s1.59-1.19,1.19,2.38-1.19,11.52-2.38,15.08-6.35,9.92-6.35,9.92" class="cls-3"/><polygon data-cppathid="10037" points="170.13 224.94 200.67 284.86 177.27 308.67 170.52 286.05 170.13 224.94" class="cls-4"/><polygon data-cppathid="10038" points="174.47 299.28 177.27 308.67 200.67 284.86 196.46 276.61 174.47 299.28" class="cls-11"/><path data-cppathid="10039" d="M96.87,619.49,94,630.74S77.4,640,76.12,641.23s-.78,6.66-.78,6.66H123a43.76,43.76,0,0,0-1-12.29,135.25,135.25,0,0,1-1.32-15Z" class="cls-7"/><path data-cppathid="10040" d="M75.36,647.86H123c0-1,0-2.05,0-3.08H75.27A30,30,0,0,0,75.36,647.86Z" class="cls-5"/><path data-cppathid="10041" d="M77.16,640.77a22.06,22.06,0,0,1,11.52-5.12c7.67-1.29,14.59,1.53,16.12,3.06s2.55,5.89,2.55,5.89l-32.08.25a2.69,2.69,0,0,1,.84-3.7A2.66,2.66,0,0,1,77.16,640.77Z" class="cls-5"/><path data-cppathid="10042" d="M118.1,628.53c0,2.76-1,5-2.17,5s-2.18-2.23-2.18-5,1-5,2.18-5S118.1,625.78,118.1,628.53Z" class="cls-5"/><path data-cppathid="10043" d="M215.72,619.49l2.84,11.25s16.63,9.22,17.91,10.49.77,6.66.77,6.66H189.63a43,43,0,0,1,1-12.29,137.65,137.65,0,0,0,1.3-15Z" class="cls-7"/><path data-cppathid="10044" d="M237.22,647.86H189.63c-.08-1-.11-2.05-.09-3.08h47.78A28.81,28.81,0,0,1,237.22,647.86Z" class="cls-5"/><path data-cppathid="10045" d="M235.43,640.77a22.14,22.14,0,0,0-11.51-5.12c-7.67-1.29-14.59,1.53-16.13,3.06s-2.56,5.89-2.56,5.89l32.09.25a2.68,2.68,0,0,0-.83-3.7A2.65,2.65,0,0,0,235.43,640.77Z" class="cls-5"/><path data-cppathid="10046" d="M194.48,628.53c0,2.76,1,5,2.18,5s2.17-2.23,2.17-5-1-5-2.17-5S194.48,625.78,194.48,628.53Z" class="cls-5"/><polygon data-cppathid="10047" points="96.33 380.75 94.76 405.57 96.87 619.47 120.63 620.53 144.4 423 147.57 421.93 191.95 620.53 215.72 619.47 205.14 486.38 189.17 372.15 96.33 380.75" class="cls-5"/><polyline data-cppathid="10048" points="146.48 387.48 146.48 405.6 151.42 397.37 152.25 385.02" class="cls-12"/><path data-cppathid="10049" d="M112.59,222.16S59,245.58,58.23,247.92,43.15,309.42,45.46,315a13.56,13.56,0,0,0,17,7.09c7.53-2.84,14.68-31.74,14.68-31.74s16.66,50.79,16.66,55.95,1.59,36.87,1.59,36.87,30.55,4.36,56-1.58,37.7-9.53,37.7-9.53l-11.9-72.62s-6.35-71.82-7.09-74.6-46-3.57-49.64-3.17S112.59,222.16,112.59,222.16Z" class="cls-4"/><path data-cppathid="10050" d="M72,307.48A37.06,37.06,0,0,0,62.5,292c-4.43-3.93-10.32-1.7-14.34.73-2.13,11-3.51,20.29-2.63,22.31a13.55,13.55,0,0,0,17,7.09C66,320.9,69.39,314.29,72,307.48Z" class="cls-11"/><path data-cppathid="10051" d="M87.64,323.08l90.36-19-.73-4.48s-.14-1.42-.35-4L85.1,314.91C86,317.55,86.8,320.25,87.64,323.08Z" class="cls-13"/><path data-cppathid="10052" d="M189.17,372.15l-8.92-54.37L91.54,336.22a63.64,63.64,0,0,1,2.4,10.21c0,5.14,1.59,36.87,1.59,36.87s30.54,4.35,55.95-1.59S189.17,372.15,189.17,372.15Z" class="cls-11"/><path data-cppathid="10053" d="M120.53,221.76c-3.57.4-7.94.4-7.94.4s-10,4.4-21.5,9.57l46.37,47.88s9.93-47.75,9-51.86a44.31,44.31,0,0,0-1.64-5.67C133.48,221.66,122.23,221.58,120.53,221.76Z" class="cls-11"/><path data-cppathid="10054" d="M135.61,208.28s2.38,20.63,3.57,24.6-6.75,31.74-6.75,31.74-23-23.41-25.8-30.15-9.12-30.16-9.12-30.16S117.75,214.63,135.61,208.28Z" class="cls-3"/><path data-cppathid="10055" d="M97.51,204.31s1.42,5.34,3.26,11.65c1,.54,2.13,1.15,3.55,1.86a40.58,40.58,0,0,0,24.11,4.41,11.24,11.24,0,0,0,8.17-5.95c-.57-4.44-1-8-1-8C117.75,214.63,97.51,204.31,97.51,204.31Z" class="cls-7"/><path data-cppathid="10056" d="M125.41,156.2s6,12,10,17.26,10.44,16.88,7.63,23.7-4.65,18.43-13.66,19.68a40.81,40.81,0,0,1-24.11-4.42c-7.23-3.62-8-4.82-8-4.82s-6,0-9.64-2.84-10.83-11.64-8.83-19.27,6.83-8.44,6.83-8.44S75.6,173,82,163s20.07-13.64,26.51-13.64S125.41,156.2,125.41,156.2Z" class="cls-3"/><path data-cppathid="10057" d="M123.39,169.45a11.76,11.76,0,0,0,3.62,3.61c2.84,2,6.82.81,5.67,4.43s-4,4.8-6.42,4.41" class="cls-6"/><path data-cppathid="10058" d="M133,186.32s-7.63,4.41-12.85,4a14.33,14.33,0,0,1-7.63-2.42" class="cls-6"/><path data-cppathid="10059" d="M116.19,190.34s2.84,10,6.82,6.82a14.75,14.75,0,0,0,4.82-8.51A26.4,26.4,0,0,1,116.19,190.34Z" class="cls-7"/><path data-cppathid="10060" d="M115.78,172.93c.88,1.42.91,3,0,3.51s-2.27-.14-3.16-1.53-.91-3,0-3.52S114.89,171.53,115.78,172.93Z" class="cls-13"/><path data-cppathid="10061" d="M128.6,166.86c.88,1.42.91,3,0,3.52s-2.27-.14-3.16-1.54-.91-3,0-3.51S127.71,165.47,128.6,166.86Z" class="cls-13"/><path data-cppathid="10062" d="M107.35,171.73s1.17-5.36,5.37-6.07" class="cls-6"/><path data-cppathid="10063" d="M121.11,163.33s2.34-4.42,6.07-2.56" class="cls-6"/><path data-cppathid="10064" d="M86.85,168.65s26.11,0,28.12-4.42-4-7.63-4-7.63,22.5.8,24.91-6-8-9.63-11.25-9.63h-4.82s-1.21-10-12.85-7.63S72.79,151,70.05,159.82s-9.23,11.64-4.41,22.08,18.07,18.87,18.07,18.87-2-7.63,2-8,10.83,2.39,12,2.39,4.82-3.2,2.83-5.22-4-3.2-4.41-4.41,2-5.22.4-8.83S86.85,168.65,86.85,168.65Z" class="cls-7"/><rect data-cppathid="10065" transform="translate(-96.66 85.69) rotate(-33.61)" rx="3.28" height="39.68" width="17.73" y="183.02" x="84.68" class="cls-8"/><path data-cppathid="10066" d="M82,216.87s-1.86-4.75-3.7-8.2-1.86-5-.54-5a7.32,7.32,0,0,1,5.77,5.55,28.13,28.13,0,0,1,.53,8.73Z" class="cls-14"/><path data-cppathid="10067" d="M97.91,235.15s-15.08-15.07-15.6-16.39.07-18.44.23-23.36A1.56,1.56,0,0,1,83.81,194h0a1.56,1.56,0,0,1,1.8,1.28c0,.05,0,.09,0,.14l1.19,13.9,3.44-17.53a1.56,1.56,0,0,1,1.54-1.25h0a1.55,1.55,0,0,1,1.54,1.57v.06l-1,19.53L96.72,195a1.6,1.6,0,0,1,2-1.16h0a1.61,1.61,0,0,1,1.18,1.57l-2,17.94,3.7,3.18v-6.35l4.44-7.46a1.24,1.24,0,0,1,1.63-.49h0a1.26,1.26,0,0,1,.58,1.63l-3,6.58s5.83,23.8,6.09,24.6-1.05,5-1.85,6.62S73.3,318.4,71.26,321.31s-16.39,7.4-22.69.52-4.26-13.75-.8-21.68S97.91,235.15,97.91,235.15Z" class="cls-10"/><line data-cppathid="10068" y2="407.68" x2="123.28" y1="396.06" x1="103.2" class="cls-12"/><line data-cppathid="10069" y2="403.98" x2="172.39" y1="388.14" x1="184.53" class="cls-12"/></g><g id="freepik--Floor--inject-25"><line data-cppathid="10070" y2="647.86" x2="657.95" y1="647.86" x1="24" class="cls-6"/></g><polygon data-cppathid="10071" points="351.71 684.04 329.06 647.84 329.06 0 351.71 42.55 351.71 684.04"/><path data-cppathid="10072" d="M373.86,590.88c3.38-.48,9.8-4.64,9.81-4.64s-4-3.36-4.32-3.57c-3.28-2.09-10.86-4.2-14.23-1.45a5.12,5.12,0,0,0-.49,7.25,3.68,3.68,0,0,0,.39.4C367.2,591,371,591.29,373.86,590.88Z" class="cls-1"/><path data-cppathid="10073" d="M443.14,642.68c1.49,1.84,2.85,3.58,4.06,5.18h3.08c-1.55-2-3.38-4.2-5.39-6.62-1.18-1.41-2.47-2.89-3.81-4.4a51,51,0,0,0,3.37-4.66c2.75.91,8.35.67,9.08.64.21,1.78.39,3.54.55,5.19.35,3.73.56,7,.7,9.85h2.54c-.21-2.86-.5-6.25-.94-10.08-.21-1.83-.46-3.77-.75-5.77.71-.21,6.46-2,8.57-3.86,1.91-1.68,3.88-4.36,3.67-7a4.52,4.52,0,0,0-4.74-4.31,3.88,3.88,0,0,0-.48,0c-3.77.68-6.64,6.94-7.1,10.32,0,.2-.07,2.39-.08,3.78-.12-.84-.23-1.61-.36-2.45-.25-1.68-.55-3.3-.84-5-.19-.84-.37-1.68-.56-2.58s-.45-1.75-.68-2.64c-.57-2-1.24-4.09-2-6.14,1.46-.22,6.63-1.09,8.79-2.48s4.5-3.73,4.7-6.42a4.53,4.53,0,0,0-4-5l-.51,0c-3.83.11-7.59,5.88-8.59,9.13-.06.21-.48,2.62-.69,4-.45-1.23-.89-2.45-1.38-3.68-1.42-3.53-3-7.08-4.49-10.61l-1.37-3.26c.51-.08,6.67-1,9.1-2.52,2.14-1.38,4.49-3.73,4.7-6.42a4.54,4.54,0,0,0-4-5,4.19,4.19,0,0,0-.5,0c-3.83.1-7.6,5.88-8.59,9.13-.07.24-.68,3.73-.79,4.63-1-2.4-2-4.79-2.86-7.18a79.12,79.12,0,0,1-2.95-9.89c.25,0,6.68-.95,9.16-2.52,2.15-1.38,4.5-3.73,4.7-6.41a4.51,4.51,0,0,0-4-5l-.52,0c-3.84.1-7.6,5.88-8.59,9.12-.07.22-.53,2.87-.73,4.14h-.21a57.67,57.67,0,0,1-1.11-10.32c-.06-1.9,0-3.73.08-5.5,1.22-.05,6.76-.32,9.16-1.52s4.89-3.21,5.39-5.88a4.53,4.53,0,0,0-3.47-5.39A3.65,3.65,0,0,0,447,547c-3.82-.32-8.23,5-9.54,8.13-.08.17-.61,2-1,3.36.05-.84.09-1.63.16-2.4.24-2.88.64-5.49,1-7.81.22-1.32.45-2.52.68-3.6,1.16-.67,5.84-3.41,7.38-5.52s2.85-5.1,2.06-7.68a4.54,4.54,0,0,0-5.56-3.19l-.46.14c-3.53,1.47-5,8.2-4.7,11.59,0,.3,1,4.84,1,4.81l.06,0c-.23,1.05-.48,2.2-.71,3.45-.43,2.31-.85,4.93-1.19,7.81a78.82,78.82,0,0,0-.55,9.34,59.83,59.83,0,0,0,.85,10.43v.12c-.52-1-2.09-3.71-2.23-3.9-2-2.75-7.55-6.88-11.19-5.68a4.51,4.51,0,0,0-2.73,5.78c.06.15.12.3.19.45,1.11,2.46,4.13,3.88,6.62,4.45,2.81.64,8.94-.6,9.43-.7a81,81,0,0,0,2.8,10.29c.67,2,1.41,3.92,2.17,5.88-.49-.84-.92-1.59-1-1.68-2-2.75-7.55-6.88-11.2-5.68a4.51,4.51,0,0,0-2.72,5.78c.06.15.12.3.19.45,1.11,2.46,4.12,3.88,6.61,4.45s7.78-.38,9.16-.65c.3.75.59,1.49.9,2.24,1.45,3.58,2.91,7.14,4.22,10.68.46,1.24.84,2.52,1.3,3.73l-.85-1.46c-2-2.75-7.54-6.88-11.19-5.68a4.51,4.51,0,0,0-2.72,5.79,4.17,4.17,0,0,0,.19.44c1.1,2.46,4.12,3.88,6.61,4.44s7.26-.27,8.91-.59c.39,1.29.79,2.57,1.11,3.84.19.84.44,1.68.6,2.57s.33,1.73.5,2.59c.26,1.68.53,3.36.75,5,.16,1.12.28,2.2.41,3.28-.45-1.24-1.39-3.66-1.49-3.85a17.52,17.52,0,0,0-6.2-6.34,4.62,4.62,0,0,0-.54-.84,4.55,4.55,0,0,0-6.33-1,3.93,3.93,0,0,0-.38.31c-2.78,2.64-1.69,9.43-.21,12.5.09.18,1.26,2,2,3.2-.56-.62-1.08-1.22-1.69-1.84-1.13-1.25-2.29-2.46-3.54-3.76l-1.89-1.84c-.62-.63-1.36-1.21-2-1.83-1.61-1.4-3.31-2.74-5.07-4,1.09-1,4.92-4.54,5.91-6.88s1.69-5.58.37-7.93a4.56,4.56,0,0,0-6.13-1.92,3.38,3.38,0,0,0-.41.24c-3.14,2.19-3.11,9.07-2.1,12.33.06.2,1.05,2.45,1.61,3.68-1-.78-2.09-1.56-3.18-2.31-3.15-2.18-6.4-4.29-9.64-6.39l-2.95-2c.39-.35,5.06-4.49,6.18-7.11,1-2.32,1.69-5.58.37-7.93a4.55,4.55,0,0,0-6.12-1.93,4.64,4.64,0,0,0-.42.25c-3.14,2.18-3.11,9.07-2.1,12.32.08.24,1.5,3.49,1.91,4.3-2.17-1.45-4.32-2.9-6.37-4.42a79.9,79.9,0,0,1-7.94-6.63c.19-.16,5.06-4.46,6.23-7.14,1-2.33,1.69-5.59.37-7.93a4.54,4.54,0,0,0-6.11-1.93,4.23,4.23,0,0,0-.42.25C392,585.84,392,592.72,393,596c.06.22,1.15,2.69,1.68,3.85a1.09,1.09,0,0,0-.17.13,57.85,57.85,0,0,1-6.65-8c-1.1-1.56-2.07-3.1-3-4.63,1-.72,5.47-4,6.8-6.29s2.3-5.37,1.24-7.85a4.54,4.54,0,0,0-5.85-2.61l-.46.2c-3.37,1.83-4.09,8.68-3.45,12,0,.19.6,2,1,3.31-.39-.7-.84-1.41-1.19-2.08-1.39-2.52-2.53-4.93-3.48-7.07-.54-1.22-1-2.33-1.44-3.36.61-1.2,3-6.06,3.1-8.66s-.45-5.81-2.53-7.56a4.55,4.55,0,0,0-6.4.37,3.68,3.68,0,0,0-.31.38c-2.14,3.17.38,9.58,2.53,12.25.18.23,3.46,3.52,3.49,3.46l0-.08c.38,1,.84,2.1,1.3,3.28.93,2.16,2,4.59,3.38,7.16a77,77,0,0,0,4.73,8.09A58.71,58.71,0,0,0,394,600.5l.09.08c-1-.54-3.79-1.94-4-2-3.21-1.19-10.13-1.6-12.49,1.4a4.5,4.5,0,0,0,.94,6.31,3.62,3.62,0,0,0,.41.27c2.28,1.45,5.58,1,8,.08,2.7-1,7.13-5.4,7.48-5.75a79.14,79.14,0,0,0,8.05,7c1.69,1.28,3.37,2.52,5.06,3.72a14.61,14.61,0,0,0-1.76-.84c-3.21-1.18-10.13-1.59-12.49,1.41a4.5,4.5,0,0,0,.94,6.31,3.62,3.62,0,0,0,.41.27c2.28,1.45,5.58,1,8,.09s6.28-4.59,7.29-5.57l2,1.38c3.19,2.18,6.39,4.35,9.46,6.57,1.08.78,2.11,1.6,3.16,2.4-.78-.39-1.43-.71-1.53-.74-3.21-1.19-10.13-1.6-12.48,1.4a4.5,4.5,0,0,0,.92,6.31l.42.27c2.29,1.45,5.59,1,8,.08s5.91-4.2,7.1-5.38c1,.84,2.09,1.68,3.05,2.59.65.61,1.32,1.16,1.93,1.81l1.86,1.89c1.13,1.24,2.31,2.52,3.38,3.74.75.84,1.46,1.68,2.17,2.52-1.07-.79-3.19-2.29-3.38-2.4-3-1.68-9.75-3.1-12.55-.5a4.49,4.49,0,0,0,0,6.39,2.82,2.82,0,0,0,.36.33c2.13,1.71,5.43,1.71,8,1.22,2.75-.57,7.6-4.09,8.22-4.53C441,640,442.1,641.37,443.14,642.68Z" class="cls-1"/><path data-cppathid="10074" d="M436.83,558.64c.08,0-1.5-5-1.63-5.35-1.58-3.54-6.75-9.46-11.06-9a5.15,5.15,0,0,0-4.33,6.31c.63,3,3.63,5.31,6.26,6.54C429.16,558.59,436.83,558.64,436.83,558.64Z" class="cls-1"/></g></g></svg>