<?xml version="1.0" encoding="UTF-8"?>
<svg xmlns="http://www.w3.org/2000/svg" onmouseup="{ if(window.parent.document.onmouseup) window.parent.document.onmouseup(arguments[0]);}" viewBox="0 0 399.66 388.6" xmlns:xlink="http://www.w3.org/1999/xlink"><defs><style>.cls-1,.cls-13,.cls-5,.cls-6,.cls-8{fill:none;}.cls-11,.cls-2{fill:#c53f3f;}.cls-3,.cls-7,.cls-9{fill:#fff;}.cls-3{opacity:0.7;}.cls-15,.cls-3{isolation:isolate;}.cls-10,.cls-12,.cls-4{fill:#263238;}.cls-10,.cls-11,.cls-12,.cls-5,.cls-6,.cls-8,.cls-9{stroke:#263238;}.cls-10,.cls-11,.cls-5,.cls-6,.cls-9{stroke-linecap:round;stroke-linejoin:round;}.cls-6{stroke-width:0.5px;}.cls-12,.cls-13,.cls-8{stroke-miterlimit:10;}.cls-8{stroke-width:2px;}.cls-13{stroke:#fff;}.cls-14{clip-path:url(#clip-path);}.cls-15{opacity:0.3;}</style><clipPath id="clip-path"><path data-cppathid="10000" d="M190.5,222.09s-18,2.5-31.5,4.5-23,4.25-23.25,8.75-19.75,52-22,53.5a11.84,11.84,0,0,0-5.25,8.75,35.21,35.21,0,0,1-2.5,9s8.75-1,12.5,2,6,4.75,6,4.75,10.5-6.75,12-10.25-3.25-11-1.75-13.5,7.5-10.75,7.5-10.75,8,25,9,30.25a23.62,23.62,0,0,1-.75,10.5h70.25V298.84c0-3.75,2.75-15.5,2.75-15.5s6.75,19.5,8.5,24.75a113.58,113.58,0,0,1,3,11.5h24s-8.25-24.75-11.25-32.5-6.5-38.75-8-42.5-22.75-15.5-33.25-18A163.62,163.62,0,0,1,190.5,222.09Z" class="cls-1"/></clipPath></defs><g data-name="Layer 2" id="Layer_2"><g data-name="Layer 1" id="Layer_1-2"><g id="freepik--background-simple--inject-1--inject-209"><path data-cppathid="10001" d="M263.28,17.69c-47.17-21.78-104-22.87-153-6.44C60.85,27.84,9.73,69.68,5.06,125.25,1.6,166,33.66,191.48,39.27,229.5c3.41,23.09-7.34,43-9,65.3-1.41,19,5.39,37.11,18,51.19,39,43.76,115.1,60.67,160.93,17.6,18-16.95,34-40.26,58.42-48.61,49.09-16.76,124.11-21,131.5-86.5,4.5-39.92-20.07-76.91-40.71-108.82C332.56,79.84,308.06,38.38,263.28,17.69Z" class="cls-2"/><path data-cppathid="10002" d="M263.28,17.69c-47.17-21.78-104-22.87-153-6.44C60.85,27.84,9.73,69.68,5.06,125.25,1.6,166,33.66,191.48,39.27,229.5c3.41,23.09-7.34,43-9,65.3-1.41,19,5.39,37.11,18,51.19,39,43.76,115.1,60.67,160.93,17.6,18-16.95,34-40.26,58.42-48.61,49.09-16.76,124.11-21,131.5-86.5,4.5-39.92-20.07-76.91-40.71-108.82C332.56,79.84,308.06,38.38,263.28,17.69Z" class="cls-3"/><path data-cppathid="10003" d="M263.28,17.69c-47.17-21.78-104-22.87-153-6.44C60.85,27.84,9.73,69.68,5.06,125.25,1.6,166,33.66,191.48,39.27,229.5c3.41,23.09-7.34,43-9,65.3-1.41,19,5.39,37.11,18,51.19,39,43.76,115.1,60.67,160.93,17.6,18-16.95,34-40.26,58.42-48.61,49.09-16.76,124.11-21,131.5-86.5,4.5-39.92-20.07-76.91-40.71-108.82C332.56,79.84,308.06,38.38,263.28,17.69Z" class="cls-2"/><path data-cppathid="10004" d="M263.28,17.69c-47.17-21.78-104-22.87-153-6.44C60.85,27.84,9.73,69.68,5.06,125.25,1.6,166,33.66,191.48,39.27,229.5c3.41,23.09-7.34,43-9,65.3-1.41,19,5.39,37.11,18,51.19,39,43.76,115.1,60.67,160.93,17.6,18-16.95,34-40.26,58.42-48.61,49.09-16.76,124.11-21,131.5-86.5,4.5-39.92-20.07-76.91-40.71-108.82C332.56,79.84,308.06,38.38,263.28,17.69Z" class="cls-3"/></g><g id="freepik--Window--inject-1--inject-209"><rect data-cppathid="10005" height="3.39" width="372" y="243.21" x="4.17" class="cls-4"/><path data-cppathid="10006" d="M265.71,201.84a7.7,7.7,0,0,0,2.24.24s-.34-1-.37-1.1c-.35-.72-1.45-1.92-2.34-1.8a1.06,1.06,0,0,0-.89,1.21l0,.13A2.25,2.25,0,0,0,265.71,201.84Z" class="cls-4"/><path data-cppathid="10007" d="M286.46,196.41c-.9-.1-2,1.13-2.29,1.86,0,.07-.36,1.11-.34,1.11h0l-.55.64c-.35.43-.74.92-1.13,1.48a19.14,19.14,0,0,0-1.18,1.88,14.25,14.25,0,0,0-1,2.26h0v-1.06c-.11-.8-.78-2.29-1.66-2.45a1.08,1.08,0,0,0-1.23.9s0,.07,0,.1a2.24,2.24,0,0,0,.86,1.67,7.44,7.44,0,0,0,2,.93,18.6,18.6,0,0,0-.59,2.45c-.09.48-.16,1-.22,1.46v-.46c-.11-.8-.78-2.28-1.66-2.44a1.07,1.07,0,0,0-1.23.88s0,.08,0,.12a2.26,2.26,0,0,0,.86,1.67,7.38,7.38,0,0,0,2,.91c0,.18-.05.37-.07.56-.11.91-.21,1.81-.34,2.69-.05.32-.1.62-.16.93a2.67,2.67,0,0,0,0-.4c-.1-.8-.77-2.29-1.66-2.45a1.06,1.06,0,0,0-1.22.87s0,.09,0,.13a2.24,2.24,0,0,0,.86,1.67,6.88,6.88,0,0,0,1.9.89c-.06.31-.13.62-.21.92s-.1.4-.16.6-.13.4-.2.6c-.13.37-.27.76-.41,1.12l-.29.72c.05-.31.13-.91.13-1a3.91,3.91,0,0,0-.55-2v-.24a1.05,1.05,0,0,0-1.18-.92l-.12,0c-.87.23-1.43,1.76-1.47,2.56a7.22,7.22,0,0,0,.05.89,2.38,2.38,0,0,0-.13-.56c-.09-.39-.19-.77-.3-1.18l-.18-.6c-.06-.2-.14-.4-.21-.61-.17-.47-.37-.94-.58-1.41a7.1,7.1,0,0,0,2-.75,2.25,2.25,0,0,0,1-1.6,1.07,1.07,0,0,0-1-1.1h-.11c-.9.1-1.68,1.53-1.84,2.32,0,0-.07.63-.09.94-.13-.28-.25-.56-.39-.84-.4-.8-.83-1.61-1.26-2.41l-.39-.74a7.52,7.52,0,0,0,2.09-.77,2.25,2.25,0,0,0,1-1.61,1.09,1.09,0,0,0-1.05-1.1h-.11c-.89.1-1.67,1.53-1.83,2.32,0,.06-.09.89-.1,1.1-.28-.54-.56-1.09-.81-1.63a17,17,0,0,1-.88-2.28,7.58,7.58,0,0,0,2.1-.77,2.32,2.32,0,0,0,1-1.61,1.09,1.09,0,0,0-1.05-1.1h-.11c-.89.1-1.67,1.53-1.84,2.32,0,.06-.09,1-.09,1.12l0-.14a14.09,14.09,0,0,1-.45-2.4c0-.45-.08-.88-.09-1.3a7,7,0,0,0,2.12-.53,2.29,2.29,0,0,0,1.15-1.48,1.07,1.07,0,0,0-.93-1.21h-.07c-.9,0-1.83,1.34-2.08,2.1l-.17.8v-.56a13.42,13.42,0,0,1,.08-1.86,7.28,7.28,0,0,1,.09-.87,7.21,7.21,0,0,0,1.63-1.44,2.22,2.22,0,0,0,.33-1.85,1.06,1.06,0,0,0-1.35-.65l-.12,0c-.8.41-1,2-.88,2.82,0,.07.32,1.12.33,1.12h0a6.79,6.79,0,0,1-.11.83c0,.55-.11,1.18-.12,1.86a18.28,18.28,0,0,0,.05,2.22,13.52,13.52,0,0,0,.41,2.44h0c-.14-.23-.56-.84-.6-.88-.53-.61-1.9-1.48-2.73-1.12a1.06,1.06,0,0,0-.54,1.4l.06.11a2.23,2.23,0,0,0,1.64.92,7.43,7.43,0,0,0,2.2-.34,18.08,18.08,0,0,0,.85,2.37c.2.45.41.9.63,1.34-.13-.19-.25-.35-.27-.37-.53-.61-1.9-1.48-2.73-1.13a1.06,1.06,0,0,0-.53,1.41.54.54,0,0,0,.05.11,2.24,2.24,0,0,0,1.64.92,7,7,0,0,0,2.14-.33c.08.17.16.34.25.51.41.82.82,1.63,1.2,2.44.13.28.25.57.38.85l-.23-.33c-.53-.6-1.91-1.47-2.74-1.12a1.06,1.06,0,0,0-.52,1.42.47.47,0,0,0,.05.1,2.24,2.24,0,0,0,1.64.92,7.26,7.26,0,0,0,2.07-.31c.12.29.24.59.34.88s.14.39.19.59.11.41.17.61c.09.38.19.78.27,1.16s.11.51.16.76l-.42-.88c-.43-.68-1.66-1.75-2.54-1.52a1,1,0,0,0-.73,1.29.65.65,0,0,0,0,.13A2.18,2.18,0,0,0,271.4,219a7.44,7.44,0,0,0,2.21,0c.09.42.17.82.23,1.21.24,1.34.39,2.46.48,3.25v.38H271.6l1,19.35h4.62l1-19.35h-2.53l.06-.11c.35-.72.83-1.76,1.35-3l.5-1.27a7.8,7.8,0,0,0,2.21.17,2.29,2.29,0,0,0,1.56-1,1.06,1.06,0,0,0-.5-1.43l-.09,0c-.86-.29-2.16.68-2.64,1.33l-.45.77.21-.55c.13-.37.26-.74.39-1.15l.18-.59c.06-.21.12-.42.16-.63.12-.49.21-1,.3-1.49a7.14,7.14,0,0,0,2.09.48,2.23,2.23,0,0,0,1.7-.8,1.07,1.07,0,0,0-.26-1.49l-.1-.06c-.8-.41-2.24.35-2.81.92,0,0-.4.49-.59.74a7.54,7.54,0,0,1,.13-.92c.11-.89.2-1.8.29-2.7a8,8,0,0,1,.08-.84,7.31,7.31,0,0,0,2.17.51,2.22,2.22,0,0,0,1.7-.79,1.07,1.07,0,0,0-.26-1.49l-.1-.06c-.8-.42-2.24.35-2.81.91,0,0-.57.7-.69.87.06-.61.13-1.21.23-1.81a16,16,0,0,1,.52-2.38,7.38,7.38,0,0,0,2.17.51,2.22,2.22,0,0,0,1.7-.79,1.07,1.07,0,0,0-.26-1.49l-.1-.06c-.8-.42-2.24.35-2.81.91,0,.05-.6.75-.7.89v-.14a14,14,0,0,1,.94-2.26c.21-.4.43-.77.65-1.13a7.24,7.24,0,0,0,2.06.73,2.26,2.26,0,0,0,1.78-.61,1.07,1.07,0,0,0-.12-1.52l-.07-.06c-.75-.49-2.26.11-2.89.61,0,0-.36.34-.58.57l.3-.47c.38-.57.76-1.07,1.1-1.51l.55-.67a7.12,7.12,0,0,0,2.15-.3,2.24,2.24,0,0,0,1.3-1.36,1.07,1.07,0,0,0-.76-1.31A.47.47,0,0,0,286.46,196.41Zm-9.93,24.1c-.55,1.24-1,2.26-1.4,3-.08.14-.14.27-.2.38h-.06a2,2,0,0,0-.06-.45c-.11-.8-.28-1.93-.55-3.28-.08-.42-.18-.88-.29-1.34a11.63,11.63,0,0,0,1.24-.58A8.2,8.2,0,0,0,277,219.4Z" class="cls-4"/><path data-cppathid="10008" d="M281.73,202.15s.29-1.06.3-1.13c.11-.79-.14-2.4-1-2.79a1,1,0,0,0-1.4.52.61.61,0,0,0-.05.12,2.21,2.21,0,0,0,.39,1.84A8.4,8.4,0,0,0,281.73,202.15Z" class="cls-4"/><path data-cppathid="10009" d="M51.06,203.84a7.62,7.62,0,0,0,2.13.24s-.33-1-.36-1.05c-.33-.69-1.37-1.83-2.22-1.71a1,1,0,0,0-.85,1.13l0,.14A2.17,2.17,0,0,0,51.06,203.84Z" class="cls-4"/><path data-cppathid="10010" d="M70.81,198.71c-.85-.09-1.87,1.07-2.18,1.77,0,.07-.34,1.06-.32,1.06h0c-.17.18-.34.38-.52.6-.33.41-.71.88-1.08,1.41a20.36,20.36,0,0,0-1.12,1.78,13.22,13.22,0,0,0-1,2.16h0v-1c-.1-.76-.74-2.17-1.58-2.32a1,1,0,0,0-1.16.81,1.21,1.21,0,0,0,0,.19,2.11,2.11,0,0,0,.81,1.59,7.11,7.11,0,0,0,1.92.88A20.27,20.27,0,0,0,64,210c-.08.46-.15.93-.21,1.39v-.44c-.1-.76-.74-2.17-1.58-2.32a1,1,0,0,0-1.16.81c0,.05,0,.09,0,.14a2.13,2.13,0,0,0,.81,1.59,6.63,6.63,0,0,0,1.87.86,1.44,1.44,0,0,1-.07.54c-.1.86-.2,1.72-.32,2.56l-.15.88v-.38c-.1-.76-.74-2.17-1.58-2.33a1,1,0,0,0-1.16.81,1.21,1.21,0,0,0,0,.19,2.09,2.09,0,0,0,.81,1.58,6.8,6.8,0,0,0,1.81.85c-.06.29-.12.59-.2.87s-.1.38-.16.57l-.18.57c-.13.35-.26.72-.39,1.06s-.19.47-.28.69c0-.29.13-.87.13-.92a3.89,3.89,0,0,0-.53-1.91v-.23a1,1,0,0,0-1.1-.89l-.15,0c-.82.22-1.35,1.68-1.39,2.44v.85l-.12-.54c-.09-.37-.19-.73-.29-1.12-.06-.19-.12-.38-.17-.57s-.14-.39-.2-.58c-.17-.45-.36-.9-.55-1.34a6.9,6.9,0,0,0,1.91-.72,2.15,2.15,0,0,0,.93-1.52,1,1,0,0,0-1-1h-.11c-.85.09-1.59,1.45-1.75,2.2,0,.05-.06.6-.08.9-.12-.26-.24-.53-.37-.8-.38-.77-.79-1.53-1.2-2.3l-.37-.7a7.17,7.17,0,0,0,2-.73,2.13,2.13,0,0,0,.93-1.53,1,1,0,0,0-1-1h-.11c-.85.1-1.59,1.46-1.75,2.21,0,.05-.08.85-.09,1.05-.27-.52-.53-1-.77-1.56a21,21,0,0,1-.84-2.16,7.52,7.52,0,0,0,2-.74,2.12,2.12,0,0,0,.93-1.52,1,1,0,0,0-1-1h-.11c-.85.09-1.59,1.45-1.74,2.2,0,.06-.09.91-.1,1.07v-.13a12.73,12.73,0,0,1-.43-2.28c0-.43-.07-.84-.09-1.24a6.6,6.6,0,0,0,2-.5,2.12,2.12,0,0,0,1.09-1.42,1,1,0,0,0-.84-1.14h-.16c-.86,0-1.75,1.27-2,2,0,0-.1.45-.16.76v-.54a12.25,12.25,0,0,1,.08-1.77,6.43,6.43,0,0,1,.09-.82,6.94,6.94,0,0,0,1.54-1.37,2.09,2.09,0,0,0,.32-1.76,1,1,0,0,0-1.27-.62l-.12.05c-.77.39-1,1.93-.84,2.68,0,.07.3,1.07.31,1.06h0c0,.24-.07.5-.1.79,0,.52-.11,1.12-.12,1.77a18.39,18.39,0,0,0,0,2.1,13.08,13.08,0,0,0,.39,2.32h0l-.57-.83c-.5-.58-1.81-1.41-2.6-1.07a1,1,0,0,0-.51,1.32.67.67,0,0,0,.06.12,2.12,2.12,0,0,0,1.55.87,7.06,7.06,0,0,0,2.09-.32,17.78,17.78,0,0,0,.82,2.25c.18.43.38.86.59,1.28l-.25-.36c-.5-.58-1.81-1.4-2.6-1.07a1,1,0,0,0-.51,1.32.67.67,0,0,0,.06.12,2.1,2.1,0,0,0,1.55.88,7.13,7.13,0,0,0,2-.31l.24.48c.39.78.79,1.55,1.15,2.32l.36.81-.22-.31c-.5-.58-1.81-1.41-2.6-1.07a1,1,0,0,0-.51,1.32.67.67,0,0,0,.06.12,2.1,2.1,0,0,0,1.55.88,6.78,6.78,0,0,0,2-.3c.11.28.22.56.32.84a5,5,0,0,1,.18.57c.05.2.11.38.16.57.09.36.18.74.26,1.1l.15.73-.4-.84c-.41-.64-1.58-1.66-2.41-1.45a1,1,0,0,0-.72,1.22.78.78,0,0,0,.05.14,2.15,2.15,0,0,0,1.41,1.1,6.72,6.72,0,0,0,2.1,0c.08.39.16.78.22,1.15.22,1.27.36,2.34.45,3.09V225H56.41l.94,18.39h4.4L62.69,225h-2.4v-.11c.33-.69.79-1.68,1.28-2.89.16-.38.32-.79.48-1.22a6.76,6.76,0,0,0,2.1.17,2.13,2.13,0,0,0,1.48-1,1,1,0,0,0-.43-1.35l-.13,0c-.81-.27-2,.65-2.51,1.27l-.42.73c.06-.17.13-.34.19-.52.13-.35.25-.71.38-1.09.06-.19.11-.38.17-.57s.1-.39.15-.59c.11-.47.2-.94.28-1.42a6.84,6.84,0,0,0,2,.45,2.2,2.2,0,0,0,1.62-.75,1,1,0,0,0-.21-1.4.57.57,0,0,0-.13-.08c-.76-.39-2.13.34-2.67.88l-.57.7a6.53,6.53,0,0,1,.13-.87c.1-.85.19-1.72.27-2.58a2.69,2.69,0,0,1,.08-.79,7.27,7.27,0,0,0,2.06.48,2.2,2.2,0,0,0,1.62-.75,1,1,0,0,0-.23-1.4l-.12-.07c-.76-.4-2.12.33-2.67.87,0,0-.54.66-.65.82.06-.58.12-1.15.21-1.72a17.17,17.17,0,0,1,.5-2.26,7.34,7.34,0,0,0,2.07.48,2.16,2.16,0,0,0,1.61-.75,1,1,0,0,0-.21-1.4.57.57,0,0,0-.13-.08c-.76-.39-2.13.34-2.67.88,0,0-.58.71-.67.84v-.14a11.82,11.82,0,0,1,.9-2.14c.19-.38.4-.74.61-1.08a6.42,6.42,0,0,0,2,.69,2.11,2.11,0,0,0,1.69-.57,1,1,0,0,0-.07-1.41.31.31,0,0,0-.11-.09c-.71-.48-2.15.09-2.75.57l-.55.55c.1-.15.19-.31.29-.45.36-.54.72-1,1-1.43.19-.24.36-.45.53-.64a7.11,7.11,0,0,0,2-.29,2.16,2.16,0,0,0,1.24-1.29,1,1,0,0,0-.38-1.36Zm-9.44,22.91c-.52,1.19-1,2.16-1.34,2.83-.06.14-.13.26-.18.37h-.06a1.17,1.17,0,0,0-.06-.44c-.1-.76-.27-1.83-.52-3.11-.08-.41-.17-.84-.27-1.28a12.47,12.47,0,0,0,1.17-.55,7.68,7.68,0,0,0,1.71,1.1C61.67,220.92,61.51,221.28,61.37,221.62Z" class="cls-4"/><path data-cppathid="10011" d="M66.31,204.16s.28-1,.29-1.06c.1-.76-.14-2.29-.91-2.66a1,1,0,0,0-1.33.48.5.5,0,0,0,0,.13,2.14,2.14,0,0,0,.36,1.75A7.38,7.38,0,0,0,66.31,204.16Z" class="cls-4"/><line data-cppathid="10012" y2="57.37" x2="289.5" y1="245.21" x1="289.5" class="cls-5"/><line data-cppathid="10013" y2="58.54" x2="121.5" y1="245.21" x1="121.5" class="cls-5"/><line data-cppathid="10014" y2="153" x2="362.74" y1="153" x1="14.25" class="cls-5"/><line data-cppathid="10015" y2="121.17" x2="166.2" y1="118.5" x1="170.54" class="cls-6"/><line data-cppathid="10016" y2="114.9" x2="176.38" y1="73.35" x1="243.8" class="cls-6"/><line data-cppathid="10017" y2="109.44" x2="198.68" y1="76.16" x1="252.7" class="cls-6"/><line data-cppathid="10018" y2="71.67" x2="259.97" y1="61.62" x1="276.29" class="cls-6"/><circle data-cppathid="10019" r="27" cy="99.84" cx="120.5" class="cls-4"/><circle data-cppathid="10020" r="23.42" cy="99.84" cx="120.5" class="cls-7"/><polyline data-cppathid="10021" points="105.31 104.15 120.5 99.84 120.5 78.59" class="cls-8"/></g><g id="freepik--Desk--inject-1--inject-209"><line data-cppathid="10022" y2="319.59" x2="370.5" y1="319.59" x1="363.85" class="cls-5"/><line data-cppathid="10023" y2="319.59" x2="354.83" y1="319.59" x1="0.5" class="cls-5"/></g><g id="freepik--Plant--inject-1--inject-209"><path data-cppathid="10024" d="M77.28,310.27h-33s0,8.86,4.66,20.45c0,2.22,5.33,4,11.91,4s11.9-1.79,11.9-4a1.82,1.82,0,0,0,0-.33C77.23,319,77.28,310.27,77.28,310.27Z" class="cls-9"/><ellipse data-cppathid="10025" ry="4.81" rx="16.57" cy="310.27" cx="60.89" class="cls-9"/><ellipse data-cppathid="10026" ry="4.02" rx="14.87" cy="310.27" cx="60.89" class="cls-9"/><path data-cppathid="10027" d="M47.42,312c2.38,1.37,7.51,2.31,13.47,2.31S72,313.34,74.35,312c-2.37-1.36-7.51-2.31-13.46-2.31S49.8,310.61,47.42,312Z" class="cls-10"/><path data-cppathid="10028" d="M54,312.35s-4.31-10.76-3.05-13.63,5.38-2.51,6.82.36,2.15,13.63,2.15,13.63S55.57,314.15,54,312.35Z" class="cls-11"/><path data-cppathid="10029" d="M57.73,313.43s-3.41-19-2.52-22.6,5.39-4.85,8.61-2.16,2,16.33,2,18.3-.18,6.1-.18,6.1A15.07,15.07,0,0,1,57.73,313.43Z" class="cls-11"/><path data-cppathid="10030" d="M64.72,313.07s-2.66-7.36-1.07-10.23,4.84-1.79,4.84.54.18,7.9-.18,9.15S66,314.15,64.72,313.07Z" class="cls-11"/><path data-cppathid="10031" d="M60.78,312.89c-4.49-17-.72-25.47-.72-25.47s5.38,9.33,2.51,25.47" class="cls-5"/><path data-cppathid="10032" d="M53.42,298.36s-4.13.18,2.69,14.35" class="cls-5"/></g><g id="freepik--Character--inject-1--inject-209"><path data-cppathid="10033" d="M195.42,248.57s-64.43-2.19-71,12.45,0,58.57,0,58.57h100.3s14.34-54.42,6.34-61.75S195.42,248.57,195.42,248.57Z" class="cls-12"/><path data-cppathid="10034" d="M203.26,143.08s-3.5-1.62-5.54.44-3.73,3.13-5.31,3.22-5.39-1.05-6.48,1.86-3.15,2.69-4.5,3.06-5.67,1.68-5.85,3.42.11,4-1.5,4.37-5.52.19-6.06,2.9a7.41,7.41,0,0,1-4.21,5.35c-1.63.59-5,0-5.28,3s-.35,6-.35,6l-1.86,2.82s-3.06,1.7-2.32,4.79,3.67,5.15.25,7.82-5.64,4-4.06,6.37,4.21,2.44,3.67,5.15-4.29,6.1-.24,7.51,5.16.78,4.65,3.24,2.37,5,3.67,5.15.72.58,1.72,3.69a5.77,5.77,0,0,0,4.83,4c1,.11,2.38-.26,4,1.67s17.56,15.36,35,16.88a61.09,61.09,0,0,0,31.44-5.09c3.55-1.4,7.22-4,7.19-6.3s4.69-2.29,6.45-4.12,2.09-2.55,2.09-5.06.24-5,1.2-6.67,2.09-2.55,1.83-5.09,1.64-5.86,2.83-7.25,2.43-3.27.19-7-3.2-4.6-2.37-7.53,2.16-5.81.31-8.26a9.66,9.66,0,0,1-1.9-7c.2-2,1.65-3.35-1.31-5.16s-2.94-4.57-3.34-5.87.31-3-3.17-4.85a10.59,10.59,0,0,1-5.15-6c-.62-1.57-2.42-4.52-5.48-5.33s-4.64-.73-6.72-3.45-4-4.93-6.81-5.22-2.62,0-6.84.31a13.64,13.64,0,0,1-7-1C209.92,139.48,206.8,136.65,203.26,143.08Z" class="cls-10"/><path data-cppathid="10035" d="M157.76,193c2.12-1.51-.91-7.27.91-10.9s2.12-3.33,3.63-7,.91-4.55,3.94-5.15,5.15-3.33,8.48-7.27,5.75-1.21,8.48-5.45,1.21-5.15,4.84-5.75,8.18-1.52,10.6-3.34a12.28,12.28,0,0,1,7.27-2.42,10.68,10.68,0,0,0,3.63-.6,11.34,11.34,0,0,1,5.45-1.52c3,0,3,1.21,8.18,0M209.54,149s-8.17,4.24-9.08,7-5.45,0-8.78,3.63-2.12,7.57-5.76,9.09-11.2,1.51-11.5,6.36-.61,7.87-3,10.29-5.45,3-3.33,6.36,3.33,5.15.3,9.09-8.18,5.14-3.63,9.38,7.57,4.55,5.75,7.57,2.72,4.55,3.94,5.15" class="cls-13"/><path data-cppathid="10036" d="M179,193.29s6.66,0,8.78-1.82,4.24-4.54,7-3,5.45.91,7-2.73-2.42-5.14,3-5.14,5.75-1.21,8.17-5.45-.6-4.24,6.67-4.55,7.87-5.14,10.6-4.84,3.93.91,1.21,6.66-5.15,6.36-1.52,9.39,7.27,2.12,5.15,9.08-.3,7.57.61,10.3,2.12,3.63-1.82,7.27-5.15,3.33-4.24,7.57,1.82,6-1.51,7.57-6.06,3.63-4.55,5.15,2.12,1.81,1.22,3" class="cls-13"/><path data-cppathid="10037" d="M190.5,222.09s-18,2.5-31.5,4.5-23,4.25-23.25,8.75-19.75,52-22,53.5a11.84,11.84,0,0,0-5.25,8.75,35.21,35.21,0,0,1-2.5,9s8.75-1,12.5,2,6,4.75,6,4.75,10.5-6.75,12-10.25-3.25-11-1.75-13.5,7.5-10.75,7.5-10.75,8,25,9,30.25a23.62,23.62,0,0,1-.75,10.5h70.25V298.84c0-3.75,2.75-15.5,2.75-15.5s6.75,19.5,8.5,24.75a113.58,113.58,0,0,1,3,11.5h24s-8.25-24.75-11.25-32.5-6.5-38.75-8-42.5-22.75-15.5-33.25-18A163.62,163.62,0,0,1,190.5,222.09Z" class="cls-2"/><g class="cls-14"><path data-cppathid="10038" d="M118.5,308.59c3.75,3,6,4.75,6,4.75s10.5-6.75,12-10.25-3.25-11-1.75-13.5,7.5-10.75,7.5-10.75l.17.53,5.08-6s2,.5,5,11,16,17,13,22.5c-1.94,3.56-3.67,9.2-4.65,12.75h59.9V298.84c0-3.75,2.75-15.5,2.75-15.5s6.75,19.5,8.5,24.75a113.58,113.58,0,0,1,3,11.5h24s-8.25-24.75-11.25-32.5c-2.55-6.58-5.46-29.94-7.2-39.12a21,21,0,0,0-3.05-3.13c-7-5.5-24-11.5-28-12s-14-7-25-2.5c0,0-7.5,6.5-13,8s-16.5-9.5-17.5-4a35,35,0,0,0,0,11s-6-14-5.5-8.5.5,10.5.5,10.5-5.5-12-5.5-7,2.5,11.5,2,15.5-14.5,29-16,31.5-1,7.1-2.75,10.55a9.34,9.34,0,0,1-5.25,4.45s1.5-6.5-4-6S106,306.59,106,306.59,114.75,305.59,118.5,308.59Z" class="cls-15"/></g><path data-cppathid="10039" d="M190.5,222.09s-18,2.5-31.5,4.5-23,4.25-23.25,8.75-19.75,52-22,53.5a11.84,11.84,0,0,0-5.25,8.75,35.21,35.21,0,0,1-2.5,9s8.75-1,12.5,2,6,4.75,6,4.75,10.5-6.75,12-10.25-3.25-11-1.75-13.5,7.5-10.75,7.5-10.75,8,25,9,30.25a23.62,23.62,0,0,1-.75,10.5h70.25V298.84c0-3.75,2.75-15.5,2.75-15.5s6.75,19.5,8.5,24.75a113.58,113.58,0,0,1,3,11.5h24s-8.25-24.75-11.25-32.5-6.5-38.75-8-42.5-22.75-15.5-33.25-18A163.62,163.62,0,0,1,190.5,222.09Z" class="cls-5"/><path data-cppathid="10040" d="M195.5,264.59s2.2,22.33,1.27,31.6-4.17,16.23-2.78,22.72" class="cls-5"/><line data-cppathid="10041" y2="259.34" x2="229.5" y1="267.84" x1="225.5" class="cls-5"/><path data-cppathid="10042" d="M188.25,220.09s-2.75,1.75-3.25,3.5-4.5,6.5-6.25,13.5-.75,19.75.5,16.75,4.5-9.5,5.75-11,1.5.5,2.5,4.75,8,17,8,17,5.25-11.75,8.25-13.5,4.25-7.5,4.25-7.5,3,15,4.75,15,2.5-11.5,1.75-18.5-4-15.5-6-18.25S198,209.84,188.25,220.09Z" class="cls-9"/><path data-cppathid="10043" d="M188.5,218.59s-1,19.5.5,28,5.25,21,6.5,18,9.25-17.75,10.5-24.5a72.32,72.32,0,0,1,4.5-14S195.5,227.84,188.5,218.59Z" class="cls-9"/><path data-cppathid="10044" d="M224.88,174.44s-4.36,1.25-5.45,3.68-2,2.62-4.76,5.16-3.61,2.17-5.79,4.21-3.86,1.86-6.43,2.16-4.81.08-6,.8a29.23,29.23,0,0,1-3.56,1.62s-1.59-1-2.82,2.81-2.71,12.71-1.8,17.6,4.53,16.55,10.17,19.39,19.26-6.23,22.76-10.1,10.72-22.06,11-25.13-4.46-8.92-5.35-11.27.37-3.63-1.38-5.79S224.88,174.44,224.88,174.44Z" class="cls-9"/><path data-cppathid="10045" d="M210.85,213.1s-.8,1.39-3.57,1.11-3.86-2.37-3.54-4" class="cls-5"/><path data-cppathid="10046" d="M200.12,215.13a14.71,14.71,0,0,0,9.34,3.58" class="cls-5"/><path data-cppathid="10047" d="M205.41,198.73l-1.06,2.36s-3.62,1.6-6.91-3.17" class="cls-5"/><path data-cppathid="10048" d="M222.06,205.19l-.88,2.21s-4.54,1-6-2.74" class="cls-5"/><path data-cppathid="10049" d="M217.06,197.45s7.52-2.85,9.61,4.11" class="cls-5"/><path data-cppathid="10050" d="M208.8,194.48s-2.65-6.19-10-3.49" class="cls-5"/><path data-cppathid="10051" d="M204.35,201.09s-1.37.52-4.23-.43a6.17,6.17,0,0,1-3.75-3.51S196.35,203.73,204.35,201.09Z" class="cls-4"/><path data-cppathid="10052" d="M222.06,207.84s-1.37.52-4.23-.43a6.17,6.17,0,0,1-3.75-3.51S214.06,210.47,222.06,207.84Z" class="cls-4"/><path data-cppathid="10053" d="M142.25,278.84s8.5-13.75,13-23.25" class="cls-9"/><path data-cppathid="10054" d="M148.75,268.84a31.13,31.13,0,0,0,9.5-9.75" class="cls-5"/><polygon data-cppathid="10055" points="95.5 327.84 147.17 327.84 175.33 347.01 116 347.01 95.5 327.84" class="cls-9"/><line data-cppathid="10056" y2="342.84" x2="120.5" y1="342.84" x1="162" class="cls-5"/><line data-cppathid="10057" y2="338.84" x2="116.5" y1="338.84" x1="158" class="cls-5"/><line data-cppathid="10058" y2="334.84" x2="112.5" y1="334.84" x1="154" class="cls-5"/><polygon data-cppathid="10059" points="59.5 339.84 111.17 339.84 139.33 359.01 80 359.01 59.5 339.84" class="cls-9"/><line data-cppathid="10060" y2="354.84" x2="84.5" y1="354.84" x1="126" class="cls-5"/><line data-cppathid="10061" y2="350.84" x2="80.5" y1="350.84" x1="122" class="cls-5"/><line data-cppathid="10062" y2="346.84" x2="76.5" y1="346.84" x1="118" class="cls-5"/><path data-cppathid="10063" d="M132.17,318.17s-4.67-7-7.5-11.33-9-7.33-14.5-6S102,307.17,102,312.51s.5,9.66,6.33,12.83,18.84,4.83,18.84,4.83S137,333.84,132.17,318.17Z" class="cls-9"/><path data-cppathid="10064" d="M127.31,316.6s-6.39,2-6.83,4.4-1.1,7.72-.66,10.14,6.17,2.21,10.14,2.21,5.95-4,5.07-5.29-4.41-2-5.73-5.07A37.82,37.82,0,0,1,127.31,316.6Z" class="cls-9"/><path data-cppathid="10065" d="M132.64,318.69c-.94-2.11-2.13-4.09-2.66-5.24-1.43-3.08-4.55-3.21-4.72.69-.1,2.21,4,15.12,7.56,12.15C134.75,324.69,133.92,321.56,132.64,318.69Z" class="cls-9"/><path data-cppathid="10066" d="M120.7,321.89s.22,2.64,5.51,5.73,6.83,2,8.6,2" class="cls-9"/><path data-cppathid="10067" d="M119.82,327.18s.65,4.34,12.77,5.22" class="cls-9"/><path data-cppathid="10068" d="M136.26,329.84l-10.44-30a1.5,1.5,0,0,1,.93-1.91h0a1.5,1.5,0,0,1,1.91.92h0l10.4,30Z" class="cls-4"/><polygon data-cppathid="10069" points="136.26 329.87 139.08 333.48 139.09 328.89 136.26 329.87" class="cls-7"/><path data-cppathid="10070" d="M138.06,332.17l1,1.31v-1.64A4.35,4.35,0,0,0,138.06,332.17Z" class="cls-4"/><path data-cppathid="10071" d="M128.66,298.84a1.51,1.51,0,0,0-2.84,1l1,3,2.8-1.07Z" class="cls-7"/><path data-cppathid="10072" d="M132.5,310.67s3-1.16,4.5,0,2.33,4.17,2.33,7.67,1.67,8-1.33,7.83S132.5,310.67,132.5,310.67Z" class="cls-9"/><polygon data-cppathid="10073" points="198.6 337.51 175.83 323.17 262.83 323.17 295.26 337.51 198.6 337.51" class="cls-9"/><polygon data-cppathid="10074" points="295.26 337.51 198.6 337.51 209.73 268.51 306.4 268.51 295.26 337.51" class="cls-9"/><path data-cppathid="10075" d="M300.72,303.7c-16.37,3.72-30.49,0-58.51,4.55-27.45,4.42-38.55,16.93-43,25.44l-.61,3.82h96.66Z" class="cls-12"/><path data-cppathid="10076" d="M300.82,312.2s-5.48.7-7.45,2.95-.42,3.1,1.27,3.1,7.31,0,9.84-3C306.53,312.89,305.18,311.92,300.82,312.2Z" class="cls-9"/><path data-cppathid="10077" d="M299,328.23s-5.48.7-7.45,2.95-.42,3.09,1.27,3.09,7.31,0,9.84-2.95C304.71,328.92,303.35,328,299,328.23Z" class="cls-9"/><path data-cppathid="10078" d="M299.56,324s-5.49.7-7.46,2.95-.42,3.1,1.27,3.1,7.31,0,9.84-3C305.27,324.71,303.91,323.73,299.56,324Z" class="cls-9"/><path data-cppathid="10079" d="M299.7,319.23s-5.49.7-7.45,2.95-.43,3.1,1.26,3.1,7.31,0,9.84-3C305.41,319.92,304.06,319,299.7,319.23Z" class="cls-9"/></g></g></g></svg>