<?xml version="1.0" encoding="UTF-8"?>
<svg xmlns="http://www.w3.org/2000/svg" onmouseup="{ if(window.parent.document.onmouseup) window.parent.document.onmouseup(arguments[0]);}" xml:space="preserve" style="enable-background:new 0 0 500 500;" viewBox="0 0 500 500" y="0px" x="0px" id="Layer_1" version="1.1" xmlns:xlink="http://www.w3.org/1999/xlink"><style type="text/css">
	.st0{fill:#C53F3F;}
	.st1{opacity:0.6;fill:#FFFFFF;enable-background:new    ;}
	.st2{fill:none;stroke:#263238;stroke-linecap:round;stroke-linejoin:round;}
	.st3{fill:#FFFFFF;stroke:#263238;stroke-linecap:round;stroke-linejoin:round;}
	.st4{fill:#FFFFFF;stroke:#263238;stroke-miterlimit:10;}
	.st5{fill:#263238;}
	.st6{opacity:0.7;fill:#FFFFFF;enable-background:new    ;}
	.st7{fill:none;stroke:#263238;stroke-width:1.0496;stroke-linecap:round;stroke-linejoin:round;}
	.st8{fill:none;stroke:#263238;stroke-width:1.0206;stroke-linecap:round;stroke-linejoin:round;}
	.st9{fill:none;stroke:#263238;stroke-width:0.5248;stroke-linecap:round;stroke-linejoin:round;}
	.st10{fill:#FFFFFF;}
	.st11{fill:none;stroke:#263238;stroke-width:1.1365;stroke-linecap:round;stroke-linejoin:round;}
	.st12{opacity:0.5;enable-background:new    ;}
	.st13{opacity:0.5;fill:#FFFFFF;enable-background:new    ;}
	.st14{fill:none;stroke:#263238;stroke-miterlimit:10;}
	.st15{opacity:0.2;enable-background:new    ;}
	.st16{fill:none;stroke:#263238;stroke-width:2;stroke-linecap:round;stroke-linejoin:round;}
	.st17{fill:none;stroke:#FFFFFF;stroke-width:0.5;stroke-linecap:round;stroke-linejoin:round;}
	.st18{fill:#C53F3F;stroke:#263238;stroke-miterlimit:10;}
</style><g id="freepik--background-simple--inject-200"><path data-cppathid="10000" d="M431.5,201c-6.2-37-33.1-55.8-65.6-67.2c-22.6-7.9-43.6-16.3-64.3-27.7c-22.5-12.4-41.8-29.8-64.8-41.7   c-19.4-10.1-41.6-17.2-64.4-13.5c-18.2,2.9-35.7,12.4-50.6,24.9c-34.7,29-55.8,74.8-54.3,117.9c1.6,45,26.1,83.8,57.6,112.2   c19.4,17.5,42.1,31.7,67.4,39.9c22.2,7.2,113.2,12.6,162.2-12.7C400.5,309.4,439.8,250.4,431.5,201z" class="st0"/><path data-cppathid="10001" d="M431.5,201c-6.2-37-33.1-55.8-65.6-67.2c-22.6-7.9-43.6-16.3-64.3-27.7c-22.5-12.4-41.8-29.8-64.8-41.7   c-19.4-10.1-41.6-17.2-64.4-13.5c-18.2,2.9-35.7,12.4-50.6,24.9c-34.7,29-55.8,74.8-54.3,117.9c1.6,45,26.1,83.8,57.6,112.2   c19.4,17.5,42.1,31.7,67.4,39.9c22.2,7.2,113.2,12.6,162.2-12.7C400.5,309.4,439.8,250.4,431.5,201z" class="st1"/></g><g id="freepik--table-line--inject-200_1_"><line data-cppathid="10002" y2="324.1" x2="329.8" y1="401.5" x1="127.2" class="st2" id="freepik--table-line--inject-200"/></g><g id="freepik--Paper--inject-200"><g id="freepik--paper--inject-200"><polygon data-cppathid="10003" points="354.1,393 356.1,422.7 401.8,451.5 450.9,419.4 459.1,392 397.1,372.1   " class="st0"/><polygon data-cppathid="10004" points="352.6,390 389.6,369.2 459.3,391.3 403.9,425.4   " class="st3"/><polyline data-cppathid="10005" points="353.8,389.5 356.1,422.7 401.8,451.6 403.9,425.4   " class="st2"/><polyline data-cppathid="10006" points="401.8,451.6 450.7,419.2 459.3,391.3   " class="st2"/><path data-cppathid="10007" d="M344.4,389.1l59.8,31.3l51.7-34.1c0,0-60.6-18.8-61.8-19.1S344.4,389.1,344.4,389.1z" class="st4"/><line data-cppathid="10008" y2="386.9" x2="441" y1="413.1" x1="401.5" class="st2"/><line data-cppathid="10009" y2="384.2" x2="436.9" y1="410.4" x1="397.4" class="st2"/><line data-cppathid="10010" y2="382.4" x2="430.8" y1="408.6" x1="391.4" class="st2"/><line data-cppathid="10011" y2="379.9" x2="426.1" y1="406.1" x1="386.7" class="st2"/><line data-cppathid="10012" y2="420.9" x2="377.9" y1="425.1" x1="384.5" class="st2"/><line data-cppathid="10013" y2="411.9" x2="444.2" y1="418.9" x1="432.3" class="st2"/><line data-cppathid="10014" y2="425.8" x2="432.7" y1="430" x1="425.2" class="st2"/></g></g><g id="freepik--Plant--inject-200"><path data-cppathid="10015" d="M139.9,366.6L139.9,366.6l-8.5,5v-21.4l3.5-2.5l11.3-7.6   c20.5,0,24-18.5,24-18.5c-25.2-1.4-25.4,15-25.2,18l-13.5,9.5v-16.6h0.1c0,0,21.5-6.5-0.4-38.8c0,0-23.1,30.5-0.7,38.5v34.6l-9.2-7   c0.2-3.4-0.4-20.8-27.7-19.7c0,0,10.5,26.4,27.2,20.5l2.6,2l7,5.3c0.1,0,0.1,0,0.2,0v12.1l-14.7-0.2l6.2,37.2l17.8-0.5l5.8-36.3   l-14.2-0.2v-7.1l9.9-5.8c16.6,4.3,26.5-12,26.5-12C140.2,350,139.9,366.6,139.9,366.6z" class="st5" id="freepik--plant--inject-200"/></g><g id="freepik--Coffee--inject-200"><g id="freepik--coffee--inject-200"><path data-cppathid="10016" d="M224.9,414.3c0,3.3-8.1,6-18.1,6s-18.1-2.7-18.1-6s8.1-6,18.1-6S224.9,411,224.9,414.3z" class="st2"/><path data-cppathid="10017" d="M188.6,414.3c0,0,0.7,12.3,3.6,19.9s15.5,10.2,22.4,7.2c5.1-2.3,7.7-9.2,9-15.4" class="st2"/><path data-cppathid="10018" d="M217.9,435.4c0.9,2.4,4.3,2.4,6.4,2.2c3.9-0.2,7-3.4,7.1-7.3c0.2-2.9-0.6-5.8-2.2-8.2    c-1.4-1.8-3.5-2.8-5.7-2.8c-2,0-3.7,1.6-3.7,3.7c0,0.2,0,0.5,0.1,0.7c0.1,0.4,0.3,0.8,0.5,1.2c0.9,1,2.2,0.4,3.3,0.9    c1,0.5,1.8,1.4,2,2.5c0.4,1.6,0.6,3-0.4,4.3c-0.7,0.9-1.9,1.3-3,1.1c-1-0.1-1.8-1-2.9-1c-0.9,0-1.7,0.8-1.7,1.7c0,0,0,0.1,0,0.1    C217.7,434.7,217.8,435,217.9,435.4z" class="st3"/><ellipse data-cppathid="10019" ry="4.2" rx="16.5" cy="415.9" cx="206.8" class="st5"/><path data-cppathid="10020" d="M202.2,405.1c-0.4-1.1-0.5-2.3-0.3-3.5c0.5-2,2.1-3.5,3.9-4.6c1.8-1,3.5-2.1,5.2-3.3c1.5-1.4,2.6-3.5,2-5.5    c-0.5-1.1-1.1-2.2-1.7-3.2c-0.9-1.9-0.7-4.2,0.7-5.9c1.4-1.6,3.8-2.1,5.7-1.1c1.9,1.1,2.6,3.5,1.6,5.4c-0.6,1.1-1.8,1.8-2.6,2.9    c-1,1.5-1,3.5,0,5.1c0.8,1.1,2,1.9,2.4,3.2c0.3,1.3-0.2,2.7-1.4,3.5c-1.1,0.8-2.4,1.2-3.8,1.3c-1.3,0-2.7,0.2-4,0.5    c-3.3,1-5.1,4.5-4.1,7.7c0.2,0.7,0.6,1.4,1.1,2c0.8,1,0.1,0.4-1.1-0.3C204.1,408.5,202.8,406.9,202.2,405.1z" class="st5"/><path data-cppathid="10021" d="M202.2,405.1c-0.4-1.1-0.5-2.3-0.3-3.5c0.5-2,2.1-3.5,3.9-4.6c1.8-1,3.5-2.1,5.1-3.3c1.5-1.4,2.6-3.5,2-5.5    c-0.5-1.1-1.1-2.2-1.7-3.2c-0.9-1.9-0.7-4.2,0.7-5.9c1.4-1.6,3.8-2.1,5.7-1.1c1.9,1.1,2.6,3.5,1.6,5.4c-0.6,1.1-1.8,1.8-2.6,2.9    c-1,1.5-1,3.5,0,5.1c0.8,1.1,2,1.9,2.4,3.2c0.3,1.3-0.2,2.7-1.4,3.5c-1.1,0.8-2.4,1.2-3.8,1.3c-1.3,0-2.7,0.2-4,0.5    c-3.3,1-5.1,4.5-4,7.7c0.2,0.7,0.6,1.4,1,2c0.8,1,0.1,0.4-1.1-0.3C204.1,408.5,202.8,406.9,202.2,405.1z" class="st6"/></g></g><g id="freepik--Window--inject-200"><g id="freepik--window--inject-200"><line data-cppathid="10022" y2="128.5" x2="310.8" y1="310.9" x1="310.8" class="st7"/><line data-cppathid="10023" y2="109.6" x2="170.2" y1="290.9" x1="170.2" class="st7"/><line data-cppathid="10024" y2="211.1" x2="376.1" y1="211.1" x1="64.7" class="st8"/><line data-cppathid="10025" y2="176.9" x2="203.7" y1="174.1" x1="207.9" class="st9"/><line data-cppathid="10026" y2="272.5" x2="60.8" y1="228" x1="126.5" class="st7"/><line data-cppathid="10027" y2="232.5" x2="103.5" y1="221.7" x1="119.4" class="st7"/></g></g><g id="freepik--Clock--inject-200"><g id="freepik--clock--inject-200"><circle data-cppathid="10028" r="34.8" cy="133.5" cx="377.2" class="st5"/><circle data-cppathid="10029" r="27.5" cy="133.5" cx="377.2" class="st10"/><path data-cppathid="10030" d="M379.5,133.5c0,1.3-1,2.3-2.3,2.3s-2.3-1-2.3-2.3c0-1.3,1-2.3,2.3-2.3c0,0,0,0,0,0    C378.4,131.2,379.5,132.2,379.5,133.5L379.5,133.5z" class="st5"/><line data-cppathid="10031" y2="111.5" x2="377.5" y1="134.2" x1="377.5" class="st11"/><line data-cppathid="10032" y2="115.6" x2="371.9" y1="133.1" x1="377.1" class="st11"/></g></g><g id="freepik--Character--inject-200"><g id="freepik--character--inject-200"><path data-cppathid="10033" d="M190.3,377.7L158.9,254c-1.4-5.4,1.3-11,6.3-13.3c27.9-12.7,75-26.4,111.9-25.8c5.9,0.1,10.8,4.7,11.3,10.6    l8.1,102.2c0.4,5-2.5,9.8-7.2,11.6L190.3,377.7z" class="st5"/><path data-cppathid="10034" d="M190.3,377.7L158.9,254c-1.4-5.4,1.3-11,6.3-13.3c27.9-12.7,75-26.4,111.9-25.8c5.9,0.1,10.8,4.7,11.3,10.6    l8.1,102.2c0.4,5-2.5,9.8-7.2,11.6L190.3,377.7z" class="st12"/><path data-cppathid="10035" d="M270,416.6l56.3-23.9c1.5-0.6,2.3-2.4,1.6-3.9c-0.2-0.5-0.6-1-1.1-1.3l-22.2-16c-0.8-0.6-1.9-0.7-2.8-0.4    L244.3,393c-1.6,0.6-2.4,2.3-1.8,3.8c0.2,0.5,0.5,1,1,1.4l23.5,18.1C267.9,416.9,269,417.1,270,416.6z" class="st5"/><path data-cppathid="10036" d="M295.4,378c0,0,18,2.6,20.1,12.4s-37.9,10.2-41.4,2.8S289.4,378,295.4,378z" class="st10"/><path data-cppathid="10037" d="M309.4,387c0,0-2.9-13.8-11.1-16.2s-27.4,0.3-27.4,0.3l-39.8-23.4l-25.6,17.6l11.3,4.6l-0.1,0.1    c0,0,1.9,0.7,4.9,1.8l6.6,2.7l0.3-0.2c10.4,3.6,25.1,8.3,33.8,9.2c0,0,5.3,5.5,10.8,6.6c0,0,3.5,0.8,5.5,0.2    c2.3-0.8,4.8-0.8,7,0.1c2.8,1.2,12.1,5.5,14.4,4.3s-1.2-5.1-7.6-8.7c0,0,12.7,3.8,15.4,3.8s3.7-0.5,3.6-1L309.4,387z" class="st10"/><path data-cppathid="10038" d="M223.2,359.2l40.4,20.9c2.6,3,5.9,5.7,9.8,6.5c2.1,0.3,4.2,0.3,6.3,0.1c7-0.1,13.8,2.7,18.6,7.8    c0,0-1.5,0.4-4.2-0.7s-9.7-6-15.6-3.5s-16.2-6.8-16.2-6.8s-41.7-8.6-55.1-17.6L223.2,359.2z" class="st0"/><path data-cppathid="10039" d="M223.2,359.2l40.4,20.9c2.6,3,5.9,5.7,9.8,6.5c2.1,0.3,4.2,0.3,6.3,0.1c7-0.1,13.8,2.7,18.6,7.8    c0,0-1.5,0.4-4.2-0.7s-9.7-6-15.6-3.5s-16.2-6.8-16.2-6.8s-41.7-8.6-55.1-17.6L223.2,359.2z" class="st13"/><path data-cppathid="10040" d="M289.3,384.4c0,0,18.9,7,21.3,5.2s-7.9-7.5-19.1-11.4" class="st2"/><path data-cppathid="10041" d="M297,374.7c3.9,1.3,7.5,3.7,10.2,6.8" class="st2"/><path data-cppathid="10042" d="M309,386.5c0,0-2.7-11.2-8.7-15.1s-29.8-0.3-29.8-0.3l-43.2-25.9" class="st2"/><path data-cppathid="10043" d="M206.4,366c4.3,1.8,9.8,3.9,16.7,6.3c24.6,8.8,39.3,11.2,39.3,11.2s8.7,9.1,17.2,6.3    c5.8-1.9,16.5,6.7,20.4,4.9s-5.8-8.5-17.7-13.7" class="st2"/><path data-cppathid="10044" d="M327.8,324.5l25.6-29.3c0,0-6.9-12.8-15.5-27.1s-18.7-29.9-23.1-35.8c-12.1-5.9,5,66.6,5,66.6L327.8,324.5z" class="st0"/><path data-cppathid="10045" d="M353.9,296.6c-10.9-23.7-39.1-64.7-39.1-64.7" class="st2"/><path data-cppathid="10046" d="M224.5,315.1l22.1,41.3l70.6-27.5l2.7-32.8c4-27.8-5.2-64.4-5.2-64.4l-46-9.9c0,0-66,22.6-67,26.9    S224.5,315.1,224.5,315.1z" class="st0"/><path data-cppathid="10047" d="M224.5,315.1l22.1,41.3l70.6-27.5l2.7-32.8c4-27.8-5.2-64.4-5.2-64.4l-46-9.9c0,0-66,22.6-67,26.9    S224.5,315.1,224.5,315.1z" class="st14"/><path data-cppathid="10048" d="M210.7,260.9c1.7,3.6,10,22.3,13,27c4-33.9,2.6-37.7,5.7-39.4l14.2-8.3l-7.4-4.5l-0.3-1.5    c0,0-29.2,11.1-33.8,14.9C202,249,205.5,249.8,210.7,260.9z" class="st15"/><path data-cppathid="10049" d="M352.3,295.3c3.1-1.8-7.1,1.2-10.3,2.9c-2.6,1.3-5.4,3.2-8.2,2.4s-4.3-4.1-5-7c-2.3-9-2.5-18.4-4.4-27.5    c-1.5-6.4-3.6-12.7-6.1-18.8c0,0,4.5,28,1.6,50L327,322C327,322,326.4,310.4,352.3,295.3z" class="st15"/><path data-cppathid="10050" d="M189.7,347.7c14.7,2.4,29.7-1.2,41.7-10c0,0-0.5-31.9-3.6-39.9c-4-10.4-21.9-50.9-25.8-48.8    c-2.7,1.4-8.4,45.4-11,74.4C189.9,335.4,189.3,345,189.7,347.7z" class="st0"/><path data-cppathid="10051" d="M189.7,347.7c14.7,2.4,29.7-1.2,41.7-10c0,0-0.5-31.9-3.6-39.9c-4-10.4-21.9-50.9-25.8-48.8    c-2.7,1.4-8.4,45.4-11,74.4C189.9,335.4,189.3,345,189.7,347.7z" class="st14"/><path data-cppathid="10052" d="M231.7,289.6c2.9,8.6,3.5,17.8,1.7,26.6" class="st2"/><path data-cppathid="10053" d="M208.8,323.2c6.5-0.7,13.1,1.2,18.2,5.3" class="st2"/><path data-cppathid="10054" d="M216.8,318.4c5.9,2.8,10.9,7.3,14.2,12.9" class="st2"/><path data-cppathid="10055" d="M208,255.4c4.9,9.2,2.5,20.7,3.7,31.1c0.7,5.6,1.4,11.3,4.1,16.2c2,3.6,4.9,6.5,7.2,9.9    c2.8,4,4.7,8.6,5.5,13.4c-6.2-6.3-13-12.8-21.7-14.4c4.1,2.1,9.9,6.9,8.4,8.4c-2.9,2.7-6.4-3.6-9.4-1.8c-1.2,0.9-2,2.2-2.4,3.6    c-1.3,4-1.8,8.3-1.4,12.5l-13.2,6.1c0,0,8-84.6,13.1-91.5C204.5,250.5,206.6,252.8,208,255.4z" class="st15"/><path data-cppathid="10056" d="M316.5,266c1.8,8.4,3.2,16.9,4.1,25.5" class="st2"/><path data-cppathid="10057" d="M206.9,366.7c0,0,26.2-10.8,29-15s-3.6-18.9-6.8-21.4s-43.1,5.1-42,13.2s4.1,7.2,2.9,14    C189.2,362.1,194.6,372,206.9,366.7z" class="st10"/><path data-cppathid="10058" d="M223.5,358.6c3.7-2.9-9.2,1.8-13.8,1.5c-1.5-0.1-3.2-0.4-4.1-1.6c-0.7-1-0.8-2.3-0.2-3.5    c0.5-1.1,1.3-2.1,2.2-2.8c2.6-2.2,5.5-3.9,8.7-5c1.4-0.5,3.6-1,3-2.9c-1.3-2-5,0-7.3,1.1s-5.2,1.8-7.2,0.3    c-1.6-1.3-1.9-3.8-1.1-5.7c0.9-1.9,2.4-3.5,4.2-4.5c0.6-0.4,1.2-0.9,1.6-1.5c0.4-0.7,0.1-1.5-0.5-1.9c0,0,0,0,0,0    c0,0-19,5.2-20.4,10.1s2.3,11.3,2.3,11.3s-2.3,8.1,3.5,12.4S214.9,365.3,223.5,358.6z" class="st0"/><path data-cppathid="10059" d="M223.5,358.6c3.7-2.9-9.2,1.8-13.8,1.5c-1.5-0.1-3.2-0.4-4.1-1.6c-0.7-1-0.8-2.3-0.2-3.5    c0.5-1.1,1.3-2.1,2.2-2.8c2.6-2.2,5.5-3.9,8.7-5c1.4-0.5,3.6-1,3-2.9c-1.3-2-5,0-7.3,1.1s-5.2,1.8-7.2,0.3    c-1.6-1.3-1.9-3.8-1.1-5.7c0.9-1.9,2.4-3.5,4.2-4.5c0.6-0.4,1.2-0.9,1.6-1.5c0.4-0.7,0.1-1.5-0.5-1.9c0,0,0,0,0,0    c0,0-19,5.2-20.4,10.1s2.3,11.3,2.3,11.3s-1.9,8.1,3.8,12.4S214.9,365.3,223.5,358.6z" class="st6"/><path data-cppathid="10060" d="M207.2,366.7c0,0,26.2-10.8,29-15s-3.6-18.9-6.8-21.4s-43.1,5.1-42,13.2s4.1,7.2,2.9,14    C189.6,362.1,194.9,372,207.2,366.7z" class="st14"/><path data-cppathid="10061" d="M331,330.6c-0.2-0.2-0.5-0.4-0.7-0.6c-6.7-6.5-2.4-14.7,3-20.4c5-5.2,13.9-13.2,21.4-14.1    c3.4-0.4,4.9,1.5,6.9,3.9c1.1,1.4,2.5,2.5,3.6,3.9c3.4,4.5,3.2,10.8-0.4,15.2c-3.1,3.5-7.4,4.7-11.5,6.5c-5,2.1-9.7,5.6-14.7,7.3    C335.9,333.1,333.1,332.5,331,330.6z" class="st10"/><path data-cppathid="10062" d="M352.4,324.4c4-3.1,8-6.2,10.7-10.4c1.1-1.5,1.8-3.4,1.9-5.3c0-1.9-1.2-3.9-3-4.4c-1.5-0.4-3,0.4-4.4,1.1    l-4.2,2.2c-0.5,0.3-1.1,0.5-1.6,0.4c-0.8-0.2-1.2-1.1-1.2-2c-0.1-2.3,1.1-4.4,2.4-6.3l2.3-3.6c-0.3-0.3-0.8-0.3-1.1-0.1    c-7.8,1.9-14.8,6.3-19.8,12.6c-8,10.4-8.7,14-6.1,18.9S335.6,337.5,352.4,324.4z" class="st0"/><path data-cppathid="10063" d="M352.4,324.4c4-3.1,8-6.2,10.7-10.4c1.1-1.5,1.8-3.4,1.9-5.3c0-1.9-1.2-3.9-3-4.4c-1.5-0.4-3,0.4-4.4,1.1    l-4.2,2.2c-0.5,0.3-1.1,0.5-1.6,0.4c-0.8-0.2-1.2-1.1-1.2-2c-0.1-2.3,1.1-4.4,2.4-6.3l2.3-3.6c-0.3-0.3-0.8-0.3-1.1-0.1    c-7.8,1.9-14.8,6.3-19.8,12.6c-8,10.4-8.7,14-6.1,18.9S335.8,337.2,352.4,324.4z" class="st6"/><path data-cppathid="10064" d="M331,330.6c-0.2-0.2-0.5-0.4-0.7-0.6c-6.7-6.5-2.4-14.7,3-20.4c5-5.2,13.9-13.2,21.4-14.1    c3.4-0.4,4.9,1.5,6.9,3.9c1.1,1.4,2.5,2.5,3.6,3.9c3.4,4.5,3.2,10.8-0.4,15.2c-3.1,3.5-7.4,4.7-11.5,6.5c-5,2.1-9.7,5.6-14.7,7.3    C335.9,333.1,333.1,332.5,331,330.6z" class="st14"/><path data-cppathid="10065" d="M231.2,144.2c-0.5-4.9,1-9.8,4.2-13.6c3.2-3.7,7.3-6.6,12-8.1" class="st2"/><path data-cppathid="10066" d="M276.7,210.1c-0.6,7.5-0.9,25.1-0.4,32.6L248,229.6c1-6.8,1.4-19.1-0.3-25.8L276.7,210.1" class="st10"/><path data-cppathid="10067" d="M276.7,210.1c-0.6,7.5-0.9,25.1-0.4,32.6L248,229.6c1-6.8,1.4-19.1-0.3-25.8L276.7,210.1" class="st14"/><path data-cppathid="10068" d="M249,208.1c0,0,8.4,15.5,17.1,15.8c8.6,0.3,10.5-12.5,10.5-12.5s-3.6,6.8-7.4,6.6S249,208.1,249,208.1z" class="st5"/><path data-cppathid="10069" d="M285.6,144.2c0,0-36.5-7.8-46.9,1.7s-7.8,20.2-7.8,20.2l0.9,3.1c-0.3,0-0.5,0-0.8,0.1    c-2.8,0.6-5.5,4-4.6,8.8s6.8,15.3,11.1,14.2c0.5-0.1,1-0.3,1.4-0.6c1.4,4.3,2.7,7.9,3.4,9.4c2.8,5.8,23.7,17.9,28.6,16.2    s17.8-26.7,18.4-32.7S285.6,144.2,285.6,144.2z" class="st10"/><path data-cppathid="10070" d="M286,149.6c-4.4,4.7-11.7,5.3-18.1,4.1s-12.4-3.7-18.9-4.2c-1.8-0.2-3.6,0-5.2,0.7c-2.6,1.3-4,4.4-4,7.3    s1,5.8,2,8.5s2,5.6,2,8.5c0,1.4-0.3,2.7-0.3,4c-0.1,5.7,0.9,11.3,2.9,16.6c4.3,11.9,15.3,16.8,26.4,21c0,0-4,3.3-11.9-0.9    c-2.8-1.5-13.2-8.5-13.2-8.5c-3.3-2.1-5.7-5.3-6.8-9l-2-6.3c-2,1.3-4.5,0.8-5.9-1.1c-2.9-3.2-7.2-9.1-6.8-13.8s1.2-6.7,5.6-7    c2.5-0.2,4.8,1.1,5.9,3.4l-3.4-20.3c0,0,10.2-9.7,17.6-8.2c7.4,1.4,24,4.1,28.2,3.1c2-0.5,3.9-1.1,5.8-1.8L286,149.6z" class="st0"/><path data-cppathid="10071" d="M286,149.6c-4.4,4.7-11.7,5.3-18.1,4.1s-12.4-3.7-18.9-4.2c-1.8-0.2-3.6,0-5.2,0.7c-2.6,1.3-4,4.4-4,7.3    s1,5.8,2,8.5s2,5.6,2,8.5c0,1.4-0.3,2.7-0.3,4c-0.1,5.7,0.9,11.3,2.9,16.6c4.3,11.9,15.3,16.8,26.4,21c0,0-4.1,3.2-10.4-0.2    c-2.7-1.5-14.8-9.1-14.8-9.1c-3.3-2.1-5.7-5.3-6.8-9l-2-6.3c-2,1.3-4.5,0.8-5.9-1.1c-2.9-3.2-7.2-9.1-6.8-13.8s0.8-6.2,5.1-6.5    c2.5-0.2,4.9,0.9,6.4,2.9l-3.4-20.3c0,0,10.2-9.7,17.6-8.2s24,4.1,28.2,3.1c2-0.5,3.9-1.1,5.8-1.8L286,149.6z" class="st13"/><path data-cppathid="10072" d="M265.7,177c0,1.8-0.6,3.2-1.4,3.2s-1.4-1.4-1.4-3.2s0.6-3.2,1.4-3.2S265.7,175.3,265.7,177z" class="st5"/><path data-cppathid="10073" d="M281.5,176.2c0,1.8-0.6,3.2-1.4,3.2s-1.4-1.4-1.4-3.2s0.6-3.2,1.4-3.2S281.5,174.4,281.5,176.2z" class="st5"/><path data-cppathid="10074" d="M276.8,198.7c-2.2,1.3-5,1.5-7.4,0.5" class="st2"/><path data-cppathid="10075" d="M258.6,170.9c1.6-1.5,4.5-4.4,9-4.4" class="st16"/><path data-cppathid="10076" d="M278.3,163.2c2.4,0.8,4.2,1.9,4.8,3.8" class="st16"/><path data-cppathid="10077" d="M272.8,174.6c0.3,2.1,0.6,4.1,0.9,6.2c0.1,0.9,0.3,1.8,0.6,2.6c0.7,1.5,2.2,2.4,3.9,2.5c0.5-0.1,1,0,1.4,0.2    c0.4,0.3,0.6,0.7,0.6,1.2c-0.1,0.8-0.5,1.6-1.1,2.1c-1,1.1-2.2,2.1-3.5,2.8" class="st2"/><path data-cppathid="10078" d="M231.1,175.6c3.3,2.8,5,7.1,4.3,11.3" class="st2"/><path data-cppathid="10079" d="M230.6,180.8c0.2-0.5,0.6-0.8,1.1-0.9c0.5-0.1,1-0.1,1.5,0c0.3,0.1,0.7,0.2,1,0.3c0.4,0.3,0.7,0.6,0.8,1.1" class="st2"/><path data-cppathid="10080" d="M240.5,184.8c0,0,2.2,6.2-3.2,7.6c-4.3,1.1-10.2-9.4-11.1-14.2c-0.6-2.4,0-5,1.6-6.9c0.8-0.9,1.8-1.6,3-1.9    c3.2-0.8,6.4,3.1,8.4,6.3c0.6,1,1.3,2,2,2.9" class="st2"/><path data-cppathid="10081" d="M238.7,191.9c1.4,4.4,2.7,7.9,3.4,9.4c2.8,5.8,23.7,17.9,28.6,16.2s17.8-26.7,18.4-32.7s-3.8-40.3-3.8-40.3    s-36.5-7.8-46.9,1.7s-7.8,20.2-7.8,20.2" class="st14"/><path data-cppathid="10082" d="M294.1,127.7c0,0,5.6,11.7-1.6,19.7s-23.7,1.4-23.7,1.4" class="st2"/><path data-cppathid="10083" d="M287.2,122.4c-2.3,0.9,1.6,4.9-3.2,6.2c-4.9,1.2-43.4-16.7-53.1,14.5c0,0-17.3,12.3-3,28.3    c0.8-0.9,1.8-1.6,3-1.9c3.1-0.7,6.2,2.9,8.2,6c0.9,2.6,2.3,4.9,4.5,4.1c3.9-1.4,2.6-6.3,1-9.9c-0.5-1.1-1.1-2.1-1.5-2.9    c-2.5-4.3-6.1-9-4.4-14.2c3.3-6.2,13.4-7.2,23-4.8c15.9,4.1,34.5-1.8,34.2-13.2S289.5,121.5,287.2,122.4z" class="st5"/><path data-cppathid="10084" d="M294.5,127.5c0,0-0.1-0.1-0.1-0.1c-1.9-4.9-5.5-5.7-7.2-5c-2.3,0.9,1.6,4.9-3.2,6.2s-41.6-15.8-52.4,12.4    c0.3-3.7,1.8-7.2,4.1-10.1c3.1-3.7,7.2-6.5,11.8-8c0.2-0.1,0.3-0.4,0.2-0.6c-0.1-0.2-0.3-0.3-0.5-0.3c-4.7,1.6-8.9,4.5-12.2,8.3    c-2.8,3.4-4.4,7.7-4.4,12.2c-7,1.5-12.5,6.9-14.1,13.9c-0.1,0.3,0.1,0.5,0.4,0.6h0.1c0.2,0,0.4-0.2,0.5-0.4    c1.5-6.5,6.5-11.5,12.9-13.1c-2.8,2.2-15.3,13.6-2.5,27.9c0.8-0.9,1.8-1.6,3-1.9c3.1-0.7,6.2,2.9,8.2,6c0.9,2.6,2.3,4.9,4.5,4.1    c3.9-1.4,2.6-6.3,1-9.9c-0.5-1.1-1.1-2.1-1.5-2.9c-2.5-4.3-6.1-9-4.4-14.2c3.3-6.2,13.4-7.2,23-4.8c2.3,0.6,4.6,1,6.9,1.1    c0.1,0.1,0.1,0.2,0.3,0.3c4.2,1.6,8.6,2.5,13.1,2.6c4.1,0,8.3-1,11.1-4.1C300.2,139.7,294.5,127.7,294.5,127.5z M292.1,147.1    c-5.4,5.9-16.2,3.5-20.9,2c12.2,0.2,23.5-4.8,24.4-13.1C296.1,140.1,294.8,144.1,292.1,147.1L292.1,147.1z" class="st12"/><path data-cppathid="10085" d="M236.4,149.4c2.6-4.8,8.3-7.2,13.7-7.4s10.8,1.3,16,2.5s10.9,2,16.1,0.3s9.7-6.5,9.3-11.9" class="st17"/><path data-cppathid="10086" d="M235.4,146c0.9-3.6,3.8-6.4,6.8-8.4c4.7-3.2,10.1-5.2,15.7-5.9" class="st17"/><path data-cppathid="10087" d="M265.3,240.2c0.4-0.4,11.6-2.4,11.6-2.4s-1.9,13.2-1,18l-4.6,0.8c0,0-4.5-8.3-8-10.9S265.3,240.2,265.3,240.2    z" class="st5"/><polygon data-cppathid="10088" points="271.9,254.3 272,310.5 284.6,320.1 290,306.5 274.4,253.1   " class="st5"/><path data-cppathid="10089" d="M271.5,231l6.2-8.2c0.3-0.5,0.9-0.6,1.4-0.3c0.1,0,0.1,0.1,0.2,0.2l7.9,7.9c0.3,0.3,0.4,0.8,0.2,1.2    l-9.5,16.9c-0.2,0.5-0.8,0.7-1.3,0.5c-0.3-0.1-0.5-0.4-0.6-0.8l-4.6-16.6C271.2,231.6,271.3,231.3,271.5,231z" class="st10"/><path data-cppathid="10090" d="M271.5,231l6.2-8.2c0.3-0.5,0.9-0.6,1.4-0.3c0.1,0,0.1,0.1,0.2,0.2l7.9,7.9c0.3,0.3,0.4,0.8,0.2,1.2    l-9.5,16.9c-0.2,0.5-0.8,0.7-1.3,0.5c-0.3-0.1-0.5-0.4-0.6-0.8l-4.6-16.6C271.2,231.6,271.3,231.3,271.5,231z" class="st2"/><path data-cppathid="10091" d="M246.2,221.5l24,9.6c0.5,0.2,0.8,0.8,0.6,1.3c0,0,0,0,0,0l-6.2,17.4c-0.2,0.5-0.7,0.8-1.2,0.7    c-0.1,0-0.2-0.1-0.2-0.1l-27-14.6c-0.5-0.2-0.7-0.8-0.5-1.3c0-0.1,0.1-0.1,0.1-0.2l9.2-12.3C245.3,221.4,245.8,221.3,246.2,221.5z    " class="st10"/><path data-cppathid="10092" d="M246.2,221.5l24,9.6c0.5,0.2,0.8,0.8,0.6,1.3c0,0,0,0,0,0l-6.2,17.4c-0.2,0.5-0.7,0.8-1.2,0.7    c-0.1,0-0.2-0.1-0.2-0.1l-27-14.6c-0.5-0.2-0.7-0.8-0.5-1.3c0-0.1,0.1-0.1,0.1-0.2l9.2-12.3C245.3,221.4,245.8,221.3,246.2,221.5z    " class="st2"/><line data-cppathid="10093" y2="298.7" x2="319.7" y1="322.3" x1="326.8" class="st14"/><path data-cppathid="10094" d="M341.4,330.4l-49,20.6c-1.5,0.7-2.2,2.4-1.6,3.9c0.2,0.5,0.6,1,1.1,1.3l37.8,25.1l24.6-24.6L341.4,330.4z" class="st4"/><path data-cppathid="10095" d="M321,352l-5.9,2.3l3.2,2.2l5.9-2.3L321,352z M321,352l-5.9,2.3l3.2,2.2l5.9-2.3L321,352z M321,352l-5.9,2.3    l3.2,2.2l5.9-2.3L321,352z M325,354.8l-5.9,2.3l3.4,2.4l5.9-2.3L325,354.8z M325,354.8l-5.9,2.3l3.4,2.4l5.9-2.3L325,354.8z     M325,354.8l-5.9,2.3l3.4,2.4l5.9-2.3L325,354.8z M325,354.8l-5.9,2.3l3.4,2.4l5.9-2.3L325,354.8z M325,354.8l-5.9,2.3l3.4,2.4    l5.9-2.3L325,354.8z M325,354.8l-5.9,2.3l3.4,2.4l5.9-2.3L325,354.8z M325,354.8l-5.9,2.3l3.4,2.4l5.9-2.3L325,354.8z M311.8,360    l3.5,2.4l6.3-2.5l-3.4-2.4L311.8,360z M325,354.9l-5.9,2.3l3.4,2.4l5.9-2.3L325,354.9z M325,354.9l-5.9,2.3l3.4,2.4l5.9-2.3    L325,354.9z M325,354.9l-5.9,2.3l3.4,2.4l5.9-2.3L325,354.9z M325,354.9l-5.9,2.3l3.4,2.4l5.9-2.3L325,354.9z M325,354.9l-5.9,2.3    l3.4,2.4l5.9-2.3L325,354.9z M325,354.9l-5.9,2.3l3.4,2.4l5.9-2.3L325,354.9z M329.3,357.9l-5.9,2.3l3.9,2.8l5.9-2.3L329.3,357.9z     M330.3,357.5l3.9,2.8l0.3-0.1l1.1-4.7L330.3,357.5z M329.4,356.9l-1,0.4l0.8,0.6l1-0.4L329.4,356.9z M329.3,357.9l-5.9,2.3    l3.9,2.8l5.9-2.3L329.3,357.9z M329.3,357.9l-5.9,2.3l3.9,2.8l5.9-2.3L329.3,357.9z M329.3,357.9l-5.9,2.3l3.9,2.8l5.9-2.3    L329.3,357.9z M335.1,354.7l0.6,0.4l0.2-0.7L335.1,354.7z M329.4,356.9l-1,0.4l0.8,0.6l1-0.4L329.4,356.9z M331.6,352.3l-5.6,2.2    l3.4,2.4l5.6-2.2L331.6,352.3z M329.4,356.9l-1,0.4l0.8,0.6l1-0.4L329.4,356.9z M329.3,357.9l-5.9,2.3l3.9,2.8l5.9-2.3    L329.3,357.9z M329.4,356.9l-1,0.4l0.8,0.6l1-0.4L329.4,356.9z M329.3,357.9l-5.9,2.3l3.9,2.8l5.9-2.3L329.3,357.9z M329.3,357.9    l-5.9,2.3l3.9,2.8l5.9-2.3L329.3,357.9z M330.3,357.5l3.9,2.8l-1,0.4l0.9,0.6l-5.9,2.3l-0.8-0.6l-1,0.4l0.9,0.6l-6.2,2.4l3,2.1    l6.1-2.4l0.9,0.6l-6.1,2.4l4,2.8l2.4,1.7l0.7-2.9l0.6-2.8l0.2-0.9l0.2-1.1l0.2-1l0.8-3.4v-0.2l0.2-0.7l0.1-0.3l1.1-4.7    L330.3,357.5z M329.3,357.9l-5.9,2.3l3.9,2.8l5.9-2.3L329.3,357.9z M329.4,356.9l-1,0.4l0.8,0.6l1-0.4L329.4,356.9z M329.3,357.9    l-5.9,2.3l3.9,2.8l5.9-2.3L329.3,357.9z M329.4,356.9l-1,0.4l0.8,0.6l1-0.4L329.4,356.9z M329.3,357.9l-5.9,2.3l3.9,2.8l5.9-2.3    L329.3,357.9z M329.4,356.9l-1,0.4l0.8,0.6l1-0.4L329.4,356.9z M329.3,357.9l-5.9,2.3l3.9,2.8l5.9-2.3L329.3,357.9z M329.4,356.9    l-1,0.4l0.8,0.6l1-0.4L329.4,356.9z M332.6,351.9l3.3,2.3l0.9-3.9L332.6,351.9z M327.6,349.5l-5.6,2.2l-0.8-0.6l5.6-2.2    L327.6,349.5l1-0.4l-0.9-0.6l6-2.3l-3-2.1l-6,2.4l-1,0.4l-5.7,2.2l-1,0.4l-5.9,2.3l-1,0.4l-6.5,2.5l3,2l6.4-2.5l0.9,0.6l-6.4,2.5    l3.2,2.2l6.4-2.5l0.8,0.6l1-0.4l-0.8-0.6l5.9-2.3l0.8,0.6l1-0.4l-0.9-0.6l5.6-2.2L327.6,349.5z M315.1,354.4l-0.9-0.6l5.9-2.3    l0.8,0.6L315.1,354.4z M334.7,345.8l-1,0.4l0.9,0.6l1-0.4L334.7,345.8z M335.5,346.4l1.9,1.3l0.5-2.2L335.5,346.4z M331.6,343.7    l3,2.1l3.5-1.4l0.9-3.7L331.6,343.7z M329.4,356.9l-1,0.4l0.8,0.6l1-0.4L329.4,356.9z M330.8,351.7l-3.2-2.2l-5.6,2.2l-1,0.4    l3.2,2.2l0.8,0.6l1-0.4l-0.9-0.6L330.8,351.7z M331.6,352.3l-5.6,2.2l3.4,2.4l5.6-2.2L331.6,352.3z M337.2,348.6l-2.6-1.8l-6,2.3    l3.2,2.2l-1,0.4l0.8,0.6l1-0.4l-0.8-0.6l5.3-2.1L337.2,348.6z M329.4,356.9l5.6-2.2l-3.4-2.4l-5.6,2.2L329.4,356.9z M330.8,351.7    l-3.2-2.2l-5.6,2.2l-1,0.4l3.2,2.2l0.8,0.6l1-0.4l-0.9-0.6L330.8,351.7z M329.3,357.9l-5.9,2.3l3.9,2.8l5.9-2.3L329.3,357.9z     M329.3,357.9l-5.9,2.3l3.9,2.8l5.9-2.3L329.3,357.9z M325,354.9l-5.9,2.3l3.4,2.4l5.9-2.3L325,354.9z M322.4,360.6l-6.3,2.4    l4,2.7l6.2-2.4L322.4,360.6z M322.5,359.6l-1,0.4l0.9,0.6l1-0.4L322.5,359.6z M329.3,357.8l-5.9,2.3l3.9,2.8l5.9-2.3L329.3,357.8z     M330.3,357.5l3.9,2.8l0.3-0.1l1.1-4.7L330.3,357.5z M329.4,356.9l-1,0.4l0.8,0.6l1-0.4L329.4,356.9z M321,352l-5.9,2.3l3.2,2.2    l5.9-2.3L321,352z M321,352l-5.9,2.3l3.2,2.2l5.9-2.3L321,352z M321,352l-5.9,2.3l3.2,2.2l5.9-2.3L321,352z" class="st5"/><path data-cppathid="10096" d="M329.8,381.3l13.5-58.9c0.5-2.2,2.1-4.1,4.2-5l72.4-30.5c1-0.4,2.1,0.1,2.5,1c0.2,0.4,0.2,0.9,0.1,1.3    L405,347.9L329.8,381.3z" class="st18"/><path data-cppathid="10097" d="M384.1,327.1c2.1,1.2,2.5,4.3,1,6.9s-4.4,3.8-6.5,2.6s-2.5-4.3-1-6.9S382,325.9,384.1,327.1z" class="st5"/></g></g></svg>