<?xml version="1.0" encoding="UTF-8"?>
<svg xmlns="http://www.w3.org/2000/svg" onmouseup="{ if(window.parent.document.onmouseup) window.parent.document.onmouseup(arguments[0]);}" xml:space="preserve" style="enable-background:new 0 0 600.2 99.5;" viewBox="0 0 600.2 99.5" y="0px" x="0px" id="Layer_1" version="1.1" xmlns:xlink="http://www.w3.org/1999/xlink"><style type="text/css">
	.st0{fill:url(#SVGID_1_);}
	.st1{fill:none;stroke:#FFFFFF;stroke-width:0.5;stroke-miterlimit:10;}
</style><linearGradient gradientTransform="matrix(1 0 0 -1 0 101)" y2="49.6256" x2="33.0802" y1="62.4956" x1="573.9301" gradientUnits="userSpaceOnUse" id="SVGID_1_"><stop style="stop-color:#3F458F" offset="0"/><stop style="stop-color:#444084" offset="7.000000e-02"/><stop style="stop-color:#542E5F" offset="0.35"/><stop style="stop-color:#5F2144" offset="0.6"/><stop style="stop-color:#671A34" offset="0.83"/><stop style="stop-color:#69172E" offset="1"/></linearGradient><path data-cppathid="10000" d="M0,1.6c23,56.8,57.5,95,118,97.5c108.3,4.6,133.4-46.5,264.3-54c41.7-2.3,85.7,18.4,138.6,2.6  c25.5-7.6,54.4-26.3,79.3-46.1L0,1.6z" class="st0"/><path data-cppathid="10001" d="M33.8,0.3C54,43.8,80.8,76.4,126.5,71.5c59.9-6.4,96.7-38.3,128.3-71.2" class="st1"/><path data-cppathid="10002" d="M454.3,0.3c7.2,14.3,16.7,25.4,33.1,27.5c18.4,2.3,37.1-8.7,55.4-27.5" class="st1"/></svg>