<?xml version="1.0" encoding="UTF-8"?>
<svg xmlns="http://www.w3.org/2000/svg" onmouseup="{ if(window.parent.document.onmouseup) window.parent.document.onmouseup(arguments[0]);}" viewBox="0 0 1958.56 1397.13" xmlns:xlink="http://www.w3.org/1999/xlink"><defs><style>.cls-1,.cls-5{fill:none;}.cls-2{clip-path:url(#clip-path);}.cls-3{opacity:0.1;}.cls-4{fill:url(#linear-gradient);}.cls-5{stroke:#fff;stroke-miterlimit:10;opacity:0.5;}.cls-6{opacity:0.05;}.cls-7{fill:#8f172e;}</style><clipPath transform="translate(341.27 -25.67)" id="clip-path"><rect data-cppathid="10000" height="627" width="1024" class="cls-1"/></clipPath><linearGradient gradientUnits="userSpaceOnUse" gradientTransform="matrix(-0.8, -0.61, 0.61, -0.8, 681, 1540.82)" y2="575.07" x2="-396.88" y1="880.28" x1="194.99" id="linear-gradient"><stop stop-color="#8f172e" offset="0"/><stop stop-color="#69172e" offset="1"/></linearGradient></defs><g data-name="Layer 2" id="Layer_2"><g data-name="Layer 1" id="Layer_1-2"><g class="cls-2"><g class="cls-3"><path data-cppathid="10001" transform="translate(341.27 -25.67)" d="M1412.06,644.86c1.06,7.35,27.6,150.92-16,165.4-26.15,8.67-12.39,17.68-122-63.69-71.8-53.28-138.61-81-202-34.43-87.33,64.2-74.94,119.78-172.35,207.51-31.06,28-78.41,39.35-109.69,84.79-29,42.18-42.58,124.27-43,157.67l397.43,260.7,472.82-621.92Z" class="cls-4"/><path data-cppathid="10002" transform="translate(341.27 -25.67)" d="M512.77,714.9c-15.93-77.07-22.92-158.09,14-180.7,42.33-26,87.54,50.37,130.49,29.34C770.59,508,679,375.68,780.92,274.26c86.66-86.23,235.71,118.82,312.36,75.58,23.49-13.24-3.7-81.63-26.89-132.1" class="cls-5"/><path data-cppathid="10003" transform="translate(341.27 -25.67)" d="M899.66,872.9c-22.21-56.42-50.06-97-28.6-109.24,19.62-11.2,61.14,70.78,76.83,63,20.5-10.19-49-149.22-17.36-173.83,16.5-12.85,63.52,3.2,188,110.91" class="cls-5"/></g><path data-cppathid="10004" transform="translate(341.27 -25.67)" d="M-340.85,970.15c33.15-50.77,50.12-97,72.53-86.56,20.49,9.52-22.34,90.83-6.89,99.11,20.17,10.82,93.33-126.32,131.7-114.78,20,6,34.16,53.65,18.35,217.47" class="cls-5"/><g class="cls-6"><rect data-cppathid="10005" transform="translate(436.16 -227.33) rotate(21.21)" rx="14" height="90.44" width="90.44" y="107.39" x="540.83" class="cls-7"/><path data-cppathid="10006" transform="translate(341.27 -25.67)" d="M1204.8,319.65,992.06,237.11a11.43,11.43,0,0,1-6.52-14.8h0a11.44,11.44,0,0,0-6.53-14.8l-95-36.85a11.43,11.43,0,0,0-14.8,6.52L844.6,240.66a11.44,11.44,0,0,1-14.8,6.53l-65.9-25.57a11.43,11.43,0,0,0-14.8,6.52l-35.53,91.59a11.43,11.43,0,0,0,6.52,14.8L755,348.06a11.44,11.44,0,0,1,6.53,14.8L685.92,557.67a11.43,11.43,0,0,1-14.8,6.52l-66.39-25.76A11.43,11.43,0,0,0,589.94,545l-34.22,88.19a11.43,11.43,0,0,0,6.52,14.8l88.2,34.22a11.43,11.43,0,0,0,14.79-6.52l25.57-65.91a11.43,11.43,0,0,1,14.8-6.52l51.85,20.12A11.43,11.43,0,0,1,764,638.13l-9,23.26a11.44,11.44,0,0,0,6.53,14.8L880.2,722.26a11.44,11.44,0,0,0,14.8-6.53l3.76-9.69a11.43,11.43,0,0,1,14.8-6.52l39.25,15.23a11.44,11.44,0,0,0,14.8-6.53l13.16-33.92a11.43,11.43,0,0,1,14.8-6.52l35.86,13.91a11.44,11.44,0,0,0,14.79-6.52l23.13-59.61a11.43,11.43,0,0,1,14.8-6.52l7.27,2.82a11.43,11.43,0,0,0,14.79-6.53l105.11-270.88A11.44,11.44,0,0,0,1204.8,319.65Z" class="cls-7"/><rect data-cppathid="10007" transform="translate(513.19 -215.79) rotate(21.21)" rx="14" height="76.93" width="76.93" y="325.66" x="555.29" class="cls-7"/><rect data-cppathid="10008" transform="translate(424.07 -333.42) rotate(21.21)" rx="14" height="70.69" width="70.69" y="31.95" x="828.02" class="cls-7"/><rect data-cppathid="10009" transform="translate(443.06 -297.44) rotate(21.21)" rx="14" height="29.63" width="29.63" y="121.19" x="761.95" class="cls-7"/><rect data-cppathid="10010" transform="translate(556.29 -188.38) rotate(21.21)" rx="14" height="32.23" width="32.23" y="476.83" x="525.98" class="cls-7"/><rect data-cppathid="10011" transform="translate(486.24 -186.14) rotate(21.21)" rx="7.05" height="14.55" width="14.55" y="299.7" x="493.8" class="cls-7"/></g></g></g></g></svg>